<svg width="285" height="27" viewBox="0 0 285 27" fill="none" xmlns="http://www.w3.org/2000/svg">
<path d="M13.3211 1.76074C6.93083 1.76074 1.75586 6.9151 1.75586 13.2243C1.75586 19.5336 6.93083 24.6699 13.3211 24.6699C19.7114 24.6699 24.8863 19.5336 24.8863 13.2243C24.8863 6.9151 19.6949 1.76074 13.3211 1.76074ZM18.7096 9.60436H7.91619V5.95001C9.42707 4.82951 11.3011 4.19153 13.3211 4.19153C15.3411 4.19153 17.1986 4.84577 18.7096 5.95001V9.60436ZM18.8573 6.0711C20.0562 7.00185 21.0416 8.20911 21.6656 9.60436H18.8573V6.0711ZM18.7096 9.74353V16.6726H7.91619V9.74353H18.7096ZM7.76838 9.60616H4.96011C5.58417 8.19283 6.55311 6.98559 7.76838 6.07291V9.60616ZM7.76838 9.74353V16.6726H4.91084C4.451 15.6045 4.20466 14.4315 4.20466 13.208C4.20466 11.9845 4.451 10.8116 4.91084 9.74353H7.76838ZM7.76838 16.828V20.3612C6.56953 19.4306 5.58417 18.2232 4.96011 16.828H7.76838ZM7.91619 16.828H18.7096V20.4823C17.1986 21.5848 15.3247 22.2408 13.3211 22.2408C11.3175 22.2408 9.44351 21.5866 7.93261 20.4823C7.91619 20.5004 7.91619 16.828 7.91619 16.828ZM18.8573 16.828H21.6656C21.0416 18.2413 20.0726 19.4486 18.8573 20.3612C18.8573 20.3793 18.8573 16.828 18.8573 16.828ZM18.8573 16.6907V9.74353H21.7313C22.1912 10.8116 22.4375 11.9845 22.4375 13.208C22.4375 14.4315 22.1912 15.6045 21.7313 16.6726H18.8573V16.6907ZM22.5871 13.2261C22.5871 12.0026 22.3408 10.8297 21.8973 9.76153H24.1637C24.5086 10.864 24.7221 12.0189 24.7221 13.2261C24.7221 14.4334 24.525 15.6045 24.1637 16.6907H21.8973C22.3408 15.6226 22.5871 14.4496 22.5871 13.2261ZM24.1144 9.60616H21.8152C21.1748 8.12418 20.1402 6.83016 18.8427 5.86507V3.34753C21.3061 4.70841 23.213 6.93317 24.1162 9.60436L24.1144 9.60616ZM18.7096 3.26259V5.76206C17.1986 4.67588 15.3247 4.03791 13.3211 4.03791C11.3175 4.03791 9.44351 4.67588 7.93261 5.76206V3.26259C9.54206 2.39871 11.365 1.91616 13.3211 1.91616C15.2772 1.91616 17.1001 2.39871 18.7096 3.26078V3.26259ZM7.76838 3.34934V5.86688C6.48741 6.8157 5.45279 8.10791 4.79588 9.60796H2.49488C3.43097 6.93679 5.31958 4.71203 7.76838 3.35115V3.34934ZM2.46203 9.72365V9.75793H4.72837C4.28495 10.8261 4.03861 11.999 4.03861 13.2225C4.03861 14.446 4.28495 15.619 4.72837 16.687H2.46203V16.7214C2.10073 15.619 1.90366 14.446 1.90366 13.2225C1.90366 11.999 2.10073 10.8261 2.46203 9.72365ZM2.5113 16.8262H4.81048C5.45096 18.3082 6.4856 19.6022 7.78298 20.5673V23.0849C5.31958 21.7402 3.42915 19.5173 2.50948 16.828L2.5113 16.8262ZM7.91619 23.1698V20.6703C9.42707 21.7565 11.3011 22.3945 13.3046 22.3945C15.3082 22.3945 17.1822 21.7565 18.6931 20.6703V23.1698C17.0837 24.0319 15.259 24.5144 13.3046 24.5144C11.3504 24.5144 9.52562 24.0319 7.91619 23.1698ZM18.8573 23.083V20.5655C20.1383 19.6167 21.173 18.3245 21.8299 16.8244H24.129C23.2093 19.4956 21.3043 21.7203 18.8555 23.0812L18.8573 23.083Z" fill="#242424"/>
<path d="M18.7983 9.69328V5.95703H7.8418V9.69328H11.4216V16.738H7.8418V20.4741H18.7983V16.738H15.2167V9.69328H18.7983Z" fill="#134387"/>
<path fill-rule="evenodd" clip-rule="evenodd" d="M135.992 7.3542C135.168 6.62612 134.209 6.04889 133.113 5.64663C132.017 5.24438 130.803 5.0332 129.509 5.0332C128.216 5.0332 126.984 5.22427 125.906 5.64663C124.81 6.04889 123.851 6.62411 123.027 7.3542C122.203 8.08227 121.577 8.94709 121.128 9.9447C120.678 10.9222 120.463 12.0364 120.463 13.205C120.463 14.3735 120.678 15.4677 121.128 16.4853C121.577 17.4829 122.206 18.3458 123.027 19.0759C123.851 19.804 124.81 20.3812 125.906 20.7834C127.002 21.1856 128.216 21.3969 129.509 21.3969C130.803 21.3969 132.035 21.2057 133.113 20.7834C134.209 20.3812 135.168 19.8059 135.992 19.0759C136.814 18.3478 137.441 17.4829 137.891 16.4853C138.34 15.4877 138.556 14.3936 138.556 13.205C138.556 12.0163 138.34 10.9423 137.891 9.9447C137.441 8.94709 136.813 8.08429 135.992 7.3542ZM134.464 16.063C133.993 16.9077 133.308 17.5594 132.466 18.038C131.624 18.5167 130.625 18.7661 129.509 18.7661C128.394 18.7661 127.413 18.5167 126.553 18.038C125.69 17.5594 125.025 16.8875 124.536 16.063C124.066 15.2182 123.812 14.2589 123.812 13.1849C123.812 12.1108 124.046 11.1514 124.536 10.3067C125.006 9.4821 125.692 8.8305 126.553 8.33165C127.415 7.85299 128.394 7.6036 129.509 7.6036C130.625 7.6036 131.624 7.85299 132.466 8.33165C133.308 8.81037 133.993 9.4821 134.464 10.3067C134.934 11.1313 135.189 12.0907 135.189 13.1849C135.189 14.2789 134.955 15.2182 134.464 16.063ZM31.4941 5.37717H34.687V21.0308H31.4941V5.37717ZM41.4031 5.37717L49.5095 16.5035V5.37717H52.6428V21.0127H49.2754L41.1485 9.84824V21.0127H38.0338V5.37717H41.4031ZM63.3364 17.6177L58.4784 5.37717H55.0124L61.6713 21.0127H64.9216L71.5803 5.37717H68.213L63.3364 17.6177ZM85.8771 21.0127H73.9704V5.37717H85.8771V7.87114H77.1611V11.8434H85.4252V14.3374H77.1611V18.5188H85.8771V21.0127ZM100.073 16.5035L91.967 5.37717H88.5982V21.0127H91.7316V9.84824L99.8396 21.0127H103.209V5.37717H100.073V16.5035ZM110.944 7.89125H105.656V5.37717H119.442V7.89125H114.137V21.0127H110.944V7.89125ZM153.596 12.6499C153.087 13.378 152.38 13.9351 151.461 14.3373H151.463C151.208 14.452 150.936 14.5485 150.66 14.6249L156.124 21.0127H152.206L147.212 14.9327H144.628V21.0328H141.435V5.37915H148.289C149.502 5.37915 150.541 5.57222 151.461 5.97448C152.383 6.37874 153.087 6.93385 153.596 7.64382C154.105 8.35383 154.36 9.18044 154.36 10.1378C154.36 11.0951 154.105 11.9218 153.596 12.6499ZM148.27 7.87311H144.607V12.4568H148.27C149.171 12.4568 149.858 12.2456 150.366 11.8434C150.875 11.4209 151.131 10.8659 151.131 10.1559C151.131 9.44594 150.875 8.88884 150.366 8.48654C149.858 8.06418 149.151 7.87311 148.27 7.87311ZM168.558 14.8543C168.558 16.0429 168.205 17.0023 167.48 17.7123C166.756 18.4222 165.758 18.7681 164.485 18.7681C163.212 18.7681 162.232 18.4222 161.528 17.7123C160.824 17.0023 160.45 16.0429 160.45 14.8543V5.37717H157.258V14.8543C157.258 16.9258 157.904 18.5188 159.196 19.6491C160.487 20.7995 162.25 21.3748 164.483 21.3748C166.715 21.3748 168.517 20.7995 169.79 19.6491C171.082 18.4986 171.729 16.9057 171.729 14.8543V5.37717H168.556V14.8543H168.558ZM187.766 14.1784C187.767 14.1798 187.768 14.1811 187.769 14.1825L187.766 14.1784ZM185.594 12.5896C186.572 13.011 187.296 13.5287 187.766 14.1784H187.746C188.217 14.8321 188.451 15.5983 188.451 16.4813C188.451 17.4789 188.157 18.3437 187.549 19.0718C186.944 19.7999 186.12 20.357 185.063 20.7593C184.024 21.1635 182.789 21.3546 181.4 21.3546C179.794 21.3546 178.344 21.0851 177.053 20.5481C175.78 20.011 174.704 19.3212 173.841 18.4382L175.996 16.4431C176.406 16.9217 176.897 17.3442 177.484 17.6901C178.071 18.036 178.698 18.3055 179.384 18.4966C180.069 18.6876 180.775 18.7842 181.479 18.7842C182.264 18.7842 182.908 18.6876 183.478 18.5147C184.046 18.3417 184.476 18.0923 184.789 17.7665C185.084 17.4407 185.24 17.0565 185.24 16.6161C185.24 16.0408 184.925 15.5601 184.319 15.2162C183.714 14.8723 182.636 14.5826 181.069 14.3534C179.541 14.1422 178.307 13.8546 177.349 13.4523C176.39 13.0702 175.683 12.5714 175.233 11.9761C174.802 11.4009 174.568 10.6909 174.568 9.86624C174.568 8.92704 174.862 8.08227 175.431 7.3542C176 6.62411 176.802 6.04889 177.8 5.64663C178.8 5.22427 179.956 5.0332 181.248 5.0332C182.775 5.0332 184.105 5.3007 185.301 5.81961C186.496 6.3365 187.494 7.04647 188.317 7.92942L186.181 9.90445C185.574 9.19451 184.851 8.61925 184.028 8.1969C183.204 7.77455 182.285 7.56336 181.266 7.56336C180.248 7.56336 179.406 7.75444 178.759 8.13859C178.112 8.52278 177.78 9.02154 177.78 9.67314C177.78 10.0192 177.917 10.3067 178.172 10.5561C178.426 10.7854 178.857 10.9966 179.445 11.1696C180.034 11.3224 180.837 11.4773 181.835 11.6302C183.381 11.8615 184.615 12.1671 185.594 12.5896Z" fill="#242424"/>
<path fill-rule="evenodd" clip-rule="evenodd" d="M195.061 21.3969V5.0332H195.887V21.3969H195.061Z" fill="#242424"/>
<path d="M269.741 20.5829H268.932L266.784 15.8293L267.379 15.8129V21.2211H266.305V15.3711H267.577L269.559 19.8384H269.122L271.121 15.3711H272.385V21.2211H271.294V15.8129L271.914 15.8293L269.741 20.5829Z" fill="#242424"/>
<path d="M263.723 21.2211V16.312H262.575C262.305 16.312 262.09 16.3883 261.93 16.5411C261.776 16.6938 261.699 16.9011 261.699 17.1629C261.699 17.4247 261.776 17.632 261.93 17.7847C262.09 17.9375 262.305 18.0138 262.575 18.0138H263.855V18.9547H262.575C262.178 18.9547 261.828 18.8811 261.526 18.7338C261.222 18.5811 260.985 18.3711 260.815 18.1038C260.65 17.8311 260.567 17.5174 260.567 17.1629C260.567 16.8029 260.65 16.4893 260.815 16.222C260.985 15.9547 261.222 15.7475 261.526 15.6002C261.828 15.4474 262.178 15.3711 262.575 15.3711H264.838V21.2211H263.723ZM260.154 21.2211L261.988 18.4965H263.211L261.46 21.2211H260.154Z" fill="#242424"/>
<path d="M254.398 21.2211V15.3711H255.514V20.1329L255.167 20.0184L258.025 15.3711H259.198V21.2211H258.083V16.5493L258.388 16.5738L255.563 21.2211H254.398Z" fill="#242424"/>
<path d="M252.62 20.6402H251.505V15.3711H252.62V20.6402ZM252.232 22.6447V21.0165L252.439 21.2211H247.92V15.3711H249.035V20.4765L248.829 20.272H253.281V22.6447H252.232Z" fill="#242424"/>
<path d="M245.755 19.9447H242.426V19.0038H245.755V19.9447ZM246.928 21.2211H245.722L243.921 16.1647H244.243L242.434 21.2211H241.277L243.483 15.3711H244.722L246.928 21.2211Z" fill="#242424"/>
<path d="M236.285 21.2211V15.3711H238.681C239.044 15.3711 239.361 15.4338 239.631 15.5593C239.907 15.6847 240.121 15.862 240.275 16.0911C240.43 16.3202 240.506 16.5875 240.506 16.8929C240.506 17.182 240.43 17.4384 240.275 17.662C240.121 17.8856 239.907 18.0602 239.631 18.1856C239.361 18.3057 239.044 18.3656 238.681 18.3656H237.475V17.9484H238.73C239.138 17.9484 239.49 18.0138 239.788 18.1447C240.091 18.2702 240.325 18.4529 240.49 18.6929C240.655 18.9275 240.738 19.2057 240.738 19.5275C240.738 19.8656 240.653 20.1629 240.482 20.4193C240.316 20.6756 240.083 20.8748 239.779 21.0165C239.482 21.1529 239.133 21.2211 238.73 21.2211H236.285ZM237.4 20.2884H238.739C239.009 20.2884 239.221 20.2174 239.375 20.0756C239.535 19.9284 239.614 19.7265 239.614 19.4702C239.614 19.2247 239.535 19.0311 239.375 18.8893C239.221 18.7475 239.009 18.6765 238.739 18.6765H237.318V17.7684H238.615C238.852 17.7684 239.039 17.7029 239.176 17.572C239.314 17.4356 239.383 17.2502 239.383 17.0156C239.383 16.7974 239.314 16.6256 239.176 16.5002C239.039 16.3693 238.852 16.3038 238.615 16.3038H237.4V20.2884Z" fill="#242424"/>
<path d="M232.13 21.3521C231.701 21.3521 231.304 21.2756 230.941 21.123C230.577 20.9702 230.261 20.7575 229.991 20.4848C229.726 20.212 229.52 19.8902 229.371 19.5193C229.228 19.143 229.156 18.7339 229.156 18.2921C229.156 17.8502 229.228 17.4438 229.371 17.073C229.52 16.702 229.726 16.3802 229.991 16.1075C230.261 15.8347 230.577 15.622 230.941 15.4693C231.304 15.3166 231.701 15.2402 232.13 15.2402C232.56 15.2402 232.954 15.3166 233.311 15.4693C233.675 15.622 233.989 15.8375 234.253 16.1157C234.523 16.3884 234.732 16.7102 234.881 17.0811C235.03 17.4465 235.104 17.8502 235.104 18.2921C235.104 18.7339 235.03 19.1402 234.881 19.5111C234.732 19.882 234.523 20.2066 234.253 20.4848C233.989 20.7575 233.675 20.9702 233.311 21.123C232.954 21.2756 232.56 21.3521 232.13 21.3521ZM232.13 20.3621C232.489 20.3621 232.803 20.2721 233.072 20.0921C233.342 19.9121 233.551 19.6666 233.7 19.3557C233.854 19.0448 233.931 18.6902 233.931 18.2921C233.931 17.8884 233.854 17.5338 233.7 17.2284C233.551 16.9175 233.342 16.6748 233.072 16.5002C232.803 16.3202 232.489 16.2302 232.13 16.2302C231.778 16.2302 231.464 16.3202 231.188 16.5002C230.919 16.6748 230.707 16.9175 230.552 17.2284C230.404 17.5338 230.329 17.8884 230.329 18.2921C230.329 18.6902 230.404 19.0475 230.552 19.3639C230.707 19.6748 230.919 19.9202 231.188 20.1002C231.464 20.2748 231.778 20.3621 232.13 20.3621Z" fill="#242424"/>
<path d="M226.861 21.2211V15.3711H227.976V21.2211H226.861ZM224.309 21.2211H223.193V15.3711H224.309V21.2211ZM224.226 18.6929V17.7356H226.936V18.6929H224.226Z" fill="#242424"/>
<path d="M220.609 21.2211V15.3711H221.724V21.2211H220.609ZM218.057 21.2211H216.941V15.3711H218.057V21.2211ZM217.974 18.6929V17.7356H220.684V18.6929H217.974Z" fill="#242424"/>
<path d="M210.68 21.2211V15.3711H211.795V20.1329L211.448 20.0184L214.306 15.3711H215.479V21.2211H214.364V16.5493L214.67 16.5738L211.844 21.2211H210.68Z" fill="#242424"/>
<path d="M203.898 21.2211H202.783V15.3711H203.898V21.2211ZM207.888 21.2211H206.393L203.7 18.1856H203.824L206.195 15.3711H207.566L205.022 18.3002V18.0711L207.888 21.2211Z" fill="#242424"/>
<path d="M278.777 11.4027V5.55273H279.893V10.5845L279.769 10.4618H281.156C281.426 10.4618 281.638 10.3827 281.793 10.2245C281.952 10.0664 282.032 9.84818 282.032 9.57C282.032 9.2973 281.952 9.08727 281.793 8.94C281.638 8.78724 281.426 8.71091 281.156 8.71091H279.29V7.76183H281.156C281.558 7.76183 281.908 7.83819 282.206 7.99092C282.508 8.13819 282.743 8.34821 282.908 8.62091C283.078 8.88821 283.164 9.20452 283.164 9.57C283.164 9.93548 283.078 10.2573 282.908 10.5355C282.743 10.8082 282.508 11.0209 282.206 11.1736C281.908 11.3264 281.558 11.4027 281.156 11.4027H278.777Z" fill="#242424"/>
<path d="M276.048 11.4027H274.941V6.42819H276.048V11.4027ZM277.775 6.51001H273.215V5.55273H277.775V6.51001Z" fill="#242424"/>
<path d="M268.125 11.4027V10.4455H268.869C269.045 10.4455 269.193 10.4154 269.315 10.3555C269.436 10.2955 269.546 10.1945 269.645 10.0527C269.75 9.91094 269.854 9.71457 269.959 9.46363L271.669 5.55273H272.801L270.694 10.1591C270.557 10.4536 270.405 10.6936 270.24 10.8791C270.081 11.0646 269.893 11.1982 269.678 11.28C269.469 11.3618 269.222 11.4027 268.935 11.4027H268.125ZM269.835 10.1182L267.688 5.55273H268.819L270.67 9.57818L269.835 10.1182Z" fill="#242424"/>
<path d="M262.07 11.4027V5.55273H266.804V11.4027H265.689V5.75728L266.267 6.51001H262.566L263.186 5.76546V11.4027H262.07Z" fill="#242424"/>
<path d="M256.108 10.7645H255.299L253.151 6.01092L253.746 5.99455V11.4027H252.672V5.55273H253.944L255.927 10.02H255.489L257.488 5.55273H258.752V11.4027H257.661V5.99455L258.281 6.01092L256.108 10.7645Z" fill="#242424"/>
<path d="M251.553 11.4027H247.621V5.55273H251.553V6.49364H248.736V10.4618H251.553V11.4027ZM251.405 8.91545H248.654V7.96637H251.405V8.91545Z" fill="#242424"/>
<path d="M245.456 10.1264H242.127V9.18545H245.456V10.1264ZM246.629 11.4027H245.423L243.622 6.34637H243.944L242.135 11.4027H240.979L243.184 5.55273H244.423L246.629 11.4027Z" fill="#242424"/>
<path d="M236.517 10.9036H235.402V5.55273H236.517V10.9036ZM239.681 10.8627H238.566V5.55273H239.681V10.8627ZM239.293 12.8264V11.1982L239.499 11.4027H232.246V5.55273H233.361V10.6582L233.155 10.4536H240.35V12.8264H239.293Z" fill="#242424"/>
<path d="M230.079 10.1264H226.75V9.18545H230.079V10.1264ZM231.252 11.4027H230.046L228.245 6.34637H228.567L226.758 11.4027H225.602L227.807 5.55273H229.046L231.252 11.4027Z" fill="#242424"/>
<path d="M222.502 11.4027H221.387V5.55273H223.658C224.055 5.55273 224.402 5.6291 224.699 5.78183C225.003 5.9291 225.236 6.13637 225.402 6.40364C225.573 6.67092 225.658 6.98455 225.658 7.34455C225.658 7.6991 225.573 8.01274 225.402 8.28545C225.236 8.55275 225.003 8.7627 224.699 8.91545C224.402 9.06273 224.055 9.13636 223.658 9.13636H222.419V8.18727H223.658C223.929 8.18727 224.14 8.11092 224.295 7.95819C224.454 7.80546 224.534 7.60091 224.534 7.34455C224.534 7.07728 224.454 6.87001 224.295 6.72273C224.14 6.57 223.929 6.49364 223.658 6.49364H222.502V11.4027Z" fill="#242424"/>
<path d="M216.459 11.4027H215.344V5.55273H216.459V11.4027ZM220.449 11.4027H218.954L216.261 8.36727H216.385L218.755 5.55273H220.127L217.582 8.48182V8.25273L220.449 11.4027Z" fill="#242424"/>
<path d="M211.189 11.5337C210.759 11.5337 210.363 11.4573 209.999 11.3046C209.636 11.1519 209.319 10.9392 209.049 10.6665C208.785 10.3937 208.578 10.0719 208.43 9.70101C208.286 9.32464 208.215 8.91555 208.215 8.47373C208.215 8.03188 208.286 7.62552 208.43 7.2546C208.578 6.8837 208.785 6.56188 209.049 6.28915C209.319 6.01642 209.636 5.8037 209.999 5.65097C210.363 5.49824 210.759 5.42188 211.189 5.42188C211.618 5.42188 212.012 5.49824 212.37 5.65097C212.734 5.8037 213.047 6.01915 213.312 6.29733C213.581 6.57006 213.791 6.89188 213.94 7.26278C214.088 7.62824 214.163 8.03188 214.163 8.47373C214.163 8.91555 214.088 9.32186 213.94 9.69283C213.791 10.0637 213.581 10.3883 213.312 10.6665C213.047 10.9392 212.734 11.1519 212.37 11.3046C212.012 11.4573 211.618 11.5337 211.189 11.5337ZM211.189 10.5437C211.546 10.5437 211.86 10.4537 212.131 10.2737C212.4 10.0937 212.61 9.84828 212.758 9.53737C212.912 9.22646 212.99 8.87186 212.99 8.47373C212.99 8.07006 212.912 7.71552 212.758 7.41006C212.61 7.09915 212.4 6.85643 212.131 6.68188C211.86 6.50188 211.546 6.41188 211.189 6.41188C210.836 6.41188 210.522 6.50188 210.247 6.68188C209.977 6.85643 209.765 7.09915 209.611 7.41006C209.462 7.71552 209.388 8.07006 209.388 8.47373C209.388 8.87186 209.462 9.22916 209.611 9.54555C209.765 9.85646 209.977 10.1019 210.247 10.2819C210.522 10.4564 210.836 10.5437 211.189 10.5437Z" fill="#242424"/>
<path d="M206.972 9.69283L207.698 10.4374C207.445 10.781 207.118 11.051 206.715 11.2474C206.313 11.4383 205.887 11.5337 205.435 11.5337C205.011 11.5337 204.62 11.4601 204.262 11.3128C203.904 11.1601 203.59 10.9473 203.32 10.6746C203.056 10.4019 202.852 10.0774 202.709 9.70101C202.566 9.32464 202.494 8.91555 202.494 8.47373C202.494 8.03188 202.566 7.62552 202.709 7.2546C202.858 6.87824 203.064 6.5537 203.328 6.28097C203.593 6.00824 203.907 5.79824 204.27 5.65097C204.639 5.49824 205.038 5.42188 205.468 5.42188C205.92 5.42188 206.338 5.51733 206.724 5.70824C207.114 5.8937 207.44 6.1637 207.698 6.51824L206.972 7.26278C206.796 6.99006 206.575 6.78006 206.311 6.63278C206.052 6.48551 205.768 6.41188 205.46 6.41188C205.113 6.41188 204.801 6.49915 204.526 6.67369C204.256 6.84824 204.045 7.09097 203.89 7.40188C203.742 7.71278 203.667 8.07006 203.667 8.47373C203.667 8.87734 203.742 9.23734 203.89 9.55373C204.045 9.86464 204.256 10.1073 204.526 10.2819C204.796 10.4564 205.107 10.5437 205.46 10.5437C205.768 10.5437 206.052 10.4701 206.311 10.3228C206.575 10.1756 206.796 9.96553 206.972 9.69283Z" fill="#242424"/>
</svg>
