<svg width="285" height="72" viewBox="0 0 285 72" fill="none" xmlns="http://www.w3.org/2000/svg">
<g clip-path="url(#clip0_4518_956)">
<path d="M78.6846 35.0448C78.609 15.7051 60.9891 0 39.3423 0C17.6955 0 0 15.7896 0 35.1801C0 54.5706 17.6577 70.3602 39.3423 70.3602C39.3423 70.3602 39.3423 70.3602 39.3612 70.3602H78.6846V35.0618V35.0448ZM2.15522 35.1632C2.13632 16.8378 18.8298 1.91031 39.3423 1.91031C59.8547 1.91031 75.7542 16.1784 76.4726 33.946H37.9811V68.3653C18.1114 67.7229 2.15522 53.0829 2.15522 35.1632ZM76.5105 35.8563C76.0945 53.6408 60.0249 68.0272 40.1363 68.3822V35.8563H76.5105ZM76.5483 68.433H52.0468C63.5224 64.9166 72.6159 56.8021 76.5483 46.5236V68.433Z" fill="#1D1D1B"/>
<path d="M253.939 56.903C245.223 56.903 238.852 50.8847 238.852 42.449C238.852 34.0132 245.223 27.9272 253.844 27.9272C260.121 27.9272 265.509 30.7166 267.418 35.8728H285C282.58 22.8725 271.899 12.7462 253.844 12.7462C243.068 12.7462 233.785 17.3783 228.057 24.6476V14.1832H204.274L192.061 49.7859L179.848 14.1832H156.235V21.892C151.566 15.823 144.192 12.5771 134.683 12.5771C124.531 12.5771 115.475 16.2625 109.369 22.4499L121.184 31.3421C124.417 28.2992 129.125 26.0676 134.059 26.0676C140.336 26.0676 145.005 29.6854 145.005 35.1458V36.1094H129.654C114.662 36.1094 103.98 43.328 103.98 54.0122C103.98 64.6964 114.208 71.9996 128.841 71.9996C138.653 71.9996 147.085 68.6016 152.265 63.3102L159.355 70.3935H173.099V38.8819L183.875 70.3935H200.209L210.985 39.0341V70.3935H228.038V59.9967C233.842 67.3168 243.257 71.9996 254.184 71.9996C267.834 71.9996 278.61 65.2543 283.715 55.2294L269.063 48.4842C265.679 53.6234 261.35 56.903 253.901 56.903H253.939ZM130.751 59.1515C124.644 59.1515 120.315 56.5818 120.315 52.8119C120.315 49.5154 123.737 47.5713 128.501 47.5713H145.251L145.194 48.2306C144.665 54.7392 138.634 59.1515 130.751 59.1515Z" fill="#1D1D1B"/>
</g>
<defs>
<clipPath id="clip0_4518_956">
<rect width="285" height="72" fill="white"/>
</clipPath>
</defs>
</svg>
