<svg width="182" height="45" viewBox="0 0 182 45" fill="none" xmlns="http://www.w3.org/2000/svg">
<path d="M21.3496 2C32.0295 2 40.7002 10.7235 40.7002 21.5C40.7002 32.2765 32.0295 41 21.3496 41C10.67 40.9997 2 32.2763 2 21.5C2 10.7237 10.67 2.00026 21.3496 2Z" fill="white" stroke="#003B4B" stroke-width="2"/>
<path d="M12.7077 21.7997V19.0277H16.0737L19.0107 11.7017H23.7297L31.6827 31.6667H27.7557L23.9937 21.7997H18.3177L14.4897 31.6667H10.9587L14.8857 21.7997H12.7077ZM23.0037 19.0277L21.2547 14.5397L19.4727 19.0277H23.0037Z" fill="#003B4B"/>
<path d="M114.993 2C125.673 2 134.344 10.7235 134.344 21.5C134.344 32.2765 125.673 41 114.993 41C104.314 40.9997 95.6436 32.2763 95.6436 21.5C95.6436 10.7237 104.314 2.00026 114.993 2Z" fill="white" stroke="#003B4B" stroke-width="2"/>
<path d="M122.886 32.0515H119.355V14.8915H110.181V32.0515H106.617V12.0865H122.886V32.0515Z" fill="#003B4B"/>
<path d="M161.649 2C172.329 2 181 10.7235 181 21.5C181 32.2765 172.329 41 161.649 41C150.97 40.9997 142.3 32.2763 142.3 21.5C142.3 10.7237 150.97 2.00026 161.649 2Z" fill="white" stroke="#003B4B" stroke-width="2"/>
<path d="M163.022 28.6022C164.98 28.6022 167.18 27.8212 169.622 26.2592L171.305 28.4702C169.391 30.0542 166.982 30.9892 164.078 31.2752H163.55L163.022 31.3082C160.514 31.4622 158.072 30.6152 155.696 28.7672C153.518 27.0732 152.429 24.4992 152.429 21.0452C152.429 17.7672 153.529 15.2482 155.729 13.4882C158.017 11.6622 160.503 10.7932 163.187 10.8812L164.21 10.9142C164.21 10.9142 164.408 10.9142 164.804 10.9142C165.244 11.0022 165.915 11.1452 166.817 11.3432C167.125 11.4312 167.631 11.6182 168.335 11.9042C169.479 12.3882 170.447 12.9052 171.239 13.4552L169.556 15.7982C167.378 14.3682 165.299 13.6532 163.319 13.6532C161.273 13.6532 159.557 14.3682 158.171 15.7982C156.785 17.2062 156.092 18.9442 156.092 21.0122C156.092 23.1462 156.708 24.9282 157.94 26.3582C159.238 27.8542 160.932 28.6022 163.022 28.6022Z" fill="#003B4B"/>
<path d="M68.0059 2C78.6857 2 87.3564 10.7235 87.3564 21.5C87.3564 32.2765 78.6857 41 68.0059 41C57.3262 40.9997 48.6562 32.2763 48.6562 21.5C48.6562 10.7237 57.3262 2.00026 68.0059 2Z" stroke="#F17500" stroke-width="2"/>
<ellipse cx="68.1722" cy="21.3334" rx="17.5375" ry="17.6667" fill="#F17500"/>
<rect x="58" y="26.1841" width="9.92687" height="2.66667" fill="white"/>
<rect width="2.75553" height="3.45499" transform="matrix(0.817422 0.576039 -0.57039 0.821374 168.146 13.0676)" fill="#003B4B"/>
<rect x="105" y="12.0801" width="2" height="3" fill="#003B4B"/>
<path d="M60.1565 12.035H68.2745C70.3205 12.035 71.9925 12.42 73.2905 13.19C74.8525 14.114 75.6335 15.533 75.6335 17.447C75.6335 19.405 74.9955 20.89 73.7195 21.902C72.5755 22.804 70.9915 23.255 68.9675 23.255H63.6875V32H60.1565V12.035ZM63.6875 20.483H68.8025C69.7045 20.483 70.4745 20.263 71.1125 19.823C71.8385 19.295 72.2015 18.602 72.2015 17.744C72.2015 16.798 71.8055 16.061 71.0135 15.533C70.3315 15.071 69.4845 14.84 68.4725 14.84H63.6875V20.483Z" fill="white"/>
</svg>
