<svg width="284" height="47" viewBox="0 0 284 47" fill="none" xmlns="http://www.w3.org/2000/svg">
<g clip-path="url(#clip0_4518_757)">
<path d="M59.2607 46.2771V0.723222H92.0797C97.8854 0.723222 101.676 0.723222 103.541 0.873863C105.285 1.0245 107.181 1.17515 109.196 1.59694C113.708 2.47066 116.747 5.09181 118.07 9.30976C118.642 10.9066 118.942 12.654 119.093 14.4014C119.243 16.2995 119.394 19.0713 119.394 22.6867C119.394 26.754 119.544 29.8271 119.243 31.9963C119.093 34.045 118.672 36.0636 118.07 37.6604C116.777 41.5771 113.708 44.0476 109.497 45.0719C107.451 45.4937 105.436 45.795 103.12 45.9457C100.954 46.0963 97.1634 46.0963 92.0797 46.0963H59.2607V46.2469V46.2771ZM72.9177 34.6476H92.2301C95.8699 34.6476 98.487 34.4969 100.081 34.3463C101.826 34.045 102.999 33.7739 103.571 33.1713C104.293 32.5989 104.864 31.5745 105.165 30.1283C105.466 28.6822 105.586 26.6335 105.586 23.7412C105.586 20.8489 105.436 18.8001 105.165 17.354C104.864 15.9078 104.443 14.8835 103.721 14.1604C102.999 13.2867 101.826 12.8649 100.382 12.5636C98.9382 12.2623 96.1707 12.2623 91.8089 12.2623H72.9177V34.6777V34.6476ZM123.034 0.723222H137.563V16.4501H123.034V0.723222ZM137.713 20.3668V46.2771H123.184V20.3668H137.713ZM283.699 32.2976C283.699 35.0694 283.128 37.2386 282.406 39.2873C281.112 42.7822 278.345 44.9514 273.983 45.6745C269.35 46.5482 262.221 46.8495 252.475 46.8495C246.819 46.8495 242.157 46.6989 238.817 46.4277C235.478 46.1264 232.711 45.7046 230.545 44.9816C227.056 43.8066 224.89 41.4867 224.168 37.8412C223.747 36.0937 223.596 33.4726 223.596 30.4296H237.554C237.554 31.7251 237.704 32.5989 237.855 33.0508C238.005 33.4726 238.306 33.9245 238.727 34.2258C239.449 34.7982 241.194 35.0995 243.661 35.2501C245.977 35.4008 249.316 35.4008 253.828 35.4008C256.866 35.4008 260.085 35.4008 263.274 35.2501C265.019 35.2501 268.057 35.2501 269.531 34.5271C270.403 34.1053 270.824 33.0809 270.824 31.9059C270.824 30.6104 270.102 30.1585 268.929 29.8572C268.508 29.7066 267.335 29.7066 265.59 29.5559C256.596 28.9835 247.571 28.5316 238.577 27.9591C234.666 27.6578 229.432 27.6578 226.665 24.4642C224.348 21.8431 223.897 17.9264 223.897 14.5822C223.897 11.8104 224.469 9.64117 225.191 7.59245C226.484 4.09758 229.252 1.92835 233.613 1.20527C238.276 0.331556 245.375 0.0302734 255.122 0.0302734C260.777 0.0302734 265.44 0.180914 268.779 0.452068C272.118 0.75335 274.885 1.17515 277.051 1.89822C280.541 3.07322 282.706 5.39309 283.428 9.03861C283.88 10.786 284 13.4072 284 16.4501H270.042C270.042 15.1546 269.892 14.2809 269.741 13.829C269.591 13.4072 269.32 12.9553 268.869 12.654C268.147 12.0816 266.402 11.7803 263.936 11.6296C261.619 11.479 258.28 11.479 253.768 11.479C250.73 11.479 247.511 11.479 244.322 11.6296C242.578 11.6296 239.539 11.6296 238.065 12.3527C237.193 12.7745 236.772 13.7989 236.772 14.9739C236.772 16.2694 237.494 16.7213 238.667 17.0226C239.088 17.1732 240.261 17.1732 242.006 17.3239C251.001 17.8963 260.025 18.3482 269.019 18.9207C272.93 19.2219 278.164 19.2219 280.932 22.4155C283.248 25.0367 283.699 28.9534 283.699 32.2976ZM205.397 0.723222H219.926V16.4501H205.397V0.723222ZM220.077 20.3668V46.2771H205.547V20.3668H220.077ZM171.706 20.3668H201.637V21.5418C201.637 27.929 201.637 32.9001 201.336 36.0937C200.764 41.336 197.696 44.5296 192.191 45.7046C189.875 46.1264 187.258 46.4277 184.189 46.729C181.151 46.8796 176.639 47.0303 170.382 47.0303C162.531 47.0303 157.026 46.8796 153.837 46.4578C150.648 46.036 148.031 45.1623 146.136 43.9873C144.843 43.1136 143.82 41.9386 143.218 40.6431C142.496 39.3476 142.045 37.4495 141.774 35.2501C141.474 33.2014 141.353 29.1341 141.353 22.8976C141.353 18.6796 141.504 15.6367 141.654 13.4373C141.955 11.3886 142.376 9.37002 142.948 7.77322C144.241 4.27835 147.009 2.10912 151.37 1.38604C156.033 0.512325 163.132 0.211043 172.879 0.211043C178.534 0.211043 183.197 0.361684 186.536 0.632837C189.875 0.93412 192.642 1.35591 194.808 2.07899C198.298 3.25399 200.464 5.57386 201.185 9.21938C201.607 10.9668 201.757 13.588 201.757 16.6309H187.799C187.799 15.3354 187.649 14.4617 187.498 14.0098C187.348 13.5578 187.077 13.136 186.626 12.8348C185.904 12.2623 184.159 11.961 181.693 11.8104C179.376 11.6598 176.037 11.6598 171.525 11.6598C166.742 11.6598 163.253 11.8104 161.207 11.961C159.162 12.2623 157.718 12.5335 156.996 13.2566C156.274 13.829 155.702 14.8533 155.401 16.2995C155.101 17.7457 154.98 20.0957 154.98 23.5604C154.98 27.3566 155.131 29.6764 155.401 31.1226C155.702 32.5687 156.123 33.7437 156.996 34.3162C157.718 34.8886 158.74 35.3405 159.914 35.3405C161.087 35.4912 164.997 35.6418 171.375 35.6418C177.752 35.6418 181.542 35.4912 182.836 35.4912C184.129 35.3405 185.302 35.1899 186.024 34.9187C186.746 34.6175 187.198 34.1957 187.468 33.4726C187.769 32.7495 187.889 31.8758 187.889 30.5501V29.6764H171.345V20.3668H171.645H171.706ZM0 46.2771H45.6036V0.723222H0V46.2469V46.2771Z" fill="#0099D6"/>
</g>
<defs>
<clipPath id="clip0_4518_757">
<rect width="284" height="47" fill="white"/>
</clipPath>
</defs>
</svg>
