<svg width="285" height="122" viewBox="0 0 285 122" fill="none" xmlns="http://www.w3.org/2000/svg">
<g clip-path="url(#clip0_4518_934)">
<path d="M284.865 91.3955H0V122H284.865V91.3955Z" fill="#1E1E1C"/>
<path d="M116.418 0H0V83.4251H116.418V0Z" fill="#E21F2F"/>
<path d="M116.385 0H285V83.4251H116.385V0Z" fill="#1E1E1C"/>
<path d="M58.0224 28.0466L62.2564 26.3514V20.8789H21.2373V26.3514L26.0471 27.9871C26.1149 37.326 24.3874 46.5756 20.8647 55.4089H15.75V71.2017H24.9293L26.2504 62.5469H53.4158L54.7368 71.2017H63.9162V55.4089H57.9885V28.0764L58.0224 28.0466ZM44.1348 55.3792H33.1941C35.2265 46.3675 36.4459 37.207 36.7846 28.0466H43.9655L44.1348 55.3792ZM108.018 37.4747V55.4089L111.608 57.0447V62.5469H91.759V57.1339L95.3495 55.4981V45.5049L83.2233 62.5469H68.6583V57.1339L72.2487 55.4981V37.4747L68.6583 35.8389V30.3367H88.5412V35.8389L84.9507 37.4747V46.9623L96.7382 30.426H111.642V35.9282L108.018 37.4747Z" fill="white"/>
<path d="M265.455 37.5045V55.4386L269.046 57.0744V62.5766H249.197V57.1636L252.787 55.5279V42.8877L245.098 57.3421H236.495L228.636 42.8579V55.4981L232.227 57.1339V62.6361H214.613V57.1636L218.204 55.5279V37.5045L214.613 35.8687V30.3665H234.395L242.253 44.7911L249.874 30.3665H269.114V35.8687L265.489 37.5045H265.455ZM139.282 49.5498L143.245 46.3972L156.455 62.6956H170.817V57.1636L166.583 55.5279L152.593 38.5454L165.296 28.0466L170.071 26.3811V20.8789H148.529V26.3514L151.645 27.5113L139.316 38.3967V28.0169L143.55 26.3514V20.8789H121.16V26.3514L125.394 28.0169V55.4386L121.16 57.1636V62.6658H143.55V57.1636L139.316 55.5279V49.5498H139.282ZM210.108 46.3972C210.345 49.0442 209.803 51.6615 208.55 54.0705C207.297 56.4796 205.366 58.5318 202.927 60.0783C199.202 62.071 194.934 63.1417 190.598 63.1417C186.262 63.1417 181.961 62.071 178.269 60.0783C175.898 58.502 174.001 56.4201 172.781 54.0408C171.562 51.6317 171.054 49.0145 171.325 46.3972C171.088 43.7799 171.562 41.1627 172.781 38.7536C174.001 36.3445 175.898 34.2626 178.269 32.7161C181.994 30.7234 186.262 29.6824 190.598 29.6824C194.934 29.6824 199.202 30.7234 202.927 32.7161C205.332 34.2924 207.263 36.3743 208.482 38.7833C209.702 41.1924 210.21 43.8394 209.939 46.4864L210.074 46.3972H210.108ZM195.747 46.3972C196.085 43.661 195.509 40.9247 194.121 38.4562C193.748 37.9208 193.206 37.5045 192.563 37.2368C191.919 36.9691 191.208 36.8501 190.53 36.8799C189.819 36.8501 189.108 36.9691 188.498 37.2368C187.854 37.5045 187.346 37.9506 186.94 38.4562C185.585 40.9247 185.009 43.661 185.314 46.3972C185.009 49.1334 185.551 51.8696 186.94 54.3382C187.312 54.8735 187.854 55.2899 188.464 55.5873C189.108 55.8848 189.819 56.0037 190.496 55.9442C191.208 56.0037 191.919 55.8848 192.563 55.5873C193.206 55.2899 193.714 54.8735 194.087 54.3382C195.476 51.9291 196.051 49.1929 195.78 46.4864L195.713 46.3972H195.747Z" fill="white"/>
<path d="M33.5007 113.316V113.881H29.2666L27.6069 110.491H18.3937L16.7001 113.881H12.6016V113.316L20.7986 97.5234H25.473L33.5007 113.316ZM26.0149 107.279L23.0003 101.211L19.9857 107.279H26.0149Z" fill="white"/>
<path d="M52.4671 110.103V110.371C52.4671 110.877 52.3655 111.382 52.0946 111.828C51.8236 112.274 51.451 112.661 50.9429 112.959C49.6219 113.643 48.1315 113.94 46.6073 113.88H35.8359V101.419H46.1331C47.6573 101.33 49.1816 101.627 50.5026 102.311C51.0106 102.579 51.3832 102.965 51.6542 103.411C51.9252 103.858 52.0607 104.363 52.0268 104.869V105.136C52.0268 105.642 51.8913 106.118 51.5865 106.564C51.2816 106.98 50.8413 107.337 50.3332 107.546C50.9429 107.724 51.4849 108.081 51.8575 108.557C52.23 109.033 52.4333 109.568 52.4333 110.163L52.4671 110.103ZM39.9345 104.036V106.356H45.896C46.404 106.356 46.946 106.296 47.3863 106.058C47.5218 105.969 47.6573 105.88 47.7589 105.731C47.8605 105.612 47.8944 105.434 47.8944 105.285V105.018C47.8944 104.363 47.217 104.006 45.896 104.006H39.9345V104.036ZM48.3009 109.925C48.3009 109.776 48.267 109.598 48.1654 109.449C48.0638 109.3 47.9283 109.181 47.7589 109.122C47.2847 108.943 46.8105 108.854 46.3024 108.854H39.9683V111.204H46.3024C47.6234 111.204 48.3009 110.847 48.3009 110.163V109.895V109.925Z" fill="white"/>
<path d="M53.5859 104.571V101.418H70.0139V104.571H63.7814V113.79H59.6829V104.571H53.5859Z" fill="white"/>
<path d="M74.7575 113.404C73.5381 112.958 72.522 112.185 71.7768 111.233C71.0655 110.192 70.6929 108.973 70.7267 107.753V107.426C70.7267 106.237 71.0655 105.047 71.7768 104.006C72.4881 103.025 73.5381 102.251 74.7575 101.805C77.7044 100.764 80.99 100.764 83.903 101.805C85.1224 102.251 86.1385 103.025 86.8499 104.006C87.595 105.047 88.0015 106.266 87.9676 107.516V107.724C87.9676 108.913 87.6628 110.073 86.9515 111.114C86.2402 112.066 85.224 112.839 84.0046 113.285C82.5142 113.821 80.9222 114.088 79.3303 114.059C77.7721 114.118 76.214 113.91 74.7236 113.404H74.7575ZM82.5142 110.252C82.9207 109.954 83.2594 109.568 83.4626 109.151C83.6659 108.735 83.7336 108.229 83.6659 107.753V107.456C83.6659 107.01 83.5981 106.564 83.3949 106.177C83.1917 105.761 82.8868 105.404 82.5142 105.136C81.5997 104.541 80.448 104.244 79.3303 104.303C78.1786 104.244 77.0269 104.541 76.1124 105.136C75.7398 105.434 75.435 105.791 75.2317 106.177C75.0285 106.594 74.9607 107.01 74.9946 107.456V107.753C74.9946 108.17 75.0624 108.616 75.2656 109.003C75.4688 109.389 75.7737 109.746 76.1463 109.984C77.0947 110.49 78.2125 110.787 79.3303 110.787C80.448 110.787 81.5658 110.519 82.5142 109.984V110.252Z" fill="white"/>
<path d="M112.522 101.418V113.88H108.627V105.046L107.915 106.444L103.613 113.88H100.023L95.7212 106.444L95.0099 105.046V113.88H91.0469V101.418H96.839L101.852 110.162L106.764 101.418H112.556H112.522Z" fill="white"/>
<path d="M134.099 110.698V113.85H131.695C130.916 113.85 130.17 113.731 129.459 113.464C128.883 113.226 128.375 112.839 128.036 112.363C126.343 113.612 124.175 114.267 121.973 114.148C120.347 114.237 118.755 113.88 117.333 113.166C116.791 112.869 116.384 112.452 116.08 111.976C115.775 111.501 115.639 110.936 115.673 110.4C115.673 109.954 115.775 109.478 115.978 109.062C116.181 108.645 116.486 108.259 116.892 107.961C117.942 107.277 119.196 106.891 120.483 106.831L127.393 106.177C127.156 104.957 125.936 104.333 123.802 104.333C122.854 104.273 121.872 104.422 120.991 104.779C120.72 104.868 120.449 105.017 120.28 105.225C120.11 105.433 120.009 105.701 120.009 105.969H115.775C115.775 105.047 116.113 104.125 116.757 103.411C117.502 102.638 118.451 102.043 119.534 101.716C120.923 101.299 122.38 101.091 123.836 101.121C125.902 101.002 127.935 101.537 129.561 102.608C130.238 103.084 130.814 103.708 131.153 104.422C131.525 105.136 131.695 105.909 131.627 106.682V109.835C131.627 110.489 132.067 110.846 132.914 110.846L134.066 110.757L134.099 110.698ZM125.462 110.698C126.275 110.43 126.986 109.984 127.494 109.359V108.526L121.567 109.092C121.093 109.151 120.618 109.27 120.212 109.448C120.076 109.508 119.941 109.627 119.873 109.746C119.805 109.865 119.738 110.014 119.738 110.162C119.738 110.817 120.551 111.144 122.244 111.144C123.328 111.233 124.412 111.144 125.428 110.846V110.668L125.462 110.698Z" fill="white"/>
<path d="M133.863 104.571V101.418H150.122V104.571H144.059V113.79H139.96V104.571H133.863Z" fill="white"/>
<path d="M156.42 101.418V109.478L164.786 101.418H168.377V113.88H164.583V105.79L156.149 113.88H152.559V101.418H156.42Z" fill="white"/>
<path d="M187.89 108.645C188.228 109.091 188.431 109.627 188.431 110.162V110.341C188.431 110.935 188.228 111.53 187.856 112.036C187.483 112.541 186.975 112.928 186.331 113.196C184.435 113.91 182.402 114.237 180.336 114.148C178.067 114.296 175.797 113.82 173.799 112.809C173.087 112.333 172.512 111.709 172.139 110.995C171.766 110.281 171.597 109.478 171.665 108.705V108.556H175.628V108.705C175.628 109.091 175.696 109.478 175.865 109.805C176.068 110.132 176.373 110.43 176.712 110.638C177.83 111.114 179.049 111.322 180.302 111.233C181.284 111.263 182.233 111.173 183.181 110.906C183.825 110.727 184.164 110.4 184.164 110.013C184.164 109.865 184.13 109.716 184.028 109.567C183.926 109.448 183.791 109.329 183.622 109.27C183.08 109.091 182.504 109.002 181.928 109.062H177.626V106.325H181.522C182.097 106.355 182.639 106.296 183.181 106.117C183.351 106.058 183.486 105.969 183.554 105.85C183.622 105.731 183.689 105.582 183.689 105.433C183.689 105.047 183.351 104.809 182.707 104.6C181.759 104.392 180.81 104.273 179.828 104.303C178.676 104.214 177.525 104.422 176.475 104.898C176.136 105.106 175.865 105.403 175.696 105.731C175.526 106.058 175.458 106.444 175.492 106.801H171.529C171.529 103.173 174.375 101.329 180.031 101.329C182.03 101.24 183.994 101.597 185.823 102.34C186.433 102.608 186.941 102.994 187.314 103.5C187.686 104.006 187.856 104.571 187.89 105.166V105.344C187.89 105.85 187.72 106.355 187.415 106.772C187.11 107.188 186.67 107.545 186.128 107.753C186.772 107.902 187.381 108.169 187.856 108.586L187.89 108.645Z" fill="white"/>
<path d="M209.635 110.697V113.85H207.23C206.451 113.85 205.705 113.731 204.994 113.463C204.418 113.195 203.944 112.839 203.605 112.363C201.912 113.612 199.744 114.266 197.542 114.147C195.916 114.236 194.291 113.909 192.868 113.166C192.326 112.868 191.92 112.452 191.615 111.976C191.31 111.5 191.174 110.935 191.208 110.4C191.208 109.924 191.31 109.478 191.513 109.061C191.716 108.645 192.055 108.258 192.461 107.961C193.512 107.277 194.765 106.89 196.052 106.831L202.962 106.176C202.759 104.957 201.505 104.332 199.371 104.332C198.423 104.273 197.441 104.422 196.56 104.779C196.289 104.868 196.052 105.046 195.849 105.254C195.679 105.463 195.578 105.73 195.578 105.998H191.276C191.276 105.076 191.615 104.154 192.258 103.44C193.003 102.667 193.952 102.072 195.036 101.745C196.357 101.329 197.746 101.15 199.168 101.15C201.234 101.031 203.267 101.566 204.96 102.637C205.638 103.113 206.18 103.738 206.518 104.451C206.857 105.165 207.026 105.909 206.993 106.682V109.835C206.993 110.489 207.433 110.846 208.28 110.846L209.601 110.757L209.635 110.697ZM200.997 110.876C201.81 110.608 202.521 110.162 203.03 109.537V108.704L197.136 109.27C196.662 109.329 196.187 109.448 195.747 109.626C195.612 109.716 195.51 109.805 195.442 109.954C195.374 110.102 195.341 110.221 195.341 110.37C195.341 111.024 196.154 111.351 197.813 111.351C198.897 111.351 199.981 111.203 200.997 110.876Z" fill="white"/>
<path d="M230.128 110.697V117.032H226.063V113.88H211.904V101.418H215.969V110.727H223.387V101.418H227.485V110.727H230.128V110.697Z" fill="white"/>
<path d="M236.393 101.419V109.479L244.726 101.419H248.316V113.881H244.523V105.791L236.19 113.881H232.6V101.419H236.393Z" fill="white"/>
<path d="M268.099 113.85H264V110.133H261.561L256.582 113.88H251.569V113.434L256.176 110.043C254.855 109.954 253.601 109.478 252.585 108.705C252.179 108.348 251.874 107.932 251.637 107.486C251.434 107.01 251.332 106.534 251.366 106.028V105.731C251.366 105.136 251.467 104.541 251.738 103.976C252.009 103.441 252.45 102.935 252.958 102.578C254.279 101.716 255.939 101.299 257.598 101.418H268.099V113.85ZM264 107.515V104.363H257.869C257.293 104.333 256.718 104.452 256.21 104.72C256.04 104.839 255.905 105.017 255.803 105.196C255.701 105.374 255.668 105.582 255.668 105.761V106.058C255.668 106.266 255.668 106.445 255.803 106.623C255.905 106.802 256.074 106.95 256.243 107.069C256.718 107.337 257.293 107.456 257.869 107.426L264 107.545V107.515Z" fill="white"/>
</g>
<defs>
<clipPath id="clip0_4518_934">
<rect width="285" height="122" fill="white"/>
</clipPath>
</defs>
</svg>
