<svg width="284" height="91" viewBox="0 0 284 91" fill="none" xmlns="http://www.w3.org/2000/svg">
<g clip-path="url(#clip0_4518_759)">
<mask id="mask0_4518_759" style="mask-type:luminance" maskUnits="userSpaceOnUse" x="0" y="0" width="50" height="86">
<path d="M49.5046 0H0V85.8H49.5046V0Z" fill="white"/>
</mask>
<g mask="url(#mask0_4518_759)">
<path d="M49.2961 0H0V34.19H16.4407V17.082H32.8554V34.19H49.2961V0Z" fill="#11B1B2"/>
<path d="M49.2961 68.3805V51.2725H32.8554V68.3805H16.4407V51.2725H0V85.4625H49.2961V68.3805Z" fill="#DF1B32"/>
</g>
<mask id="mask1_4518_759" style="mask-type:luminance" maskUnits="userSpaceOnUse" x="65" y="46" width="220" height="45">
<path d="M284.001 46.7998H65.1387V90.9998H284.001V46.7998Z" fill="white"/>
</mask>
<g mask="url(#mask1_4518_759)">
<path fill-rule="evenodd" clip-rule="evenodd" d="M204.897 62.789C205.314 63.933 205.47 65.155 205.444 66.403C205.444 71.577 202.083 75.919 197.002 75.919C195.856 75.919 194.709 75.633 193.667 75.139C192.625 74.645 191.661 73.943 190.879 73.059C190.098 72.175 189.472 71.135 189.081 69.991C188.691 68.847 188.508 67.625 188.534 66.429C188.534 61.229 191.869 56.913 196.924 56.913C198.67 56.913 200.363 57.511 201.77 58.551C203.177 59.591 204.298 61.099 204.897 62.815V62.789ZM197.002 48.125C186.789 48.125 179.102 56.263 179.102 66.377C179.102 76.621 186.684 84.707 196.924 84.707C207.164 84.707 214.85 76.621 214.85 66.403C214.85 56.185 207.242 48.125 197.002 48.125ZM89.1863 57.329V75.451H79.3896C81.2135 69.731 82.0994 63.725 81.9691 57.693V57.329H89.1863ZM69.7493 75.451H66.1016V90.245H75.1166L75.7419 83.979H93.303V90.349H101.901V75.451H98.3838V48.775H73.1364V49.685C73.1364 62.893 71.9379 69.055 69.7493 75.451ZM116.284 48.775H107.164V83.979H115.762L128.608 64.167V83.979H137.727V48.775H129.155L116.284 68.587V48.775ZM144.996 48.775H174.725V83.979H165.528V57.329H154.194V83.979H144.996V48.775ZM269.227 75.789C272.249 75.789 274.021 74.333 274.021 71.577C274.021 69.081 272.249 67.495 269.279 67.495H264.433V75.815H269.227V75.789ZM255.209 48.775H264.433V59.825H269.435C277.408 59.825 283.244 63.881 283.244 71.811C283.244 79.741 278.033 83.979 269.93 83.979H255.235V48.801L255.209 48.775ZM219.149 74.255C218.393 74.827 217.481 75.139 216.543 75.191V84.369C217.742 84.369 218.94 84.291 220.113 84.135C222.093 83.823 223.943 82.913 225.454 81.509C226.965 80.131 228.086 78.311 228.685 76.283C230.587 70.277 231.551 63.985 231.499 57.641V57.277H238.716V83.875H247.914V48.749H222.64V49.633C222.849 58.629 222.562 66.923 220.842 71.863C220.504 72.825 219.931 73.631 219.175 74.203L219.149 74.255Z" fill="#252525"/>
</g>
</g>
<defs>
<clipPath id="clip0_4518_759">
<rect width="284" height="91" fill="white"/>
</clipPath>
</defs>
</svg>
