<svg width="285" height="75" viewBox="0 0 285 75" fill="none" xmlns="http://www.w3.org/2000/svg">
<g clip-path="url(#clip0_4684_687)">
<path fill-rule="evenodd" clip-rule="evenodd" d="M139.453 39.8589H140.391V7.78344C140.391 4.48156 137.578 1.65137 134.297 1.65137H133.359V17.2174H112.969V7.78344C112.969 4.48156 110.156 1.65137 106.875 1.65137H105.938V33.491C105.938 36.7929 108.75 39.6231 112.031 39.6231H112.969V24.057H133.359V33.491C133.359 37.2646 135.938 39.8589 139.453 39.8589Z" fill="black"/>
<path fill-rule="evenodd" clip-rule="evenodd" d="M147.188 1.88672V12.2641H154.219V8.01879C154.219 4.71691 151.406 1.88672 148.125 1.88672H147.188Z" fill="black"/>
<path fill-rule="evenodd" clip-rule="evenodd" d="M153.281 39.8587H154.219V19.3398H147.188V33.9625C147.187 37.2644 149.766 39.8587 153.281 39.8587Z" fill="black"/>
<path fill-rule="evenodd" clip-rule="evenodd" d="M232.969 32.7825V19.1033H252.656V18.3957C252.656 15.0939 250.078 12.2637 246.562 12.2637H232.031C228.75 12.2637 225.938 15.0939 225.938 18.3957V33.9618C225.938 37.2637 228.516 40.0939 232.031 40.0939H246.562C249.844 40.0939 252.656 37.2637 252.656 33.9618V33.0184H232.969V32.7825Z" fill="black"/>
<path fill-rule="evenodd" clip-rule="evenodd" d="M259.453 1.88672H258.516V33.7263C258.516 37.0282 261.094 39.8584 264.609 39.8584H265.547V19.3395H278.203V33.9622C278.203 37.2641 281.016 40.0943 284.297 40.0943H285.234V18.3962C285.234 15.0943 282.656 12.2641 279.141 12.2641H265.547V8.01879C265.547 4.71691 262.734 1.88672 259.453 1.88672Z" fill="black"/>
<path fill-rule="evenodd" clip-rule="evenodd" d="M183.984 33.0188H167.812V19.3395H183.984V18.3962C183.984 15.0943 181.406 12.2641 177.891 12.2641H167.578V8.01879C167.578 4.71691 165 1.88672 161.484 1.88672H160.547V33.7263C160.547 37.0282 163.125 39.8584 166.641 39.8584H177.656C180.938 39.8584 183.75 37.0282 183.75 33.7263L183.984 33.0188Z" fill="black"/>
<path fill-rule="evenodd" clip-rule="evenodd" d="M196.641 29.7165H214.453C217.734 29.7165 220.547 27.1222 220.547 23.8203V18.3957C220.547 15.0939 217.734 12.2637 214.453 12.2637H195.703C192.422 12.2637 189.609 15.0939 189.609 18.3957V33.9618C189.609 37.2637 192.422 40.0939 195.703 40.0939H214.453C217.734 40.0939 220.547 37.2637 220.547 33.9618V33.0184H196.641V29.7165ZM196.641 22.4052V19.1033H213.75V22.4052H196.641Z" fill="black"/>
<path d="M109.219 51.8867H106.172V68.3962H109.219V51.8867Z" fill="black"/>
<path fill-rule="evenodd" clip-rule="evenodd" d="M121.406 61.321V68.6323H118.594V56.1323H121.406V58.255H121.641C121.875 57.5474 122.344 57.0757 123.047 56.604C123.75 56.1323 124.453 55.8965 125.391 55.8965C126.328 55.8965 127.031 56.1323 127.5 56.3682C128.203 56.604 128.672 57.3116 128.906 58.0191C129.141 58.7267 129.375 59.6701 129.375 60.6135V68.3965H126.563V60.8493C126.563 59.9059 126.328 59.4342 125.859 58.9625C125.391 58.4908 124.922 58.255 123.984 58.255C123.516 58.255 123.047 58.255 122.578 58.4908C122.109 58.7267 121.875 58.9625 121.641 59.4342C121.406 60.1418 121.406 60.6135 121.406 61.321Z" fill="black"/>
<path fill-rule="evenodd" clip-rule="evenodd" d="M144.609 56.1319V58.4904H142.031V64.8584C142.031 65.3301 142.031 65.5659 142.266 65.8018C142.5 66.0376 142.5 66.0376 142.734 66.2735C142.969 66.2735 143.203 66.2735 143.438 66.2735C143.672 66.2735 143.672 66.2735 143.906 66.2735C144.141 66.2735 144.141 66.2735 144.141 66.2735L144.609 68.6319C144.375 68.6319 144.141 68.6319 143.906 68.8678C143.672 68.8678 143.203 68.8678 142.969 68.8678C142.266 68.8678 141.563 68.8678 141.094 68.6319C140.391 68.3961 140.156 67.9244 139.688 67.4527C139.453 66.981 139.219 66.2735 139.219 65.5659V58.7263H137.344V56.3678H139.219V53.3018H142.031V56.3678H144.609V56.1319Z" fill="black"/>
<path fill-rule="evenodd" clip-rule="evenodd" d="M164.063 62.2644C164.063 61.0852 163.828 60.1418 163.594 59.4342C163.359 58.7267 162.891 58.0191 162.422 57.5474C161.953 57.0757 161.25 56.604 160.547 56.3682C159.844 56.1323 159.141 55.8965 158.438 55.8965C157.266 55.8965 156.328 56.1323 155.391 56.8399C154.453 57.5474 153.75 58.0191 153.281 59.1984C152.813 60.1418 152.578 61.321 152.578 62.5003C152.578 63.9154 152.813 65.0946 153.281 66.038C153.75 66.9814 154.453 67.6889 155.391 68.1606C156.328 68.6323 157.266 68.8682 158.672 68.8682C159.609 68.8682 160.547 68.6323 161.25 68.3965C161.953 68.1606 162.656 67.6889 163.125 67.2172C163.594 66.7455 164.063 66.038 164.063 65.3304L161.25 65.0946C161.016 65.3304 161.016 65.8021 160.547 66.038C160.078 66.2738 160.078 66.5097 159.609 66.5097C159.375 66.7455 158.906 66.7455 158.438 66.7455C157.734 66.7455 157.266 66.5097 156.797 66.2738C156.328 66.038 155.859 65.5663 155.625 65.0946C155.391 64.6229 155.156 63.9153 155.156 63.2078H164.063V62.2644ZM155.391 61.0852C155.391 60.6135 155.625 60.1418 155.859 59.6701C156.094 59.1984 156.563 58.7267 156.797 58.4908C157.266 58.255 157.734 58.0191 158.438 58.0191C159.141 58.0191 159.375 58.255 159.844 58.4908C160.312 58.7267 160.547 59.1984 160.781 59.4342C161.016 59.9059 161.016 60.3776 161.016 60.8493H155.391V61.0852Z" fill="black"/>
<path fill-rule="evenodd" clip-rule="evenodd" d="M181.172 56.1323V58.255H180.937C180.703 58.0191 180.703 57.5474 180.234 57.3116C180 57.0757 179.531 56.604 179.062 56.3682C178.594 56.1323 178.125 55.8965 177.187 55.8965C176.25 55.8965 175.312 56.1323 174.609 56.604C173.906 57.0757 173.203 57.7833 172.734 58.7267C172.266 59.6701 172.031 60.8493 172.031 62.2644C172.031 63.6795 172.266 64.8587 172.734 65.5663C173.203 66.5097 173.672 67.2172 174.609 67.6889C175.312 68.1606 176.25 68.3965 177.187 68.3965C177.891 68.3965 178.594 68.1606 179.062 68.1606C179.531 67.9248 180 67.6889 180.234 67.4531C180.469 67.2172 180.703 66.7455 180.937 66.5097H181.172V68.8682C181.172 69.8116 180.938 70.5191 180.234 70.755C179.766 71.2267 179.062 71.4625 178.125 71.4625C177.422 71.4625 176.953 71.4625 176.719 71.2267C176.25 70.9908 176.016 70.9908 175.781 70.5191C175.547 70.2833 175.313 70.0474 175.313 69.8116L172.734 70.5191C172.969 71.2267 173.203 71.6984 173.672 72.1701C174.141 72.6418 174.844 73.1135 175.547 73.3493C176.25 73.5852 177.187 73.821 178.359 73.821C179.531 73.821 180.469 73.5852 181.406 73.3493C182.344 73.1135 183.047 72.4059 183.516 71.6984C183.984 70.9908 184.219 70.0474 184.219 69.104V56.3682L181.172 56.1323ZM180.703 64.387C180.469 64.8587 180.234 65.3304 179.766 65.5663C179.297 65.8021 178.828 66.038 178.125 66.038C177.422 66.038 176.953 65.8021 176.484 65.5663C176.016 65.3304 175.781 64.8587 175.547 64.1512C175.312 63.6795 175.313 62.972 175.313 62.2644C175.313 61.5569 175.547 60.8493 175.547 60.1418C175.781 59.4342 176.016 59.1984 176.484 58.7267C176.953 58.255 177.422 58.255 178.125 58.255C178.828 58.255 179.297 58.4908 179.766 58.7267C180.234 58.9625 180.469 59.4342 180.703 60.1418C180.937 60.8493 180.937 61.321 180.937 62.2644C181.172 63.2078 180.937 63.6795 180.703 64.387Z" fill="black"/>
<path fill-rule="evenodd" clip-rule="evenodd" d="M193.125 68.6323V56.1323H195.937V58.255H196.172C196.406 57.5474 196.875 57.0757 197.344 56.604C197.812 56.1323 198.516 55.8965 199.219 55.8965C199.453 55.8965 199.453 55.8965 199.687 55.8965C199.922 55.8965 200.156 55.8965 200.156 55.8965V58.7267C199.922 58.7267 199.922 58.7267 199.453 58.7267C199.219 58.7267 198.984 58.7267 198.75 58.7267C198.281 58.7267 197.812 58.7267 197.344 58.9625C196.875 59.1984 196.641 59.4342 196.406 59.9059C196.172 60.3776 196.172 60.8493 196.172 61.321V68.6323H193.125Z" fill="black"/>
<path fill-rule="evenodd" clip-rule="evenodd" d="M217.734 58.0191C217.5 57.5474 217.031 57.0757 216.563 56.8399C216.094 56.604 215.625 56.3682 214.922 56.1323C214.219 55.8965 213.75 55.8965 213.047 55.8965C212.109 55.8965 211.406 56.1323 210.703 56.3682C210 56.604 209.297 57.0757 208.828 57.5474C208.359 58.0191 207.891 58.7267 207.656 59.4342L210.469 59.9059C210.703 59.4342 210.937 59.1984 211.406 58.7267C211.875 58.4908 212.344 58.255 213.047 58.255C213.75 58.255 214.219 58.4908 214.687 58.7267C214.922 58.9625 215.156 59.6701 215.156 60.1418C215.156 60.3776 215.156 60.6135 214.922 60.8493C214.687 61.0852 214.453 61.0852 213.984 61.0852C213.516 61.0852 213.047 61.0852 212.109 61.321C211.406 61.321 210.937 61.5569 210.234 61.5569C209.531 61.7927 209.062 61.7927 208.594 62.2644C208.125 62.5003 207.891 62.972 207.656 63.4437C207.422 63.9153 207.188 64.387 207.188 65.0946C207.188 66.038 207.422 66.7455 207.656 67.2172C207.891 67.9248 208.594 68.1606 209.062 68.3965C209.531 68.6323 210.469 68.8682 211.172 68.8682C211.875 68.8682 212.344 68.8682 212.813 68.6323C213.281 68.3965 213.75 68.1606 213.984 67.9248C214.219 67.6889 214.453 67.2172 214.687 66.9814V68.6323H217.5V60.1418C218.203 59.4342 217.969 58.7267 217.734 58.0191ZM215.156 64.1512C215.156 64.6229 215.156 65.0946 214.922 65.3304C214.687 65.8021 214.453 66.038 213.984 66.2738C213.516 66.5097 213.047 66.5097 212.344 66.5097C211.641 66.5097 211.172 66.2738 210.703 66.038C210.234 65.8021 210 65.3304 210 64.8587C210 64.387 210 64.1512 210.234 63.9154C210.469 63.6795 210.703 63.4437 211.172 63.4437C211.406 63.2078 211.875 63.2078 212.344 63.2078C212.578 63.2078 212.813 63.2078 213.047 63.2078C213.281 63.2078 213.516 63.2078 213.75 62.972C213.984 62.972 214.219 62.972 214.453 62.7361C214.687 62.7361 214.922 62.7361 214.922 62.5003L215.156 64.1512Z" fill="black"/>
<path fill-rule="evenodd" clip-rule="evenodd" d="M233.437 56.1319V58.4904H230.859V64.8584C230.859 65.3301 230.859 65.5659 231.094 65.8018C231.328 66.0376 231.328 66.0376 231.563 66.2735C231.797 66.5093 232.031 66.2735 232.266 66.2735C232.5 66.2735 232.5 66.2735 232.734 66.2735C232.969 66.2735 232.969 66.2735 232.969 66.2735L233.437 68.6319C233.203 68.6319 232.969 68.6319 232.734 68.8678C232.5 68.8678 232.031 68.8678 231.797 68.8678C231.094 68.8678 230.391 68.8678 229.922 68.6319C229.219 68.3961 228.984 67.9244 228.516 67.4527C228.047 66.981 228.047 66.2735 228.047 65.5659V58.7263H226.172V56.3678H228.047V53.3018H230.859V56.3678H233.437V56.1319Z" fill="black"/>
<path d="M244.922 56.1318H242.109V68.6318H244.922V56.1318Z" fill="black"/>
<path fill-rule="evenodd" clip-rule="evenodd" d="M243.516 54.2452C243.047 54.2452 242.578 54.0094 242.344 53.7735C242.109 53.5377 241.875 53.066 241.875 52.5943C241.875 52.1226 242.109 51.6509 242.344 51.4151C242.578 51.1792 243.047 50.9434 243.516 50.9434C243.984 50.9434 244.453 51.1792 244.688 51.4151C244.922 51.6509 245.156 52.1226 245.156 52.5943C245.156 53.066 244.922 53.3018 244.688 53.7735C244.453 54.2452 243.984 54.2452 243.516 54.2452Z" fill="black"/>
<path fill-rule="evenodd" clip-rule="evenodd" d="M264.844 58.9625C264.375 58.0191 263.672 57.3116 262.734 56.604C261.797 56.1323 260.859 55.8965 259.688 55.8965C258.516 55.8965 257.344 56.1323 256.641 56.604C255.703 57.0757 255 57.7833 254.531 58.9625C254.062 59.9059 253.828 61.0852 253.828 62.2644C253.828 63.4437 254.062 64.6229 254.531 65.5663C255 66.5097 255.703 67.2172 256.641 67.6889C257.578 68.1606 258.516 68.3965 259.688 68.3965C260.859 68.3965 262.031 68.1606 262.734 67.6889C263.672 67.2172 264.375 66.5097 264.844 65.5663C265.312 64.6229 265.547 63.4437 265.547 62.2644C265.547 61.0852 265.312 60.1418 264.844 58.9625ZM262.266 64.387C262.031 65.0946 261.797 65.5663 261.328 65.8021C260.859 66.038 260.391 66.2738 259.688 66.2738C258.984 66.2738 258.516 66.038 258.047 65.8021C257.578 65.3304 257.344 64.8587 257.109 64.387C256.875 63.6795 256.875 62.972 256.875 62.2644C256.875 61.5569 257.109 60.8493 257.109 60.1418C257.344 59.4342 257.578 58.9625 258.047 58.7267C258.516 58.4908 258.984 58.255 259.688 58.255C260.391 58.255 260.859 58.4908 261.328 58.7267C261.797 58.9625 262.031 59.6701 262.266 60.1418C262.5 60.8493 262.5 61.5569 262.5 62.2644C262.5 63.2078 262.266 63.9153 262.266 64.387Z" fill="black"/>
<path fill-rule="evenodd" clip-rule="evenodd" d="M277.031 68.6323H274.219V56.1323H277.031V58.255H277.266C277.5 57.5474 277.969 57.0757 278.672 56.604C279.375 56.1323 280.078 55.8965 281.016 55.8965C281.953 55.8965 282.656 56.1323 283.125 56.3682C283.828 56.604 284.297 57.3116 284.531 58.0191C284.766 58.7267 285 59.6701 285 60.6135V68.3965H282.188V60.8493C282.188 59.9059 281.953 59.4342 281.484 58.9625C281.016 58.4908 280.547 58.255 279.609 58.255C279.141 58.255 278.672 58.255 278.203 58.4908C277.734 58.7267 277.5 58.9625 277.266 59.4342C277.031 59.9059 277.031 60.3776 277.031 61.0852V68.6323Z" fill="black"/>
<path fill-rule="evenodd" clip-rule="evenodd" d="M23.4375 5.42445C28.125 3.53766 33.0469 2.35842 37.9688 1.88672V33.4905H51.3281V1.88672C56.0156 2.35842 60.9375 3.53766 65.8594 5.18861V57.783C61.4063 63.4433 56.4844 68.632 51.3281 73.5848V48.349H37.9688V73.5848C32.8125 68.8679 27.8906 63.4433 23.4375 57.783V5.42445Z" fill="black"/>
<path fill-rule="evenodd" clip-rule="evenodd" d="M69.8438 52.3587C77.1094 42.2172 83.6719 30.8964 89.0625 18.3964C82.5 13.4436 76.4062 9.67003 69.8438 6.83984V52.3587Z" fill="black"/>
<path fill-rule="evenodd" clip-rule="evenodd" d="M0 18.3964C6.5625 13.4436 12.6562 9.67003 19.2187 6.83984V52.3587C11.7187 42.2172 5.39062 31.1323 0 18.3964Z" fill="black"/>
</g>
<defs>
<clipPath id="clip0_4684_687">
<rect width="285" height="75" fill="white"/>
</clipPath>
</defs>
</svg>
