<?xml version="1.0" encoding="UTF-8"?> <!-- Generator: Adobe Illustrator 27.4.0, SVG Export Plug-In . SVG Version: 6.00 Build 0) --> <svg xmlns="http://www.w3.org/2000/svg" xmlns:xlink="http://www.w3.org/1999/xlink" id="Слой_1" x="0px" y="0px" viewBox="0 0 841.89 595.28" style="enable-background:new 0 0 841.89 595.28;" xml:space="preserve"> <style type="text/css"> .st0{fill-rule:evenodd;clip-rule:evenodd;fill:#253081;} .st1{fill-rule:evenodd;clip-rule:evenodd;fill:#D2091E;} </style> <g> <g> <rect x="45.04" y="226.04" class="st0" width="75.99" height="35.49"></rect> <rect x="45.04" y="271.07" class="st0" width="35.49" height="73.97"></rect> <rect y="226.04" class="st1" width="35.49" height="35.49"></rect> <rect y="271.07" class="st1" width="35.49" height="73.97"></rect> </g> <path class="st0" d="M131.61,344.98v-75.11h16.87v75.08h-16.87V344.98L131.61,344.98z M170.19,344.98v-64.9l-1.28-10.22h18.38 l43.42,45.47l4.97,6.89h1.41v-52.36h16.87v75.08h-16.23l-44.43-46.24l-4.97-6.02l-1.28,0v52.23l-16.87,0V344.98L170.19,344.98z M275.69,344.98v-64.9l-1.28-10.22h59.25c6.89,0,12.2,0.84,15.9,2.55c3.7,1.71,6.28,4.23,7.73,7.6c1.45,3.36,2.18,7.56,2.18,12.57 v29.51c0,5.11-0.71,9.34-2.12,12.7c-1.41,3.36-3.97,5.88-7.66,7.6c-3.7,1.71-9.04,2.55-16.03,2.55l-57.97,0V344.98L275.69,344.98z M292.56,332.72h40.09c6.55,0,9.88-3.02,9.95-9.07v-32.57c0-2.45-0.74-4.57-2.18-6.32c-1.45-1.75-4.03-2.62-7.8-2.62h-40.09v50.58 l0,0H292.56L292.56,332.72z M396.28,346.26c-7.76,0-13.14-2.08-16.23-6.25c-3.06-4.17-4.6-9.71-4.6-16.6v-53.5h16.87v54.01 c0,4,0.97,6.69,2.92,8.03c1.95,1.38,4.37,2.05,7.29,2.05h27.09c2.72,0,5.11-0.71,7.16-2.12c2.05-1.41,3.06-4.07,3.06-7.97v-54.04 h16.87v53.5c0,4.6-0.64,8.6-1.92,12c-1.28,3.39-3.39,6.05-6.39,7.97c-2.99,1.92-7.13,2.89-12.4,2.89l-39.72,0V346.26L396.28,346.26 z M500.87,344.98l-0.13-62.95l-33.21,0v-12.27l83.52,0v12.27l-33.34,0v62.95l-16.87,0H500.87L500.87,344.98z M563.81,344.98v-75.11 h79.45v12.27h-62.58v17.61h47.76v12.64h-47.76v20.3h63.08l5.11,10.86c0,0.34-1.14,0.67-3.46,0.97c-2.29,0.3-6.25,0.44-11.86,0.44 h-69.74V344.98L563.81,344.98z M683.73,344.98c-6.05,0-10.75-0.84-14.18-2.55c-3.39-1.71-5.78-4.27-7.16-7.66 c-1.38-3.39-2.05-7.63-2.05-12.64v-28.47c0-8.17,1.81-14.18,5.48-18.08c3.66-3.86,9.61-5.81,17.88-5.81l38.45,0 c5.88,0,10.35,0.3,13.48,0.94c3.09,0.64,4.67,1.31,4.67,1.98l-2.55,10.59c-1.45-0.27-5.71-0.54-12.84-0.84 c-7.12-0.3-17.44-0.44-30.95-0.44l-6.52,0c-6.82,0-10.22,3.02-10.22,9.07v32.57c0,2.89,0.74,5.14,2.22,6.69 c1.48,1.58,4.17,2.35,8,2.35l5.24,0c14.15,0,25.11-0.13,32.9-0.44c7.8-0.3,12.64-0.61,14.49-0.94l5.24,8.44 c0,0.44-0.71,1.08-2.12,1.92c-1.41,0.84-3.97,1.61-7.73,2.29c-3.73,0.67-9.14,1.01-16.23,1.01l-35.49,0V344.98L683.73,344.98z M758.07,344.98v-75.11h16.87v31.15h50.08v-31.15h16.87v75.08h-16.87v-31.66h-50.08v31.66h-16.87V344.98z"></path> </g> </svg> 