<svg width="222" height="29" viewBox="0 0 222 29" fill="none" xmlns="http://www.w3.org/2000/svg">
<g clip-path="url(#clip0_4687_746)">
<path d="M216.039 0.571558L208.56 18.7923L200.276 0.571558H194.469V27.946H200.06V12.4704L207.506 28.1017H209.525L216.298 12.635V27.946H221.889V0.571558H216.039ZM185.627 0.571558V18.0128C185.627 19.6583 185.143 21.0006 184.169 22.057C183.211 23.105 181.796 23.6331 179.948 23.6331C178.103 23.6331 176.679 23.105 175.704 22.057C174.721 21.0006 174.228 19.6583 174.228 18.0128V0.571558H168.552V18.5498C168.552 20.1085 168.845 21.4942 169.432 22.7326C170.019 23.9623 170.83 25.0101 171.856 25.8674C172.874 26.7334 174.083 27.3916 175.463 27.842C176.861 28.2923 178.336 28.5175 179.907 28.5175C181.476 28.5175 182.986 28.2923 184.366 27.842C185.738 27.3916 186.938 26.7334 187.981 25.8674C189.017 25.0101 189.837 23.9623 190.424 22.7326C191.01 21.4942 191.304 20.1085 191.304 18.5498V0.571558H185.627ZM159.501 17.3547C160.649 17.0256 161.632 16.5753 162.469 16.0037C163.298 15.4235 163.971 14.7653 164.48 14.0119C165.006 13.2585 165.385 12.4271 165.644 11.5265C165.886 10.6258 166.024 9.6819 166.024 8.69466C166.024 7.08389 165.713 5.75891 165.109 4.71972C164.514 3.67185 163.746 2.84915 162.797 2.23428C161.857 1.61943 160.804 1.18643 159.622 0.935285C158.449 0.692804 157.267 0.571558 156.093 0.571558H144.696V27.946H150.244V17.6838H153.315L160.26 27.946H166.697L159.501 17.3547ZM154.584 12.9554H150.244V5.33459H154.584C156.741 5.33459 158.25 5.655 159.122 6.29584C159.984 6.94534 160.424 7.91527 160.424 9.23159C160.424 10.4613 159.967 11.3879 159.036 12.0201C158.112 12.6523 156.628 12.9554 154.584 12.9554ZM142.09 9.04106C141.564 7.33505 140.744 5.81089 139.657 4.46858C138.562 3.12628 137.199 2.05242 135.576 1.22972C133.946 0.40702 132.039 0 129.856 0C127.673 0 125.801 0.40702 124.179 1.22972C122.549 2.05242 121.202 3.12628 120.141 4.46858C119.071 5.81089 118.278 7.33505 117.743 9.04106C117.208 10.7558 116.94 12.4878 116.94 14.2371C116.94 15.9864 117.208 17.7183 117.743 19.4245C118.278 21.1391 119.071 22.6633 120.141 24.0055C121.202 25.348 122.549 26.4391 124.179 27.2878C125.801 28.1017 127.691 28.5175 129.856 28.5175C132.022 28.5175 133.946 28.0932 135.576 27.2617C137.199 26.4305 138.562 25.348 139.657 24.0055C140.744 22.6633 141.564 21.1391 142.09 19.4245C142.625 17.7183 142.884 15.9864 142.884 14.2371C142.884 12.4878 142.625 10.7558 142.09 9.04106ZM136.664 17.7444C136.362 18.8788 135.896 19.8833 135.283 20.758C134.662 21.6414 133.894 22.3341 132.988 22.8538C132.082 23.3734 131.03 23.6331 129.856 23.6331C128.683 23.6331 127.648 23.3734 126.767 22.8538C125.879 22.3341 125.128 21.6414 124.507 20.758C123.894 19.8833 123.428 18.8788 123.127 17.7444C122.816 16.6099 122.661 15.4408 122.661 14.2371C122.661 13.0333 122.816 11.8642 123.127 10.7298C123.428 9.58666 123.894 8.59075 124.507 7.71608C125.128 6.84143 125.879 6.13997 126.767 5.62036C127.648 5.10076 128.674 4.84096 129.856 4.84096C131.038 4.84096 132.082 5.10076 132.988 5.62036C133.894 6.13997 134.662 6.84143 135.283 7.71608C135.896 8.59075 136.362 9.58666 136.664 10.7298C136.974 11.8642 137.129 13.0333 137.129 14.2371C137.129 15.4408 136.974 16.6099 136.664 17.7444ZM116.94 5.53376V0.571558H97.8474V27.946H103.524V16.9044H114.205V12.0201H103.524V5.53376H116.94ZM94.9399 9.04106C94.4049 7.33505 93.594 5.81089 92.5069 4.46858C91.4111 3.12628 90.0479 2.05242 88.4173 1.22972C86.7952 0.40702 84.8885 0 82.697 0C80.5056 0 78.6507 0.40702 77.0199 1.22972C75.3979 2.05242 74.052 3.12628 72.982 4.46858C71.9208 5.81089 71.1184 7.33505 70.5923 9.04106C70.0573 10.7558 69.7812 12.4878 69.7812 14.2371C69.7812 15.9864 70.0573 17.7183 70.5923 19.4245C71.1184 21.1391 71.9208 22.6633 72.982 24.0055C74.052 25.348 75.3979 26.4391 77.0199 27.2878C78.6507 28.1017 80.54 28.5175 82.697 28.5175C84.8539 28.5175 86.7952 28.0932 88.4173 27.2617C90.0479 26.4305 91.4111 25.348 92.5069 24.0055C93.594 22.6633 94.4049 21.1391 94.9399 19.4245C95.4661 17.7183 95.7423 15.9864 95.7423 14.2371C95.7423 12.4878 95.4661 10.7558 94.9399 9.04106ZM89.5216 17.7444C89.2024 18.8788 88.7451 19.8833 88.124 20.758C87.5026 21.6414 86.7435 22.3341 85.8376 22.8538C84.923 23.3734 83.8791 23.6331 82.697 23.6331C81.5151 23.6331 80.4883 23.3734 79.6082 22.8538C78.7197 22.3341 77.9776 21.6414 77.365 20.758C76.7438 19.8833 76.278 18.8788 75.9673 17.7444C75.6653 16.6099 75.51 15.4408 75.51 14.2371C75.51 13.0333 75.6653 11.8642 75.9673 10.7298C76.278 9.58666 76.7438 8.59075 77.365 7.71608C77.9776 6.84143 78.7197 6.13997 79.6082 5.62036C80.4883 5.10076 81.5237 4.84096 82.697 4.84096C83.8704 4.84096 84.923 5.10076 85.8376 5.62036C86.7435 6.13997 87.5026 6.84143 88.124 7.71608C88.7451 8.59075 89.2024 9.58666 89.5216 10.7298C89.8236 11.8642 89.9789 13.0333 89.9789 14.2371C89.9789 15.4408 89.8236 16.6099 89.5216 17.7444ZM67.5121 4.81497C66.8391 3.52462 65.7951 2.53738 64.3629 1.88788C63.2673 1.36829 62.1198 1.02188 60.8946 0.840024C59.6694 0.666823 58.3493 0.571558 56.9171 0.571558H48.0909V27.946H53.63V18.0907H57.5038C58.5392 18.0907 59.5658 18.0128 60.5753 17.8742C61.5848 17.7183 62.5769 17.4499 63.5693 17.0689C64.3457 16.7398 65.0532 16.2808 65.6657 15.7093C66.287 15.1464 66.796 14.4969 67.2188 13.7781C67.6502 13.0766 67.9693 12.2972 68.1937 11.4659C68.418 10.6345 68.5216 9.80316 68.5216 8.98912C68.5216 7.49958 68.1937 6.12264 67.5121 4.81497ZM62.4302 11.3186C62.0852 11.9595 61.5157 12.4445 60.7047 12.7995C60.2216 13.016 59.6608 13.1719 58.9964 13.2498C58.3407 13.3278 57.6073 13.3711 56.7877 13.3711H53.63V5.29127H57.0034C57.8403 5.29127 58.5306 5.33457 59.0654 5.41253C59.5918 5.49913 60.1008 5.62035 60.5753 5.7849C61.3864 6.05335 61.9817 6.521 62.3612 7.17915C62.7409 7.83732 62.9307 8.54745 62.9307 9.31819C62.9307 10.0196 62.7582 10.6951 62.4302 11.3186ZM37.1508 13.7002L45.5975 0.571558H39.2043L34.0793 8.90252L28.9457 0.571558H22.5525L31.0423 13.7002L21.9141 27.946H28.2729L34.0793 18.5066L39.9291 27.946H46.279L37.1508 13.7002Z" fill="black"/>
<path d="M20.2235 5.19672V0.572266H0V27.9466H20.2235V23.3222H5.39237V20.3778H20.2235V15.7273H5.39237V12.7916H20.2235V8.14113H5.39237V5.19672H20.2235Z" fill="black"/>
</g>
<defs>
<clipPath id="clip0_4687_746">
<rect width="222" height="29" fill="white"/>
</clipPath>
</defs>
</svg>
