<svg width="648" height="185" viewBox="0 0 648 185" fill="none" xmlns="http://www.w3.org/2000/svg">
<path d="M222.145 83.2736L228.89 73.2077V88.9167C228.89 89.3742 229.04 89.8318 229.34 90.1368C229.639 90.4418 229.939 90.5943 230.539 90.5943H234.286C234.736 90.5943 235.186 90.4418 235.485 90.1368C235.785 89.8318 235.935 89.5267 235.935 88.9167V62.0741C235.935 61.6166 235.785 61.1591 235.485 60.854C235.186 60.549 234.886 60.3965 234.286 60.3965H230.389C229.939 60.3965 229.49 60.549 229.19 60.854C228.89 61.1591 228.74 61.3116 228.59 61.6166L219.297 76.1055L210.003 61.6166C209.853 61.4641 209.703 61.1591 209.403 60.854C209.104 60.549 208.654 60.3965 208.204 60.3965H204.307C203.857 60.3965 203.408 60.549 203.108 60.854C202.808 61.1591 202.658 61.4641 202.658 62.0741V88.7642C202.658 89.2217 202.808 89.6793 203.108 89.9843C203.408 90.2893 203.707 90.4418 204.307 90.4418H208.054C208.504 90.4418 208.954 90.2893 209.254 89.9843C209.553 89.6793 209.703 89.3742 209.703 88.7642V73.0552L216.449 83.1211C216.748 83.7312 217.348 84.0362 218.097 84.0362H220.646C221.245 84.1887 221.845 83.7312 222.145 83.2736Z" fill="#0D3F94"/>
<path d="M244.181 90.442H265.166C265.616 90.442 266.065 90.2895 266.365 89.9845C266.665 89.6794 266.815 89.3744 266.815 88.7643V85.8666C266.815 85.409 266.665 84.9515 266.365 84.6464C266.065 84.3414 265.766 84.1889 265.166 84.1889H249.727V78.2408H260.07C260.519 78.2408 260.969 78.0883 261.269 77.7833C261.569 77.4783 261.718 77.1732 261.718 76.5632V73.6654C261.718 73.2079 261.569 72.7503 261.269 72.4453C260.969 72.1403 260.669 71.9878 260.07 71.9878H249.727V66.4972H264.716C265.166 66.4972 265.616 66.3447 265.916 66.0397C266.215 65.7347 266.365 65.4296 266.365 64.8196V61.9218C266.365 61.4643 266.215 61.0067 265.916 60.7017C265.616 60.3967 265.316 60.2441 264.716 60.2441H244.331C243.881 60.2441 243.431 60.3967 243.131 60.7017C242.832 61.0067 242.682 61.3117 242.682 61.9218V88.7643C242.682 89.2219 242.832 89.5269 243.131 89.8319C243.431 90.2895 243.731 90.442 244.181 90.442Z" fill="#0D3F94"/>
<path d="M309.536 90.442C309.836 90.442 310.136 90.2895 310.436 90.137V94.4074C310.436 94.8649 310.586 95.3225 310.885 95.6275C311.185 95.9325 311.485 96.085 312.085 96.085H315.832C316.282 96.085 316.731 95.9325 317.031 95.6275C317.331 95.3225 317.481 95.0174 317.481 94.4074V90.442H335.618V94.4074C335.618 94.8649 335.768 95.3225 336.068 95.6275C336.368 95.9325 336.667 96.085 337.267 96.085H341.014C341.464 96.085 341.914 95.9325 342.214 95.6275C342.513 95.3225 342.663 95.0174 342.663 94.4074V85.8666C342.663 85.409 342.513 84.9515 342.214 84.6465C341.914 84.3414 341.614 84.1889 341.014 84.1889H338.916V62.0743C338.916 61.6168 338.766 61.1592 338.466 60.8542C338.166 60.5492 337.867 60.3967 337.267 60.3967H319.579C319.13 60.3967 318.68 60.7017 318.38 60.8542C318.23 61.0067 318.08 61.1592 318.08 61.3117H317.93L315.532 80.071C315.382 81.4436 314.933 82.5112 314.333 83.1213C313.733 83.8839 313.134 84.1889 312.384 84.1889H311.935C311.485 84.1889 311.035 84.3414 310.735 84.6465C310.436 84.9515 310.286 85.2565 310.286 85.8666V87.8493L302.041 74.8855L309.686 62.3793C309.836 62.0743 309.836 61.9218 309.836 61.6168C309.836 61.3117 309.686 60.8542 309.386 60.7017C309.087 60.3967 308.787 60.2441 308.487 60.2441H304.14C303.69 60.2441 303.391 60.3967 303.091 60.7017C302.941 60.8542 302.791 61.0067 302.641 61.1592L296.046 71.9878H292.448V62.0743C292.448 61.6168 292.298 61.1592 291.998 60.8542C291.699 60.5492 291.399 60.3967 290.799 60.3967H287.052C286.602 60.3967 286.153 60.5492 285.853 60.8542C285.553 61.1592 285.403 61.4643 285.403 62.0743V71.9878H281.806L275.21 61.3117C275.06 61.1592 274.91 61.0067 274.76 60.8542C274.461 60.7017 274.161 60.3967 273.711 60.3967H269.364C269.064 60.3967 268.615 60.5492 268.465 60.8542C268.165 61.1592 268.015 61.4643 268.015 61.7693C268.015 62.0743 268.165 62.2268 268.165 62.5319L275.81 75.038L267.416 88.3068C267.266 88.6118 267.266 88.7643 267.266 89.0694C267.266 89.3744 267.416 89.8319 267.715 89.9845C268.015 90.137 268.315 90.2895 268.615 90.2895H272.962C273.411 90.2895 273.711 90.137 274.011 89.8319C274.311 89.6794 274.611 89.3744 274.76 89.0694L281.806 77.9358H285.403V88.6118C285.403 89.0694 285.553 89.5269 285.853 89.8319C286.153 90.137 286.452 90.2895 287.052 90.2895H290.799C291.249 90.2895 291.699 90.137 291.998 89.8319C292.298 89.5269 292.448 89.2219 292.448 88.6118V77.9358H296.046L303.091 89.0694C303.241 89.3744 303.54 89.6794 303.84 89.8319C304.14 89.9845 304.44 90.2895 304.89 90.2895H309.536V90.442ZM331.871 66.6497V84.3414H321.228C321.828 83.4263 322.427 82.2062 322.577 80.376L324.226 66.6497H331.871Z" fill="#0D3F94"/>
<path d="M342.813 61.9215C342.813 62.2265 342.812 62.379 342.962 62.5315L353.155 82.6634C353.005 83.2735 352.555 83.8835 352.255 84.3411C351.806 84.7986 351.207 84.9511 350.757 84.9511C350.308 84.9511 349.707 84.9511 349.108 84.7986C348.808 84.7986 348.658 84.7986 348.508 84.7986H348.358C347.908 84.7986 347.459 84.9511 347.309 85.2562C347.009 85.5612 346.859 85.8662 346.859 86.4763V89.3741C346.859 89.8316 347.159 90.2891 347.309 90.5942C347.609 90.8992 347.908 91.0517 348.208 91.0517C348.208 91.0517 349.858 91.2042 351.507 91.2042C353.905 91.2042 356.003 90.4417 357.652 89.069C359.301 87.6964 360.65 85.5612 361.849 82.9684L371.442 62.074H371.292V61.9215C371.292 61.4639 371.142 61.1589 370.843 60.8539C370.543 60.5488 370.243 60.5488 369.793 60.5488H365.896C365.446 60.5488 364.997 60.7013 364.697 61.0064C364.397 61.3114 364.097 61.6164 363.947 61.9215L357.652 76.1053L350.757 61.9215C350.608 61.6164 350.457 61.3114 350.007 61.0064C349.707 60.7013 349.259 60.5488 348.809 60.5488H344.611C344.311 60.5488 343.861 60.7013 343.561 60.8539C342.962 61.1589 342.813 61.4639 342.813 61.9215Z" fill="#0D3F94"/>
<path d="M374.889 89.9843C375.189 90.2893 375.489 90.4418 376.089 90.4418H379.836C380.286 90.4418 380.735 90.2893 381.035 89.9843C381.335 89.6793 381.485 89.3742 381.485 88.7642V78.2407H393.177V88.7642C393.177 89.2217 393.327 89.6793 393.626 89.9843C393.926 90.2893 394.226 90.4418 394.826 90.4418H398.573C399.023 90.4418 399.472 90.2893 399.772 89.9843C400.072 89.6793 400.222 89.3742 400.222 88.7642V62.0741C400.222 61.6166 400.072 61.1591 399.772 60.854C399.472 60.549 399.173 60.3965 398.573 60.3965H394.826C394.376 60.3965 393.926 60.549 393.626 60.854C393.327 61.1591 393.177 61.4641 393.177 62.0741V72.1401H381.485V62.0741C381.485 61.6166 381.335 61.1591 381.035 60.854C380.735 60.549 380.436 60.3965 379.836 60.3965H376.089C375.639 60.3965 375.189 60.549 374.889 60.854C374.59 61.1591 374.44 61.4641 374.44 62.0741V88.7642C374.29 89.2217 374.59 89.6793 374.889 89.9843Z" fill="#0D3F94"/>
<path d="M403.369 89.069C403.369 89.5266 403.519 89.8316 403.819 90.1366C404.119 90.4417 404.418 90.5942 404.868 90.5942H408.765C409.215 90.5942 409.665 90.4417 409.965 90.1366C410.264 89.8316 410.564 89.5266 410.714 89.2215L412.363 84.4936H423.455L425.254 89.6791H425.404C425.704 90.1366 426.453 90.5942 427.203 90.5942H431.25C431.699 90.5942 431.999 90.4417 432.299 90.1366C432.599 89.8316 432.749 89.5266 432.749 89.069H432.899L422.556 61.9215C422.406 61.6164 422.256 61.3114 421.956 61.0064C421.656 60.7013 421.357 60.5488 420.907 60.5488H415.81C415.361 60.5488 414.911 60.7013 414.761 61.0064C414.461 61.3114 414.311 61.6164 414.162 61.9215L403.369 89.069ZM414.761 78.2405L417.909 69.5472L421.057 78.2405H414.761Z" fill="#0D3F94"/>
<path d="M436.197 89.9841C436.497 90.2891 436.797 90.4417 437.396 90.4417H441.144C441.593 90.4417 442.043 90.2891 442.343 89.9841C442.643 89.6791 442.793 89.3741 442.793 88.764V81.1383H450.887C453.885 81.1383 456.283 80.2232 458.082 78.5455C459.881 77.0204 460.78 74.7327 460.78 72.445V69.2422C460.78 66.8019 459.731 64.6667 458.082 63.1416C456.283 61.6164 453.885 60.5488 450.887 60.5488H437.396C436.947 60.5488 436.497 60.7013 436.197 61.0064C435.897 61.3114 435.748 61.6164 435.748 62.2265V88.9165C435.748 89.2215 435.897 89.6791 436.197 89.9841ZM452.836 74.1226C452.236 74.7327 451.337 75.0377 450.138 75.0377H442.793V66.6494H450.138C451.337 66.6494 452.236 67.1069 452.836 67.5645C453.435 68.1745 453.735 68.9371 453.735 69.8522V71.8349C453.735 72.75 453.435 73.5125 452.836 74.1226Z" fill="#0D3F94"/>
<path d="M466.926 88.61C468.575 90.1352 470.973 91.0503 473.971 91.0503H480.866C483.864 91.0503 486.262 90.1352 487.911 88.61C489.56 87.0849 490.459 84.7972 490.459 82.2044V68.9357C490.459 66.3429 489.56 64.0552 487.911 62.5301C486.262 61.0049 483.864 60.0898 480.866 60.0898H473.971C470.973 60.0898 468.575 61.0049 466.926 62.5301C465.277 64.0552 464.377 66.3429 464.377 68.9357V82.2044C464.377 84.7972 465.127 87.0849 466.926 88.61ZM471.423 69.3932C471.423 68.1731 471.722 67.258 472.172 66.8005C472.622 66.3429 473.371 66.0379 474.72 66.0379H480.117C481.316 66.0379 482.215 66.3429 482.665 66.8005C483.114 67.258 483.414 68.0206 483.414 69.3932V81.4419C483.414 82.662 483.114 83.5771 482.665 84.0346C482.215 84.4922 481.466 84.7972 480.117 84.7972H474.72C473.521 84.7972 472.622 84.4922 472.172 84.0346C471.722 83.5771 471.423 82.8145 471.423 81.4419V69.3932Z" fill="#0D3F94"/>
<path d="M492.858 95.6273C493.158 95.9323 493.457 96.0849 494.057 96.0849H497.804C498.254 96.0849 498.704 95.9323 499.004 95.6273C499.303 95.3223 499.453 95.0173 499.453 94.4072V90.4418H517.591V94.4072C517.591 94.8647 517.741 95.3223 518.04 95.6273C518.34 95.9323 518.64 96.0849 519.24 96.0849H522.987C523.437 96.0849 523.886 95.9323 524.186 95.6273C524.486 95.3223 524.636 95.0173 524.636 94.4072V85.8664C524.636 85.4089 524.486 84.9513 524.186 84.6463C523.886 84.3413 523.587 84.1887 522.987 84.1887H520.888V62.0741C520.888 61.6166 520.739 61.1591 520.439 60.854C520.139 60.549 519.839 60.3965 519.24 60.3965H501.552C501.102 60.3965 500.652 60.7015 500.353 60.854C500.203 61.0065 500.053 61.1591 500.053 61.3116H499.903L497.505 80.0708C497.355 81.4435 496.905 82.5111 496.306 83.1211C495.706 83.8837 495.106 84.1887 494.357 84.1887H493.907C493.457 84.1887 493.008 84.3413 492.708 84.6463C492.408 84.9513 492.258 85.2563 492.258 85.8664V94.4072C492.258 95.0173 492.558 95.3223 492.858 95.6273ZM513.693 66.6496V84.3412H503.051C503.65 83.4262 504.25 82.2061 504.4 80.3759L506.049 66.6496H513.693Z" fill="#0D3F94"/>
<path d="M529.133 89.9841C529.433 90.2891 529.733 90.4417 530.332 90.4417H534.08C534.53 90.4417 534.979 90.2891 535.279 89.9841C535.579 89.6791 535.729 89.3741 535.729 88.764V78.2405H547.421V88.764C547.421 89.2215 547.57 89.6791 547.87 89.9841C548.17 90.2891 548.47 90.4417 549.069 90.4417H552.817C553.267 90.4417 553.716 90.2891 554.016 89.9841C554.316 89.6791 554.466 89.3741 554.466 88.764V62.2265C554.466 61.7689 554.316 61.3114 554.016 61.0064C553.716 60.7013 553.416 60.5488 552.817 60.5488H549.069C548.62 60.5488 548.17 60.7013 547.87 61.0064C547.57 61.3114 547.421 61.6164 547.421 62.2265V72.2924H535.729V62.2265C535.729 61.7689 535.579 61.3114 535.279 61.0064C534.979 60.7013 534.679 60.5488 534.08 60.5488H530.332C529.883 60.5488 529.433 60.7013 529.133 61.0064C528.833 61.3114 528.684 61.6164 528.684 62.2265V88.9165C528.684 89.2215 528.833 89.6791 529.133 89.9841Z" fill="#0D3F94"/>
<path d="M588.94 89.9843C589.24 90.2893 589.54 90.4418 590.139 90.4418H593.887C594.336 90.4418 594.786 90.2893 595.086 89.9843C595.386 89.6793 595.536 89.3742 595.536 88.7642V62.0741C595.536 61.6166 595.386 61.1591 595.086 60.854C594.786 60.549 594.486 60.3965 593.887 60.3965H590.139C589.69 60.3965 589.24 60.549 588.94 60.854C588.64 61.1591 588.491 61.4641 588.491 62.0741V88.7642C588.341 89.2217 588.64 89.6793 588.94 89.9843Z" fill="#0D3F94"/>
<path d="M585.344 81.7483V79.3081C585.344 76.8679 584.294 74.7327 582.646 73.2075C580.847 71.6824 578.448 70.6148 575.451 70.6148H568.106V62.2265C568.106 61.7689 567.956 61.3114 567.656 61.0064C567.356 60.7013 567.056 60.5488 566.457 60.5488H562.709C562.26 60.5488 561.81 60.7013 561.51 61.0064C561.21 61.3114 561.061 61.6164 561.061 62.2265V88.9165C561.061 89.3741 561.21 89.8316 561.51 90.1366C561.81 90.4417 562.11 90.5942 562.709 90.5942H575.451C578.448 90.5942 580.847 89.6791 582.646 88.0014C584.294 86.3238 585.344 84.1886 585.344 81.7483ZM578.299 81.1383C578.299 82.0534 577.999 82.8159 577.399 83.426C576.8 84.036 575.9 84.3411 574.701 84.3411H568.106V76.7154H574.551C575.75 76.7154 576.65 77.1729 577.249 77.6304C577.849 78.2405 578.149 79.0031 578.149 79.9182V81.1383H578.299Z" fill="#0D3F94"/>
<path d="M609.477 89.6793L609.776 89.2217L620.869 72.1401V88.7642C620.869 89.2217 621.019 89.6793 621.318 89.9843C621.618 90.2893 621.918 90.4418 622.518 90.4418H626.265C626.715 90.4418 627.164 90.2893 627.464 89.9843C627.764 89.6793 627.914 89.3742 627.914 88.7642V62.2267C627.914 61.7691 627.764 61.3116 627.464 61.0065C627.164 60.7015 626.865 60.549 626.265 60.549H622.068C621.618 60.549 621.169 60.7015 620.869 61.0065C620.719 61.1591 620.569 61.1591 620.569 61.3116L609.027 78.8507V62.0741C609.027 61.6166 608.877 61.1591 608.577 60.854C608.278 60.549 607.978 60.3965 607.378 60.3965H603.631C603.181 60.3965 602.731 60.549 602.432 60.854C602.132 61.1591 601.982 61.4641 601.982 62.0741V88.7642C601.982 89.2217 602.132 89.6793 602.432 89.9843C602.731 90.2893 603.031 90.4418 603.631 90.4418H607.828C608.278 90.4418 608.727 90.2893 609.027 89.9843C609.327 89.9843 609.327 89.8318 609.477 89.6793Z" fill="#0D3F94"/>
<path d="M613.674 59.7861H616.522C618.621 59.7861 620.419 59.1761 621.618 57.8035C622.818 56.5833 623.567 54.7532 623.567 52.7705V51.8554C623.567 51.3978 623.417 50.9403 623.117 50.6353C622.818 50.3302 622.518 50.1777 621.918 50.1777H618.77C618.321 50.1777 617.871 50.3302 617.571 50.6353C617.271 50.9403 617.122 51.2453 617.122 51.8554V52.923C617.122 53.3805 616.972 53.533 616.822 53.8381C616.672 53.9906 616.372 54.1431 615.922 54.1431H614.274C613.824 54.1431 613.674 53.9906 613.374 53.8381C613.224 53.6856 613.074 53.3805 613.074 52.923V51.8554C613.074 51.3978 612.925 50.9403 612.625 50.6353C612.325 50.3302 612.025 50.1777 611.426 50.1777H608.278C607.828 50.1777 607.378 50.3302 607.079 50.6353C606.779 50.9403 606.629 51.2453 606.629 51.8554V52.923C606.629 54.9057 607.228 56.7359 608.578 57.956C609.777 59.0236 611.575 59.7861 613.674 59.7861Z" fill="#0D3F94"/>
<path d="M224.993 105.235C224.693 104.93 224.393 104.777 223.793 104.777H201.309C200.859 104.777 200.41 104.93 200.11 105.235C199.81 105.54 199.66 105.845 199.66 106.455V109.353C199.66 109.81 199.81 110.268 200.11 110.573C200.41 110.878 200.709 111.03 201.309 111.03H208.954V133.145C208.954 133.603 209.104 134.06 209.403 134.365C209.703 134.67 210.003 134.823 210.603 134.823H214.35C214.8 134.823 215.249 134.67 215.549 134.365C215.849 134.06 215.999 133.755 215.999 133.145V110.878H223.643C224.093 110.878 224.543 110.725 224.843 110.42C225.142 110.115 225.292 109.81 225.292 109.2V106.302C225.442 105.845 225.292 105.54 224.993 105.235Z" fill="#0D3F94"/>
<path d="M252.424 129.027C252.124 128.722 251.824 128.57 251.225 128.57H235.785V122.622H246.128C246.578 122.622 247.028 122.469 247.327 122.164C247.627 121.859 247.777 121.554 247.777 120.944V118.046C247.777 117.589 247.627 117.131 247.327 116.826C247.028 116.521 246.728 116.369 246.128 116.369H235.785V110.878H250.775C251.225 110.878 251.674 110.726 251.974 110.421C252.274 110.116 252.424 109.81 252.424 109.2V106.303C252.424 105.845 252.274 105.388 251.974 105.083C251.674 104.778 251.374 104.625 250.775 104.625H230.389C229.939 104.625 229.49 104.778 229.19 105.083C228.89 105.388 228.74 105.693 228.74 106.303V133.145C228.74 133.603 228.89 133.908 229.19 134.213C229.49 134.518 229.789 134.67 230.239 134.67H251.225C251.674 134.67 252.124 134.518 252.424 134.213C252.724 133.908 252.873 133.603 252.873 132.993V130.095C252.873 129.79 252.724 129.332 252.424 129.027Z" fill="#0D3F94"/>
<path d="M272.212 119.266L280.606 106.76C280.756 106.455 280.756 106.303 280.756 105.998C280.756 105.693 280.606 105.235 280.306 105.083C280.007 104.778 279.707 104.625 279.407 104.625H274.91C274.461 104.625 274.011 104.778 273.711 105.083C273.411 105.388 273.261 105.54 273.111 105.845L267.565 114.081L262.019 105.845C261.869 105.693 261.719 105.388 261.42 105.083C261.12 104.778 260.67 104.625 260.22 104.625H255.724C255.424 104.625 254.974 104.778 254.824 105.083C254.524 105.388 254.374 105.693 254.374 105.998C254.374 106.303 254.524 106.455 254.524 106.76L262.919 119.266L253.775 132.535C253.625 132.84 253.475 132.993 253.475 133.298C253.475 133.755 253.625 134.06 253.925 134.213C254.225 134.518 254.524 134.518 254.824 134.518H259.321C259.771 134.518 260.22 134.365 260.52 134.06C260.82 133.755 260.97 133.603 261.12 133.298L267.415 123.994L273.711 133.298C273.861 133.45 274.011 133.755 274.311 134.06C274.61 134.365 275.06 134.518 275.51 134.518H280.157C280.456 134.518 280.906 134.365 281.056 134.213C281.356 133.908 281.506 133.603 281.506 133.298C281.506 132.993 281.356 132.688 281.206 132.535L272.212 119.266Z" fill="#0D3F94"/>
<path d="M310.136 105.235C309.836 104.93 309.536 104.777 308.936 104.777H305.189C304.739 104.777 304.29 104.93 303.99 105.235C303.69 105.54 303.54 105.845 303.54 106.455V116.521H291.848V106.455C291.848 105.997 291.698 105.54 291.399 105.235C291.099 104.93 290.799 104.777 290.2 104.777H286.452C286.002 104.777 285.553 104.93 285.253 105.235C284.953 105.54 284.803 105.845 284.803 106.455V133.145C284.803 133.603 284.953 134.06 285.253 134.365C285.553 134.67 285.853 134.823 286.452 134.823H290.2C290.649 134.823 291.099 134.67 291.399 134.365C291.698 134.06 291.848 133.755 291.848 133.145V122.622H303.54V133.145C303.54 133.603 303.69 134.06 303.99 134.365C304.29 134.67 304.59 134.823 305.189 134.823H308.936C309.386 134.823 309.836 134.67 310.136 134.365C310.435 134.06 310.585 133.755 310.585 133.145V106.455C310.735 105.845 310.435 105.54 310.136 105.235Z" fill="#0D3F94"/>
<path d="M342.213 113.014C342.213 110.421 341.314 108.133 339.665 106.608C338.016 105.083 335.618 104.168 332.62 104.168H325.725C322.727 104.168 320.328 105.083 318.68 106.608C317.031 108.133 316.131 110.421 316.131 113.014V126.283C316.131 128.875 317.031 131.163 318.68 132.688C320.328 134.213 322.727 135.128 325.725 135.128H332.62C335.618 135.128 338.016 134.213 339.665 132.688C341.314 131.163 342.213 128.875 342.213 126.283V113.014ZM335.168 125.825C335.168 127.045 334.868 127.96 334.419 128.418C333.969 128.875 333.22 129.18 331.87 129.18H326.474C325.275 129.18 324.376 128.875 323.926 128.418C323.476 127.96 323.176 127.198 323.176 125.825V113.776C323.176 112.556 323.476 111.641 323.926 111.184C324.376 110.726 325.125 110.421 326.474 110.421H331.87C333.07 110.421 333.969 110.726 334.419 111.184C334.868 111.641 335.168 112.404 335.168 113.776V125.825Z" fill="#0D3F94"/>
<path d="M372.192 134.67C372.641 134.67 373.091 134.518 373.391 134.213C373.691 133.908 373.84 133.603 373.84 132.993V106.455C373.84 105.997 373.691 105.54 373.391 105.235C373.091 104.93 372.791 104.777 372.192 104.777H354.354C353.904 104.777 353.455 105.082 353.155 105.235C353.005 105.387 352.855 105.54 352.855 105.692H352.705L350.307 124.452C350.007 126.282 349.557 127.502 348.808 128.265C348.208 129.027 347.459 129.332 346.859 129.332C346.559 129.332 346.11 129.332 345.96 129.18C345.81 129.18 345.66 129.18 345.66 129.18H345.51H345.36C344.911 129.18 344.461 129.332 344.161 129.637C343.861 129.942 343.711 130.247 343.711 130.857V133.45C343.711 133.908 344.011 134.365 344.161 134.67C344.311 134.823 344.461 134.823 344.611 134.975L345.06 135.128C345.06 135.128 345.96 135.28 347.309 135.28C350.007 135.28 352.255 134.365 354.054 132.535C355.703 130.705 356.902 128.112 357.352 124.604L359.001 110.878H366.795V132.993C366.795 133.45 366.945 133.908 367.245 134.213C367.545 134.518 367.845 134.67 368.444 134.67H372.192Z" fill="#0D3F94"/>
<path d="M405.318 126.435V113.166C405.318 110.573 404.418 108.286 402.769 106.761C401.121 105.235 398.722 104.32 395.724 104.32H388.829C385.831 104.32 383.433 105.235 381.784 106.761C380.135 108.286 379.236 110.573 379.236 113.166V126.435C379.236 129.028 380.135 131.315 381.784 132.841C383.433 134.366 385.831 135.281 388.829 135.281H395.724C398.722 135.281 401.121 134.366 402.769 132.841C404.568 131.315 405.318 129.028 405.318 126.435ZM398.273 125.825C398.273 127.045 397.973 127.96 397.523 128.418C397.073 128.875 396.324 129.18 394.975 129.18H389.579C388.379 129.18 387.48 128.875 387.03 128.418C386.581 127.96 386.281 127.197 386.281 125.825V113.776C386.281 112.556 386.581 111.641 387.03 111.183C387.48 110.726 388.23 110.421 389.579 110.421H394.975C396.174 110.421 397.073 110.726 397.523 111.183C397.973 111.641 398.273 112.404 398.273 113.776V125.825Z" fill="#0D3F94"/>
<path d="M417.46 134.213C417.76 133.908 417.91 133.603 417.91 132.993V110.878H431.7C432.15 110.878 432.6 110.726 432.899 110.421C433.199 110.116 433.349 109.81 433.349 109.2V106.303C433.349 105.845 433.199 105.388 432.899 105.083C432.6 104.778 432.3 104.625 431.7 104.625H412.514C412.064 104.625 411.614 104.778 411.314 105.083C411.015 105.388 410.865 105.693 410.865 106.303V132.993C410.865 133.45 411.015 133.908 411.314 134.213C411.614 134.518 411.914 134.67 412.514 134.67H416.261C416.711 134.67 417.16 134.518 417.46 134.213Z" fill="#0D3F94"/>
<path d="M460.779 134.67C461.229 134.67 461.679 134.518 461.978 134.213C462.278 133.908 462.428 133.603 462.428 132.993V106.455C462.428 105.997 462.278 105.54 461.978 105.235C461.679 104.93 461.379 104.777 460.779 104.777H456.582C456.132 104.777 455.683 104.93 455.383 105.235C455.233 105.387 455.083 105.387 455.083 105.54L443.691 123.079V106.455C443.691 105.997 443.541 105.54 443.241 105.235C442.942 104.93 442.642 104.777 442.042 104.777H438.295C437.845 104.777 437.395 104.93 437.096 105.235C436.796 105.54 436.646 105.845 436.646 106.455V133.145C436.646 133.603 436.796 134.06 437.096 134.365C437.395 134.67 437.695 134.823 438.295 134.823H442.492C442.942 134.823 443.391 134.67 443.691 134.365C443.841 134.213 443.991 134.213 443.991 134.06L455.383 116.521V133.145C455.383 133.603 455.533 134.06 455.833 134.365C456.132 134.67 456.432 134.823 457.032 134.823H460.779V134.67Z" fill="#0D3F94"/>
<path d="M477.718 125.062H486.113V133.145C486.113 133.603 486.262 134.06 486.562 134.365C486.862 134.67 487.162 134.823 487.761 134.823H491.509C491.958 134.823 492.408 134.67 492.708 134.365C493.008 134.06 493.158 133.755 493.158 133.145V106.455C493.158 105.997 493.008 105.54 492.708 105.235C492.408 104.93 492.108 104.777 491.509 104.777H487.761C487.312 104.777 486.862 104.93 486.562 105.235C486.262 105.54 486.113 105.845 486.113 106.455V118.961H478.618C477.568 118.961 476.819 118.656 476.219 117.894C475.62 117.284 475.32 116.368 475.32 115.148V106.455C475.32 105.997 475.17 105.54 474.87 105.235C474.571 104.93 474.271 104.777 473.671 104.777H469.924C469.474 104.777 469.024 104.93 468.725 105.235C468.425 105.54 468.275 105.845 468.275 106.455V115.758C468.275 118.504 469.174 120.944 470.823 122.622C472.472 124.147 474.87 125.062 477.718 125.062Z" fill="#0D3F94"/>
<path d="M523.887 130.247C523.887 129.79 523.737 129.332 523.438 129.027C523.138 128.722 522.838 128.57 522.238 128.57H506.799V122.622H517.142C517.592 122.622 518.041 122.469 518.341 122.164C518.641 121.859 518.791 121.554 518.791 120.944V118.046C518.791 117.589 518.641 117.131 518.341 116.826C518.041 116.521 517.741 116.369 517.142 116.369H506.799V110.878H521.789C522.238 110.878 522.688 110.726 522.988 110.421C523.288 110.116 523.438 109.81 523.438 109.2V106.303C523.438 105.845 523.288 105.388 522.988 105.083C522.688 104.778 522.388 104.625 521.789 104.625H501.403C500.953 104.625 500.503 104.778 500.204 105.083C499.904 105.388 499.754 105.693 499.754 106.303V133.145C499.754 133.603 499.904 133.908 500.204 134.213C500.503 134.518 500.803 134.67 501.253 134.67H522.238C522.688 134.67 523.138 134.518 523.438 134.213C523.737 133.908 523.887 133.603 523.887 132.993V130.247Z" fill="#0D3F94"/>
<path d="M550.718 131.773V128.722C550.718 128.265 550.568 127.807 550.268 127.502C549.968 127.197 549.668 127.045 549.069 127.045H548.919C548.919 127.045 548.469 127.197 547.72 127.35C545.321 127.96 540.225 129.027 537.077 129.027C536.028 129.027 535.278 128.722 534.679 128.112C534.079 127.502 533.78 126.74 533.78 125.672V114.386C533.78 113.471 534.229 112.556 534.829 111.793C535.428 111.183 536.328 110.726 537.077 110.726H548.02C548.469 110.726 548.919 110.573 549.219 110.268C549.519 109.963 549.668 109.658 549.668 109.048V106.15C549.668 105.693 549.519 105.235 549.219 104.93C548.919 104.625 548.619 104.473 548.02 104.473H536.328C533.33 104.473 530.931 105.388 529.283 106.913C527.634 108.591 526.734 110.878 526.734 113.624V126.13C526.734 128.875 527.634 131.163 529.283 132.84C530.931 134.518 533.33 135.281 536.328 135.281C539.026 135.281 542.324 134.823 544.872 134.213C546.221 133.908 547.27 133.755 548.17 133.45C548.619 133.298 548.919 133.298 549.069 133.145C549.219 133.145 549.219 133.145 549.369 133.145C549.668 132.993 550.118 132.84 550.418 132.535C550.568 132.535 550.718 132.23 550.718 131.773Z" fill="#0D3F94"/>
<path d="M580.397 133.298C580.397 132.993 580.247 132.688 580.247 132.535L571.853 119.266L579.497 106.76C579.647 106.455 579.647 106.303 579.647 105.998C579.647 105.693 579.497 105.235 579.198 105.083C578.898 104.778 578.598 104.625 578.298 104.625H573.951C573.502 104.625 573.202 104.778 572.902 105.083C572.752 105.235 572.602 105.235 572.452 105.388L565.857 116.216H561.66V106.303C561.66 105.845 561.51 105.388 561.21 105.083C560.91 104.778 560.611 104.625 560.011 104.625H556.264C555.814 104.625 555.364 104.778 555.064 105.083C554.765 105.388 554.615 105.693 554.615 106.303V132.993C554.615 133.45 554.765 133.908 555.064 134.213C555.364 134.518 555.664 134.67 556.264 134.67H560.011C560.461 134.67 560.91 134.518 561.21 134.213C561.51 133.908 561.66 133.603 561.66 132.993V122.317H565.857L572.902 133.45C573.052 133.755 573.352 134.06 573.652 134.213C573.951 134.365 574.251 134.67 574.701 134.67H579.048C579.348 134.67 579.797 134.518 579.947 134.213C580.247 134.06 580.247 133.755 580.397 133.298Z" fill="#0D3F94"/>
<path d="M608.877 105.235C608.578 104.93 608.278 104.777 607.678 104.777H603.481C603.031 104.777 602.582 104.93 602.282 105.235C602.132 105.387 601.982 105.387 601.982 105.54L590.59 123.079V106.455C590.59 105.997 590.44 105.54 590.14 105.235C589.841 104.93 589.541 104.777 588.941 104.777H585.194C584.744 104.777 584.294 104.93 583.995 105.235C583.695 105.54 583.545 105.845 583.545 106.455V133.145C583.545 133.603 583.695 134.06 583.995 134.365C584.294 134.67 584.594 134.823 585.194 134.823H589.391C589.841 134.823 590.29 134.67 590.59 134.365C590.74 134.213 590.74 134.213 590.89 134.06L602.432 116.521V133.145C602.432 133.603 602.582 134.06 602.882 134.365C603.181 134.67 603.481 134.823 604.081 134.823H607.828C608.278 134.823 608.727 134.67 609.027 134.365C609.327 134.06 609.477 133.755 609.477 133.145V106.455C609.327 105.845 609.177 105.54 608.877 105.235Z" fill="#0D3F94"/>
<path d="M632.562 94.4062C632.112 94.4062 631.662 94.5589 631.362 94.8639C631.063 95.1689 630.913 95.4739 630.913 96.084V97.1516C630.913 97.6092 630.763 97.7617 630.613 98.0667C630.463 98.2192 630.163 98.3717 629.714 98.3717H628.065C627.615 98.3717 627.465 98.2192 627.165 98.0667C627.015 97.9142 626.865 97.6092 626.865 97.1516V96.084C626.865 95.6265 626.716 95.1689 626.416 94.8639C626.116 94.5589 625.816 94.4062 625.217 94.4062H622.069C621.619 94.4062 621.169 94.5589 620.87 94.8639C620.57 95.1689 620.42 95.4739 620.42 96.084V97.1516C620.42 99.1343 621.02 100.964 622.369 102.184C623.568 103.405 625.367 104.015 627.465 104.167H630.313C632.412 104.167 634.21 103.557 635.41 102.184C636.609 100.964 637.358 99.1343 637.358 97.1516V96.084C637.358 95.6265 637.208 95.1689 636.908 94.8639C636.609 94.5589 636.309 94.4062 635.709 94.4062H632.562Z" fill="#0D3F94"/>
<path d="M641.405 105.235C641.105 104.93 640.805 104.777 640.206 104.777H636.008C635.559 104.777 635.109 104.93 634.809 105.235C634.659 105.387 634.509 105.387 634.509 105.54L623.117 123.079V106.455C623.117 105.997 622.967 105.54 622.668 105.235C622.368 104.93 622.068 104.777 621.469 104.777H617.721C617.271 104.777 616.822 104.93 616.522 105.235C616.222 105.54 616.072 105.845 616.072 106.455V133.145C616.072 133.603 616.222 134.06 616.522 134.365C616.822 134.67 617.122 134.823 617.721 134.823H621.918C622.368 134.823 622.818 134.67 623.117 134.365C623.267 134.213 623.417 134.213 623.417 134.06L634.809 116.521V133.145C634.809 133.603 634.959 134.06 635.259 134.365C635.559 134.67 635.859 134.823 636.458 134.823H640.206C640.655 134.823 641.105 134.67 641.405 134.365C641.704 134.06 641.854 133.755 641.854 133.145V106.455C641.854 105.845 641.704 105.54 641.405 105.235Z" fill="#0D3F94"/>
<path d="M227.992 176.916L219.597 163.647L227.242 151.141C227.392 150.836 227.392 150.684 227.392 150.378C227.392 150.073 227.242 149.616 226.942 149.463C226.643 149.158 226.343 149.006 226.043 149.006H221.696C221.246 149.006 220.946 149.158 220.647 149.463C220.497 149.616 220.347 149.768 220.197 149.768L213.602 160.597H209.404V150.684C209.404 150.226 209.255 149.768 208.955 149.463C208.655 149.158 208.355 149.006 207.756 149.006H203.858C203.409 149.006 202.959 149.158 202.659 149.463C202.359 149.768 202.209 150.073 202.209 150.684V177.374C202.209 177.831 202.359 178.289 202.659 178.594C202.959 178.899 203.259 179.051 203.858 179.051H207.606C208.055 179.051 208.505 178.899 208.805 178.594C209.105 178.289 209.255 177.984 209.255 177.374V166.698H213.452L220.497 177.831C220.647 178.136 220.946 178.441 221.246 178.594C221.546 178.746 221.846 179.051 222.296 179.051H226.643C226.942 179.051 227.392 178.899 227.542 178.594C227.842 178.289 227.992 177.984 227.992 177.679C228.291 177.374 228.141 177.069 227.992 176.916Z" fill="#0D3F94"/>
<path d="M245.978 148.396H239.083C236.085 148.396 233.687 149.312 232.038 150.837C230.389 152.362 229.49 154.65 229.49 157.242V170.511C229.49 173.104 230.389 175.392 232.038 176.917C233.687 178.442 236.085 179.357 239.083 179.357H246.128C249.126 179.357 251.524 178.442 253.173 176.917C254.822 175.392 255.722 173.104 255.722 170.511V157.242C255.722 154.65 254.822 152.362 253.173 150.837C251.225 149.159 248.826 148.396 245.978 148.396ZM248.377 170.054C248.377 171.274 248.077 172.189 247.627 172.646C247.177 173.104 246.428 173.409 245.079 173.409H239.833C238.633 173.409 237.734 173.104 237.284 172.646C236.835 172.189 236.535 171.426 236.535 170.054V158.005C236.535 156.785 236.835 155.87 237.284 155.412C237.734 154.955 238.483 154.65 239.833 154.65H245.229C246.428 154.65 247.327 154.955 247.777 155.412C248.227 155.87 248.526 156.632 248.526 158.005V170.054H248.377Z" fill="#0D3F94"/>
<path d="M286.15 149.463C285.85 149.158 285.551 149.006 284.951 149.006H281.204C280.754 149.006 280.304 149.158 280.005 149.463C279.705 149.768 279.555 150.073 279.555 150.684V160.749H267.863V150.684C267.863 150.226 267.713 149.768 267.413 149.463C267.113 149.158 266.814 149.006 266.214 149.006H262.467C262.017 149.006 261.567 149.158 261.268 149.463C260.968 149.768 260.818 150.073 260.818 150.684V177.374C260.818 177.831 260.968 178.289 261.268 178.594C261.567 178.899 261.867 179.051 262.467 179.051H266.214C266.664 179.051 267.113 178.899 267.413 178.594C267.713 178.289 267.863 177.984 267.863 177.374V166.85H279.555V177.374C279.555 177.831 279.705 178.289 280.005 178.594C280.304 178.899 280.604 179.051 281.204 179.051H284.951C285.401 179.051 285.85 178.899 286.15 178.594C286.45 178.289 286.6 177.984 286.6 177.374V150.684C286.6 150.226 286.45 149.768 286.15 149.463Z" fill="#0D3F94"/>
<path d="M315.381 149.463C315.081 149.158 314.781 149.006 314.182 149.006H294.995C294.545 149.006 294.096 149.158 293.796 149.463C293.496 149.768 293.346 150.073 293.346 150.684V177.374C293.346 177.831 293.496 178.289 293.796 178.594C294.096 178.899 294.395 179.051 294.995 179.051H298.742C299.192 179.051 299.642 178.899 299.942 178.594C300.241 178.289 300.391 177.984 300.391 177.374V155.259H314.182C314.631 155.259 315.081 155.106 315.381 154.801C315.681 154.496 315.831 154.191 315.831 153.581V150.684C315.831 150.226 315.681 149.768 315.381 149.463Z" fill="#0D3F94"/>
<path d="M344.01 157.699C344.01 155.411 342.962 153.124 341.312 151.599C339.513 150.073 337.116 149.006 334.118 149.006H320.627C320.178 149.006 319.728 149.158 319.428 149.463C319.128 149.768 318.979 150.073 318.979 150.684V177.374C318.979 177.831 319.128 178.289 319.428 178.594C319.728 178.899 320.028 179.051 320.627 179.051H324.375C324.824 179.051 325.274 178.899 325.574 178.594C325.874 178.289 326.023 177.984 326.023 177.374V169.748H334.118C337.116 169.748 339.513 168.833 341.312 167.155C343.112 165.63 344.01 163.342 344.01 161.054V157.699ZM336.966 160.292C336.966 161.207 336.665 161.97 336.066 162.58C335.466 163.19 334.567 163.495 333.368 163.495H326.023V155.106H333.368C334.567 155.106 335.466 155.564 336.066 156.022C336.665 156.632 336.966 157.394 336.966 158.309V160.292Z" fill="#0D3F94"/>
<path d="M372.341 173.256C372.041 172.951 371.742 172.798 371.142 172.798H355.703V166.85H366.046C366.495 166.85 366.945 166.698 367.245 166.393C367.545 166.088 367.694 165.783 367.694 165.173V162.275C367.694 161.817 367.545 161.36 367.245 161.055C366.945 160.75 366.645 160.597 366.046 160.597H355.703V155.107H370.692C371.142 155.107 371.592 154.954 371.892 154.649C372.191 154.344 372.341 154.039 372.341 153.429V150.531C372.341 150.074 372.191 149.616 371.892 149.311C371.592 149.006 371.292 148.854 370.692 148.854H350.307C349.857 148.854 349.407 149.006 349.107 149.311C348.808 149.616 348.658 149.921 348.658 150.531V177.374C348.658 177.831 348.808 178.136 349.107 178.441C349.407 178.746 349.707 178.899 350.157 178.899H371.142C371.592 178.899 372.041 178.746 372.341 178.441C372.641 178.136 372.791 177.831 372.791 177.221V174.323C372.791 174.018 372.641 173.561 372.341 173.256Z" fill="#0D3F94"/>
<path d="M399.623 176.154V173.103C399.623 172.646 399.473 172.188 399.173 171.883C398.873 171.578 398.573 171.426 397.974 171.426H397.824C397.824 171.426 397.374 171.578 396.625 171.731C394.226 172.341 389.13 173.408 385.982 173.408C384.933 173.408 384.183 173.103 383.584 172.493C382.984 171.883 382.684 171.121 382.684 170.053V158.767C382.684 157.852 383.134 156.937 383.734 156.174C384.333 155.564 385.232 155.107 385.982 155.107H396.924C397.374 155.107 397.824 154.954 398.124 154.649C398.423 154.344 398.573 154.039 398.573 153.429V150.531C398.573 150.074 398.423 149.616 398.124 149.311C397.824 149.006 397.524 148.854 396.924 148.854H385.232C382.235 148.854 379.836 149.769 378.187 151.294C376.539 152.971 375.639 155.259 375.639 158.004V170.511C375.639 173.256 376.539 175.544 378.187 177.221C379.836 178.899 382.235 179.661 385.232 179.661C387.931 179.661 391.228 179.204 393.777 178.594C395.126 178.289 396.175 178.136 397.074 177.831C397.524 177.679 397.824 177.679 397.974 177.526C398.124 177.526 398.124 177.526 398.273 177.526C398.573 177.374 399.023 177.221 399.323 176.916C399.473 176.916 399.623 176.459 399.623 176.154Z" fill="#0D3F94"/>
<path d="M425.406 176.154V173.103C425.406 172.646 425.256 172.188 424.956 171.883C424.656 171.578 424.356 171.426 423.757 171.426H423.607C423.607 171.426 423.157 171.578 422.408 171.731C420.009 172.341 414.913 173.408 411.765 173.408C410.716 173.408 409.966 173.103 409.367 172.493C408.767 171.883 408.468 171.121 408.468 170.053V158.767C408.468 157.852 408.917 156.937 409.517 156.174C410.116 155.564 411.016 155.107 411.765 155.107H422.708C423.157 155.107 423.607 154.954 423.907 154.649C424.207 154.344 424.356 154.039 424.356 153.429V150.531C424.356 150.074 424.207 149.616 423.907 149.311C423.607 149.006 423.307 148.854 422.708 148.854H411.016C408.018 148.854 405.619 149.769 403.971 151.294C402.322 152.971 401.422 155.259 401.422 158.004V170.511C401.422 173.256 402.322 175.544 403.971 177.221C405.619 178.899 408.018 179.661 411.016 179.661C413.714 179.661 417.012 179.204 419.56 178.594C420.909 178.289 421.958 178.136 422.858 177.831C423.307 177.679 423.607 177.679 423.757 177.526C423.907 177.526 423.907 177.526 424.057 177.526C424.356 177.374 424.806 177.221 425.106 176.916C425.256 176.916 425.406 176.459 425.406 176.154Z" fill="#0D3F94"/>
<path d="M175.828 91.8135C175.828 89.0682 175.228 86.323 174.179 83.7302C173.13 81.1375 171.481 78.8498 169.382 76.7146L104.028 10.2183C101.929 8.08307 99.6814 6.40542 97.1332 5.33781C94.5849 4.27021 91.8868 3.66016 89.1887 3.66016C86.4905 3.66016 83.7924 4.27021 81.3941 5.33781C78.8459 6.40542 76.5974 8.08307 74.4989 10.2183L8.99435 76.7146C6.89581 78.8498 5.24696 81.1375 4.19768 83.7302C3.14841 86.323 2.54883 89.0682 2.54883 91.8135C2.54883 94.5587 3.14841 97.304 4.19768 99.8967C5.39685 102.337 6.89581 104.777 8.99435 106.76L74.349 173.256C76.4475 175.391 78.696 177.069 81.2442 178.137C83.7924 179.204 86.4905 179.814 89.1887 179.814C91.8868 179.814 94.5849 179.204 97.1332 178.137C99.6814 177.069 101.929 175.391 104.028 173.256L169.382 106.76C171.481 104.625 173.13 102.337 174.179 99.7442C175.228 97.304 175.828 94.5587 175.828 91.8135ZM76.1477 25.0122L43.3205 125.062L17.2386 98.5241C16.0395 97.304 15.29 96.2364 14.8403 95.0163C14.3906 93.9487 14.0908 92.7286 14.0908 91.661C14.0908 90.5934 14.2407 89.5258 14.8403 88.3057C15.29 87.2381 16.0395 86.0179 17.2386 84.7978L76.1477 25.0122ZM163.986 89.5258L67.154 122.469L132.508 55.9726L161.138 85.1028C162.337 86.323 163.087 87.3906 163.537 88.6107C163.686 88.7632 163.836 89.2207 163.986 89.5258ZM59.0596 114.233L91.4371 15.7088C91.7369 15.8613 92.1866 15.8613 92.4864 16.0138C93.5357 16.4714 94.7348 17.2339 95.934 18.4541L124.414 47.5843L59.0596 114.233ZM92.4864 167.461C91.4371 167.918 90.2379 168.223 89.1887 168.223C88.1394 168.223 87.0901 168.071 85.891 167.461C84.8417 167.003 83.6425 166.241 82.4434 165.02L56.5114 138.483L154.843 105.082L95.934 165.02C94.7348 166.241 93.5357 167.003 92.4864 167.461Z" fill="#6AF8C8"/>
</svg>
