<svg width="285" height="285" viewBox="0 0 285 285" fill="none" xmlns="http://www.w3.org/2000/svg">
<g clip-path="url(#clip0_4518_1185)">
<mask id="mask0_4518_1185" style="mask-type:luminance" maskUnits="userSpaceOnUse" x="0" y="0" width="285" height="285">
<path d="M285 0H0V285H285V0Z" fill="white"/>
</mask>
<g mask="url(#mask0_4518_1185)">
<path d="M0 285H285.004V-0.00390625H0V285Z" fill="#ED1C24"/>
<path d="M97.2733 221.75H93.7778V233.327H97.2733C100.309 233.327 100.999 230.992 100.999 227.517C100.999 224.038 100.309 221.75 97.2733 221.75ZM101.827 250.803L97.3198 236.803H93.7778V250.803H89.8223V218.229H97.2278C102.195 218.229 104.955 220.38 104.955 227.517C104.955 232.043 103.85 234.698 100.999 236.025L106.012 250.803H101.827Z" fill="white"/>
<path d="M122.709 249.016C121.283 250.437 119.35 251.167 117.235 251.167C115.118 251.167 113.233 250.437 111.808 249.016C110.473 247.691 109.691 245.77 109.691 243.39V218.229H113.648V243.618C113.648 246.182 115.257 247.645 117.235 247.645C119.213 247.645 120.868 246.182 120.868 243.618V218.229H124.824V243.39C124.824 245.77 124.042 247.691 122.709 249.016Z" fill="white"/>
<path d="M142.588 249.154C141.346 250.344 139.415 251.123 136.793 251.123C134.263 251.123 132.331 250.437 131.043 249.154C129.526 247.645 129.02 245.77 129.02 242.293H132.975C132.975 244.442 133.206 245.631 134.079 246.546C134.631 247.141 135.551 247.554 136.793 247.554C138.127 247.554 139 247.141 139.599 246.502C140.472 245.54 140.657 244.306 140.657 242.156C140.657 238.406 140.104 237.26 137.436 236.162L133.712 234.652C130.354 233.28 129.249 231.45 129.249 226.509C129.249 223.672 130.077 221.34 131.734 219.83C133.021 218.639 134.77 217.955 136.93 217.955C139.322 217.955 141.116 218.639 142.358 219.83C144.014 221.43 144.52 223.536 144.52 226.509H140.565C140.565 224.77 140.38 223.58 139.552 222.574C139 221.888 138.127 221.478 136.885 221.478C135.735 221.478 134.907 221.888 134.356 222.484C133.573 223.353 133.206 224.678 133.206 226.371C133.206 229.574 133.712 230.534 136.333 231.633L140.013 233.141C143.738 234.652 144.612 236.94 144.612 242.064C144.612 245.448 144.152 247.6 142.588 249.154Z" fill="white"/>
<path d="M162.035 249.154C160.794 250.344 158.862 251.123 156.242 251.123C153.71 251.123 151.78 250.437 150.492 249.154C148.972 247.645 148.467 245.77 148.467 242.293H152.424C152.424 244.442 152.652 245.631 153.528 246.546C154.078 247.141 154.999 247.554 156.242 247.554C157.573 247.554 158.449 247.141 159.046 246.502C159.919 245.54 160.104 244.306 160.104 242.156C160.104 238.406 159.553 237.26 156.884 236.162L153.159 234.652C149.801 233.28 148.697 231.45 148.697 226.509C148.697 223.672 149.526 221.34 151.181 219.83C152.468 218.639 154.218 217.955 156.379 217.955C158.771 217.955 160.564 218.639 161.807 219.83C163.461 221.43 163.967 223.536 163.967 226.509H160.012C160.012 224.77 159.828 223.58 158.999 222.574C158.449 221.888 157.573 221.478 156.332 221.478C155.181 221.478 154.354 221.888 153.803 222.484C153.021 223.353 152.652 224.678 152.652 226.371C152.652 229.574 153.159 230.534 155.78 231.633L159.46 233.141C163.185 234.652 164.059 236.94 164.059 242.064C164.059 245.448 163.6 247.6 162.035 249.154Z" fill="white"/>
<path d="M168.504 250.803V218.229H172.459V250.803H168.504Z" fill="white"/>
<path d="M185.561 224.587L182.481 239.592H188.597L185.561 224.587ZM190.899 250.803L189.334 243.115H181.744L180.181 250.803H176.041L183.676 218.229H187.494L195.083 250.803H190.899Z" fill="white"/>
<path d="M21.0664 195.071H263.83V192.218H21.0664V195.071Z" fill="white"/>
<path d="M122.401 168.56H101.242L88.0876 96.4944L74.9321 168.56H53.7691L32.4648 66.7539H54.7696L64.3511 138.674L76.9331 66.7539H99.2391L111.823 138.674L121.402 66.7539H143.706L122.401 168.56Z" fill="white"/>
<path d="M152.148 168.56V66.7539H172.453V168.56H152.148Z" fill="white"/>
<path d="M230.081 168.559L208.494 118.798V168.559H188.188V66.7529H205.916L227.079 116.508V66.7529H247.383V168.559H230.081Z" fill="white"/>
</g>
<path d="M280 5H5V280H280V5Z" stroke="white" stroke-width="2"/>
</g>
<defs>
<clipPath id="clip0_4518_1185">
<rect width="285" height="285" fill="white"/>
</clipPath>
</defs>
</svg>
