<svg width="340" height="108" viewBox="0 0 340 108" fill="none" xmlns="http://www.w3.org/2000/svg">
<g clip-path="url(#clip0_4508_1366)">
<path d="M46.0983 35.6602H33.2393C16.5034 35.6602 2.88672 49.2111 2.88672 65.8662V88.9741C2.88672 91.1069 4.6272 92.839 6.77037 92.839C8.91355 92.839 10.654 91.1069 10.654 88.9741V65.8662C10.654 53.47 20.7829 43.39 33.2393 43.39H46.0983C48.2415 43.39 49.982 41.6579 49.982 39.5251C49.9751 37.3922 48.2415 35.6602 46.0983 35.6602Z" fill="#223C76"/>
<path d="M151.72 35.6602C149.577 35.6602 147.837 37.3923 147.837 39.5251C147.837 41.6579 149.577 43.39 151.72 43.39C163.276 43.39 172.681 52.75 172.681 64.2496C172.681 75.7493 163.276 85.1092 151.72 85.1092C140.165 85.1092 130.759 75.7493 130.759 64.2496V17.5651C130.759 15.4323 129.019 13.7002 126.876 13.7002C124.733 13.7002 122.992 15.4323 122.992 17.5651V64.2496C122.992 80.0149 135.879 92.8323 151.713 92.8323C167.548 92.8323 180.435 80.0081 180.435 64.2496C180.435 48.4911 167.548 35.6602 151.713 35.6602H151.72Z" fill="#223C76"/>
<path d="M286.181 85.1024H282.195C270.639 85.1024 261.234 75.7424 261.234 64.2428V17.5583C261.234 15.4254 259.494 13.6934 257.35 13.6934C255.207 13.6934 253.467 15.4254 253.467 17.5583V64.2428C253.467 80.0081 266.353 92.8254 282.188 92.8254H286.174C288.317 92.8254 290.058 91.0934 290.058 88.9605C290.058 86.8277 288.317 85.0956 286.174 85.0956L286.181 85.1024Z" fill="#223C76"/>
<path d="M286.181 35.6602H272.845C270.701 35.6602 268.961 37.3922 268.961 39.5251C268.961 41.6579 270.701 43.39 272.845 43.39H286.181C288.325 43.39 290.065 41.6579 290.065 39.5251C290.065 37.3922 288.325 35.6602 286.181 35.6602Z" fill="#CA2509"/>
<path d="M111.336 48.6543C109.193 48.6543 107.453 50.3864 107.453 52.5192V64.2498C107.453 75.7494 98.0472 85.1094 86.4918 85.1094C74.9364 85.1094 65.531 75.7494 65.531 64.2498V52.5192C65.531 50.3864 63.7905 48.6543 61.6473 48.6543C59.5041 48.6543 57.7637 50.3864 57.7637 52.5192V64.2498C57.7637 80.015 70.65 92.8324 86.4849 92.8324C102.32 92.8324 115.206 80.0083 115.206 64.2498V52.5192C115.206 50.3864 113.466 48.6543 111.323 48.6543H111.336Z" fill="#CA2509"/>
<path d="M216.959 34.9541C201.117 34.9541 188.23 47.7783 188.23 63.5435C188.23 63.6794 188.237 63.8152 188.251 63.9511C188.237 64.0869 188.23 64.2228 188.23 64.3586C188.23 80.1239 201.117 92.9413 216.959 92.9413C232.8 92.9413 245.68 80.1171 245.68 64.3586C245.68 64.2228 245.673 64.0869 245.659 63.9511C245.673 63.8152 245.68 63.6794 245.68 63.5435C245.687 47.7783 232.793 34.9541 216.959 34.9541ZM237.947 63.9443C237.933 64.0802 237.926 64.216 237.926 64.3518C237.926 75.8515 228.521 85.2115 216.965 85.2115C205.41 85.2115 196.005 75.8515 196.005 64.3518C196.005 64.216 195.998 64.0802 195.984 63.9443C195.998 63.8085 196.005 63.6726 196.005 63.5368C196.005 52.0371 205.41 42.6771 216.965 42.6771C228.521 42.6771 237.926 52.0371 237.926 63.5368C237.919 63.6726 237.926 63.8085 237.947 63.9443Z" fill="#223C76"/>
</g>
<defs>
<clipPath id="clip0_4508_1366">
<rect width="340" height="108" fill="white"/>
</clipPath>
</defs>
</svg>
