<svg width="387" height="91" viewBox="0 0 387 91" fill="none" xmlns="http://www.w3.org/2000/svg">
<path d="M91.8919 46.2721H76.746L74.0838 54.879H62.3145L79.0999 8.61133H89.5381L106.426 54.879H94.5542L91.8919 46.2721ZM79.4082 37.6652H89.2349L84.3216 21.5699L79.4082 37.6652Z" fill="white"/>
<path d="M141.638 17.2133H127.921V54.8741H116.871V17.2133H103.359V8.60645H141.638V17.2133Z" fill="white"/>
<path d="M182.783 8.60645V54.8741H171.728V17.2133H161.393L160.679 32.8053C160.37 38.1687 159.656 42.4239 158.428 45.6623C157.302 48.9006 155.662 51.229 153.514 52.6474C151.366 54.1674 148.498 54.8741 144.813 54.8741H141.848V46.2723L143.384 46.069C145.635 45.7639 147.172 44.3456 148.195 42.0172C149.218 39.5871 149.834 35.5404 150.138 29.8669L150.955 8.60645H182.783Z" fill="white"/>
<path d="M215.636 46.2721H200.49L197.828 54.879H186.059L202.844 8.61133H213.282L230.17 54.879H218.298L215.636 46.2721ZM203.152 37.6652H212.979L208.066 21.5699L203.152 37.6652Z" fill="white"/>
<path d="M269.573 39.3839C269.47 42.6223 268.55 45.3573 267.013 47.8891C265.477 50.3191 263.226 52.2408 260.363 53.5575C257.495 54.8742 254.221 55.5809 250.639 55.5809C244.6 55.5809 239.892 53.6592 236.413 49.7091C232.934 45.759 231.191 40.1922 231.191 33.1054V30.8787C231.191 26.4253 232.009 22.4752 233.545 19.0334C235.082 15.6934 237.333 13.06 240.298 11.24C243.269 9.41997 246.646 8.50488 250.531 8.50488C256.056 8.50488 260.563 9.92326 263.94 12.8566C267.317 15.7951 269.264 19.8418 269.67 25.0069H258.615C258.513 22.1701 257.798 20.2485 256.467 19.0334C255.136 17.8184 253.091 17.2134 250.428 17.2134C247.663 17.2134 245.618 18.2251 244.389 20.2485C243.161 22.2718 242.447 25.6119 242.344 30.0704V33.3087C242.344 38.1688 242.961 41.7123 244.184 43.8373C245.412 45.9623 247.561 46.974 250.531 46.974C253.091 46.974 255.033 46.3639 256.364 45.154C257.696 43.939 258.41 42.0173 258.513 39.4856H269.568V39.3839H269.573Z" fill="white"/>
<path d="M276.374 55.962V61.3203H272.57V45.5859H278.907C280.177 45.5859 281.21 45.8147 282.135 46.2722C283.055 46.7298 283.749 47.2992 284.324 48.2092C284.787 49.0073 285.131 49.9173 285.131 51.0612C285.131 52.6575 284.556 53.7963 283.404 54.7114C282.253 55.6214 280.752 56.0789 278.794 56.0789H276.374V55.962ZM276.374 52.9981H278.907C279.601 52.9981 280.177 52.7693 280.634 52.4287C280.978 52.0881 281.21 51.5187 281.21 50.8324C281.21 50.1461 280.978 49.4649 280.634 49.0073C280.29 48.5498 279.714 48.3261 279.02 48.3261H276.487V52.9981H276.374Z" fill="white"/>
<path d="M301.494 53.7963C301.494 55.3926 301.15 56.6433 300.574 57.899C299.999 59.0377 299.192 59.9528 298.153 60.634C297.115 61.3203 295.851 61.544 294.463 61.544C293.081 61.544 291.93 61.2034 290.891 60.634C289.853 60.0646 289.046 59.1547 288.471 58.0108C287.895 56.872 287.551 55.5045 287.551 54.02V53.11C287.551 51.5137 287.782 50.1462 288.358 49.0074C288.933 47.8686 289.74 46.9535 290.778 46.2723C291.817 45.5911 293.081 45.3623 294.468 45.3623C295.851 45.3623 297.002 45.7029 298.04 46.2723C299.079 46.9586 299.885 47.8686 300.461 49.0074C301.037 50.1462 301.381 51.5137 301.381 52.9982V53.7963H301.494ZM297.573 53.11C297.573 51.5137 297.341 50.3749 296.766 49.5768C296.19 48.7786 295.496 48.3211 294.463 48.3211C292.505 48.3211 291.467 49.8055 291.354 52.6525V53.7912C291.354 55.3876 291.585 56.5263 292.161 57.3245C292.736 58.1226 293.43 58.5802 294.463 58.5802C295.383 58.5802 296.19 58.1226 296.766 57.3245C297.341 56.5263 297.573 55.3876 297.573 53.7912V53.11Z" fill="white"/>
<path d="M314.975 48.4379H308.063V50.9493H310.021C311.29 50.9493 312.442 51.1781 313.362 51.6306C314.281 52.0881 315.088 52.6575 315.551 53.4557C316.127 54.2538 316.358 55.1638 316.358 56.0789C316.358 57.6752 315.782 58.9309 314.631 59.8409C313.48 60.8678 311.866 61.3254 309.908 61.3254H304.146V45.5859H314.98V48.4379H314.975ZM308.063 53.9081V58.4683H310.021C310.828 58.4683 311.403 58.2395 311.866 57.782C312.328 57.3244 312.555 56.755 312.555 56.0738C312.555 55.3926 312.323 54.935 311.866 54.4775C311.403 54.1369 310.828 53.9081 310.021 53.9081H308.063Z" fill="white"/>
<path d="M332.61 53.7963C332.61 55.3926 332.266 56.6433 331.69 57.899C331.114 59.0377 330.308 59.9528 329.269 60.634C328.231 61.3203 326.967 61.544 325.584 61.544C324.202 61.544 323.051 61.2034 322.013 60.634C320.974 60.0646 320.167 59.1547 319.592 58.0108C319.016 56.872 318.672 55.5045 318.672 54.02V53.11C318.672 51.5137 318.903 50.1462 319.479 49.0074C320.054 47.8686 320.861 46.9535 321.899 46.2723C322.938 45.5911 324.202 45.3623 325.59 45.3623C326.972 45.3623 328.123 45.7029 329.161 46.2723C330.2 46.9586 331.007 47.8686 331.582 49.0074C332.158 50.1462 332.502 51.5137 332.502 52.9982V53.7963H332.61ZM328.694 53.11C328.694 51.5137 328.463 50.3749 327.887 49.5768C327.311 48.7786 326.617 48.3211 325.584 48.3211C323.626 48.3211 322.588 49.8055 322.475 52.6525V53.7912C322.475 55.3876 322.706 56.5263 323.282 57.3245C323.858 58.1226 324.551 58.5802 325.59 58.5802C326.51 58.5802 327.316 58.1226 327.892 57.3245C328.468 56.5263 328.699 55.3876 328.699 53.7912V53.11H328.694Z" fill="white"/>
<path d="M347.358 48.4385H342.635V61.3208H338.832V48.4385H334.104V45.4746H347.476V48.4385H347.358Z" fill="white"/>
<path d="M362.685 53.7963C362.685 55.3926 362.341 56.6433 361.766 57.899C361.19 59.0377 360.383 59.9528 359.345 60.634C358.307 61.3203 357.037 61.544 355.655 61.544C354.272 61.544 353.121 61.2034 352.083 60.634C351.045 60.0646 350.238 59.1547 349.662 58.0108C349.087 56.872 348.742 55.5045 348.742 54.02V53.11C348.742 51.5137 348.973 50.1462 349.549 49.0074C350.125 47.8686 350.932 46.9535 351.97 46.2723C353.008 45.5911 354.272 45.3623 355.655 45.3623C357.037 45.3623 358.188 45.7029 359.227 46.2723C360.265 46.9586 361.072 47.8686 361.647 49.0074C362.223 50.1462 362.567 51.5137 362.567 52.9982V53.7963H362.685ZM358.769 53.11C358.769 51.5137 358.538 50.3749 357.962 49.5768C357.387 48.7786 356.693 48.3211 355.66 48.3211C353.702 48.3211 352.664 49.8055 352.551 52.6525V53.7912C352.551 55.3876 352.782 56.5263 353.357 57.3245C353.933 58.1226 354.627 58.5802 355.66 58.5802C356.58 58.5802 357.387 58.1226 357.962 57.3245C358.538 56.5263 358.769 55.3876 358.769 53.7912V53.11Z" fill="white"/>
<path d="M285.706 69.8662H280.864V82.7485H277.061V69.8662H272.338V66.9023H285.706V69.8662Z" fill="white"/>
<path d="M298.035 76.0229H291.929V79.785H299.073V82.7488H288.008V67.0195H299.073V69.9834H291.929V73.2879H298.035V76.0229Z" fill="white"/>
<path d="M307.488 72.2609L310.14 67.0195H314.519L310.022 74.8842L314.632 82.8657H310.14L307.488 77.5074L304.836 82.8657H300.457L305.067 74.8842L300.57 67.0195H304.954L307.488 72.2609Z" fill="white"/>
<path d="M329.957 82.7488H326.153V76.1399H320.51V82.7488H316.707V67.0195H320.51V73.2879H326.153V67.0195H329.957V82.7488Z" fill="white"/>
<path d="M342.635 67.0195H346.438V82.8657H342.635V72.9472L336.873 82.8657H333.07V67.0195H336.873V76.938L342.635 67.0195Z" fill="white"/>
<path d="M355.197 76.4805H353.352V82.7488H349.549V67.0195H353.352V73.176H354.853L357.962 67.0195H362.572L358.193 74.3148L363.148 82.8657H358.538L355.197 76.4805Z" fill="white"/>
<path d="M374.326 67.0195H378.129V82.8657H374.326V72.9472L368.565 82.8657H364.762V67.0195H368.565V76.938L374.326 67.0195Z" fill="white"/>
<path d="M16.8365 8.91113H6.3418V18.5958H16.8365V8.91113Z" fill="white"/>
<path d="M44.5436 8.91113H34.0488V18.5958H44.5436V8.91113Z" fill="white"/>
<path d="M44.5592 20.9707H34.0645V30.6553H44.5592V20.9707Z" fill="white"/>
<path d="M44.5494 33.0293H34.0547V42.7139H44.5494V33.0293Z" fill="white"/>
<path d="M58.6822 8.91113H48.1875V18.5958H58.6822V8.91113Z" fill="white"/>
<g opacity="0.1">
<path d="M58.6822 8.91113H48.1875V18.5958H58.6822V8.91113Z" fill="white"/>
<mask id="mask0_4508_1235" style="mask-type:luminance" maskUnits="userSpaceOnUse" x="48" y="8" width="11" height="11">
<path d="M58.6822 8.91113H48.1875V18.5958H58.6822V8.91113Z" fill="white"/>
</mask>
<g mask="url(#mask0_4508_1235)">
<path d="M58.6822 8.91113H48.1875V18.5958H58.6822V8.91113Z" fill="white"/>
</g>
</g>
<path d="M58.6822 20.9951H48.1875V30.6798H58.6822V20.9951Z" fill="white"/>
<path d="M58.6861 33.0293H48.1914V42.7139H58.6861V33.0293Z" fill="white"/>
<path d="M30.4811 8.92188H19.9863V18.6065H30.4811V8.92188Z" fill="white"/>
<path d="M30.4811 20.9707H19.9863V30.6553H30.4811V20.9707Z" fill="white"/>
<path d="M58.6822 45.0879H48.1875V54.7725H58.6822V45.0879Z" fill="white"/>
<g opacity="0.1">
<path d="M58.6822 20.9707H48.1875V30.6553H58.6822V20.9707Z" fill="white"/>
<mask id="mask1_4508_1235" style="mask-type:luminance" maskUnits="userSpaceOnUse" x="48" y="20" width="11" height="11">
<path d="M58.6822 20.9707H48.1875V30.6553H58.6822V20.9707Z" fill="white"/>
</mask>
<g mask="url(#mask1_4508_1235)">
<path d="M58.6822 20.9707H48.1875V30.6553H58.6822V20.9707Z" fill="white"/>
</g>
</g>
<g opacity="0.1">
<path d="M58.6822 33.0293H48.1875V42.7139H58.6822V33.0293Z" fill="white"/>
<mask id="mask2_4508_1235" style="mask-type:luminance" maskUnits="userSpaceOnUse" x="48" y="33" width="11" height="10">
<path d="M58.6822 33.0293H48.1875V42.7139H58.6822V33.0293Z" fill="white"/>
</mask>
<g mask="url(#mask2_4508_1235)">
<path d="M58.6822 33.0293H48.1875V42.7139H58.6822V33.0293Z" fill="white"/>
</g>
</g>
<g opacity="0.1">
<path d="M58.6822 45.0879H48.1875V54.7725H58.6822V45.0879Z" fill="white"/>
<mask id="mask3_4508_1235" style="mask-type:luminance" maskUnits="userSpaceOnUse" x="48" y="45" width="11" height="10">
<path d="M58.6822 45.0879H48.1875V54.7725H58.6822V45.0879Z" fill="white"/>
</mask>
<g mask="url(#mask3_4508_1235)">
<path d="M58.6822 45.0879H48.1875V54.7725H58.6822V45.0879Z" fill="white"/>
</g>
</g>
<g opacity="0.2">
<path d="M44.5494 8.91113H34.0547V18.5958H44.5494V8.91113Z" fill="white"/>
<mask id="mask4_4508_1235" style="mask-type:luminance" maskUnits="userSpaceOnUse" x="34" y="8" width="11" height="11">
<path d="M44.5494 8.91113H34.0547V18.5958H44.5494V8.91113Z" fill="white"/>
</mask>
<g mask="url(#mask4_4508_1235)">
<path d="M44.5494 8.91113H34.0547V18.5958H44.5494V8.91113Z" fill="white"/>
</g>
</g>
<g opacity="0.2">
<path d="M44.5494 20.9707H34.0547V30.6553H44.5494V20.9707Z" fill="white"/>
<mask id="mask5_4508_1235" style="mask-type:luminance" maskUnits="userSpaceOnUse" x="34" y="20" width="11" height="11">
<path d="M44.5494 20.9707H34.0547V30.6553H44.5494V20.9707Z" fill="white"/>
</mask>
<g mask="url(#mask5_4508_1235)">
<path d="M44.5494 20.9707H34.0547V30.6553H44.5494V20.9707Z" fill="white"/>
</g>
</g>
<g opacity="0.2">
<path d="M44.5494 33.0293H34.0547V42.7139H44.5494V33.0293Z" fill="white"/>
<mask id="mask6_4508_1235" style="mask-type:luminance" maskUnits="userSpaceOnUse" x="34" y="33" width="11" height="10">
<path d="M44.5494 33.0293H34.0547V42.7139H44.5494V33.0293Z" fill="white"/>
</mask>
<g mask="url(#mask6_4508_1235)">
<path d="M44.5494 33.0293H34.0547V42.7139H44.5494V33.0293Z" fill="white"/>
</g>
</g>
<g opacity="0.3">
<path d="M30.4869 8.91113H19.9922V18.5958H30.4869V8.91113Z" fill="white"/>
<mask id="mask7_4508_1235" style="mask-type:luminance" maskUnits="userSpaceOnUse" x="19" y="8" width="12" height="11">
<path d="M30.4869 8.91113H19.9922V18.5958H30.4869V8.91113Z" fill="white"/>
</mask>
<g mask="url(#mask7_4508_1235)">
<path d="M30.4869 8.91113H19.9922V18.5958H30.4869V8.91113Z" fill="white"/>
</g>
</g>
<g opacity="0.3">
<path d="M30.4869 20.9707H19.9922V30.6553H30.4869V20.9707Z" fill="white"/>
<mask id="mask8_4508_1235" style="mask-type:luminance" maskUnits="userSpaceOnUse" x="19" y="20" width="12" height="11">
<path d="M30.4869 20.9707H19.9922V30.6553H30.4869V20.9707Z" fill="white"/>
</mask>
<g mask="url(#mask8_4508_1235)">
<path d="M30.4869 20.9707H19.9922V30.6553H30.4869V20.9707Z" fill="white"/>
</g>
</g>
<g opacity="0.5">
<path d="M16.8483 8.91113H6.35352V18.5958H16.8483V8.91113Z" fill="white"/>
<mask id="mask9_4508_1235" style="mask-type:luminance" maskUnits="userSpaceOnUse" x="6" y="8" width="11" height="11">
<path d="M16.8483 8.91113H6.35352V18.5958H16.8483V8.91113Z" fill="white"/>
</mask>
<g mask="url(#mask9_4508_1235)">
<path d="M16.8483 8.91113H6.35352V18.5958H16.8483V8.91113Z" fill="white"/>
</g>
</g>
</svg>
