<svg width="286" height="278" viewBox="0 0 286 278" fill="none" xmlns="http://www.w3.org/2000/svg">
<g clip-path="url(#clip0_4518_617)">
<path d="M92.3594 158.722C94.6033 160.467 98.4792 162.761 103.885 164.805V158.722H92.3594Z" fill="#010101"/>
<path d="M83.2812 180.014C83.2812 181.061 83.7402 183.355 85.9842 183.604L86.5962 175.227L86.6982 173.98L86.9531 170.39H83.2812V180.064V180.014ZM103.987 128.603V147.701C101.743 146.654 97.4079 143.313 97.4079 138.376C97.4079 133.439 101.743 129.749 103.987 128.603ZM103.987 164.855V158.771H92.461C94.6029 160.516 98.4788 162.81 103.987 164.855Z" fill="#010101"/>
<path d="M116.378 200.359C112.247 195.074 109.086 188.491 108.27 183.555H100.518C98.6309 183.555 94.959 184.452 94.959 187.694V196.32C94.959 198.514 96.0299 202.753 100.518 202.753H111.483C112.91 202.653 115.256 202.155 116.429 200.359H116.378Z" fill="#010101"/>
<path d="M117.196 197.617V188.392C117.196 184.353 113.881 183.555 108.373 183.555C109.189 188.491 112.402 194.924 116.482 200.359C116.839 199.661 117.196 198.764 117.196 197.617Z" fill="#010101"/>
<path d="M194.815 158.722C192.571 160.467 188.695 162.761 183.289 164.805V158.722H194.815Z" fill="#010101"/>
<path d="M203.893 180.015C203.893 181.062 203.434 183.356 201.19 183.605L200.578 175.228L200.476 173.981L200.221 170.391H203.893V180.065V180.015ZM183.188 128.604V147.702C185.431 146.655 189.766 143.314 189.766 138.377C189.766 133.44 185.431 129.75 183.188 128.604ZM183.188 164.856V158.772H194.713C192.571 160.517 188.695 162.811 183.188 164.856Z" fill="#010101"/>
<path d="M170.795 200.359C174.926 195.074 178.088 188.491 178.904 183.555H186.656C188.543 183.555 192.215 184.452 192.215 187.694V196.32C192.215 198.514 191.144 202.753 186.656 202.753H175.691C174.263 202.653 171.917 202.155 170.744 200.359H170.795Z" fill="#010101"/>
<path d="M169.979 197.617V188.392C169.979 184.353 173.293 183.555 178.801 183.555C177.985 188.491 174.772 194.924 170.692 200.359C170.336 199.661 169.979 198.764 169.979 197.617Z" fill="#010101"/>
<path d="M124.488 102.922C126.732 107.41 133.77 116.286 143.562 116.286C153.353 116.286 160.289 107.41 162.533 102.922C158.402 109.155 151.467 113.294 143.562 113.294C135.657 113.294 128.619 109.055 124.488 102.922Z" fill="#010101"/>
<path d="M101.64 56.6966V55.799H101.385L101.64 56.6966ZM143.561 122.02V122.918L143.816 121.173L143.561 121.97V122.02ZM91.0322 109.155C90.6752 108.806 90.1143 108.906 89.7573 109.255C89.4003 109.604 89.5023 110.152 89.8593 110.501L91.0322 109.105V109.155ZM78.3336 103.271V102.373H78.0786L77.8236 102.473L78.2826 103.271H78.3336ZM92.3582 158.721V157.774H89.6553L91.7972 159.37L92.3582 158.671V158.721ZM96.1321 165.752C95.6731 165.503 95.2141 165.653 94.8571 166.002C94.6021 166.45 94.7551 166.899 95.1121 167.248L96.1831 165.752H96.1321ZM185.533 56.7465L185.788 55.8489H185.533V56.7465ZM143.612 122.07L143.357 121.173L143.612 122.918V122.12V122.07ZM197.313 110.551C197.67 110.202 197.772 109.654 197.415 109.305C197.058 108.956 196.497 108.856 196.14 109.205L197.313 110.601V110.551ZM208.839 103.321L209.298 102.523L209.043 102.423H208.788V103.321H208.839ZM194.814 158.771L195.426 159.469L197.568 157.874H194.865V158.821L194.814 158.771ZM192.111 167.298C192.57 167.049 192.723 166.5 192.366 166.052C192.111 165.603 191.55 165.453 191.091 165.802L192.162 167.298H192.111ZM143.561 102.673C136.472 102.673 130.709 97.1375 130.709 90.2561H128.924C128.924 98.0849 135.503 104.418 143.51 104.418V102.673H143.561ZM130.862 90.2561C130.862 83.3746 136.625 77.8395 143.714 77.8395V76.0943C135.707 76.0943 129.128 82.4272 129.128 90.2561H130.913H130.862ZM121.58 90.2561C121.58 78.3881 131.474 68.764 143.714 68.764V66.919C130.505 66.919 119.795 77.3908 119.795 90.2561H121.58ZM101.436 55.8489C96.4891 56.9958 86.4934 62.3813 85.5244 75.2964L87.3093 75.3961C88.2273 63.5282 97.4581 58.4917 101.793 57.4446L101.436 55.8489ZM143.612 55.8489H114.543V57.5942H143.612V55.8489ZM114.543 55.8489H101.691V57.5942H114.543V55.8489ZM113.727 56.7465V85.1698H115.512V56.7465H113.727ZM113.727 85.1698C113.829 94.8437 119.948 115.987 143.408 123.018L144.02 121.272C121.529 114.59 115.614 94.345 115.614 85.1698H113.727ZM143.663 121.173C137.186 121.272 126.935 120.574 116.787 118.779C106.638 116.934 96.7441 113.842 91.1342 109.355L89.9613 110.751C95.9791 115.588 106.23 118.779 116.481 120.624C126.731 122.469 137.084 123.167 143.714 123.167V121.223L143.663 121.173ZM85.5754 75.3961C84.6574 87.1145 84.1474 98.5337 84.0454 103.321L85.8304 103.421C85.9324 98.5836 86.4424 87.314 87.3603 75.5956L85.5754 75.3463V75.3961ZM84.0454 103.221V103.919H85.8304V103.221H84.0454ZM77.9256 102.523C75.6817 103.919 71.5508 108.607 71.5508 117.134H73.3357C73.3357 109.205 77.1096 105.066 78.8946 104.019L77.9766 102.523H77.9256ZM71.5508 117.134V158.871H73.3357V117.134H71.5508ZM71.5508 158.971C71.8058 160.915 72.2648 163.907 73.1827 166.45C73.6417 167.697 74.3557 168.844 75.1717 169.791C75.9877 170.689 77.0586 171.387 78.4866 171.387V169.642C77.7726 169.642 77.2116 169.293 76.5996 168.744C75.9877 168.046 75.4267 167.149 74.9677 166.002C74.0497 163.708 73.5397 160.816 73.4377 158.971H71.5508ZM84.9634 102.373H83.3315V104.119H84.9634V102.373ZM84.2494 170.44V103.271H82.4645V170.44H84.2494ZM83.3315 102.373H79.5576V104.119H83.3315V102.373ZM79.5576 102.373H78.3846V104.119H79.5576V102.373ZM78.3846 171.387H79.5576V169.642H78.3846V171.387ZM79.5576 171.387H83.3315V169.642H79.5576V171.387ZM78.6396 103.321V170.49H80.4245V103.321H78.6396ZM84.0454 103.919C83.7904 106.014 84.1474 109.454 86.0344 112.895L87.6663 111.997C85.8814 108.906 85.6774 105.764 85.7794 104.069L83.9944 103.969L84.0454 103.919ZM86.0344 112.895C87.6663 115.638 90.3693 118.43 94.6531 120.475L95.4691 118.879C91.4402 117.034 89.0943 114.491 87.7173 112.097L86.0854 112.895H86.0344ZM85.9324 112.446V170.539H87.7173V112.446H85.9324ZM86.8504 169.592H83.3315V171.337H86.8504V169.592ZM82.3625 170.49V180.014H84.1474V170.49H82.3625ZM82.3625 180.014C82.3625 180.712 82.4645 181.61 82.9745 182.557C83.4335 183.455 84.4024 184.302 85.7794 184.502L86.0344 182.757C85.2184 182.657 84.7594 182.158 84.5044 181.709C84.1474 181.111 84.0454 180.463 84.1474 180.114L82.3625 180.014ZM85.0654 183.704V205.994H86.8504V183.704H85.0654ZM85.0654 205.994C85.0654 206.792 85.3204 207.939 85.8814 208.986C86.5954 210.033 87.6663 210.93 89.4003 210.93V209.185C88.3293 209.185 87.7683 208.736 87.4113 208.138C86.9523 207.44 86.7994 206.642 86.7994 206.044L85.0144 205.944L85.0654 205.994ZM94.6021 120.425C97.2031 121.671 100.008 122.818 102.966 123.865L103.578 122.27C100.62 121.223 97.917 120.076 95.3161 118.929L94.6021 120.425ZM102.966 122.17C101.079 123.068 98.376 125.062 96.1321 127.705C93.8882 130.348 92.0012 133.789 92.0012 137.828H93.7862C93.7862 134.387 95.4181 131.295 97.5601 128.852C99.702 126.458 102.15 124.613 103.782 123.816L102.966 122.22V122.17ZM92.0012 137.927C92.0012 141.967 93.9902 145.407 96.3361 147.95C98.682 150.593 101.64 152.339 103.527 153.236L104.343 151.64C102.558 150.843 99.855 149.097 97.611 146.704C95.3671 144.31 93.7352 141.318 93.7352 137.828H91.9502V137.927H92.0012ZM103.527 153.236C108.729 155.63 124.028 160.467 143.561 160.467V158.721C124.232 158.721 109.29 153.884 104.343 151.591L103.527 153.186V153.236ZM103.068 123.816C103.068 123.816 103.527 123.915 103.68 124.065L104.292 122.469C104.292 122.469 103.935 122.369 103.68 122.22L103.068 123.816ZM103.68 124.065C113.931 127.655 126.527 130.049 143.612 130.049V128.303C126.629 128.303 114.288 125.91 104.292 122.419L103.68 124.015V124.065ZM103.068 147.751V152.488H104.853V147.751H103.068ZM104.343 146.953C103.425 146.504 101.844 145.457 100.569 143.961C99.294 142.465 98.325 140.62 98.325 138.426H96.5401C96.5401 141.169 97.713 143.463 99.243 145.108C100.671 146.853 102.405 148 103.578 148.549L104.292 146.953H104.343ZM103.068 123.267V128.553H104.853V123.267H103.068ZM103.068 128.652V147.751H104.853V128.652H103.068ZM98.376 138.426C98.376 136.232 99.294 134.287 100.62 132.692C101.895 131.096 103.425 129.949 104.394 129.351L103.476 127.755C102.303 128.453 100.518 129.7 99.141 131.445C97.7131 133.29 96.4381 135.584 96.4381 138.326L98.427 138.426H98.376ZM103.068 152.438V158.771H104.853V152.438H103.068ZM92.3582 159.669H103.884V157.923H92.3582V159.669ZM95.0611 167.248C96.3361 168.046 98.223 168.994 100.722 169.991L101.436 168.395C98.937 167.498 97.2031 166.451 96.1321 165.752L95.0611 167.248ZM89.5023 210.831H130.505V209.085H89.5023V210.831ZM91.7462 159.419C94.0922 161.165 97.968 163.558 103.527 165.653L104.241 164.057C98.835 161.963 95.0611 159.669 92.8172 158.073L91.7462 159.469V159.419ZM104.802 164.805V158.721H103.017V164.805H104.802ZM103.017 164.805V165.054H104.802V164.805H103.017ZM103.629 165.603C112.452 169.043 125.66 172.135 143.663 172.135V170.39C125.864 170.39 112.911 167.398 104.343 163.957L103.629 165.553V165.603ZM100.824 170.091C108.933 173.332 123.569 177.122 143.561 177.122V175.376C123.671 175.376 109.392 171.686 101.487 168.495L100.773 170.091H100.824ZM100.722 169.991L101.538 168.395C101.538 168.395 101.436 168.395 101.436 168.296L100.722 170.041V169.991ZM100.722 169.991H100.824L101.538 168.395H101.436L100.722 169.991ZM101.538 168.395H101.436L100.722 169.991H100.824L101.538 168.395ZM107.097 173.581C105.465 170.689 103.221 169.093 101.538 168.395L100.824 169.991C101.997 170.589 103.986 171.836 105.414 174.379L107.046 173.581H107.097ZM85.8814 170.34L85.6264 173.88L87.4113 173.98L87.6663 170.44L85.8814 170.34ZM106.281 173.083H86.5954V174.828H106.281V173.083ZM85.6774 173.88L85.5754 175.127L87.3603 175.227L87.4623 173.98L85.6774 173.88ZM85.6774 175.127L85.0654 183.504L86.8504 183.604L87.4623 175.227L85.6774 175.127ZM109.137 181.46C109.137 178.917 108.678 176.723 107.862 174.928L106.23 175.626C106.944 177.221 107.403 179.066 107.403 181.51H109.188L109.137 181.46ZM107.862 174.928C107.607 174.479 107.403 174.03 107.148 173.531L105.516 174.429C105.771 174.778 105.975 175.227 106.128 175.576L107.913 174.878L107.862 174.928ZM86.6464 176.075H107.046V174.329H86.6464V176.075ZM107.25 181.46C107.25 182.158 107.352 182.956 107.505 183.754L109.29 183.504C109.188 182.806 109.035 182.108 109.035 181.56H107.25V181.46ZM108.423 182.607H100.671V184.352H108.423V182.607ZM100.518 182.607C99.447 182.607 97.917 182.856 96.6421 183.654C95.3671 184.352 94.1431 185.599 94.1431 187.693H95.9281C95.9281 186.546 96.5401 185.748 97.5601 185.3C98.478 184.701 99.804 184.502 100.62 184.502L100.518 182.657V182.607ZM94.1431 187.643V187.743H95.9281L94.1431 187.643ZM94.1431 196.17C94.1431 197.317 94.3981 199.162 95.4181 200.658C96.3361 202.254 98.019 203.55 100.62 203.55V201.805C98.835 201.805 97.6621 200.908 96.9481 199.86C96.2341 198.713 96.0301 197.217 96.0301 196.27L94.1431 196.17ZM100.518 203.55H100.62V201.805L100.518 203.55ZM118.061 197.567V197.467H116.277L118.061 197.567ZM118.061 188.341C118.061 187.195 117.806 186.247 117.348 185.449C116.889 184.651 116.073 184.053 115.206 183.604C113.421 182.806 111.075 182.557 108.27 182.557V184.302C111.075 184.302 113.115 184.552 114.39 185.1C115.002 185.449 115.461 185.798 115.665 186.247C115.92 186.696 116.124 187.394 116.124 188.192L118.01 188.292L118.061 188.341ZM93.4292 121.771C92.9702 121.771 92.2562 121.871 91.6442 122.22C90.9302 122.669 90.4713 123.367 90.4713 124.514H92.2562C92.2562 124.065 92.5112 123.816 92.6132 123.716C92.8682 123.616 93.2252 123.466 93.4292 123.466V121.721V121.771ZM90.3693 124.514C90.3693 125.561 90.8282 126.359 91.5422 126.807C92.1542 127.256 92.8172 127.406 93.3272 127.256V125.511C93.3272 125.511 92.7152 125.511 92.5112 125.262C92.2562 125.162 92.1542 124.913 92.1542 124.464H90.3693V124.514ZM93.3272 127.256C93.7862 127.256 94.5001 127.156 94.9591 126.658C95.5711 126.209 96.0301 125.511 96.0301 124.464H94.2451C94.2451 124.913 93.9902 125.162 93.8882 125.262C93.6332 125.361 93.4292 125.511 93.2762 125.511V127.256H93.3272ZM96.1321 124.514C96.1321 123.466 95.6731 122.768 95.0611 122.32C94.4491 121.871 93.7862 121.721 93.4292 121.721V123.466C93.4292 123.466 93.8882 123.566 94.0412 123.716C94.1432 123.816 94.3981 124.065 94.3981 124.514H96.1831H96.1321ZM93.5312 148.2C93.0722 148.2 92.3582 148.299 91.7462 148.649C91.0322 149.097 90.5733 149.795 90.5733 150.942H92.3582C92.3582 150.494 92.6132 150.244 92.7152 150.144C92.9702 150.045 93.3272 149.895 93.5312 149.895V148.15V148.2ZM90.4713 150.942C90.4713 151.99 90.9302 152.787 91.6442 153.236C92.2562 153.685 92.9192 153.835 93.4292 153.685V151.94C93.4292 151.94 92.8172 151.94 92.6132 151.69C92.3582 151.591 92.2562 151.341 92.2562 150.892H90.4713V150.942ZM93.4292 153.685C93.8882 153.685 94.6021 153.585 95.0611 153.087C95.6731 152.638 96.1321 151.94 96.1321 150.892H94.3471C94.3471 151.341 94.0922 151.591 93.9902 151.69C93.7352 151.79 93.5312 151.94 93.3782 151.94V153.685H93.4292ZM96.2341 150.942C96.2341 149.895 95.7751 149.197 95.1631 148.748C94.5511 148.299 93.8882 148.15 93.5312 148.15V149.895C93.5312 149.895 93.9902 149.995 94.1431 150.144C94.2451 150.244 94.5001 150.494 94.5001 150.942H96.2851H96.2341ZM117.093 199.711C112.962 194.425 109.902 188.092 109.188 183.405L107.403 183.654C108.219 188.84 111.534 195.372 115.665 200.808L117.093 199.761V199.711ZM94.1431 187.643V196.27H95.9281V187.643H94.1431ZM100.518 203.501H111.483V201.755H100.518V203.501ZM111.483 203.501C113.013 203.501 115.716 202.902 117.144 200.758L115.614 199.86C114.696 201.356 112.656 201.805 111.483 201.805V203.55V203.501ZM117.246 200.758C117.857 199.86 118.163 198.813 118.163 197.517H116.379C116.379 198.414 116.124 199.112 115.767 199.711L117.195 200.758H117.246ZM115.716 200.758C117.857 203.501 120.305 206.044 122.804 207.789C125.303 209.634 128.006 210.781 130.454 210.781V209.036C128.465 209.036 126.221 208.138 123.875 206.393C121.529 204.797 119.285 202.354 117.144 199.711L115.716 200.758ZM118.061 197.517V188.292H116.277V197.517H118.061ZM125.354 102.274C123.008 98.6833 121.58 94.4448 121.58 89.9569H119.693C119.693 94.7938 121.223 99.3814 123.824 103.171L125.354 102.274ZM123.722 103.171C124.895 105.465 127.241 108.906 130.658 111.798C134.075 114.69 138.41 116.984 143.612 116.984V115.139C139.022 115.139 134.993 113.045 131.831 110.302C128.669 107.659 126.425 104.418 125.354 102.274L123.722 103.171ZM143.612 112.247C136.064 112.247 129.23 108.208 125.252 102.373L123.722 103.271C127.955 109.604 135.248 113.942 143.612 113.942V112.197V112.247ZM143.612 104.218C151.619 104.218 158.197 97.8855 158.197 90.0566H156.412C156.412 96.938 150.65 102.473 143.561 102.473V104.218H143.612ZM158.197 90.0566C158.197 82.2277 151.619 75.8948 143.612 75.8948V77.6401C150.701 77.6401 156.463 83.1752 156.463 90.0566H158.248H158.197ZM167.479 90.0566C167.479 77.1913 156.769 66.7196 143.561 66.7196V68.4648C155.8 68.4648 165.694 78.1387 165.694 89.9569H167.479V90.0566ZM185.278 57.3947C189.765 58.4419 198.945 63.3786 199.761 75.3463L201.546 75.2465C200.628 62.3813 190.581 56.9459 185.635 55.799L185.278 57.3947ZM143.561 57.3947H172.63V55.6494H143.561V57.3947ZM172.63 57.3947H185.482V55.6494H172.63V57.3947ZM171.712 56.5969V85.0202H173.497V56.5969H171.712ZM171.712 85.0202C171.61 94.2453 165.694 114.441 143.306 121.123L143.918 122.868C167.479 115.837 173.599 94.6941 173.599 85.0202H171.712ZM143.561 122.868C150.14 122.968 160.543 122.27 170.794 120.325C181.045 118.48 191.193 115.388 197.313 110.452L196.14 109.055C190.479 113.643 180.688 116.635 170.488 118.48C160.339 120.325 150.089 121.023 143.612 120.873V122.818L143.561 122.868ZM199.761 75.3961C200.679 87.1145 201.189 98.3841 201.291 103.221L203.076 103.121C202.974 98.2844 202.464 86.9151 201.546 75.1967L199.761 75.446V75.3961ZM201.291 103.221V103.919H203.076V103.221H201.291ZM208.38 103.919C210.012 104.966 213.939 109.105 213.939 117.034H215.724C215.724 108.507 211.593 103.819 209.349 102.423L208.431 103.919H208.38ZM213.939 117.034V158.771H215.724V117.034H213.939ZM213.939 158.671C213.837 160.616 213.327 163.409 212.409 165.703C211.95 166.849 211.491 167.897 210.777 168.445C210.165 169.143 209.502 169.343 208.89 169.343V171.088C210.165 171.088 211.236 170.39 212.205 169.492C213.021 168.595 213.633 167.398 214.194 166.151C215.112 163.608 215.724 160.616 215.826 158.671H213.939ZM202.26 104.169H203.892V102.423H202.26V104.169ZM204.861 170.39V103.221H203.076V170.39H204.861ZM203.943 104.169H207.717V102.423H203.943V104.169ZM207.717 104.169H208.89V102.423H207.717V104.169ZM208.89 169.492H207.717V171.238H208.89V169.492ZM207.717 169.492H203.943V171.238H207.717V169.492ZM206.799 103.271V170.44H208.584V103.271H206.799ZM201.495 104.069C201.75 105.814 201.495 108.906 199.608 111.997L201.24 112.895C203.229 109.454 203.586 106.014 203.229 103.919L201.444 104.019L201.495 104.069ZM199.608 111.898C198.18 114.441 195.732 116.934 191.856 118.679L192.672 120.275C196.905 118.33 199.608 115.438 201.291 112.696L199.659 111.898H199.608ZM199.506 112.346V170.44H201.291V112.346H199.506ZM200.424 171.337H203.943V169.592H200.424V171.337ZM203.025 170.44V179.964H204.81V170.44H203.025ZM203.025 179.964C203.025 180.413 202.923 181.011 202.668 181.56C202.413 182.158 201.954 182.457 201.138 182.607L201.393 184.352C202.821 184.103 203.739 183.305 204.198 182.407C204.657 181.51 204.81 180.562 204.81 179.864L203.025 179.964ZM200.322 183.654V205.944H202.107V183.654H200.322ZM200.322 205.944C200.322 206.542 200.067 207.34 199.71 208.038C199.353 208.637 198.792 209.085 197.721 209.085V210.831C199.506 210.831 200.679 209.933 201.24 208.886C201.852 207.839 202.056 206.692 202.056 205.894L200.271 205.994L200.322 205.944ZM191.856 118.679C189.255 119.826 186.553 120.973 183.595 122.02L184.207 123.616C187.267 122.569 189.969 121.422 192.57 120.175L191.856 118.679ZM183.493 123.716C185.125 124.613 187.726 126.359 189.714 128.752C191.856 131.146 193.488 134.287 193.488 137.728H195.273C195.273 133.689 193.386 130.248 191.142 127.605C188.898 124.962 186.196 123.018 184.309 122.07L183.493 123.666V123.716ZM193.488 137.878C193.488 141.318 191.856 144.31 189.612 146.754C187.369 149.147 184.666 150.892 182.881 151.69L183.697 153.286C185.686 152.388 188.542 150.543 190.887 148C193.233 145.457 195.222 142.016 195.222 137.977L193.437 137.878H193.488ZM182.881 151.541C177.934 153.835 162.991 158.671 143.663 158.671V160.417C163.348 160.417 178.546 155.58 183.697 153.186L182.881 151.591V151.541ZM183.595 122.12C183.595 122.12 183.238 122.22 182.983 122.369L183.595 123.965C183.595 123.965 184.054 123.865 184.207 123.716L183.595 122.12ZM182.983 122.369C172.987 125.81 160.594 128.254 143.663 128.254V129.999C160.747 129.999 173.446 127.605 183.595 124.015L182.983 122.419V122.369ZM182.371 147.651V152.388H184.156V147.651H182.371ZM183.646 148.449C184.819 147.851 186.604 146.704 187.981 145.008C189.408 143.263 190.683 141.119 190.683 138.326H188.899C188.899 140.52 187.981 142.465 186.655 143.861C185.38 145.357 183.85 146.405 182.881 146.853L183.595 148.449H183.646ZM182.371 123.167V128.453H184.156V123.167H182.371ZM182.371 128.553V147.651H184.156V128.553H182.371ZM190.734 138.326C190.734 135.584 189.561 133.29 188.032 131.445C186.604 129.6 184.87 128.353 183.697 127.755L182.779 129.351C183.697 129.949 185.38 131.096 186.553 132.692C187.828 134.287 188.797 136.282 188.797 138.426L190.785 138.326H190.734ZM182.371 152.339V158.671H184.156V152.339H182.371ZM194.865 157.724H183.34V159.469H194.865V157.724ZM191.091 165.653C189.918 166.351 188.134 167.248 185.788 168.296L186.502 169.891C189.001 168.844 190.836 167.946 192.162 167.149L191.091 165.653ZM197.67 208.986H156.667V210.731H197.67V208.986ZM194.253 157.923C192.009 159.519 188.389 161.813 182.83 163.907L183.544 165.503C189.103 163.309 192.978 161.015 195.324 159.27L194.253 157.874V157.923ZM184.105 164.705V158.622H182.32V164.705H184.105ZM182.32 164.705V164.955H184.105V164.705H182.32ZM182.932 163.907C174.313 167.248 161.359 170.34 143.612 170.34V172.085C161.614 172.085 174.721 168.994 183.646 165.553L182.932 163.957V163.907ZM185.635 168.296C177.73 171.387 163.348 175.177 143.561 175.177V176.922C163.603 176.922 178.189 173.232 186.298 169.891L185.584 168.296H185.635ZM185.737 168.296C185.737 168.296 185.635 168.296 185.635 168.395L186.349 169.991H186.451L185.737 168.246V168.296ZM185.737 168.296L186.349 170.041H186.451L185.737 168.296ZM186.349 170.041H186.451L185.737 168.445H185.635L186.349 170.041ZM181.657 174.429C183.085 171.886 185.074 170.539 186.247 170.041L185.533 168.445C183.901 169.143 181.657 170.739 179.974 173.631L181.606 174.429H181.657ZM199.455 170.39L199.71 173.93L201.495 173.831L201.24 170.29L199.455 170.39ZM180.943 174.878H200.628V173.132H180.943V174.878ZM199.659 173.98L199.761 175.227L201.546 175.127L201.444 173.88L199.659 173.98ZM199.761 175.227L200.373 183.604L202.158 183.504L201.546 175.127L199.761 175.227ZM179.974 181.46C179.974 179.166 180.433 177.221 181.147 175.576L179.515 174.878C178.699 176.723 178.24 178.917 178.24 181.41H180.025L179.974 181.46ZM181.147 175.576C181.402 175.127 181.504 174.778 181.759 174.429L180.127 173.531C179.872 173.98 179.668 174.429 179.413 174.928L181.198 175.626L181.147 175.576ZM200.577 174.329H180.178V176.075H200.577V174.329ZM178.087 181.46C178.087 182.058 177.985 182.707 177.832 183.405L179.617 183.654C179.719 182.856 179.872 182.058 179.872 181.36H178.087V181.46ZM178.903 184.452H186.655V182.707H178.903V184.452ZM186.655 184.452C187.471 184.452 188.644 184.701 189.714 185.25C190.632 185.848 191.346 186.496 191.346 187.643H193.131C193.131 185.699 191.958 184.402 190.632 183.604C189.357 182.906 187.828 182.707 186.757 182.557L186.655 184.402V184.452ZM191.244 187.693V187.793H193.029L191.244 187.693ZM191.244 196.22C191.244 197.118 190.989 198.614 190.326 199.81C189.612 200.957 188.542 201.755 186.655 201.755V203.501C189.255 203.501 190.887 202.254 191.856 200.608C192.774 199.112 193.131 197.267 193.131 196.12L191.244 196.22ZM186.655 201.755H186.553V203.501L186.655 201.755ZM170.896 197.616V197.517H169.111L170.896 197.616ZM170.896 188.391C170.896 187.494 171.151 186.895 171.355 186.447C171.61 185.998 172.069 185.649 172.63 185.3C173.905 184.701 175.945 184.502 178.75 184.502V182.757C176.047 182.757 173.548 183.006 171.814 183.804C170.896 184.252 170.182 184.851 169.672 185.649C169.213 186.447 168.958 187.494 168.958 188.541H170.845V188.441L170.896 188.391ZM193.845 123.516C193.845 123.516 194.457 123.516 194.661 123.766C194.916 123.865 195.018 124.115 195.018 124.563H196.803C196.803 123.516 196.344 122.718 195.63 122.27C195.018 121.821 194.355 121.671 193.845 121.821V123.566V123.516ZM194.916 124.563C194.916 125.012 194.661 125.262 194.559 125.361C194.304 125.461 193.947 125.611 193.743 125.611V127.356C194.202 127.356 194.916 127.256 195.528 126.907C196.242 126.458 196.701 125.76 196.701 124.613H194.916V124.563ZM193.845 125.461C193.845 125.461 193.386 125.361 193.233 125.212C193.131 125.112 192.876 124.863 192.876 124.414H191.091C191.091 125.461 191.55 126.159 192.162 126.608C192.774 127.057 193.437 127.206 193.794 127.206V125.461H193.845ZM192.927 124.563C192.927 124.115 193.182 123.865 193.284 123.766C193.539 123.666 193.743 123.516 193.896 123.516V121.771C193.437 121.771 192.723 121.871 192.264 122.369C191.652 122.818 191.193 123.516 191.193 124.563H192.978H192.927ZM193.743 149.995C193.743 149.995 194.355 149.995 194.559 150.244C194.814 150.344 194.916 150.593 194.916 151.042H196.701C196.701 149.995 196.242 149.197 195.528 148.748C194.916 148.299 194.253 148.15 193.743 148.299V150.045V149.995ZM194.814 151.042C194.814 151.491 194.559 151.74 194.457 151.84C194.202 151.94 193.845 152.089 193.641 152.089V153.835C194.1 153.835 194.814 153.735 195.426 153.386C196.14 152.937 196.599 152.239 196.599 151.092H194.814V151.042ZM193.743 151.94C193.743 151.94 193.284 151.84 193.131 151.69C193.029 151.591 192.774 151.341 192.774 150.892H190.989C190.989 151.94 191.448 152.638 192.06 153.087C192.672 153.535 193.335 153.685 193.692 153.685V151.94H193.743ZM192.825 151.042C192.825 150.593 193.08 150.344 193.182 150.244C193.437 150.144 193.641 149.995 193.794 149.995V148.25C193.335 148.25 192.621 148.349 192.162 148.848C191.55 149.297 191.091 149.995 191.091 151.042H192.876H192.825ZM171.508 200.858C175.741 195.472 178.954 188.79 179.77 183.704L177.985 183.455C177.271 188.192 174.211 194.624 170.08 199.761L171.508 200.808V200.858ZM191.295 187.743V196.37H193.08V187.743H191.295ZM186.706 201.755H175.741V203.501H186.706V201.755ZM175.741 201.755C174.466 201.755 172.579 201.306 171.61 199.81L170.08 200.708C171.508 202.902 174.313 203.451 175.741 203.451V201.705V201.755ZM171.508 199.81C171.151 199.212 170.896 198.564 170.896 197.616H169.111C169.111 198.863 169.468 199.91 170.029 200.858L171.457 199.81H171.508ZM170.08 199.81C167.938 202.453 165.745 204.847 163.348 206.492C161.002 208.238 158.758 209.135 156.769 209.135V210.881C159.37 210.881 161.971 209.734 164.419 207.889C166.918 206.044 169.366 203.65 171.508 200.858L170.08 199.81ZM170.896 197.616V188.391H169.111V197.616H170.896ZM163.348 103.421C165.949 99.6308 167.479 95.0431 167.479 90.2062H165.592C165.592 94.6941 164.164 98.9326 161.818 102.523L163.348 103.421ZM161.818 102.523C160.747 104.617 158.503 107.908 155.341 110.551C152.18 113.194 148.253 115.388 143.561 115.388V117.134C148.763 117.134 153.199 114.84 156.514 111.948C159.829 109.055 162.175 105.615 163.348 103.321L161.818 102.523ZM143.561 114.142C151.823 114.142 159.013 109.753 163.348 103.47L161.818 102.573C157.789 108.457 151.109 112.446 143.561 112.446V114.191V114.142ZM130.352 210.881H156.616V209.135H130.352V210.881Z" fill="#010101"/>
<path d="M143.611 24.9824C79.1485 24.9824 26.875 76.0447 26.875 138.925C26.875 201.805 79.1485 252.917 143.611 252.917C208.073 252.917 260.346 201.855 260.346 138.925C260.346 75.9948 208.022 24.9824 143.611 24.9824ZM143.611 248.679C81.5455 248.679 31.1079 199.561 31.1079 138.825C31.1079 78.0891 81.3925 29.0215 143.611 29.0215C205.829 29.0215 256.114 78.2387 256.114 138.875C256.114 199.512 205.676 248.729 143.611 248.729V248.679Z" fill="#010101"/>
<path d="M143.561 253.018C112.35 253.018 83.0255 241.15 60.8921 219.558C38.7588 197.916 26.6211 169.294 26.6211 138.826C26.6211 108.358 38.7588 79.7351 60.8921 58.0935C82.9235 36.6015 112.35 24.6338 143.561 24.6338C174.772 24.6338 204.096 36.5018 226.23 58.0935C248.261 79.5855 260.501 108.358 260.501 138.826C260.501 169.294 248.363 197.916 226.23 219.558C204.096 241.2 174.772 253.018 143.561 253.018ZM143.561 25.0826C79.2516 25.0826 27.0801 76.1448 27.0801 138.826C27.0801 201.507 79.3536 252.569 143.561 252.569C207.768 252.569 260.042 201.507 260.042 138.826C260.042 76.1448 207.768 25.0826 143.561 25.0826ZM143.561 248.879C113.421 248.879 85.1165 237.51 63.952 216.666C42.6346 195.872 30.956 168.246 30.956 138.925C30.956 109.605 42.6346 81.8794 63.952 61.1852C85.2695 40.491 113.523 28.9721 143.561 28.9721C173.599 28.9721 202.005 40.3414 223.17 61.1852C244.487 81.9791 256.166 109.605 256.166 138.925C256.166 168.246 244.487 195.972 223.17 216.666C201.954 237.36 173.599 248.879 143.561 248.879ZM143.561 29.2214C81.5976 29.2214 31.313 78.4386 31.313 138.826C31.313 199.213 81.7506 248.43 143.561 248.43C205.371 248.43 255.809 199.213 255.809 138.826C255.809 78.4386 205.524 29.2214 143.561 29.2214Z" fill="#010101"/>
<path d="M142.031 27.2764H145.091V55.8991H142.031V27.2764Z" fill="#010101"/>
<path d="M142.031 209.685H145.091V249.128H142.031V209.685Z" fill="#010101"/>
<path d="M71.5011 136.282V139.274H28.6113V136.282H71.5011Z" fill="#010101"/>
<path d="M257.593 136.282V139.274H214.703V136.282H257.593Z" fill="#010101"/>
<path d="M42.9925 68.764L44.2675 66.8192L26.01 60.4863L24.582 62.4311L37.5357 76.5929L38.8106 74.6481L35.0367 70.5093L37.5357 66.8192L42.9415 68.764H42.9925ZM33.5578 68.764L29.0699 63.927L35.4447 66.1211L33.5578 68.764Z" fill="#010101"/>
<path d="M52.2738 57.4952L53.8037 55.7499L39.5751 43.7822L38.0452 45.5275L43.349 50.0154L38.8612 55.2014L33.5573 50.7135L32.0273 52.4588L46.2559 64.4265L47.7859 62.6812L40.6971 56.6974L45.185 51.5114L52.2738 57.4952Z" fill="#010101"/>
<path d="M63.3408 44.6301L62.9838 44.9791L48.3982 35.6543L46.6133 37.25L54.875 52.3094L54.5181 52.6584L57.476 55.7501L59.2609 54.1544L57.986 52.7582L63.3918 47.9212L64.6668 49.3174L66.4517 47.7217L63.3918 44.6301H63.3408ZM56.609 50.6139L50.3872 39.4441L61.1989 46.4751L56.609 50.6139Z" fill="#010101"/>
<path d="M64.6656 36.7012L66.1956 35.6541C68.7965 33.809 69.2555 30.468 67.3686 27.9249C65.4816 25.5314 62.0647 24.933 59.4638 26.778L57.9338 27.8252L56.0469 29.2214L67.1136 43.9317L69.0005 42.5355L64.6656 36.6514V36.7012ZM59.3618 29.6702L60.8917 28.623C62.4217 27.5759 64.5636 27.8252 65.5836 29.3211C66.6546 30.8171 66.3996 32.8616 64.8696 33.9088L63.3397 34.9559L59.3108 29.6702H59.3618Z" fill="#010101"/>
<path d="M85.2688 25.7809L81.8519 19.8967C80.22 17.0045 76.4461 16.0072 73.3862 17.6029C70.4283 19.1986 69.3573 22.9884 71.0403 25.8806L74.4572 31.7647C76.0891 34.6569 79.863 35.6542 82.9229 33.9588C85.8808 32.3631 86.9518 28.7728 85.2688 25.7809ZM81.75 32.1138C79.863 33.1609 77.4151 32.4628 76.3441 30.6178L72.9272 24.7337C71.8562 22.8887 72.4682 20.5948 74.4572 19.4479C76.3441 18.4008 78.69 18.9991 79.863 20.9439L83.2799 26.828C84.3509 28.7728 83.6369 31.0666 81.75 32.1138Z" fill="#010101"/>
<path d="M94.4484 8.27734L92.2045 9.17492L91.2865 24.334L85.8807 11.6682L83.6367 12.5658L90.9295 29.4702L93.1735 28.5726L94.0914 13.4135L99.4973 26.0793L101.741 25.1817L94.4484 8.27734Z" fill="#010101"/>
<path d="M115.41 19.4475L114.951 19.5472L106.128 4.83691L103.782 5.4353L104.241 22.4394L103.629 22.5392L104.802 26.5783L107.046 25.9799L106.434 24.1349L113.523 22.1901L114.135 24.0351L116.379 23.4367L115.461 19.3976L115.41 19.4475ZM106.587 21.841L106.128 9.17521L112.503 20.1955L106.638 21.7912L106.587 21.841Z" fill="#010101"/>
<path d="M127.547 0.698242L125.201 1.0473L126.272 7.82901L119.438 8.87618L118.367 2.09448L116.021 2.44353L118.979 20.5946L121.325 20.2455L119.897 11.17L126.731 10.1228L128.159 19.1983L130.505 18.8493L127.547 0.698242Z" fill="#010101"/>
<path d="M139.227 0L136.729 0.0997309L132.598 18.5998L134.944 18.5001L136.117 13.1146L140.604 12.8653L142.236 18.151L144.582 18.0513L139.227 0ZM136.729 10.6712L138.157 4.23856L140.043 10.5715L136.729 10.6712Z" fill="#010101"/>
<path d="M154.168 -0.000346314C151.108 -0.249674 148.405 2.094 148.15 5.03607C147.895 8.02799 150.139 10.5711 153.097 10.9202L147.232 18.1507L149.578 18.4L155.443 11.2692L157.33 11.369L156.718 18.9485L159.064 19.1979L159.676 11.6183L160.492 0.598039L154.168 -0.000346314ZM157.585 9.22477L153.454 8.87571C151.567 8.77598 150.139 7.13042 150.394 5.28539C150.496 3.44037 152.179 2.04414 154.066 2.29347L158.197 2.64252L157.585 9.1749V9.22477Z" fill="#010101"/>
<path d="M192.111 8.07847L191.397 10.3723L186.91 8.97605L181.963 24.2847L179.719 23.5866L184.666 8.27794L180.076 6.8817L180.892 4.58789L192.06 8.02861L192.111 8.07847Z" fill="#010101"/>
<path d="M198.232 13.115L196.091 17.952L202.21 20.5949L201.292 22.6892L195.071 20.0463L192.572 25.5814L199.048 28.324L198.13 30.5181L189.767 26.9776L189.512 26.8779L197.06 10.0732L197.314 10.173L205.678 13.7633L204.607 15.9574L198.232 13.2148V13.115Z" fill="#010101"/>
<path d="M218.02 20.3951L211.543 24.6337L212.002 17.0541L210.013 15.9072L209.299 26.1296L200.578 31.8642L202.567 33.0111L209.146 28.7725L208.687 36.3521L210.676 37.499L211.39 27.2766L220.111 21.6418L217.969 20.3951H218.02Z" fill="#010101"/>
<path d="M231.941 29.8191L227.708 35.3542L222.149 31.3151L226.382 25.78L224.495 24.3838L213.326 39.0941L215.213 40.4903L220.874 33.1102L226.433 37.1494L220.772 44.5294L222.659 45.9257L233.828 31.2154L231.941 29.8191Z" fill="#010101"/>
<path d="M244.537 40.8396L229.951 46.1253L239.59 36.2519L237.805 34.6562L224.852 48.0202L226.637 49.6159L241.222 44.3302L231.583 54.2035L233.215 55.7992L246.169 42.4353L244.537 40.8396Z" fill="#010101"/>
<path d="M254.534 51.9102L245.1 53.5059L244.998 53.2566L251.373 48.0706L249.843 46.2256L235.461 57.944L236.991 59.789L243.213 54.7526L243.468 55.0019L240.51 63.9777L242.04 65.8227L245.457 55.6003L256.166 53.7553L254.534 51.9102Z" fill="#010101"/>
<path d="M261.623 61.335L243.264 67.5681L244.539 69.5129L249.842 67.6679L252.341 71.3579L248.568 75.4968L249.842 77.4415L262.796 63.4293L261.623 61.335ZM254.075 69.5129L252.29 66.87L258.665 64.6759L254.075 69.5129Z" fill="#010101"/>
<path d="M29.2217 93.2987L30.0377 91.1046L12.4942 84.5723L11.6782 86.7663L20.3989 90.0076L17.9 96.3405L9.17926 93.0993L8.36328 95.2933L25.9068 101.826L26.7228 99.6316L20.144 97.2381L22.6429 90.9052L29.2217 93.2987Z" fill="#010101"/>
<path d="M7.08899 99.1328L6.47701 101.427L11.4239 104.07L10.3529 108.308H4.69206L4.08008 110.602L23.5105 110.502L24.1225 108.208L7.038 99.1328H7.08899ZM12.8518 108.358L13.6678 105.266L19.5326 108.358H12.8008H12.8518Z" fill="#010101"/>
<path d="M21.5724 119.378L8.97575 122.12L20.5014 127.655L20.2464 129.949L4.69187 122.918L3.6209 122.469C3.6209 122.469 3.36591 122.37 3.26391 122.37H3.16191L3.05991 122.27C2.14194 121.821 1.42796 121.123 0.815977 120.325C0.203994 119.428 0 118.231 0 117.333L2.34593 117.583C2.24394 118.63 2.80492 119.777 3.77389 120.325C4.02889 120.425 4.02889 120.575 4.23288 120.575H4.33488L5.04886 120.475L22.0314 117.134L21.5724 119.428V119.378Z" fill="#010101"/>
<path d="M16.0148 134.437H20.1457V132.243H16.0148C12.9549 132.243 10.354 134.637 10.252 137.629C10.252 138.875 10.609 139.922 11.323 140.87L1.17426 140.77L1.07227 143.064L19.7887 143.313L19.8907 141.019H15.1989C13.5669 140.77 12.4959 139.424 12.4959 137.679C12.5979 135.833 14.2809 134.338 16.0148 134.437Z" fill="#010101"/>
<path d="M21.0644 155.381L14.1285 156.079L13.4146 149.397L20.3504 148.699L20.0954 146.405L1.37891 148.35L1.6339 150.644L10.9156 149.746L11.6296 156.428L2.34788 157.326L2.60287 159.62L21.3193 157.675L21.0644 155.381Z" fill="#010101"/>
<path d="M23.5618 166.102C22.8479 162.861 19.431 160.816 16.1161 161.515L9.28224 163.011C5.96734 163.709 3.87639 166.9 4.69237 170.241C5.40635 173.482 8.72126 175.527 12.1382 174.729L18.972 173.233C22.1339 172.535 24.2758 169.343 23.5618 166.102ZM18.36 171.039L11.5262 172.535C9.38424 172.984 7.2933 171.637 6.83431 169.643C6.37532 167.548 7.75229 165.504 9.79223 165.055L16.626 163.559C18.768 163.11 20.8589 164.357 21.3179 166.451C21.7769 168.546 20.5019 170.59 18.36 171.039Z" fill="#010101"/>
<path d="M35.0878 196.919L33.9148 197.517L18.1563 204.897L17.2383 202.952L31.9769 195.921L29.019 189.838L14.1784 196.869L13.1074 194.775L27.948 187.743L30.0899 186.696L35.1388 196.919H35.0878Z" fill="#010101"/>
<path d="M38.9639 203.102L38.0459 201.506L36.7709 199.562L20.8594 209.335L22.1343 211.28L28.5092 207.39L29.4271 208.986C31.0591 211.629 34.629 212.327 37.1789 210.731C39.7798 209.136 40.5958 205.695 38.9639 203.152V203.102ZM36.0059 208.837C34.374 209.734 32.3341 209.435 31.3141 207.789L30.3961 206.194L36.1589 202.603L37.0769 204.199C37.9949 205.795 37.5359 207.789 36.0059 208.787V208.837Z" fill="#010101"/>
<path d="M47.6838 214.371C45.5419 211.728 41.666 211.379 38.9631 213.474L33.5572 217.712C30.8543 219.807 30.4973 223.596 32.6392 226.239C34.7812 228.882 38.6571 229.231 41.258 227.137L46.6639 222.898C49.3668 220.804 49.8258 217.014 47.7348 214.371H47.6838ZM45.3379 221.153L39.932 225.391C38.3001 226.638 35.6992 226.439 34.3732 224.793C33.0982 223.197 33.3022 220.654 34.9852 219.408L40.391 215.169C42.023 213.922 44.6239 214.122 45.9499 215.767C47.2248 217.363 47.0208 219.807 45.3379 221.153Z" fill="#010101"/>
<path d="M60.0765 227.835L45.3379 232.871L55.1296 223.098L53.4977 221.502L40.2891 234.617L41.921 236.212L56.6596 231.176L46.8679 240.949L48.4998 242.545L61.7085 229.431L60.0765 227.835Z" fill="#010101"/>
<path d="M69.9712 236.013C68.5433 233.719 65.2794 232.323 63.3924 231.874L61.8625 233.719C63.3924 233.968 67.0643 235.464 67.9823 237.06C68.3393 237.658 68.4413 238.307 68.2373 238.905C67.7783 240.501 66.6053 241.199 65.1774 241.199C64.2594 241.199 63.5454 240.501 62.3725 239.603C62.0155 239.354 61.6585 239.005 61.3015 238.805L60.9445 238.556L59.4145 240.401L59.6695 240.501C59.6695 240.501 60.1285 240.85 60.2815 240.95C60.5365 241.199 60.7405 241.299 60.9955 241.548C61.9135 242.346 62.9844 243.144 63.2394 243.842C63.6984 245.238 62.7804 247.183 61.3525 247.981C60.7405 248.33 60.0775 248.33 59.3635 248.23C57.4766 247.632 55.1307 244.64 54.4167 243.293L52.8867 245.138C53.7027 246.884 55.9466 249.626 58.5476 250.324C59.8225 250.673 61.0465 250.574 62.2195 249.875C63.3924 249.177 64.2084 248.28 64.8204 247.133C65.2794 246.086 65.6364 244.739 65.4324 243.543C66.6053 243.543 67.4213 243.443 68.3903 242.745C69.4613 241.947 70.1752 240.9 70.5322 239.653C70.9912 238.406 70.8892 237.11 70.1752 236.113L69.9712 236.013Z" fill="#010101"/>
<path d="M78.7941 241.648L76.5502 240.252L74.5613 239.005L64.7695 254.663L69.2574 257.306C71.8583 258.901 75.3772 258.103 77.0092 255.46C78.0802 253.865 78.0802 251.77 77.2642 250.274C78.5391 250.025 79.7631 249.227 80.4261 248.08C81.7011 245.886 81.0381 243.044 78.7941 241.648ZM74.9182 254.413C74.0003 256.009 71.8583 256.508 70.3284 255.56L67.8294 254.064L71.3483 248.429L73.8473 249.925C75.4792 250.823 75.9892 252.818 74.9182 254.413ZM78.4371 246.933C77.6212 248.18 76.0912 248.529 74.7653 247.831L72.5213 246.435L75.2242 242.047L77.4682 243.443C78.7431 244.141 79.2531 245.737 78.3861 246.884L78.4371 246.933Z" fill="#010101"/>
<path d="M92.0011 248.181C88.9412 246.785 85.1673 248.081 83.7394 251.173L80.7814 257.406C79.3535 260.398 80.6794 263.938 83.8414 265.434C86.9013 266.831 90.5732 265.534 92.1031 262.542L95.061 256.309C96.336 253.068 95.061 249.527 92.0011 248.131V248.181ZM92.8171 255.212L89.8592 261.445C88.9412 263.39 86.5443 264.188 84.5553 263.29C82.5664 262.392 81.7504 260.049 82.6684 258.104L85.6263 251.871C86.5443 249.926 88.9412 249.128 90.9302 250.026C92.9191 250.923 93.7351 253.267 92.8171 255.212Z" fill="#010101"/>
<path d="M106.842 254.164L104.496 253.466L95.2144 267.827L94.7554 267.578L93.4805 271.617L95.7244 272.315L96.3364 270.47L103.272 272.664L102.66 274.509L104.904 275.207L106.179 271.168L105.72 271.068L106.893 254.164H106.842ZM103.425 270.37L97.5604 268.525L104.394 257.854L103.476 270.37H103.425Z" fill="#010101"/>
<path d="M116.735 272.913C114.849 272.564 113.421 270.819 113.778 269.223L115.41 261.494C115.767 259.899 117.755 258.851 119.642 259.2C121.172 259.55 122.141 260.696 122.345 261.943L124.691 262.392C124.691 260.996 124.436 259.849 123.416 258.951C122.6 258.153 121.427 257.555 119.999 257.206C118.571 256.957 117.296 257.106 116.226 257.455C114.696 258.153 113.523 259.4 113.166 261.145L111.534 268.874C111.432 269.323 111.432 269.772 111.432 270.121C111.687 272.415 113.574 274.609 116.378 275.058C119.081 275.656 121.325 274.26 122.498 272.165C122.498 272.066 122.6 272.066 122.6 271.916L120.254 271.467C119.438 272.614 118.112 273.213 116.735 272.864V272.913Z" fill="#010101"/>
<path d="M140.144 259.6L140.042 261.993L135.35 261.644L134.075 277.501L131.729 277.402L133.004 261.395L128.312 261.046L128.414 258.752L133.106 259.101L135.452 259.201L140.144 259.55V259.6Z" fill="#010101"/>
<path d="M151.21 267.528C152.128 266.631 152.638 265.334 152.638 263.938C152.536 261.295 150.292 259.35 147.691 259.45L144.989 259.55L142.643 259.649L143.255 277.95L148.558 277.701C151.618 277.601 154.117 275.058 153.964 272.066C153.964 270.121 152.791 268.376 151.261 267.478L151.21 267.528ZM144.989 261.644L147.691 261.544C149.119 261.544 150.394 262.591 150.394 263.938C150.394 265.284 149.323 266.581 147.895 266.581L145.193 266.68L144.938 261.644H144.989ZM148.405 275.557L145.448 275.656L145.193 269.124L148.15 269.024C150.037 268.924 151.567 270.42 151.567 272.265C151.669 274.011 150.292 275.606 148.405 275.606V275.557Z" fill="#010101"/>
<path d="M168.653 275.805L161.717 276.703L159.371 277.052L156.668 258.901H157.025L159.167 258.552L166.001 257.654L166.358 259.948L159.422 260.995L160.238 266.181L166.817 265.284L167.174 267.578L160.595 268.475L161.411 274.459L168.347 273.412L168.704 275.805H168.653Z" fill="#010101"/>
<path d="M180.432 254.164L178.086 254.762L179.871 261.444L173.139 263.04L171.354 256.508L169.008 257.106L173.7 274.908L176.046 274.31L173.7 265.434L180.432 263.838L182.777 272.714L185.123 272.116L180.432 254.164Z" fill="#010101"/>
<path d="M194.203 249.128L191.959 249.926L194.458 256.259L188.083 258.652L185.584 252.319L183.34 253.117L190.174 270.271L192.418 269.473L189.001 260.946L195.376 258.553L198.792 267.08L201.036 266.282L194.203 249.128Z" fill="#010101"/>
<path d="M213.53 253.366L210.215 247.382C208.583 244.391 204.911 243.244 201.851 244.839C198.791 246.435 197.72 250.125 199.25 253.017L202.565 259.001C204.197 261.993 207.869 263.04 210.929 261.395C213.989 259.899 215.162 256.209 213.53 253.366ZM209.858 259.599C207.971 260.647 205.523 259.849 204.554 258.004L201.239 252.02C200.168 250.175 200.984 247.781 202.871 246.834C204.758 245.787 207.206 246.485 208.175 248.43L211.49 254.413C212.561 256.258 211.745 258.552 209.858 259.599Z" fill="#010101"/>
<path d="M228.626 250.375L222.71 254.264L221.078 255.411L220.823 255.661L210.113 240.601L210.47 240.352L212.102 239.205L217.865 235.315L219.293 237.26L213.53 241.15L216.59 245.388L221.996 241.698L223.424 243.643L217.865 247.333L221.384 252.27L227.147 248.48L228.575 250.325L228.626 250.375Z" fill="#010101"/>
<path d="M247.955 224.843L242.906 220.256C240.407 217.962 236.531 218.062 234.185 220.505C231.839 222.899 232.043 226.838 234.542 229.032L239.591 233.62C242.039 235.914 245.966 235.714 248.312 233.271C250.556 230.877 250.454 227.037 247.955 224.893V224.843ZM246.527 231.874C244.997 233.47 242.498 233.47 240.968 232.124L235.919 227.536C234.287 226.04 234.287 223.647 235.664 222.151C237.092 220.655 239.693 220.555 241.223 221.901L246.272 226.489C247.904 227.885 247.904 230.378 246.527 231.874Z" fill="#010101"/>
<path d="M256.675 214.023C254.228 212.178 250.658 212.776 248.771 215.169L247.598 216.665L243.467 213.673L247.7 208.138L245.813 206.742L240.254 214.122L255.349 224.943L256.777 223.098L257.848 221.602C259.735 219.209 259.123 215.718 256.675 214.023ZM256.063 220.355L254.89 221.851L249.485 217.962L250.556 216.466C251.627 214.97 253.718 214.621 255.247 215.768C256.879 216.815 257.134 219.009 256.063 220.355Z" fill="#010101"/>
<path d="M265.958 198.614C263.255 197.118 259.838 198.016 258.308 200.709L257.39 202.304L250.913 198.614L247.395 204.598L249.383 205.745L251.729 201.706L265.958 209.634L267.131 207.69L268.049 206.094C269.579 203.451 268.661 200.11 265.907 198.614H265.958ZM266.213 205.047L265.295 206.643L259.43 203.401L260.399 201.806C261.317 200.21 263.357 199.612 264.989 200.559C266.621 201.457 267.233 203.451 266.264 205.047H266.213Z" fill="#010101"/>
<path d="M276.667 188.142L273.964 194.475L273.25 196.32L272.995 196.57L255.809 189.539L255.911 189.19L256.727 187.345L259.429 181.012L261.673 181.909L258.868 188.242L263.917 190.187L266.365 184.203L268.609 185.101L266.008 191.184L271.771 193.478L274.474 187.145L276.616 188.043L276.667 188.142Z" fill="#010101"/>
<path d="M280.084 171.836L279.982 172.285L262.54 171.587L261.826 173.881L276.769 182.607L276.667 183.056L280.798 184.203L281.512 182.009L279.625 181.41L281.767 174.529L283.654 175.127L284.368 172.933L280.135 171.786L280.084 171.836ZM277.483 180.463L266.314 174.03L279.268 174.629L277.483 180.513V180.463Z" fill="#010101"/>
<path d="M284.929 156.079L266.416 152.987L266.059 155.281L278.656 164.257L264.886 161.963L264.529 164.257L283.042 167.349L283.399 165.055L270.802 156.079L284.572 158.373L284.929 156.079Z" fill="#010101"/>
<path d="M285.847 141.817L285.949 139.524L267.233 138.626L267.131 140.92L274.067 141.269L273.71 147.951L266.774 147.602L266.672 149.896L285.388 150.793L285.49 148.499L276.209 148.051L276.566 141.369L285.847 141.817Z" fill="#010101"/>
<path d="M285.746 134.337L267.132 135.484V135.135L266.877 133.19L266.52 126.309L268.865 126.209L269.324 132.991L274.628 132.741L274.271 126.209L276.617 126.109L277.076 132.642L283.196 132.193L282.737 125.411L285.185 125.312L285.542 132.093L285.644 134.038V134.387L285.746 134.337Z" fill="#010101"/>
<path d="M284.318 117.782L275.036 119.378L273.863 112.696L283.145 111.1L282.788 108.807L264.275 111.898L264.632 114.192L271.568 113.045L272.741 119.727L265.805 120.874L266.162 123.168L284.675 120.076L284.318 117.782Z" fill="#010101"/>
<path d="M280.698 101.676L265.245 99.1324L278.658 95.2429L277.944 93.0488L259.941 98.3346L260.655 100.529L276.108 103.072L262.695 106.961L263.409 109.155L281.412 103.87L280.698 101.676Z" fill="#010101"/>
<path d="M276.105 88.2124L258.918 95.3432L258.816 95.0939L258 93.1491L255.195 86.9159L257.439 86.0183L260.244 92.2515L265.089 90.3068L262.488 84.2232L264.732 83.3256L267.333 89.3095L273.096 87.0157L270.291 80.6827L272.535 79.7852L275.238 86.1181L276.054 87.9631L276.156 88.3121L276.105 88.2124Z" fill="#010101"/>
</g>
<defs>
<clipPath id="clip0_4518_617">
<rect width="286" height="278" fill="white"/>
</clipPath>
</defs>
</svg>
