<?xml version="1.0" encoding="UTF-8"?> <svg xmlns="http://www.w3.org/2000/svg" id="_Слой_1" data-name="Слой 1" viewBox="0 0 106.76 34.8"><defs><style> .cls-1, .cls-2, .cls-3, .cls-4, .cls-5, .cls-6 { stroke-width: 0px; } .cls-1, .cls-3, .cls-4 { fill-rule: evenodd; } .cls-1, .cls-6 { fill: #fff; } .cls-2, .cls-4 { fill: #000; } .cls-3, .cls-5 { fill: #009b3c; } </style></defs><g><polygon class="cls-3" points="17.96 .59 26.68 6.92 35.39 13.25 32.06 23.5 28.73 33.74 17.96 33.74 7.19 33.74 3.86 23.5 .53 13.25 9.25 6.92 17.96 .59"></polygon><polygon class="cls-4" points="17.96 .59 26.68 6.92 35.39 13.25 33.16 20.11 24.31 20.11 21.28 7.6 20.62 4.84 20.25 7.66 17.96 25.49 15.67 7.66 15.31 4.84 14.64 7.6 11.62 20.11 2.76 20.11 .53 13.25 9.25 6.92 17.96 .59"></polygon><polygon class="cls-1" points="3.79 20.11 11.62 20.11 14.64 7.6 15.31 4.84 15.67 7.66 17.96 25.49 20.25 7.66 20.62 4.84 21.28 7.6 24.31 20.11 32.13 20.11 31.79 21.16 23.9 21.16 23.48 21.16 23.39 20.76 20.93 10.61 18.48 29.66 18.09 32.74 17.96 32.74 17.84 32.74 17.44 29.66 14.99 10.61 12.54 20.76 12.44 21.16 12.03 21.16 4.13 21.16 3.79 20.11"></polygon><path class="cls-3" d="M18.38.3l8.56,6.22,8.56,6.22.42.31-.16.49-3.27,10.06-3.27,10.06-.16.49H6.86l-.16-.49-3.27-10.06L.16,13.54l-.16-.49.42-.31,8.56-6.22L17.54.3l.42-.3.42.3h0ZM26.11,7.68L17.96,1.77l-8.14,5.92L1.68,13.6l3.11,9.57,3.11,9.57h20.13l3.11-9.57,3.11-9.57-8.14-5.91Z"></path></g><g><path class="cls-2" d="M43.04,31.81v.23h-1.73v2.06h-.24v-2.29h1.96Z"></path><path class="cls-2" d="M43.31,32.47v.17s.13-.17.46-.17h.66c.52,0,.69.29.69.64v.36c0,.37-.21.63-.69.63h-.64c-.34,0-.46-.16-.48-.17v.84h-.24v-2.3h.24ZM43.31,33.11v.35c0,.24.15.44.5.44h.53c.35,0,.54-.12.54-.44v-.36c0-.3-.19-.44-.54-.44h-.53c-.35,0-.5.19-.5.44h0Z"></path><path class="cls-2" d="M45.59,32.47l.76,1.4h.05l.6-1.4h.25l-.82,1.84c-.14.33-.27.49-.67.49h-.08v-.2h.14c.21,0,.31-.09.49-.5h-.06l-.89-1.63h.25Z"></path><path class="cls-2" d="M49.59,32.47v1.63h-.24v-1.43h-1.58v1.43h-.24v-1.63h2.05Z"></path><path class="cls-2" d="M52.11,32.47v1.63h-.24v-1.43h-1.58v1.43h-.24v-1.63h2.05Z"></path><path class="cls-2" d="M53.05,33.1h.95c.27,0,.3.13.3.13v-.23c0-.18-.12-.34-.4-.34h-.63c-.38,0-.4.12-.4.27h-.24c0-.2.03-.47.59-.47h.72c.44,0,.61.22.61.57v1.06h-.24v-.13s-.09.13-.29.13h-.92c-.35,0-.55-.13-.55-.42v-.2c0-.22.15-.38.51-.38ZM52.78,33.54v.12c0,.14.07.24.36.24h.81c.25,0,.36-.1.36-.3s-.13-.3-.36-.3h-.81c-.3,0-.36.09-.36.24Z"></path><path class="cls-2" d="M56.37,34.1h-.24v-1.63h.24v.62h.26l.86-.62h.38l-1.03.72,1.11.9h-.34l-.98-.81h-.26v.81Z"></path><path class="cls-2" d="M58.92,32.46h.65c.54,0,.71.3.71.64v.35c0,.34-.19.64-.72.64h-.65c-.48,0-.71-.22-.71-.64v-.35c0-.36.2-.64.71-.64ZM58.94,33.9h.62c.3,0,.49-.13.49-.44v-.35c0-.28-.17-.44-.49-.44h-.62c-.32,0-.49.13-.49.44v.35c0,.3.17.44.49.44Z"></path><path class="cls-2" d="M61.11,32.47l.82,1.39.83-1.39h.43v1.63h-.24v-1.44h-.07l-.87,1.44h-.16l-.86-1.44h-.07v1.44h-.24v-1.63h.43Z"></path><path class="cls-2" d="M65.7,32.47v1.63h-.24v-1.43h-1.58v1.43h-.24v-1.63h2.05Z"></path><path class="cls-2" d="M66.63,33.1h.95c.27,0,.3.13.3.13v-.23c0-.18-.12-.34-.4-.34h-.63c-.38,0-.4.12-.4.27h-.24c0-.2.03-.47.59-.47h.72c.44,0,.61.22.61.57v1.06h-.24v-.13s-.09.13-.29.13h-.92c-.35,0-.55-.13-.55-.42v-.2c0-.22.15-.38.51-.38ZM66.36,33.54v.12c0,.14.07.24.36.24h.81c.25,0,.36-.1.36-.3s-.13-.3-.36-.3h-.81c-.3,0-.36.09-.36.24Z"></path><path class="cls-2" d="M68.82,34.1h-.24v-1.63h.24v.67h1.58v-.67h.24v1.63h-.24v-.77h-1.58v.77Z"></path><path class="cls-2" d="M71.34,33.91h.07l1.34-1.44h.4v1.63h-.24v-1.44h-.07l-1.34,1.44h-.4v-1.63h.24v1.44Z"></path><path class="cls-2" d="M73.85,33.91h.08l1.34-1.44h.4v1.63h-.24v-1.44h-.07l-1.34,1.44h-.41v-1.63h.24v1.44ZM75.26,31.9c0,.28-.09.45-.66.45s-.65-.16-.65-.45h.19c0,.18.06.26.48.26.39,0,.45-.08.45-.26h.19Z"></path><path class="cls-2" d="M78.02,33.74l-.11.11-.67-.67.68-.68.11.11-.57.57.56.55ZM78.61,33.74l-.11.11-.67-.67.68-.68.11.11-.57.57.56.55Z"></path><path class="cls-2" d="M79.68,31.81l1.16,1.95,1.16-1.95h.51v2.29h-.24v-2.1h-.13l-1.23,2.1h-.12l-1.23-2.1h-.13v2.1h-.24v-2.29h.51Z"></path><path class="cls-2" d="M83.44,33.1h.95c.27,0,.31.13.31.13v-.23c0-.18-.12-.34-.4-.34h-.63c-.38,0-.4.12-.4.27h-.24c0-.2.03-.47.59-.47h.72c.44,0,.61.22.61.57v1.06h-.24v-.13s-.09.13-.29.13h-.92c-.35,0-.55-.13-.55-.42v-.2c0-.22.15-.38.51-.38ZM83.17,33.54v.12c0,.14.07.24.36.24h.81c.25,0,.36-.1.36-.3s-.13-.3-.36-.3h-.81c-.3,0-.36.09-.36.24Z"></path><path class="cls-2" d="M85.63,34.1h-.24v-1.63h.24v.62h.26l.86-.62h.38l-1.03.72,1.11.9h-.34l-.98-.81h-.25v.81Z"></path><path class="cls-2" d="M87.74,32.47v.17s.13-.17.46-.17h.66c.52,0,.69.29.69.64v.36c0,.37-.21.63-.69.63h-.64c-.34,0-.46-.16-.48-.17v.84h-.24v-2.3h.24ZM87.74,33.11v.35c0,.24.15.44.5.44h.53c.35,0,.54-.12.54-.44v-.36c0-.3-.19-.44-.54-.44h-.53c-.35,0-.5.19-.5.44h0Z"></path><path class="cls-2" d="M90.63,32.46h.65c.54,0,.71.3.71.64v.35c0,.34-.19.64-.72.64h-.65c-.48,0-.71-.22-.71-.64v-.35c0-.36.2-.64.71-.64ZM90.65,33.9h.62c.3,0,.49-.13.49-.44v-.35c0-.28-.17-.44-.49-.44h-.62c-.32,0-.49.13-.49.44v.35c0,.3.17.44.49.44Z"></path><path class="cls-2" d="M95.53,31.81v.23h-1.73v2.06h-.24v-2.29h1.96Z"></path><path class="cls-2" d="M95.8,32.47v.17s.13-.17.46-.17h.66c.52,0,.69.29.69.64v.36c0,.37-.21.63-.69.63h-.64c-.34,0-.46-.16-.48-.17v.84h-.24v-2.3h.24ZM95.8,33.11v.35c0,.24.15.44.5.44h.53c.35,0,.54-.12.54-.44v-.36c0-.3-.19-.44-.54-.44h-.53c-.35,0-.5.19-.5.44h0Z"></path><path class="cls-2" d="M98.09,32.47l.76,1.4h.05l.6-1.4h.25l-.82,1.84c-.15.33-.27.49-.67.49h-.08v-.2h.14c.21,0,.31-.09.49-.5h-.06l-.89-1.63h.25Z"></path><path class="cls-2" d="M102.09,32.47v1.63h-.24v-1.43h-1.58v1.43h-.24v-1.63h2.05Z"></path><path class="cls-2" d="M104.6,32.47v1.63h-.24v-1.43h-1.58v1.43h-.24v-1.63h2.05Z"></path><path class="cls-2" d="M105.14,32.61l.11-.11.68.68-.66.66-.11-.11.55-.55-.57-.57ZM105.74,32.61l.11-.11.68.68-.67.66-.11-.11.55-.55-.57-.57Z"></path></g><g><path class="cls-2" d="M65.57,3.13h-3.45l-5.16,9.46h2.72l1.26-2.39h5.76l1.25,2.39h2.73l-5.12-9.46ZM61.89,8.42l1.92-3.52h.11l1.85,3.52h-3.88Z"></path><polygon class="cls-2" points="43.11 5.01 43.42 5.01 46.76 12.59 50.07 12.59 53.41 5.01 53.71 5.01 53.71 12.59 56.04 12.59 56.04 3.13 51.71 3.13 48.48 10.71 48.34 10.71 45.12 3.13 40.79 3.13 40.79 12.59 43.11 12.59 43.11 5.01"></polygon><path class="cls-2" d="M103.24,3.02h-4.28c-2.65,0-3.59.78-3.59,3.37v2.97c0,2.29.98,3.23,3.59,3.23h4.28c2.72,0,3.52-.87,3.52-3.23v-2.97c0-2.66-1.11-3.37-3.52-3.37ZM104.43,9.12c0,1.28-.34,1.6-1.82,1.6h-3.08c-1.42,0-1.82-.34-1.82-1.58v-2.52c0-1.35.41-1.7,1.86-1.7h3c1.39,0,1.86.31,1.86,1.69v2.52Z"></path><polygon class="cls-2" points="77.21 7.56 82.94 3.13 79.45 3.13 75.2 6.66 73.83 6.66 73.83 3.13 71.5 3.13 71.5 12.59 73.83 12.59 73.83 8.55 75.25 8.55 79.75 12.59 83.17 12.59 77.21 7.56"></polygon><path class="cls-2" d="M90.79,3.13h-6.63v9.46h2.33v-2.8h4.33c2.4,0,3.39-.95,3.39-3.35s-.97-3.31-3.42-3.31ZM90.37,7.92h-3.88v-2.9h3.88c1.22,0,1.51.5,1.51,1.43,0,1.02-.34,1.47-1.51,1.47Z"></path><g><path class="cls-2" d="M48.6,19.54c0,1.75-.44,2.27-2.37,2.27h-2.92c-1.82,0-2.39-.56-2.39-2.32v-1.86c0-1.92.61-2.46,2.54-2.46h2.61c1.55,0,2.53.44,2.53,2.29h-1.57c0-.69-.35-.98-1.26-.98h-2.01c-1.05,0-1.27.18-1.27,1.21v1.63c0,1,.37,1.19,1.27,1.19h2.01c.94,0,1.26-.17,1.26-.96h1.58Z"></path><path class="cls-2" d="M54.87,21.81h-2.88c-1.76,0-2.42-.65-2.42-2.24v-2.06c0-1.8.63-2.34,2.42-2.34h2.88c1.63,0,2.37.49,2.37,2.34v2.06c0,1.64-.54,2.24-2.37,2.24ZM52.36,20.51h2.08c1,0,1.23-.22,1.23-1.11v-1.75c0-.95-.32-1.17-1.26-1.17h-2.02c-.98,0-1.26.25-1.26,1.18v1.75c0,.86.27,1.1,1.23,1.1Z"></path><path class="cls-2" d="M65.64,15.25v6.56h-1.57v-5.26h-3.69v2.88c0,1.68-.69,2.38-1.86,2.38h-.66v-1.31c.8,0,.95-.3.95-1.26v-4h6.83Z"></path><path class="cls-2" d="M68.27,21.81h-1.57v-6.56h1.57v2.52h1.58v-.26c0-1.8.63-2.33,2.42-2.33h2.88c1.63,0,2.37.48,2.37,2.33v2.07c0,1.64-.54,2.24-2.37,2.24h-2.88c-1.76,0-2.42-.65-2.42-2.24v-.5h-1.58v2.74ZM72.65,20.51h2.08c1,0,1.23-.22,1.23-1.11v-1.75c0-.95-.32-1.17-1.26-1.17h-2.02c-.98,0-1.26.25-1.26,1.18v1.75c0,.86.27,1.1,1.23,1.1Z"></path><path class="cls-2" d="M78.78,21.81v-6.56h1.57v5.26h3.05v-5.26h1.57v5.26h3.05v-5.26h1.57v6.56h-10.82Z"></path><path class="cls-2" d="M92.38,17.77h4.06v-2.52h1.57v6.56h-1.57v-2.74h-4.06v2.74h-1.57v-6.56h1.57v2.52Z"></path><path class="cls-2" d="M106.64,19.54c0,1.75-.44,2.27-2.37,2.27h-2.92c-1.82,0-2.39-.56-2.39-2.32v-1.86c0-1.92.61-2.46,2.54-2.46h2.61c1.55,0,2.53.44,2.53,2.29h-1.57c0-.69-.35-.98-1.26-.98h-2.01c-1.05,0-1.27.18-1.27,1.21v1.63c0,1,.37,1.19,1.27,1.19h2.01c.94,0,1.26-.17,1.26-.96h1.58Z"></path></g></g><g><rect class="cls-5" x="40.91" y="25.12" width="65.72" height="4.79"></rect><g><path class="cls-6" d="M44.15,26.75v1.77h-.42v-1.41h-1.09v1.41h-.42v-1.77h1.94Z"></path><path class="cls-6" d="M44.92,28.51h-.42v-1.77h1.2c.45,0,.62.17.62.62s-.18.62-.62.62h-.79v.52ZM44.92,27.64h.7c.21,0,.28-.08.28-.27,0-.17-.05-.27-.28-.27h-.7v.54Z"></path><path class="cls-6" d="M48.03,28.51h-.78c-.47,0-.65-.18-.65-.6v-.55c0-.48.17-.63.65-.63h.78c.44,0,.64.13.64.63v.55c0,.44-.14.6-.64.6ZM47.35,28.16h.56c.27,0,.33-.06.33-.3v-.47c0-.26-.09-.32-.34-.32h-.54c-.27,0-.34.07-.34.32v.47c0,.23.07.3.33.3Z"></path><path class="cls-6" d="M49.83,26.75l.59,1.42h.02l.59-1.42h.79v1.77h-.42v-1.41h-.06l-.61,1.41h-.6l-.61-1.41h-.06v1.41h-.42v-1.77h.79Z"></path><path class="cls-6" d="M52.62,26.75v.66h.77c.42,0,.64.1.64.55s-.21.55-.63.55h-1.2v-1.77h.42ZM52.62,28.16h.73c.23,0,.26-.05.26-.21,0-.13-.02-.2-.24-.2h-.74v.4ZM54.87,28.51h-.42v-1.77h.42v1.77Z"></path><path class="cls-6" d="M55.31,28.51v-1.77h.42v1.42h.82v-1.42h.42v1.42h.82v-1.42h.42v1.77h-2.91Z"></path><path class="cls-6" d="M60.63,26.75v1.77h-.42v-1.41h-.99v.77c0,.45-.18.64-.5.64h-.18v-.35c.22,0,.26-.08.26-.34v-1.08h1.84Z"></path><path class="cls-6" d="M61,26.75h1.8v.33h-1.38v.39h1.34v.31h-1.34v.4h1.38v.33h-1.8v-1.77Z"></path><path class="cls-6" d="M63.58,27.43h1.09v-.68h.42v1.77h-.42v-.74h-1.09v.74h-.42v-1.77h.42v.68Z"></path><path class="cls-6" d="M65.85,27.43h1.09v-.68h.42v1.77h-.42v-.74h-1.09v.74h-.42v-1.77h.42v.68Z"></path><path class="cls-6" d="M67.58,28.51l.94-1.77h.63l.93,1.77h-.5l-.23-.45h-1.05l-.23.45h-.49ZM69.18,27.73l-.34-.66h-.02l-.35.66h.7Z"></path><path class="cls-6" d="M71.16,27.95l-.42.56h-.55l.52-.62c-.2-.05-.39-.26-.39-.53,0-.5.26-.62.63-.62h1.34v1.77h-.42v-.56h-.7ZM70.98,27.08c-.19,0-.24.08-.24.27s.08.27.25.27h.87v-.54h-.88Z"></path><path class="cls-6" d="M73.43,28.51l.94-1.77h.63l.93,1.77h-.5l-.23-.45h-1.05l-.23.45h-.49ZM75.03,27.73l-.34-.66h-.02l-.35.66h.7Z"></path><path class="cls-6" d="M76.14,26.75h1.27c.39,0,.61.12.61.44,0,.28-.08.35-.22.39.18.06.29.13.29.41,0,.38-.19.52-.59.52h-1.36v-1.77ZM76.56,27.46h.86c.11,0,.17-.09.17-.21,0-.11-.06-.17-.17-.17h-.86v.38ZM76.56,28.18h.85c.23,0,.26-.05.26-.21,0-.13-.02-.2-.24-.2h-.86v.4Z"></path><path class="cls-6" d="M80.31,26.75v.35h-.74v1.41h-.42v-1.41h-.74v-.35h1.9Z"></path><path class="cls-6" d="M81.99,28.51h-.78c-.47,0-.65-.18-.65-.6v-.55c0-.48.17-.63.65-.63h.78c.44,0,.64.13.64.63v.55c0,.44-.14.6-.64.6ZM81.31,28.16h.56c.27,0,.33-.06.33-.3v-.47c0-.26-.09-.32-.34-.32h-.54c-.27,0-.34.07-.34.32v.47c0,.23.07.3.33.3Z"></path><path class="cls-6" d="M83.78,26.75l.59,1.42h.02l.59-1.42h.79v1.77h-.42v-1.41h-.06l-.61,1.41h-.6l-.61-1.41h-.06v1.41h-.42v-1.77h.79Z"></path><path class="cls-6" d="M86.01,28.51l.94-1.77h.63l.93,1.77h-.5l-.23-.45h-1.05l-.23.45h-.49ZM87.6,27.73l-.34-.66h-.02l-.35.66h.7Z"></path><path class="cls-6" d="M90.36,26.75v.35h-.74v1.41h-.42v-1.41h-.74v-.35h1.9Z"></path><path class="cls-6" d="M91.06,28.16h.06l1.08-1.42h.71v1.77h-.42v-1.41h-.06l-1.06,1.41h-.73v-1.77h.42v1.42Z"></path><path class="cls-6" d="M93.26,28.01h.42c0,.09.09.17.21.17h.71c.19,0,.27-.06.27-.2,0-.13-.04-.2-.29-.2h-.78v-.31h.82c.12,0,.2-.05.2-.21,0-.13-.08-.18-.2-.18h-.71c-.18,0-.21.06-.22.16h-.42c0-.34.18-.5.6-.5h.72c.47,0,.65.14.65.5,0,.22-.09.32-.24.37.16.06.27.16.27.36,0,.38-.18.54-.6.54h-.85c-.45,0-.59-.16-.59-.5Z"></path><path class="cls-6" d="M95.51,28.51l.94-1.77h.63l.93,1.77h-.5l-.23-.45h-1.05l-.23.45h-.49ZM97.11,27.73l-.34-.66h-.02l-.35.66h.7Z"></path><path class="cls-6" d="M99.71,28.16v-1.42h.42v1.42h.2v.78h-.39v-.43h-1.75v-1.77h.42v1.42h1.09Z"></path><path class="cls-6" d="M101.12,28.16h.06l1.08-1.42h.71v1.77h-.42v-1.41h-.06l-1.06,1.41h-.73v-1.77h.42v1.42Z"></path><path class="cls-6" d="M104.22,27.95l-.42.56h-.55l.52-.62c-.2-.05-.39-.26-.39-.53,0-.5.26-.62.63-.62h1.34v1.77h-.42v-.56h-.7ZM104.04,27.08c-.19,0-.24.08-.24.27s.08.27.25.27h.87v-.54h-.88Z"></path></g></g></svg> 