<svg width="120" height="63" viewBox="0 0 82 41" fill="none" xmlns="http://www.w3.org/2000/svg">
<path d="M74.4074 41.0479H0.0390625V26.8893H74.4074V41.0479Z" fill="#ED1C24"/>
<path d="M30.0488 22.2381C30.0488 21.1201 30.9819 20.2129 32.1375 20.2129C33.2908 20.2129 34.2242 21.1201 34.2242 22.2381C34.2242 23.3568 33.2908 24.2628 32.1375 24.2628C30.9819 24.2628 30.0488 23.3568 30.0488 22.2381Z" fill="#ED1C24"/>
<path d="M30.1172 20.1119L32.1298 19.2508L34.2018 20.1687L32.1298 15.5187L30.1172 20.1119Z" fill="#ED1C24"/>
<path d="M35.0351 14.7181C35.0351 14.7181 35.6128 14.7181 35.9454 14.7181C35.9454 15.2216 35.9454 24.3965 35.9454 24.3965H38.9054V2.26871H35.9454C35.9454 2.26871 35.9454 11.4443 35.9454 11.9482H34.1258C34.1258 11.4443 34.1258 2.26871 34.1258 2.26871H31.1648V11.0953C31.1648 13.0923 32.9008 14.7181 35.0351 14.7181ZM3.00129 14.7181H4.82226C4.82226 15.2216 4.82226 24.3965 4.82226 24.3965H7.78216V2.26871H4.82226C4.82226 2.26871 4.82226 11.4443 4.82226 11.9482H3.00129C3.00129 11.4443 3.00129 2.26871 3.00129 2.26871H0.0390625V24.3965H3.00129C3.00129 24.3965 3.00129 15.2216 3.00129 14.7181ZM13.3766 5.04043H15.1975V11.9482H13.3766V5.04043ZM13.3766 14.7181H15.1975C15.1975 15.2216 15.1975 24.3965 15.1975 24.3965H18.1598V5.7121C18.1598 3.71291 16.4225 2.08834 14.2858 2.08834C12.149 2.08834 10.4132 3.71291 10.4132 5.7121V24.3965H13.3766C13.3766 24.3965 13.3766 15.2216 13.3766 14.7181ZM44.4998 14.7181H46.3221C46.3221 15.2216 46.3221 24.3965 46.3221 24.3965H49.2831V2.26871H46.3221C46.3221 2.26871 46.3221 11.4443 46.3221 11.9482H44.4998C44.4998 11.4443 44.4998 2.26871 44.4998 2.26871H41.5387V24.3965H44.4998C44.4998 24.3965 44.4998 15.2216 44.4998 14.7181ZM23.4646 15.6864C23.4646 15.6864 25.1301 15.6864 25.5705 15.6864V21.6258C25.0798 21.6258 21.4332 21.6258 21.4332 21.6258V24.3965H25.8576C27.3315 24.3965 28.5327 23.2736 28.5327 21.8919V2.26871H25.5705C25.5705 2.26871 25.5705 12.4093 25.5705 12.9157H23.7495C23.7495 12.4093 23.7495 2.26871 23.7495 2.26871H20.7883V13.1818C20.7883 14.6575 21.8902 15.6864 23.4646 15.6864ZM64.0321 2.26871H61.0711V24.3965H64.0321V2.26871ZM69.3371 24.3965H74.4074V21.6258C74.4074 21.6258 70.1268 21.6258 69.6244 21.6258V14.7181C70.1054 14.7181 73.2111 14.7181 73.2111 14.7181V11.9482C73.2111 11.9482 70.1054 11.9482 69.6244 11.9482V5.04043C70.1268 5.04043 74.4074 5.04043 74.4074 5.04043V2.26871H69.3371C67.8607 2.26871 66.6644 3.39259 66.6644 4.77408V21.8919C66.6644 23.2736 67.8607 24.3965 69.3371 24.3965ZM56.6934 21.6258H54.8738V14.7181H56.6934V21.6258ZM59.6558 21.8919V14.4539C59.6558 13.0722 58.4561 11.9482 56.9831 11.9482C56.9831 11.9482 55.3168 11.9482 54.8738 11.9482C54.8738 11.4443 54.8738 2.26871 54.8738 2.26871H51.9118V24.3965H56.9831C58.4561 24.3965 59.6558 23.2736 59.6558 21.8919Z" fill="#1D1D1D"/>
<path d="M4.28085 33.3585H5.24022C5.75415 33.3585 6.10962 32.7864 6.10962 32.2274C6.10962 31.5406 5.92732 30.9579 5.14792 30.9579H4.28085V33.3585ZM2.55469 29.6655H5.66522C7.24232 29.6655 7.86092 30.6425 7.86092 32.182C7.86092 33.1368 7.58632 34.6512 5.56042 34.6512H4.28085V38.0764H2.55469V29.6655Z" fill="white"/>
<path d="M10.9961 31.9603H10.972L10.3534 34.9187H11.6922L10.9961 31.9603ZM9.69023 38.0764H7.89453L9.9318 29.6655H11.9555L14.1409 38.0764H12.4363L12.0033 36.211H10.08L9.69023 38.0764Z" fill="white"/>
<path d="M14.8295 31.7375C14.8295 30.002 15.5292 29.5241 17.2074 29.5241C18.7651 29.5241 19.4954 30.1655 19.4954 31.7851C19.4954 32.5777 19.2677 33.5337 18.3629 33.661V33.6843C19.451 33.8953 19.622 34.7678 19.622 35.7565C19.622 37.5059 18.7081 38.216 17.0239 38.216C15.3764 38.216 14.7383 37.6219 14.7383 35.8166H16.419C16.419 36.3759 16.3859 36.9807 17.1197 36.9807C17.8831 36.9807 17.9401 36.2576 17.9401 35.6635C17.9401 34.4406 17.5516 34.3712 16.3734 34.3712V33.0197C17.4729 33.067 17.817 32.9499 17.817 31.7722C17.817 31.3082 17.7361 30.7608 17.1618 30.7608C16.5568 30.7608 16.5088 31.2621 16.5088 31.7375H14.8295Z" fill="white"/>
<path d="M22.7 36.7818H23.533C23.9009 36.7818 24.7236 36.7715 24.7236 35.595C24.7236 34.8492 24.4501 34.3934 23.5819 34.3934H22.7V36.7818ZM22.7 33.1018H23.7289C24.106 33.1018 24.6324 32.8442 24.6324 32.0288C24.6324 31.413 24.2199 30.9578 23.6366 30.9578H22.7V33.1018ZM20.9727 38.0764V29.6655H23.9122C25.2284 29.6655 26.3164 30.0496 26.3164 31.8432C26.3164 32.8095 25.8448 33.5101 24.9082 33.696V33.7192C26.1319 33.8953 26.4521 34.6982 26.4521 35.8512C26.4521 37.9836 24.6324 38.0764 23.9009 38.0764H20.9727Z" fill="white"/>
<path d="M33.4207 38.0764H31.6897V30.9578H30.2257V32.9963C30.2257 36.072 29.9772 36.7715 29.0852 37.7147C28.7421 38.0764 28.1883 38.1928 27.9286 38.1928C27.6267 38.1928 27.2996 38.1 27.1367 37.971V36.5381C27.1936 36.5833 27.3577 36.6312 27.4944 36.6312C27.6267 36.6312 27.8477 36.5501 27.9616 36.3878C28.5211 35.6056 28.4994 35.094 28.4994 32.0197V29.6655H33.4207V38.0764Z" fill="white"/>
<path d="M34.9199 38.0764V29.6655H39.4273V30.9579H36.6473V33.0324H39.2096V34.3246H36.6473V36.7819H39.5186V38.0764H34.9199Z" fill="white"/>
<path d="M44.0605 29.6655H45.7868V38.0764H44.0605V34.675H43.2821C41.3828 34.675 40.4668 33.6726 40.4668 32.0879V29.6655H42.1965V31.972C42.1965 33.0071 42.6271 33.4161 43.2561 33.4161H44.0605V29.6655Z" fill="white"/>
<path d="M47.2871 38.0764V29.6655H51.7934V30.9579H49.0121V33.0324H51.5734V34.3246H49.0121V36.7819H51.8868V38.0764H47.2871Z" fill="white"/>
<path d="M56.7702 33.0323V29.6655H58.4978V38.0764H56.7702V34.3246H54.7912V38.0764H53.0625V29.6655H54.7912V33.0323H56.7702Z" fill="white"/>
<path d="M61.8057 34.7784L63.647 29.6655H65.4897V38.0764H63.761V32.9616H63.7374L61.8957 38.0764H60.0547V29.6655H61.7807V34.7784H61.8057Z" fill="white"/>
<path d="M70.1687 30.9579H69.401C68.854 30.9579 68.519 31.2622 68.519 32.0648C68.519 32.5995 68.7127 33.3016 69.401 33.3016H70.1687V30.9579ZM70.1687 38.0764V34.5917H69.7234C68.3937 34.5917 68.486 35.4433 68.486 36.4453C68.486 36.9932 68.5327 37.5638 68.3027 38.0764H66.6094C66.771 37.726 66.803 36.1416 66.803 35.6056C66.803 34.0928 67.9254 33.9989 68.3027 33.9533V33.9303C67.1814 33.7424 66.771 32.9395 66.771 31.8663C66.771 30.4339 67.523 29.6655 68.7047 29.6655H71.8964V38.0764H70.1687Z" fill="white"/>

</svg>
