<svg width="284" height="46" viewBox="0 0 284 46" fill="none" xmlns="http://www.w3.org/2000/svg">
<g clip-path="url(#clip0_4518_702)">
<path d="M35.7608 10.3896H0V35.5199H6.46444V28.0697H35.8066C40.1162 28.0697 42.3857 25.7685 42.3857 21.4169V16.8146C42.3857 12.6224 40.0933 10.3896 35.7608 10.3896ZM35.8983 17.7487V20.6195C35.8983 21.5536 35.5315 21.6219 35.0272 21.6219L6.48737 21.6675V16.769H34.9584C35.2106 16.769 35.5544 16.7918 35.7149 16.9741C35.8754 17.1564 35.9212 17.4753 35.8983 17.7487Z" fill="#18162F"/>
<path d="M80.0254 10.4121H50.6603C46.4423 10.4121 44.2188 12.6449 44.2188 16.8826V29.0263C44.2188 33.264 46.4653 35.5196 50.729 35.5196L80.2087 35.4512C84.4038 35.4512 86.6273 33.264 86.6273 29.1402V17.0193C86.6273 12.6905 84.335 10.4121 80.0254 10.4121ZM80.1858 17.9079V28.1377C80.1858 28.9124 79.9566 29.1402 79.2001 29.1402H51.7377C50.9583 29.1402 50.7061 28.8896 50.7061 28.0921V17.794C50.7061 17.0421 50.9354 16.8143 51.7377 16.8143H79.1772C79.8649 16.8143 80.2087 16.9966 80.2087 17.9307L80.1858 17.9079Z" fill="#18162F"/>
<path d="M88.4389 35.5199H124.223C128.555 35.5199 130.848 33.2415 130.848 28.9127V26.1559C130.848 21.9637 128.555 19.7537 124.223 19.7537H94.9263V16.7007H130.825V10.3213H88.416V35.4971L88.4389 35.5199ZM94.9263 29.0949V26.1559H123.374C124.291 26.1559 124.475 26.4748 124.475 27.1128V28.0469C124.475 28.8443 124.223 29.0949 123.397 29.0949H94.9263Z" fill="#18162F"/>
<path d="M172.179 21.5074C172.224 22.0086 172.247 22.487 172.247 23.0111C172.247 32.1701 164.751 39.6203 155.536 39.6203C146.321 39.6203 138.825 32.1701 138.825 23.0111C138.825 13.8521 146.321 6.40186 155.536 6.40186C158.402 6.40186 161.084 7.10815 163.445 8.38403H173.371C169.13 3.28051 162.711 0.0224609 155.536 0.0224609C142.768 0.0224609 132.406 10.3434 132.406 23.0111C132.406 35.6787 142.791 45.9997 155.536 45.9997C168.282 45.9997 178.666 35.6787 178.666 23.0111C178.666 22.5098 178.666 22.0086 178.62 21.5074H172.179Z" fill="#BE1822"/>
<path d="M153.176 35.5193L159.64 35.4965L159.686 16.7684L189.143 16.7912V35.5193H195.561V10.3662H153.222L153.176 35.5193Z" fill="#18162F"/>
<path d="M233.132 10.3887H197.371V35.5189H203.836V28.0459H233.178C237.487 28.0459 239.757 25.7676 239.757 21.4159V16.8136C239.757 12.6215 237.464 10.3887 233.109 10.3887H233.132ZM233.269 17.7478V20.6185C233.269 21.5526 232.88 21.6437 232.375 21.6437H203.813V16.7909H232.307C232.559 16.7909 232.903 16.8136 233.063 16.9959C233.224 17.1782 233.269 17.4971 233.246 17.7705L233.269 17.7478Z" fill="#18162F"/>
<path d="M277.396 10.4121H248.031C243.813 10.4121 241.59 12.6449 241.59 16.8826V29.0263C241.59 33.264 243.836 35.5196 248.1 35.5196L277.58 35.4512C281.775 35.4512 283.998 33.264 283.998 29.1402V17.0193C283.998 12.6905 281.706 10.4121 277.396 10.4121ZM277.557 17.9079V28.1377C277.557 28.9124 277.328 29.1402 276.571 29.1402H249.109C248.329 29.1402 248.077 28.8896 248.077 28.0921V17.794C248.077 17.0421 248.306 16.8143 249.109 16.8143H276.548C277.236 16.8143 277.58 16.9966 277.58 17.9307L277.557 17.9079Z" fill="#18162F"/>
</g>
<defs>
<clipPath id="clip0_4518_702">
<rect width="284" height="46" fill="white"/>
</clipPath>
</defs>
</svg>
