<svg width="284" height="56" viewBox="0 0 284 56" fill="none" xmlns="http://www.w3.org/2000/svg">
<g clip-path="url(#clip0_4518_710)">
<path d="M283.995 0C283.995 12.2641 283.983 24.1904 284 36.1109C284 38.4926 283.575 40.7617 282.764 42.9953C280.251 49.9568 275.324 54.0449 268.167 55.6386C266.919 55.9171 265.701 55.9941 264.453 55.9941C177.142 55.9941 89.8369 55.9941 2.526 55.9941H0.432244C-0.123725 55.4727 0.0596262 54.9217 0.0596262 54.4359C0.0477971 42.6576 -0.088238 30.8794 0.0951137 19.1071C0.237063 10.3267 6.17529 2.3047 15.7687 0.379179C17.0877 0.112569 18.383 0 19.7019 0C106.936 0 194.176 0 281.41 0H283.995Z" fill="#FFDF44"/>
<path d="M65.7458 20.0371C65.728 26.4535 65.7103 32.8759 65.6925 39.2923C65.6925 40.104 65.6689 40.9157 65.657 41.7273C63.7644 42.1776 61.8717 42.1539 59.9791 41.7451C59.9672 35.3228 59.9554 28.9063 59.9377 22.484C59.9377 21.6723 59.9081 20.8606 59.8963 20.049C59.5355 19.6935 59.0741 19.7823 58.6424 19.7823C46.1035 19.7823 33.5587 19.7823 21.0198 19.7823C20.724 19.7823 20.4342 19.7942 20.0143 19.9601C19.5825 21.5301 19.7955 23.189 19.896 25.0198C26.4967 25.3456 33.05 24.8657 39.5797 25.2686C43.8204 25.47 47.3455 28.8116 47.3633 33.5513C47.381 38.2377 43.7672 41.6859 39.5797 41.8518C32.3107 42.1835 25.0358 41.9288 17.7608 41.9821C16.7554 41.988 15.7085 42.2665 14.7385 41.7392C14.7385 39.9914 14.7385 38.2377 14.7385 36.4899C15.4837 35.9923 16.3177 36.247 17.1043 36.2411C25.1363 36.2174 33.1624 36.2292 41.2772 36.2292C41.7326 34.4696 41.5493 32.8107 41.431 30.9859C34.8303 30.666 28.2888 31.1459 21.7591 30.7371C17.5302 30.6482 14.0997 26.6076 14.0879 22.2174C14.082 18.319 17.7135 14.1776 21.7591 14.1598C22.3269 13.9169 22.9243 14.0117 23.5098 14.0117C41.6557 14.0117 59.8016 14.0058 77.9534 14.0117C78.5981 14.0117 79.2901 13.8103 79.8816 14.2606C79.8816 16.0143 79.8816 17.762 79.8816 19.5157C76.114 20.1082 72.3169 19.5987 68.5434 19.7823C67.6148 19.8297 66.6507 19.5276 65.7576 20.0371H65.7458Z" fill="#686D76"/>
<path d="M268.865 25.3813V30.6246C268.202 31.1104 267.439 30.8734 266.73 30.8794C259.455 30.8971 252.174 30.8794 244.899 30.9031C244.183 30.9031 243.426 30.6898 242.752 31.1401C242.752 32.7575 242.752 34.3749 242.752 35.9924C243.503 36.4604 244.331 36.2234 245.118 36.2294C252.47 36.2471 259.821 36.2294 267.173 36.253C267.889 36.253 268.646 36.0279 269.314 36.496C269.314 38.2497 269.314 39.9974 269.314 41.7511C269.19 41.8282 269.06 41.9704 268.936 41.9704C260.927 41.9585 252.913 42.1718 244.905 41.8696C240.191 41.1646 236.997 37.5683 236.95 32.8701C236.92 29.8485 237.109 26.815 236.896 23.8112C236.589 19.5158 239.599 14.8591 244.911 14.1659C252.913 13.9585 260.921 13.8519 268.924 14.2192C269.249 16.0144 269.249 17.7977 268.924 19.5869C267.333 20.0076 265.712 19.7706 264.104 19.7765C257.704 19.8121 251.298 19.7825 244.899 19.8002C244.183 19.8002 243.426 19.5869 242.752 20.0372C242.752 21.6547 242.752 23.2721 242.752 24.8895C243.426 25.3398 244.183 25.1206 244.899 25.1265C252.174 25.1443 259.455 25.1265 266.73 25.1502C267.439 25.1502 268.202 24.9132 268.865 25.405V25.3813Z" fill="#686D76"/>
<path d="M113.145 36.4843V41.7395C112.779 42.0772 112.317 42.0002 111.886 41.9942C104.912 41.9054 97.9331 42.1838 90.9598 41.8461C85.8319 41.1826 82.8214 36.7331 82.987 32.3192C83.0934 29.4399 83.0047 26.5486 83.0047 23.6633C83.0047 18.4792 85.7727 15.1732 90.9598 14.1601C98.2229 13.9231 105.486 13.852 112.749 14.1957V14.2075C113.074 15.9968 113.074 17.786 112.749 19.5753V19.5871C109.898 20.0137 107.036 19.7293 104.179 19.7649C99.7666 19.8182 95.3543 19.7649 90.948 19.7886C90.2323 19.7886 89.4753 19.5575 88.8128 20.0374C88.8128 21.643 88.8128 23.2486 88.8128 24.8542C89.4753 25.34 90.2382 25.103 90.948 25.1089C97.4836 25.1267 104.019 25.1089 110.555 25.1326C111.265 25.1326 112.028 24.9016 112.69 25.3815C112.69 27.1292 112.69 28.877 112.69 30.6248C112.028 31.1106 111.265 30.8736 110.555 30.8736C104.019 30.8914 97.4836 30.8736 90.948 30.8973C90.2382 30.8973 89.4753 30.6663 88.8128 31.1462C88.8128 32.7517 88.8128 34.3573 88.8128 35.9629C89.4753 36.4428 90.2382 36.2118 90.948 36.2118C97.6314 36.2295 104.315 36.2118 111.004 36.2355C111.72 36.2355 112.477 36.0103 113.145 36.4784V36.4843Z" fill="#686D76"/>
<path d="M124.308 36.0337L124.219 41.7214C122.332 42.1835 120.44 42.148 118.547 41.7451C118.547 32.5855 118.547 23.426 118.547 14.2665C118.671 14.1894 118.801 14.0472 118.925 14.0472C127.082 14.0591 135.238 13.834 143.394 14.1598C147.978 14.6753 150.905 18.8107 150.876 23.1061C150.864 25.3041 151.249 27.5496 150.426 29.6884C149.102 33.1247 146.718 35.2635 142.944 35.619C137.521 35.9922 132.091 35.6664 126.668 35.7908C125.881 35.8086 125.053 35.5479 124.308 36.0396V36.0337Z" fill="#686D76"/>
<path d="M201.953 41.7395C201.942 35.406 201.776 29.0726 201.965 22.7509C202.101 18.2126 205.271 14.8474 209.873 14.172C217.272 13.9469 224.677 13.8047 232.076 14.2431C232.076 16.0086 232.076 17.7742 232.076 19.5398C231.396 19.9723 230.639 19.7649 229.923 19.7649C223.234 19.7827 216.545 19.7649 209.855 19.7886C209.14 19.7886 208.382 19.5635 207.714 20.0315C207.714 21.643 207.714 23.2545 207.714 24.8601C208.459 25.3459 209.293 25.0971 210.086 25.103C217.225 25.1326 224.37 25.103 231.603 25.1326C232.112 27.0167 231.757 28.8178 231.846 30.5241C230.923 31.0988 230.095 30.8737 229.314 30.8796C222.832 30.8974 216.349 30.8796 209.861 30.9033C209.145 30.9033 208.382 30.6841 207.714 31.1462C207.685 34.6714 207.655 38.1965 207.625 41.7217C205.739 42.1898 203.852 42.1542 201.959 41.7454L201.953 41.7395Z" fill="#686D76"/>
<path d="M162.414 41.8045C159.09 40.7677 156.765 38.777 156.168 35.1689C155.76 28.243 156.15 21.3111 155.961 14.243C157.913 13.9171 159.687 13.8105 161.479 14.2548C161.509 19.6403 161.538 25.0259 161.568 30.4055C161.58 32.248 161.592 34.0965 161.609 35.9391C162.26 36.4723 163.023 36.2117 163.733 36.2117C170.268 36.2354 176.81 36.2176 183.345 36.2354C184.067 36.2354 184.818 36.0458 185.504 36.4427H185.516C185.859 38.2142 185.859 39.9975 185.516 41.7808H185.504C183.919 42.2311 182.293 41.9941 180.696 41.9704C174.604 41.8993 168.506 42.243 162.42 41.7986L162.414 41.8045Z" fill="#686D76"/>
<path d="M196.506 14.2549C196.535 16.9861 196.594 19.7233 196.594 22.4546C196.582 28.8829 196.541 35.3171 196.506 41.7453C194.778 42.3023 193.04 41.8461 191.076 42.0119C191.035 32.5976 191.035 23.4026 191.076 14.1008C193.04 14.0475 194.778 13.7513 196.506 14.2549Z" fill="#686D76"/>
<path d="M39.5743 25.2627H19.7664C19.3819 23.4379 19.5949 21.6249 19.6244 19.9068C20.1508 19.3973 20.695 19.5632 21.1859 19.5632C33.5178 19.5513 45.8556 19.5454 58.1874 19.5809C58.7493 19.5809 59.5478 19.107 59.8967 20.0431C46.8433 20.0312 33.7898 20.0194 20.7423 20.0134C20.6003 20.0134 20.4584 20.0608 20.1804 20.1141C19.8255 21.5775 20.0562 23.1002 20.0444 24.5577C20.6181 25.0849 21.2391 24.8776 21.7951 24.8835C27.0295 24.9013 32.2698 24.8835 37.5042 24.9131C38.1903 24.9131 38.9887 24.5517 39.5684 25.2686L39.5743 25.2627Z" fill="#B3A55B"/>
<path d="M79.8705 14.2604C72.2112 14.2485 64.5459 14.2248 56.8865 14.2248C45.9091 14.2189 34.9316 14.2248 23.9542 14.2248C23.2208 14.2248 22.4815 14.1834 21.748 14.1656C22.0911 13.5909 22.6648 13.7923 23.1498 13.7923C41.6328 13.7864 60.11 13.7805 78.593 13.7923C79.0425 13.7923 79.6754 13.4961 79.8705 14.2663V14.2604Z" fill="#B3A55B"/>
<path d="M207.715 31.1405C208.087 30.234 208.874 30.6962 209.448 30.6902C216.025 30.6547 222.602 30.6665 229.173 30.6665C229.906 30.6665 230.634 30.6665 231.491 30.6665C231.805 28.9188 231.639 27.2539 231.622 25.6424C230.941 25.1388 230.255 25.3521 229.617 25.3462C222.969 25.3284 216.315 25.3462 209.667 25.3106C209.022 25.3106 208.17 25.8083 207.715 24.8604H231.905C232.272 26.9399 232.083 28.8891 232.041 31.0872C223.879 31.105 215.794 31.1227 207.715 31.1405Z" fill="#B1A35C"/>
<path d="M21.7472 30.7373H41.5551C41.975 32.5384 41.7207 34.3514 41.7148 36.4131C32.6714 36.4368 23.699 36.4665 14.7266 36.4902C15.1642 35.5007 16.0219 36.034 16.6606 36.028C24.042 35.9866 31.4234 36.0043 38.8048 36.0043C39.5382 36.0043 40.2716 36.0043 41.1115 36.0043C41.5255 34.4343 41.2712 32.9117 41.2889 31.4542C40.7211 30.9269 40.1001 31.1283 39.5382 31.1283C34.2979 31.1106 29.0576 31.1283 23.8173 31.0987C23.1312 31.0987 22.3327 31.4601 21.7531 30.7373H21.7472Z" fill="#B5A65B"/>
<path d="M196.507 14.2545H191.367V41.745H196.507C196.466 41.982 196.341 42.1716 196.099 42.1775C194.413 42.1893 192.734 42.1834 190.936 42.1834V14.1301C192.799 13.6383 195.271 13.6857 196.507 14.2545Z" fill="#8C886A"/>
<path d="M269.318 36.4838C261.121 36.4719 252.917 36.4719 244.72 36.4186C244.069 36.4186 243.229 36.9044 242.75 35.9802C250.965 35.9861 259.181 35.9802 267.39 36.0276C268.023 36.0276 268.881 35.5062 269.312 36.4838H269.318Z" fill="#B3A55B"/>
<path d="M161.479 14.2547H156.168V35.1688C155.901 34.9911 155.789 34.7482 155.789 34.4282C155.789 27.6563 155.789 20.8785 155.789 13.9881C157.658 13.6623 159.468 13.7748 161.272 13.9052C161.349 13.9052 161.408 14.1303 161.473 14.2488L161.479 14.2547Z" fill="#958F66"/>
<path d="M242.75 31.1344C243.223 30.2101 244.069 30.696 244.72 30.696C251.959 30.6545 259.193 30.6723 266.432 30.6723C267.242 30.6723 268.053 30.6426 268.869 30.6308C268.526 31.561 267.733 31.0929 267.171 31.0988C260.937 31.1403 254.703 31.1225 248.469 31.1225C246.565 31.1225 244.654 31.1344 242.75 31.1403V31.1344Z" fill="#B3A55B"/>
<path d="M268.865 25.3811C260.815 25.3634 252.765 25.3634 244.716 25.3101C244.065 25.3101 243.225 25.7959 242.746 24.8716C250.814 24.8776 258.881 24.8716 266.949 24.919C267.575 24.919 268.439 24.3858 268.865 25.3811Z" fill="#B3A55B"/>
<path d="M242.752 20.0193C243.054 19.2077 243.752 19.575 244.266 19.5691C252.487 19.5513 260.709 19.5691 268.924 19.5691C268.398 20.4044 267.575 19.966 266.907 19.9719C258.851 20.0134 250.802 20.0075 242.746 20.0134L242.752 20.0193Z" fill="#B3A55B"/>
<path d="M143.394 14.1537C136.722 14.1774 130.057 14.1951 123.385 14.2248C121.77 14.2307 120.162 14.2485 118.547 14.2662C118.677 13.6264 119.192 13.7863 119.6 13.7863C127.212 13.7804 134.824 13.7863 142.436 13.7804C142.814 13.7804 143.175 13.7804 143.394 14.1596V14.1537Z" fill="#B3A55B"/>
<path d="M14.7266 41.7393C22.2026 41.7511 29.6786 41.763 37.1546 41.7867C37.959 41.7867 38.7634 41.8281 39.5678 41.8518C39.3489 42.231 38.9822 42.231 38.6096 42.231C30.9975 42.231 23.3855 42.231 15.7734 42.2251C15.3653 42.2251 14.8508 42.385 14.7266 41.7452V41.7393Z" fill="#B3A55B"/>
<path d="M113.147 36.4842C105.683 36.4723 98.2245 36.4723 90.7603 36.419C90.1216 36.419 89.264 36.9463 88.8145 35.9628C96.2786 35.9746 103.743 35.9746 111.201 36.022C111.84 36.022 112.697 35.4947 113.141 36.4782L113.147 36.4842Z" fill="#B3A55B"/>
<path d="M207.713 20.0315C208.168 19.0717 209.026 19.5871 209.671 19.5812C217.141 19.5338 224.605 19.5457 232.075 19.5397C231.596 20.4521 230.75 19.9722 230.1 19.9782C223.375 20.0196 216.65 20.0019 209.931 20.0019C209.192 20.0019 208.452 20.0196 207.713 20.0315Z" fill="#B3A55B"/>
<path d="M244.91 41.8578C250.553 41.8341 256.195 41.8044 261.844 41.7807C264.334 41.7689 266.83 41.757 269.32 41.7393C269.189 42.3791 268.675 42.2192 268.267 42.2192C260.803 42.2251 253.338 42.2192 245.874 42.2251C245.496 42.2251 245.135 42.231 244.91 41.8578Z" fill="#B3A55B"/>
<path d="M112.697 25.3811C105.387 25.3634 98.0707 25.3634 90.7603 25.3101C90.1215 25.3101 89.2639 25.8373 88.8203 24.8539C96.1366 24.8657 103.447 24.8657 110.763 24.919C111.396 24.919 112.26 24.3858 112.697 25.3811Z" fill="#B3A55B"/>
<path d="M268.923 14.2013C260.921 14.1835 252.913 14.1658 244.91 14.148C245.188 13.6503 245.661 13.7807 246.087 13.7807C253.321 13.7807 260.56 13.7807 267.794 13.7807C268.214 13.7807 268.704 13.6385 268.923 14.2013Z" fill="#B3A55B"/>
<path d="M88.8203 31.1464C89.1811 30.2281 89.9737 30.6962 90.5415 30.6902C97.1125 30.6488 103.69 30.6665 110.261 30.6606C111.071 30.6606 111.887 30.631 112.697 30.6191C112.348 31.5552 111.55 31.0813 110.988 31.0813C104.411 31.1227 97.8341 31.105 91.2571 31.1109C90.4468 31.1109 89.6306 31.1346 88.8203 31.1464Z" fill="#B3A55B"/>
<path d="M185.5 36.4484C178.166 36.4484 170.832 36.4602 163.498 36.4187C162.877 36.4187 162.008 36.9756 161.605 35.9448C168.904 35.9625 176.209 35.9744 183.507 36.0277C184.164 36.0277 184.998 35.5774 185.5 36.4543V36.4484Z" fill="#B3A55B"/>
<path d="M88.8203 20.0372C89.0096 19.273 89.6365 19.5692 90.086 19.5692C97.6449 19.5633 105.198 19.5692 112.757 19.581C112.23 20.4105 111.408 19.978 110.74 19.978C104.169 20.0135 97.6035 19.9958 91.0324 20.0017C90.293 20.0017 89.5596 20.0254 88.8203 20.0372Z" fill="#B3A55B"/>
<path d="M162.414 41.804C170.109 41.7922 177.804 41.7863 185.499 41.7744C185.351 42.2188 184.99 42.2247 184.611 42.2247C177.526 42.2188 170.434 42.2128 163.349 42.2128C162.97 42.2128 162.609 42.201 162.414 41.804Z" fill="#B4A65B"/>
<path d="M232.074 14.2427C224.675 14.219 217.27 14.1953 209.871 14.1716C210.131 13.6621 210.61 13.7865 211.036 13.7865C217.684 13.7865 224.332 13.7865 230.986 13.7865C231.4 13.7865 231.903 13.6384 232.074 14.2427Z" fill="#B3A55B"/>
<path d="M90.959 41.8459C97.258 41.8222 103.551 41.8044 109.85 41.7748C110.95 41.7748 112.044 41.7511 113.145 41.7393C113.009 42.3791 112.5 42.2192 112.092 42.2192C105.367 42.2251 98.642 42.2192 91.9172 42.2251C91.5386 42.2251 91.1778 42.2251 90.959 41.8459Z" fill="#B3A55B"/>
<path d="M112.756 14.1956C105.493 14.1838 98.2299 14.1719 90.9668 14.1601C91.233 13.6565 91.712 13.7809 92.1379 13.7809C98.6321 13.7809 105.132 13.7809 111.626 13.7809C112.046 13.7809 112.537 13.6387 112.756 14.1956Z" fill="#B3A55B"/>
<path d="M124.307 36.0343C124.449 35.4122 124.951 35.5603 125.359 35.5603C131.221 35.5722 137.082 35.5959 142.943 35.6137C142.376 36.3542 141.571 35.981 140.885 35.981C135.361 36.0225 129.831 36.0225 124.307 36.0284V36.0343Z" fill="#B3A55B"/>
<path d="M65.7461 20.0375C66.0241 19.1844 66.7397 19.5813 67.2484 19.5754C71.4537 19.528 75.6648 19.528 79.8701 19.5162C79.598 20.3752 78.8824 19.9783 78.3737 19.9842C74.1625 20.0316 69.9573 20.0257 65.7461 20.0375Z" fill="#B3A55B"/>
<path d="M118.547 41.7395C120.44 41.7336 122.326 41.7217 124.219 41.7158C124.172 41.8402 124.13 42.0713 124.065 42.0772C122.285 42.3083 120.505 42.2964 118.73 42.0891C118.659 42.0831 118.612 41.858 118.553 41.7336L118.547 41.7395Z" fill="#B4A55B"/>
<path d="M201.953 41.7395C203.84 41.7336 205.733 41.7217 207.619 41.7158C207.572 41.8402 207.537 42.0713 207.471 42.0831C205.691 42.3201 203.911 42.3024 202.131 42.095C202.06 42.0891 202.012 41.8639 201.947 41.7395H201.953Z" fill="#B4A55B"/>
<path d="M59.9805 41.7395C61.8731 41.7395 63.7658 41.7276 65.6585 41.7217C65.6052 41.8461 65.5638 42.0772 65.4988 42.0831C63.7244 42.3141 61.9382 42.2964 60.1638 42.0949C60.0928 42.089 60.0455 41.8639 59.9864 41.7395H59.9805Z" fill="#B4A55B"/>
<path d="M268.93 19.5689C268.93 17.7796 268.93 15.9963 268.93 14.207C269.066 14.3611 269.338 14.5329 269.32 14.6692C269.113 16.2984 269.888 18.0047 268.93 19.5689Z" fill="#B3A55B"/>
<path d="M112.762 19.5748C112.762 17.7855 112.762 15.9963 112.762 14.207C112.898 14.3611 113.17 14.5329 113.152 14.6692C112.945 16.2984 113.714 18.0047 112.762 19.5689V19.5748Z" fill="#AFA25C"/>
<path d="M185.512 41.7864C185.512 40.0031 185.512 38.2198 185.512 36.4424C185.577 36.4779 185.695 36.5016 185.701 36.5431C185.949 38.3027 186.369 40.0683 185.512 41.7864Z" fill="#BFAE58"/>
<path d="M124.307 29.7475C124.307 26.5067 124.307 23.2719 124.307 20.0311C125.507 19.5275 126.761 19.8059 127.986 19.8C132.972 19.7645 137.963 19.7763 142.949 19.8C143.659 19.8 144.422 19.5749 145.085 20.0429C145.085 23.2778 145.085 26.5068 145.085 29.7416C144.191 30.2393 143.221 29.9786 142.287 29.9845C137.005 30.0142 131.724 30.0082 126.442 29.9845C125.726 29.9845 124.969 30.2037 124.301 29.7475H124.307Z" fill="#FFDF44"/>
<path d="M124.307 29.7481C131.233 29.7481 138.159 29.7481 145.085 29.7422C145.002 30.228 144.641 30.228 144.268 30.228C137.892 30.228 131.517 30.228 125.141 30.228C124.768 30.228 124.401 30.228 124.307 29.7481Z" fill="#B3A55B"/>
<path d="M145.085 20.0434C138.159 20.0434 131.233 20.0434 124.307 20.0375C124.401 19.5635 124.768 19.5576 125.141 19.5576C131.517 19.5576 137.892 19.5576 144.268 19.5576C144.641 19.5576 145.008 19.5576 145.09 20.0434H145.085Z" fill="#B3A55B"/>
</g>
<defs>
<clipPath id="clip0_4518_710">
<rect width="284" height="56" fill="white"/>
</clipPath>
</defs>
</svg>
