<svg width="240" height="65" fill="none" xmlns="http://www.w3.org/2000/svg"><path fill-rule="evenodd" clip-rule="evenodd" d="M105.77 64.8299H111.13V54.8662H119.49V64.8299H124.85V40.1797H119.49V50.1434H111.13V40.1797H105.77V64.8299ZM230.9 60.1274H227.28V44.9025H230.9C232.88 44.9025 234.57 46.2331 234.57 48.2542V56.7858C234.57 58.807 232.88 60.1375 230.9 60.1375M221.92 64.8299H232.6C236.55 64.8299 239.79 61.6508 239.79 57.771V47.2487C239.79 43.3689 236.55 40.1899 232.6 40.1899H221.92V64.84V64.8299ZM129.94 64.8299H135.3V48.2238L143.41 64.8299H150.35V40.1797H144.99V57.1515L136.7 40.1797H129.94V64.8299ZM201.39 40.1899V64.84H217.17V60.1274H206.75V54.8662H216.17V50.1535H206.75V44.8924H217.17V40.1797H201.39V40.1899ZM41.5002 40.1899V44.9025H48.2802V64.84H53.6402V44.9025H60.4202V40.1899H41.4902H41.5002ZM164.73 44.6588C166.98 44.6588 168.82 46.4667 168.82 48.6808V56.3491C168.82 58.5632 166.98 60.3711 164.73 60.3711C162.48 60.3711 160.64 58.5632 160.64 56.3491V48.6808C160.64 46.4667 162.48 44.6588 164.73 44.6588ZM163.49 40.1899H165.97C170.47 40.1899 174.14 43.7041 174.14 48.0003V57.0194C174.14 61.3157 170.3 64.8299 165.81 64.8299H163.49C158.99 64.8299 155.32 61.3157 155.32 57.0194V48.0003C155.32 43.7041 159 40.1899 163.49 40.1899ZM197.96 64.8299H192.6L188.44 54.9068H184.33V64.8299H178.97V40.0274H182.03H190.56C194.21 40.0274 197.19 43.0337 197.19 46.7104V48.2238C197.19 50.834 195.69 53.1091 193.52 54.206L197.97 64.8299H197.96ZM184.33 44.3744V50.5598H189.21C190.86 50.5598 192.2 49.1988 192.2 47.5433V47.4722V47.4011C192.2 45.7354 190.85 44.3846 189.21 44.3846H184.33V44.3744ZM92.2502 40.1899H94.0502C98.1502 40.1899 101.55 43.2775 101.96 47.1979H96.5102C96.0802 45.7252 94.6902 44.6385 93.0602 44.6385C91.0802 44.6385 89.4702 46.2229 89.4702 48.173V56.8569C89.4702 58.7968 91.0902 60.3914 93.0602 60.3914C94.6902 60.3914 96.0802 59.3047 96.5102 57.8319H101.96C101.54 61.7524 98.1402 64.84 94.0502 64.84H92.2502C87.8702 64.84 84.2902 61.3258 84.2902 57.0296V48.0105C84.2902 43.7142 87.8702 40.2 92.2502 40.2M64.7902 40.1899V64.84H80.5702V60.1274H70.1502V54.8662H79.5702V50.1535H70.1502V44.8924H80.5702V40.1797H64.7902V40.1899Z" fill="#2E2C2D"/><path fill-rule="evenodd" clip-rule="evenodd" d="M4.73 0H34.68C37.28 0 39.41 2.09227 39.41 4.64159V34.0654C39.41 34.5021 39.35 34.9185 39.23 35.3146L35.62 31.77C34.05 30.2262 32.48 28.6925 30.92 27.1487L30.87 27.0979C30.72 26.9456 30.59 26.7628 30.51 26.5596C30.42 26.3565 30.38 26.133 30.38 25.9096C30.38 25.6861 30.42 25.4627 30.51 25.2596C30.59 25.0564 30.72 24.8736 30.87 24.7213L30.92 24.6806C31.32 24.2744 31.72 23.8783 32.13 23.4822C32.55 23.0759 32.97 22.6595 33.38 22.2532L33.49 22.1415C33.91 21.6946 34.25 21.1868 34.47 20.618C34.68 20.0898 34.8 19.5312 34.81 18.9726H34.82V18.8203C34.82 18.4851 34.78 18.1499 34.72 17.8249C34.65 17.4999 34.55 17.1749 34.42 16.86C34.29 16.5553 34.13 16.2506 33.94 15.9764C33.75 15.7022 33.54 15.4381 33.3 15.2045C32.86 14.7779 32.35 14.4326 31.79 14.1888C31.19 13.9349 30.55 13.8029 29.9 13.8029H21.68C21.04 13.8029 20.39 13.9451 19.8 14.1787C19.16 14.4326 18.57 14.8185 18.09 15.2959C17.65 15.7326 17.29 16.2405 17.05 16.7991C16.78 17.4186 16.65 18.0788 16.65 18.7593V26.4581C16.65 27.037 16.54 27.6362 16.23 28.1441C15.99 28.53 15.66 28.8449 15.23 29.0277C15.07 29.0988 14.9 29.1496 14.73 29.18C14.56 29.2105 14.38 29.2308 14.2 29.2308C14.02 29.2308 13.85 29.2105 13.68 29.18C13.51 29.1496 13.34 29.0886 13.17 29.0277C12.76 28.855 12.43 28.5605 12.2 28.1948C11.91 27.7276 11.8 27.1792 11.8 26.6307V10.2887C11.8 10.0754 11.88 9.88241 12.02 9.74022C12.17 9.59803 12.36 9.51677 12.56 9.51677H12.58C12.58 9.51677 12.59 9.51677 12.6 9.51677C13.66 9.51677 14.71 9.51677 15.76 9.51677H18.91C19.52 9.51677 20.1 9.28317 20.53 8.85659C20.96 8.43001 21.2 7.86124 21.2 7.27216C21.2 6.68307 20.96 6.10414 20.53 5.68772C20.1 5.26114 19.52 5.02754 18.91 5.02754H0V4.64159C0 2.09227 2.13 0 4.73 0ZM36.03 38.5241C35.6 38.646 35.15 38.7171 34.68 38.7171H4.73C2.13 38.7171 0 36.6249 0 34.0755V9.52693H6.39C6.39 9.52693 6.41 9.52693 6.42 9.52693H6.44C6.64 9.52693 6.84 9.60818 6.98 9.75038C7.12 9.89257 7.2 10.0855 7.2 10.2887V26.6409C7.2 28.1136 7.56 29.5558 8.4 30.7848C9.13 31.8512 10.16 32.6536 11.36 33.1614C11.8 33.3443 12.27 33.4865 12.74 33.5779C13.21 33.6693 13.7 33.7201 14.18 33.7201C14.66 33.7201 15.15 33.6693 15.62 33.5779C16.1 33.4865 16.56 33.3341 17.01 33.1513C18.22 32.6333 19.25 31.8106 19.98 30.7238C20.84 29.4543 21.19 27.9815 21.19 26.4682V20.0289C21.19 19.5414 21.37 19.1046 21.7 18.7898C22.03 18.4648 22.47 18.2921 22.93 18.2921H28.97C28.97 18.2921 29 18.2921 29.02 18.2921C29.03 18.2921 29.04 18.2921 29.06 18.2921C29.06 18.2921 29.08 18.2921 29.09 18.2921C29.3 18.2921 29.49 18.3734 29.63 18.5156C29.77 18.6578 29.86 18.8507 29.86 19.0539C29.86 19.1453 29.84 19.2367 29.81 19.3179C29.78 19.3992 29.73 19.4804 29.67 19.5414L29.63 19.5922C29.16 20.0594 28.69 20.5164 28.22 20.9836C27.73 21.461 27.24 21.9485 26.75 22.4259L26.65 22.5274C26.22 22.9845 25.88 23.5025 25.65 24.0712C25.41 24.6603 25.29 25.2799 25.29 25.9096C25.29 26.5495 25.41 27.1995 25.66 27.7886C25.91 28.3878 26.27 28.9464 26.74 29.4035C28.47 31.1098 30.21 32.806 31.94 34.5123L36.03 38.5241Z" fill="#CD2B24"/></svg>