<svg width="285" height="91" viewBox="0 0 285 91" fill="none" xmlns="http://www.w3.org/2000/svg">
<g clip-path="url(#clip0_4518_685)">
<path fill-rule="evenodd" clip-rule="evenodd" d="M0 8.59766H82.3022V91.0002H0V8.59766ZM73.8936 17.0165H8.40858V82.6069H73.9191V17.0165H73.8936Z" fill="#010101"/>
<path d="M33.0996 27.0938L40.6419 72.5045H50.248L42.7058 27.0938H33.0996Z" fill="#010101"/>
<path d="M18.4727 27.0928L26.0149 72.5035H35.6211L28.0788 27.0928H18.4727Z" fill="#010101"/>
<path d="M111.426 27.0935H102.992L102.941 22.4248H110.025C111.273 22.4248 112.293 22.2718 113.083 21.9401C113.872 21.6085 114.484 21.1237 114.866 20.5115C115.274 19.8737 115.478 19.1083 115.478 18.2154C115.478 17.195 115.274 16.3531 114.892 15.7408C114.509 15.103 113.923 14.6438 113.108 14.3632C112.318 14.0825 111.273 13.9295 110.025 13.9295H105.336V41.5331H98.5586V8.62305H110.025C111.936 8.62305 113.643 8.80163 115.146 9.15879C116.675 9.51595 117.949 10.0772 118.994 10.817C120.039 11.5569 120.854 12.5008 121.415 13.6233C121.975 14.7458 122.256 16.0724 122.256 17.6031C122.256 18.9553 121.95 20.2053 121.338 21.3534C120.727 22.5014 119.784 23.4453 118.484 24.1596C117.185 24.874 115.503 25.2821 113.414 25.3587L111.452 27.0935H111.426ZM111.121 41.5331H101.132L103.782 36.2521H111.146C112.344 36.2521 113.312 36.0736 114.051 35.6909C114.815 35.3082 115.35 34.7725 115.732 34.1092C116.089 33.4459 116.268 32.6805 116.268 31.8386C116.268 30.8692 116.115 30.0273 115.783 29.3385C115.478 28.6242 114.968 28.0884 114.255 27.7057C113.541 27.3231 112.624 27.119 111.452 27.119H104.929L104.98 22.4504H113.108L114.662 24.2872C116.675 24.2617 118.281 24.6188 119.504 25.3587C120.727 26.073 121.644 27.0169 122.179 28.1905C122.74 29.3385 123.045 30.5886 123.045 31.9152C123.045 34.0326 122.587 35.7929 121.669 37.2471C120.752 38.6758 119.402 39.7472 117.618 40.4871C115.86 41.2014 113.72 41.5841 111.171 41.5841L111.121 41.5331Z" fill="#010101"/>
<path d="M141.442 14.2611L132.498 41.5331H125.287L137.492 8.62305H142.079L141.416 14.2611H141.442ZM148.857 41.5331L139.887 14.2611L139.174 8.62305H143.811L156.093 41.5331H148.882H148.857ZM148.449 29.2875V34.5939H131.097V29.2875H148.449Z" fill="#010101"/>
<path d="M181.448 8.62317V13.9296H165.115V8.62317H181.448ZM186.289 8.62317V41.5332H179.511V8.62317H186.289ZM164.274 8.62317H171.026L170.185 25.1547C170.058 27.6293 169.828 29.7723 169.497 31.6091C169.166 33.4205 168.707 34.9767 168.147 36.2778C167.586 37.5534 166.873 38.5738 166.032 39.3392C165.216 40.1045 164.223 40.6658 163.102 41.0229C161.98 41.3801 160.681 41.5332 159.254 41.5332H157.572V36.2523L158.439 36.1757C159.178 36.0992 159.815 35.8951 160.375 35.589C160.936 35.2828 161.394 34.7981 161.802 34.1603C162.21 33.5225 162.541 32.7317 162.796 31.7367C163.076 30.7418 163.28 29.5172 163.433 28.0885C163.586 26.6599 163.713 24.9761 163.764 23.0628L164.299 8.59766L164.274 8.62317Z" fill="#010101"/>
<path d="M218.725 36.2521V41.5331H195.054V36.2521H218.725ZM197.067 36.2521V49.6202H190.697L190.34 36.2521H197.067ZM223.592 36.2521L223.006 49.6202H216.789V36.2521H223.592ZM215.005 8.62305V13.9295H199.182V8.62305H215.005ZM219.846 8.62305V41.5331H213.094V8.62305H219.846ZM198.366 8.62305H205.144L204.252 22.0167C204.125 24.2362 203.87 26.2006 203.539 27.8843C203.208 29.5681 202.8 31.0478 202.316 32.3489C201.857 33.6245 201.322 34.747 200.761 35.7164C200.201 36.6603 199.589 37.5022 198.952 38.191C198.315 38.8798 197.678 39.4921 197.041 40.0534C196.404 40.5891 195.767 41.0738 195.156 41.5331H191.283V36.2521H192.786C193.219 35.895 193.678 35.3848 194.162 34.7725C194.646 34.1347 195.13 33.2928 195.563 32.2213C196.022 31.1243 196.404 29.7722 196.735 28.1139C197.092 26.4557 197.347 24.4403 197.5 22.0677L198.392 8.67407L198.366 8.62305Z" fill="#010101"/>
<path d="M240.819 14.2611L231.875 41.5331H224.664L236.869 8.62305H241.456L240.793 14.2611H240.819ZM248.234 41.5331L239.264 14.2611L238.551 8.62305H243.188L255.47 41.5331H248.259H248.234ZM247.826 29.2875V34.5939H230.474V29.2875H247.826Z" fill="#010101"/>
<path d="M265.047 30.8691L278.246 8.62293H285.024V41.5329H278.246V19.3123L265.047 41.5585H258.27V8.62293H265.047V30.8691ZM274.934 0H279.571C279.571 1.30109 279.24 2.44912 278.603 3.46958C277.966 4.46454 277.074 5.2554 275.902 5.81665C274.73 6.37791 273.354 6.65854 271.749 6.65854C269.328 6.65854 267.417 6.04626 265.99 4.79619C264.589 3.57163 263.901 1.9644 263.901 0H268.513C268.513 0.790861 268.742 1.47967 269.226 2.09195C269.71 2.70423 270.577 3.01037 271.749 3.01037C272.921 3.01037 273.762 2.70423 274.22 2.09195C274.704 1.47967 274.934 0.765349 274.934 0Z" fill="#010101"/>
<path d="M111.579 78.7541H103.094V73.4477H111.579C112.878 73.4477 113.949 73.2436 114.79 72.8099C115.605 72.3762 116.216 71.7639 116.599 70.9986C116.981 70.2332 117.159 69.3658 117.159 68.3964C117.159 67.427 116.981 66.483 116.599 65.6411C116.216 64.7993 115.605 64.1104 114.79 63.6002C113.974 63.09 112.904 62.8349 111.579 62.8349H105.464V90.5915H98.6094V57.5029H111.579C114.178 57.5029 116.42 57.9621 118.28 58.9061C120.166 59.8245 121.593 61.1001 122.587 62.7583C123.58 64.4166 124.064 66.2534 124.064 68.3709C124.064 70.4883 123.58 72.3507 122.587 73.9069C121.593 75.4631 120.166 76.6622 118.28 77.5296C116.42 78.3714 114.178 78.8051 111.579 78.8051V78.7541Z" fill="#010101"/>
<path d="M156.17 73.2184V74.7747C156.17 77.3003 155.839 79.5453 155.151 81.5352C154.463 83.5251 153.495 85.2344 152.246 86.6376C150.998 88.0407 149.494 89.0867 147.762 89.852C146.029 90.5919 144.118 90.9745 142.029 90.9745C139.939 90.9745 138.028 90.5919 136.295 89.852C134.563 89.1122 133.085 88.0407 131.811 86.6376C130.537 85.2344 129.569 83.5251 128.855 81.5352C128.167 79.5453 127.836 77.2748 127.836 74.7747V73.2184C127.836 70.6928 128.167 68.4223 128.855 66.4579C129.543 64.4679 130.511 62.7587 131.76 61.3555C133.034 59.9524 134.512 58.8809 136.245 58.1411C137.977 57.4012 139.888 57.0186 141.978 57.0186C144.067 57.0186 146.004 57.4012 147.711 58.1411C149.443 58.8809 150.947 59.9524 152.195 61.3555C153.469 62.7587 154.438 64.4679 155.126 66.4579C155.839 68.4478 156.17 70.6928 156.17 73.2184ZM149.24 74.7747V73.1674C149.24 71.4071 149.087 69.8764 148.755 68.5243C148.424 67.1977 147.966 66.0752 147.329 65.1568C146.692 64.2383 145.953 63.575 145.035 63.1158C144.143 62.6566 143.099 62.4015 141.952 62.4015C140.806 62.4015 139.761 62.6311 138.869 63.1158C137.977 63.575 137.238 64.2639 136.601 65.1568C135.99 66.0752 135.531 67.1977 135.2 68.5243C134.869 69.8509 134.716 71.4071 134.716 73.1674V74.7747C134.716 76.5094 134.869 78.0657 135.2 79.4178C135.531 80.7444 135.99 81.8924 136.627 82.8108C137.264 83.7292 138.003 84.4181 138.92 84.8773C139.812 85.3365 140.857 85.5916 142.003 85.5916C143.15 85.5916 144.194 85.362 145.086 84.8773C145.978 84.4181 146.743 83.7292 147.354 82.8108C147.966 81.8924 148.424 80.7699 148.755 79.4178C149.087 78.0657 149.24 76.535 149.24 74.7747Z" fill="#010101"/>
<path d="M182.874 57.4521V62.7841H167.891V90.5407H161.062V57.4521H182.874ZM165.547 69.5191H173.319C175.943 69.5191 178.211 69.9528 180.096 70.8202C181.982 71.6876 183.434 72.8867 184.454 74.4684C185.473 76.0246 185.982 77.8359 185.982 79.9279C185.982 81.5096 185.702 82.9383 185.116 84.2394C184.53 85.5149 183.689 86.6375 182.568 87.6069C181.472 88.5508 180.147 89.2652 178.593 89.8009C177.039 90.3111 175.281 90.5662 173.319 90.5662H161.062V57.4777H167.942V85.2343H173.319C174.618 85.2343 175.714 85.0047 176.555 84.52C177.396 84.0353 178.058 83.3975 178.466 82.5811C178.899 81.7647 179.128 80.8718 179.128 79.8769C179.128 78.8819 178.899 78.0911 178.466 77.3257C178.033 76.5604 177.396 75.9481 176.555 75.5144C175.714 75.0807 174.618 74.8511 173.319 74.8511H165.547V69.5447V69.5191Z" fill="#010101"/>
<path d="M217.832 73.2184V74.7747C217.832 77.3003 217.501 79.5453 216.813 81.5352C216.125 83.5251 215.157 85.2344 213.908 86.6376C212.66 88.0407 211.157 89.0867 209.424 89.852C207.691 90.5919 205.78 90.9745 203.691 90.9745C201.601 90.9745 199.69 90.5919 197.958 89.852C196.225 89.1122 194.747 88.0407 193.473 86.6376C192.199 85.2344 191.231 83.5251 190.517 81.5352C189.829 79.5453 189.498 77.2748 189.498 74.7747V73.2184C189.498 70.6928 189.829 68.4223 190.517 66.4579C191.205 64.4679 192.174 62.7587 193.422 61.3555C194.696 59.9524 196.174 58.8809 197.907 58.1411C199.639 57.4012 201.55 57.0186 203.64 57.0186C205.729 57.0186 207.666 57.4012 209.373 58.1411C211.106 58.8809 212.609 59.9524 213.857 61.3555C215.131 62.7587 216.1 64.4679 216.788 66.4579C217.501 68.4478 217.832 70.6928 217.832 73.2184ZM210.902 74.7747V73.1674C210.902 71.4071 210.749 69.8764 210.418 68.5243C210.086 67.1977 209.628 66.0752 208.991 65.1568C208.354 64.2383 207.615 63.575 206.697 63.1158C205.806 62.6566 204.761 62.4015 203.614 62.4015C202.468 62.4015 201.423 62.6311 200.531 63.1158C199.639 63.575 198.9 64.2639 198.263 65.1568C197.652 66.0752 197.193 67.1977 196.862 68.5243C196.531 69.8509 196.378 71.4071 196.378 73.1674V74.7747C196.378 76.5094 196.531 78.0657 196.862 79.4178C197.193 80.7444 197.652 81.8924 198.289 82.8108C198.926 83.7292 199.665 84.4181 200.582 84.8773C201.474 85.3365 202.519 85.5916 203.665 85.5916C204.812 85.5916 205.857 85.362 206.748 84.8773C207.64 84.4181 208.405 83.7292 209.016 82.8108C209.628 81.8924 210.086 80.7699 210.418 79.4178C210.749 78.0657 210.902 76.535 210.902 74.7747Z" fill="#010101"/>
<path d="M236.103 57.4521V90.5407H229.274V57.4521H236.103ZM246.346 57.4521V62.7841H219.184V57.4521H246.346Z" fill="#010101"/>
<path d="M254.805 69.5191H262.576C265.175 69.5191 267.443 69.9528 269.329 70.8202C271.24 71.6876 272.692 72.8867 273.686 74.4684C274.705 76.0246 275.215 77.8359 275.215 79.9279C275.215 81.5096 274.935 82.9383 274.348 84.2394C273.762 85.5149 272.922 86.6375 271.826 87.6069C270.73 88.5508 269.405 89.2652 267.851 89.8009C266.297 90.3111 264.538 90.5662 262.576 90.5662H250.32V57.4777H257.2V85.2343H262.576C263.876 85.2343 264.946 85.0047 265.812 84.52C266.679 84.0353 267.341 83.3975 267.749 82.5811C268.182 81.7647 268.386 80.8718 268.386 79.8769C268.386 78.8819 268.182 78.0911 267.749 77.3257C267.316 76.5604 266.679 75.9481 265.812 75.5144C264.946 75.0807 263.876 74.8511 262.576 74.8511H254.805V69.5447V69.5191ZM285.025 57.4521V90.5407H278.196V57.4521H285.025Z" fill="#010101"/>
</g>
<defs>
<clipPath id="clip0_4518_685">
<rect width="285" height="91" fill="white"/>
</clipPath>
</defs>
</svg>
