<svg width="201" height="94" viewBox="0 0 201 94" fill="none" xmlns="http://www.w3.org/2000/svg">
<g clip-path="url(#clip0)">
<path fill-rule="evenodd" clip-rule="evenodd" d="M90.2928 54.0994H91.0123V47.2696H92.721V46.5507H88.4941V47.2696H90.2928V54.0994Z" fill="black"/>
<path fill-rule="evenodd" clip-rule="evenodd" d="M93.6201 54.0994H97.757V53.4704H94.3396V50.6845H97.6671V49.9656H94.3396V47.2696H97.757V46.5507H93.6201V54.0994Z" fill="black"/>
<path fill-rule="evenodd" clip-rule="evenodd" d="M102.254 46.5507H101.534L98.3867 54.0994H99.286L101.894 47.5392L104.592 54.0994H105.401L102.254 46.5507Z" fill="black"/>
<path fill-rule="evenodd" clip-rule="evenodd" d="M106.301 54.0994H110.438V53.4704H107.02V50.6845H110.348V49.9656H107.02V47.2696H110.438V46.5507H106.301V54.0994Z" fill="black"/>
<path fill-rule="evenodd" clip-rule="evenodd" d="M113.046 50.2352L116.013 54.0994H117.003L113.945 50.1453L116.913 46.5507H116.013L113.046 50.2352ZM111.787 46.5507V54.1893H112.506V46.5507H111.787Z" fill="black"/>
<path fill-rule="evenodd" clip-rule="evenodd" d="M121.14 53.5603V54.2792C121.859 54.2792 122.579 54.0995 123.208 53.74C123.838 53.3806 124.287 52.9312 124.647 52.3022C125.007 51.6731 125.187 51.0441 125.187 50.2353C125.187 49.5163 125.007 48.7974 124.647 48.2582C124.287 47.719 123.838 47.1798 123.208 46.9102C122.579 46.5507 121.949 46.371 121.14 46.371V47.0899C121.769 47.0899 122.309 47.2697 122.759 47.5393C123.208 47.8089 123.658 48.1683 123.928 48.6177C124.197 49.067 124.377 49.6961 124.377 50.3251C124.377 50.9542 124.197 51.4934 123.928 52.0326C123.658 52.4819 123.298 52.9312 122.759 53.2008C122.309 53.4704 121.769 53.5603 121.14 53.5603ZM121.05 53.5603C120.42 53.5603 119.881 53.3806 119.431 53.111C118.981 52.8414 118.532 52.4819 118.262 51.9427C117.992 51.4934 117.812 50.8643 117.812 50.2353C117.812 49.6062 117.992 49.067 118.262 48.5278C118.532 48.0785 118.891 47.6291 119.431 47.3595C119.881 47.0899 120.51 46.9102 121.14 46.9102V46.1913C120.42 46.1913 119.701 46.371 119.071 46.7305C118.442 47.0899 117.992 47.5393 117.632 48.1683C117.273 48.7974 117.093 49.4265 117.093 50.2353C117.093 51.0441 117.273 51.6731 117.632 52.3022C117.992 52.9312 118.442 53.3806 119.071 53.6502C119.701 54.0096 120.33 54.1894 121.14 54.1894V53.5603H121.05Z" fill="black"/>
<path fill-rule="evenodd" clip-rule="evenodd" d="M126.266 54.0994H127.076V47.3595L129.953 54.0994H130.583L133.461 47.3595V54.0994H134.27V46.5507H133.101L130.313 53.021L127.525 46.5507H126.266V54.0994Z" fill="black"/>
<path fill-rule="evenodd" clip-rule="evenodd" d="M135.709 54.0994H136.518V47.3595L139.396 54.0994H140.026L142.904 47.3595V54.0994H143.713V46.5507H142.544L139.666 53.021L136.878 46.5507H135.709V54.0994Z" fill="black"/>
<path fill-rule="evenodd" clip-rule="evenodd" d="M150.728 46.5507H149.919L147.76 51.3136L145.332 46.5507H144.433L147.4 52.1224L146.501 54.0994H147.31L150.728 46.5507Z" fill="black"/>
<path fill-rule="evenodd" clip-rule="evenodd" d="M151.537 54.0994H152.257V50.5946H156.304V54.0994H157.023V46.5507H156.304V49.8757H152.257V46.5507H151.537V54.0994Z" fill="black"/>
<path fill-rule="evenodd" clip-rule="evenodd" d="M158.552 46.5507V54.0994H159.361L163.858 47.6291V54.0994H164.667V46.5507H163.858L159.271 53.021V46.5507H158.552Z" fill="black"/>
<path fill-rule="evenodd" clip-rule="evenodd" d="M167.455 50.2352L170.423 54.0994H171.412L168.355 50.1453L171.322 46.5507H170.423L167.455 50.2352ZM166.196 46.5507V54.1893H166.916V46.5507H166.196Z" fill="black"/>
<path fill-rule="evenodd" clip-rule="evenodd" d="M175.369 47.4493L176.808 50.8643H175.369V51.5832H177.168L178.247 54.0994H179.057L175.819 46.4608H175.369V47.4493ZM173.93 50.8643L175.369 47.4493V46.5507H174.92L171.682 54.1893H172.492L173.571 51.673H175.369V50.9541H173.93V50.8643Z" fill="black"/>
<path fill-rule="evenodd" clip-rule="evenodd" d="M185.352 46.5507H184.633V53.4704H180.676V46.5507H179.956V54.0994H185.712V55.5373H186.431V53.4704H185.352V46.5507Z" fill="black"/>
<path fill-rule="evenodd" clip-rule="evenodd" d="M187.331 46.5507V54.0994H188.14L192.637 47.6291V54.0994H193.356V46.5507H192.637L188.05 53.021V46.5507H187.331Z" fill="black"/>
<path fill-rule="evenodd" clip-rule="evenodd" d="M196.144 44.6635C196.144 45.1128 196.324 45.3824 196.683 45.652C196.953 45.9216 197.403 46.1013 198.032 46.1013C198.572 46.1013 199.022 45.9216 199.381 45.652C199.651 45.3824 199.831 45.0229 199.921 44.6635H199.202C199.202 44.8432 199.112 45.0229 198.932 45.2026C198.752 45.3824 198.482 45.4722 198.122 45.4722C197.763 45.4722 197.493 45.3824 197.313 45.2026C197.133 45.0229 197.043 44.8432 197.043 44.6635H196.144ZM194.885 46.5506V54.1893H195.694L200.191 47.629V54.1893H200.91V46.5506H200.101L195.604 53.1109V46.5506H194.885Z" fill="black"/>
<path fill-rule="evenodd" clip-rule="evenodd" d="M94.7894 33.0708H93.98L91.8217 37.8337L89.3935 33.0708H88.4941L91.4619 38.7324L90.5626 40.7094H91.2821L94.7894 33.0708Z" fill="black"/>
<path fill-rule="evenodd" clip-rule="evenodd" d="M95.5986 40.7094H96.3181V37.1148H100.275V40.7094H101.085V33.0708H100.275V36.3958H96.3181V33.0708H95.5986V40.7094Z" fill="black"/>
<path fill-rule="evenodd" clip-rule="evenodd" d="M102.614 33.0708V40.7094H103.423L107.92 34.1492V40.7094H108.639V33.0708H107.83L103.333 39.631V33.0708H102.614Z" fill="black"/>
<path fill-rule="evenodd" clip-rule="evenodd" d="M112.416 33.7898C112.506 33.7898 112.686 33.7898 112.776 33.8796C113.046 33.8796 113.316 34.0593 113.495 34.2391C113.675 34.4188 113.855 34.6884 113.855 35.1377C113.855 35.4972 113.765 35.7668 113.585 35.9465C113.405 36.1263 113.136 36.2161 112.866 36.306C112.686 36.306 112.596 36.3959 112.416 36.3959V37.1148C112.686 37.1148 112.866 37.1148 113.136 37.2047C113.405 37.2945 113.675 37.3844 113.945 37.654C114.125 37.8337 114.305 38.1932 114.305 38.6425C114.305 39.0919 114.215 39.3615 113.945 39.6311C113.675 39.8108 113.495 39.9905 113.136 39.9905C112.866 40.0804 112.686 40.0804 112.416 40.0804V40.7993C113.136 40.7993 113.765 40.6196 114.125 40.35C114.485 40.0804 114.754 39.8108 114.934 39.4513C115.024 39.0919 115.114 38.8223 115.114 38.6425C115.114 38.1932 115.024 37.8337 114.844 37.4743C114.665 37.1148 114.305 36.8452 113.855 36.6655C114.035 36.5756 114.305 36.3959 114.485 36.1263C114.665 35.8567 114.754 35.5871 114.754 35.1377C114.754 34.5087 114.575 34.0593 114.305 33.7898C114.035 33.5202 113.675 33.3404 113.226 33.2506C112.956 33.1607 112.776 33.1607 112.506 33.1607V33.7898H112.416ZM110.977 36.306V33.6999H112.146C112.236 33.6999 112.326 33.6999 112.416 33.6999V32.981C112.326 32.981 112.236 32.981 112.146 32.981H110.258V40.6196H112.326H112.416V39.9007H112.326H110.977V36.9351H112.326H112.416V36.2161C112.326 36.2161 112.236 36.2161 112.146 36.2161H110.977V36.306Z" fill="black"/>
<path fill-rule="evenodd" clip-rule="evenodd" d="M116.104 40.7094H120.24V39.9905H116.823V37.2046H120.15V36.4857H116.823V33.7897H120.24V33.0708H116.104V40.7094Z" fill="black"/>
<path fill-rule="evenodd" clip-rule="evenodd" d="M124.108 33.7897C124.737 33.7897 125.187 33.9695 125.457 34.2391C125.726 34.5087 125.906 34.958 125.906 35.3175C125.906 35.7668 125.816 36.1263 125.457 36.3958C125.187 36.6654 124.737 36.8452 124.108 36.8452V37.5641C124.737 37.5641 125.187 37.4742 125.546 37.2046C125.906 37.0249 126.176 36.6654 126.356 36.3958C126.536 36.0364 126.626 35.6769 126.626 35.3175C126.626 35.0479 126.536 34.6884 126.446 34.3289C126.356 33.9695 126.086 33.6999 125.636 33.4303C125.277 33.1607 124.737 33.0708 124.108 33.0708V33.7897ZM122.309 33.7897H123.928H124.018V33.0708H123.928H121.5V40.7094H122.219V37.654H123.838H123.928V36.935H123.838H122.309V33.7897Z" fill="black"/>
<path fill-rule="evenodd" clip-rule="evenodd" d="M134.81 35.0479C134.45 34.4188 134 33.8796 133.371 33.5202C132.741 33.1607 132.022 32.981 131.302 32.981C130.583 32.981 129.863 33.1607 129.324 33.5202C128.694 33.8796 128.245 34.3289 127.885 34.8681C127.525 35.4972 127.345 36.1263 127.345 36.8452C127.345 37.654 127.525 38.2831 127.885 38.9121C128.245 39.5412 128.694 39.9905 129.324 40.2601C129.953 40.6196 130.583 40.7993 131.392 40.7993C132.112 40.7993 132.831 40.6196 133.461 40.2601C134.09 39.9006 134.54 39.3615 134.9 38.7324H134C133.641 39.1817 133.281 39.5412 132.831 39.8108C132.381 40.0804 131.932 40.1702 131.392 40.1702C130.763 40.1702 130.223 39.9905 129.773 39.7209C129.324 39.4513 128.874 39.0919 128.604 38.5527C128.334 38.1033 128.155 37.4743 128.155 36.8452C128.155 36.2161 128.334 35.7668 128.514 35.2276C128.784 34.7783 129.144 34.3289 129.594 34.0594C130.043 33.7898 130.673 33.61 131.302 33.61C131.842 33.61 132.292 33.6999 132.651 33.8796C133.011 34.0594 133.281 34.2391 133.461 34.5087C133.641 34.6884 133.82 34.8681 133.82 35.0479H134.81Z" fill="black"/>
<path fill-rule="evenodd" clip-rule="evenodd" d="M136.069 33.0708V40.7094H136.788L141.375 34.1492V40.7094H142.094V33.0708H141.285L136.788 39.631V33.0708H136.069Z" fill="black"/>
<path fill-rule="evenodd" clip-rule="evenodd" d="M144.702 40.7094H145.421V33.7897H147.22V33.0708H142.903V33.7897H144.702V40.7094Z" fill="black"/>
<path fill-rule="evenodd" clip-rule="evenodd" d="M148.03 40.7094H152.167V39.9905H148.749V37.2046H152.077V36.4857H148.749V33.7897H152.167V33.0708H148.03V40.7094Z" fill="black"/>
<path fill-rule="evenodd" clip-rule="evenodd" d="M154.595 40.7094H155.315V33.7897H157.023V33.0708H152.796V33.7897H154.595V40.7094Z" fill="black"/>
<path fill-rule="evenodd" clip-rule="evenodd" d="M89.2139 27.2294H89.9333V20.3098H93.081V19.5908H89.2139V27.2294Z" fill="black"/>
<path fill-rule="evenodd" clip-rule="evenodd" d="M97.0377 26.6003V27.3193C97.7572 27.3193 98.4766 27.1395 99.1062 26.7801C99.7357 26.4206 100.185 25.9713 100.545 25.3422C100.905 24.7132 101.085 24.0841 101.085 23.2753C101.085 22.5564 100.905 21.8374 100.545 21.2982C100.185 20.759 99.7357 20.2199 99.1062 19.9503C98.4766 19.5908 97.8471 19.4111 97.0377 19.4111V20.13C97.6672 20.13 98.2068 20.3097 98.6565 20.5793C99.1062 20.8489 99.5558 21.2084 99.8256 21.6577C100.095 22.107 100.275 22.7361 100.275 23.3652C100.275 23.9942 100.095 24.5334 99.8256 25.0726C99.5558 25.522 99.1961 25.9713 98.6565 26.2409C98.2068 26.5105 97.6672 26.6003 97.0377 26.6003ZM96.9478 26.6003C96.3182 26.6003 95.7786 26.4206 95.329 26.151C94.8793 25.8814 94.4296 25.522 94.1598 24.9828C93.89 24.5334 93.7102 23.9044 93.7102 23.2753C93.7102 22.6462 93.89 22.107 94.1598 21.5678C94.4296 21.1185 94.7894 20.6692 95.329 20.3996C95.7786 20.13 96.4082 19.9503 97.0377 19.9503V19.2313C96.3182 19.2313 95.5988 19.4111 94.9692 19.7705C94.3397 20.13 93.8901 20.5793 93.5303 21.2084C93.1706 21.8374 92.9907 22.4665 92.9907 23.2753C92.9907 24.0841 93.1706 24.7132 93.5303 25.3422C93.8901 25.9713 94.3397 26.4206 94.9692 26.6902C95.5988 27.0497 96.2283 27.2294 97.0377 27.2294V26.6003H96.9478Z" fill="black"/>
<path fill-rule="evenodd" clip-rule="evenodd" d="M109.358 21.5679C108.999 20.9388 108.549 20.3996 107.92 20.0402C107.29 19.6807 106.571 19.501 105.851 19.501C105.132 19.501 104.412 19.6807 103.873 20.0402C103.243 20.3996 102.793 20.849 102.434 21.3882C102.074 22.0172 101.894 22.6463 101.894 23.3652C101.894 24.174 102.074 24.8031 102.434 25.4321C102.793 26.0612 103.243 26.5105 103.873 26.7801C104.502 27.1396 105.132 27.3193 105.941 27.3193C106.66 27.3193 107.38 27.1396 108.009 26.7801C108.639 26.4207 109.089 25.8815 109.448 25.2524H108.549C108.189 25.7017 107.83 26.0612 107.38 26.3308C106.93 26.6004 106.481 26.6903 105.941 26.6903C105.311 26.6903 104.772 26.5105 104.322 26.2409C103.873 25.9713 103.423 25.6119 103.153 25.0727C102.883 24.6233 102.703 23.9943 102.703 23.3652C102.703 22.7362 102.883 22.2868 103.063 21.7476C103.333 21.2983 103.693 20.849 104.142 20.5794C104.592 20.3098 105.222 20.13 105.851 20.13C106.391 20.13 106.84 20.2199 107.2 20.3996C107.56 20.5794 107.83 20.7591 108.009 21.0287C108.189 21.2084 108.369 21.3882 108.369 21.5679H109.358Z" fill="black"/>
<path fill-rule="evenodd" clip-rule="evenodd" d="M116.104 19.5908H115.294L113.226 24.3537L110.708 19.5908H109.898L112.776 25.2524L111.877 27.2294H112.686L116.104 19.5908Z" fill="black"/>
<path fill-rule="evenodd" clip-rule="evenodd" d="M118.981 20.5793L121.41 26.5105H118.981V27.2294H122.129V28.6673H122.848V26.5105H122.129L119.251 19.5908H118.802V20.5793H118.981ZM116.553 26.5105L118.981 20.5793V19.5908H118.532L115.654 26.5105H115.114V28.6673H115.834V27.2294H118.981V26.5105H116.553Z" fill="black"/>
<path fill-rule="evenodd" clip-rule="evenodd" d="M126.805 20.4895L128.244 23.9044H126.805V24.6233H128.604L129.683 27.1396H130.493L127.255 19.501H126.805V20.4895ZM125.366 23.9943L126.805 20.5794V19.6807H126.356L123.118 27.3193H123.928L125.007 24.8031H126.805V24.0841H125.366V23.9943Z" fill="black"/>
<path fill-rule="evenodd" clip-rule="evenodd" d="M133.91 20.3098C134.54 20.3098 134.989 20.4895 135.259 20.7591C135.529 21.0287 135.709 21.478 135.709 21.8375C135.709 22.2868 135.619 22.6463 135.259 22.9159C134.989 23.1855 134.54 23.3652 133.91 23.3652V24.0841C134.54 24.0841 134.989 23.9943 135.349 23.7247C135.709 23.5449 135.979 23.1855 136.159 22.9159C136.338 22.5564 136.428 22.1969 136.428 21.8375C136.428 21.5679 136.338 21.2084 136.249 20.8489C136.159 20.4895 135.889 20.2199 135.439 19.9503C135.079 19.6807 134.54 19.5908 133.91 19.5908V20.3098ZM132.112 20.3098H133.73H133.82V19.5908H133.73H131.302V27.2294H132.022V24.174H133.641H133.73V23.4551H133.641H132.022V20.3098H132.112Z" fill="black"/>
<path fill-rule="evenodd" clip-rule="evenodd" d="M144.612 21.5679C144.253 20.9388 143.803 20.3996 143.173 20.0402C142.544 19.6807 141.824 19.501 141.105 19.501C140.386 19.501 139.666 19.6807 139.126 20.0402C138.497 20.3996 138.047 20.849 137.688 21.3882C137.328 22.0172 137.148 22.6463 137.148 23.3652C137.148 24.174 137.328 24.8031 137.688 25.4321C138.047 26.0612 138.497 26.5105 139.126 26.7801C139.756 27.1396 140.386 27.3193 141.195 27.3193C141.914 27.3193 142.634 27.1396 143.263 26.7801C143.893 26.4207 144.343 25.8815 144.702 25.2524H143.803C143.443 25.7017 143.084 26.0612 142.634 26.3308C142.184 26.6004 141.735 26.6903 141.195 26.6903C140.565 26.6903 140.026 26.5105 139.576 26.2409C139.126 25.9713 138.677 25.6119 138.407 25.0727C138.137 24.6233 137.957 23.9943 137.957 23.3652C137.957 22.7362 138.137 22.2868 138.317 21.7476C138.587 21.2983 138.947 20.849 139.396 20.5794C139.846 20.3098 140.475 20.13 141.105 20.13C141.645 20.13 142.094 20.2199 142.454 20.3996C142.814 20.5794 143.084 20.7591 143.263 21.0287C143.443 21.2084 143.623 21.3882 143.623 21.5679H144.612Z" fill="black"/>
<path fill-rule="evenodd" clip-rule="evenodd" d="M146.861 27.2294H147.58V20.3098H149.379V19.5908H145.152V20.3098H146.861V27.2294Z" fill="black"/>
<path fill-rule="evenodd" clip-rule="evenodd" d="M152.436 20.3098C152.526 20.3098 152.706 20.3098 152.796 20.3996C153.066 20.3996 153.336 20.5794 153.516 20.7591C153.695 20.9388 153.875 21.2084 153.875 21.6578C153.875 22.0172 153.785 22.2868 153.605 22.4666C153.426 22.6463 153.156 22.7362 152.886 22.826C152.706 22.826 152.616 22.9159 152.436 22.9159V23.6348C152.706 23.6348 152.886 23.6348 153.156 23.7247C153.426 23.8145 153.695 23.9044 153.965 24.174C154.145 24.3537 154.325 24.7132 154.325 25.1625C154.325 25.6119 154.235 25.8815 153.965 26.1511C153.785 26.3308 153.516 26.5105 153.156 26.5105C152.886 26.6004 152.706 26.6004 152.436 26.6004V27.3193C153.156 27.3193 153.785 27.1396 154.145 26.87C154.505 26.6004 154.775 26.3308 154.954 25.9713C155.044 25.6119 155.134 25.3423 155.134 25.1625C155.134 24.7132 155.044 24.3537 154.865 23.9943C154.685 23.6348 154.325 23.3652 153.875 23.1855C154.055 23.0956 154.325 22.9159 154.505 22.6463C154.685 22.3767 154.775 22.1071 154.775 21.6578C154.775 21.0287 154.595 20.5794 154.325 20.3098C154.055 20.0402 153.695 19.8604 153.246 19.7706C152.976 19.6807 152.796 19.6807 152.526 19.6807V20.3098H152.436ZM150.907 22.826V20.2199H152.077C152.167 20.2199 152.256 20.2199 152.346 20.2199V19.501C152.256 19.501 152.167 19.501 152.077 19.501H150.188V27.1396H152.256H152.346V26.4207H152.256H150.907V23.4551H152.256H152.346V22.7362C152.256 22.7362 152.167 22.7362 152.077 22.7362H150.907V22.826Z" fill="black"/>
<path fill-rule="evenodd" clip-rule="evenodd" d="M156.124 27.2294H160.26V26.5105H156.843V23.7247H160.171V23.0057H156.843V20.3098H160.26V19.5908H156.124V27.2294Z" fill="black"/>
<path fill-rule="evenodd" clip-rule="evenodd" d="M161.609 27.2294H162.329V23.6348H166.286V27.2294H167.095V19.5908H166.286V22.9159H162.329V19.5908H161.609V27.2294Z" fill="black"/>
<path fill-rule="evenodd" clip-rule="evenodd" d="M168.625 27.2294H169.344V23.6348H173.391V27.2294H174.11V19.5908H173.391V22.9159H169.344V19.5908H168.625V27.2294Z" fill="black"/>
<path fill-rule="evenodd" clip-rule="evenodd" d="M181.395 27.2294H182.114V19.5908H181.395V27.2294ZM178.067 27.2294V26.5105H178.157C178.607 26.5105 178.967 26.4207 179.147 26.2409C179.416 26.0612 179.506 25.8815 179.686 25.6119C179.776 25.3423 179.866 25.1625 179.776 24.9828C179.776 24.8031 179.776 24.5335 179.686 24.3537C179.596 24.0841 179.416 23.9044 179.147 23.7247C178.877 23.5449 178.607 23.4551 178.157 23.4551H178.067V22.7361H178.157C178.967 22.7361 179.506 22.9159 179.956 23.3652C180.406 23.7247 180.585 24.2639 180.585 24.9828C180.585 25.6119 180.316 26.1511 179.956 26.6004C179.416 26.9598 178.877 27.2294 178.067 27.2294ZM178.067 22.7361V23.4551H176.359V26.5105H178.067V27.2294H175.639V19.5908H176.359V22.7361H178.067Z" fill="black"/>
<path fill-rule="evenodd" clip-rule="evenodd" d="M184.812 17.7935C184.812 18.2428 184.992 18.5124 185.352 18.782C185.622 19.0516 186.071 19.2313 186.701 19.2313C187.24 19.2313 187.69 19.0516 188.05 18.782C188.32 18.5124 188.499 18.1529 188.589 17.7935H187.87C187.87 17.9732 187.78 18.1529 187.6 18.3327C187.42 18.5124 187.15 18.6023 186.791 18.6023C186.431 18.6023 186.161 18.5124 185.981 18.3327C185.801 18.1529 185.712 17.9732 185.712 17.7935H184.812ZM183.643 19.5908V27.2294H184.452L188.949 20.6692V27.2294H189.669V19.5908H188.859L184.363 26.151V19.5908H183.643Z" fill="black"/>
<path fill-rule="evenodd" clip-rule="evenodd" d="M96.3184 8.08792C95.9587 7.45885 95.509 6.91966 94.8795 6.56019C94.25 6.20073 93.5305 6.021 92.811 6.021C92.0916 6.021 91.3721 6.20073 90.8325 6.56019C90.203 6.91966 89.7533 7.36899 89.3936 7.90819C89.0339 8.53725 88.854 9.16631 88.854 9.88524C88.854 10.694 89.0339 11.3231 89.3936 11.9522C89.7533 12.5812 90.203 13.0306 90.8325 13.3002C91.4621 13.6596 92.0916 13.8394 92.901 13.8394C93.6204 13.8394 94.3399 13.6596 94.9694 13.3002C95.599 12.9407 96.0486 12.4015 96.4084 11.7724H95.509C95.1493 12.2218 94.7896 12.5812 94.3399 12.8508C93.8902 13.1204 93.4406 13.2103 92.901 13.2103C92.2715 13.2103 91.7319 13.0306 91.2822 12.761C90.8325 12.4914 90.3829 12.1319 90.1131 11.5927C89.8433 11.1434 89.6634 10.5143 89.6634 9.88524C89.6634 9.25618 89.8433 8.80685 90.0231 8.26765C90.203 7.72845 90.6527 7.36899 91.1023 7.09939C91.552 6.82979 92.1815 6.65006 92.811 6.65006C93.3506 6.65006 93.8003 6.73993 94.16 6.91966C94.5198 7.09939 94.7896 7.27912 94.9694 7.54872C95.1493 7.72845 95.3292 7.90819 95.3292 8.08792H96.3184Z" fill="black"/>
<path fill-rule="evenodd" clip-rule="evenodd" d="M97.5771 6.11096V13.7496H98.3865L102.883 7.18936V13.7496H103.603V6.11096H102.883L98.2966 12.6712V6.11096H97.5771Z" fill="black"/>
<path fill-rule="evenodd" clip-rule="evenodd" d="M107.65 9.97521C108.1 9.97521 108.459 10.0651 108.729 10.2448C108.999 10.4245 109.179 10.6043 109.269 10.8739C109.359 11.1435 109.449 11.3232 109.359 11.5029C109.359 11.6827 109.359 11.9523 109.269 12.132C109.179 12.4016 108.999 12.5813 108.729 12.7611C108.459 12.9408 108.189 13.0307 107.74 13.0307H107.65V13.7496H107.74C108.459 13.7496 109.089 13.5699 109.449 13.1205C109.898 12.7611 110.078 12.2219 110.078 11.5029C110.078 11.4131 110.078 11.2333 109.988 10.9637C109.988 10.6941 109.898 10.5144 109.718 10.2448C109.538 9.97521 109.359 9.79547 108.999 9.52588C108.639 9.34614 108.189 9.25628 107.65 9.25628H107.56V9.97521H107.65ZM107.65 6.82989V6.11096H109.359V6.82989H107.65ZM105.941 9.97521H107.65V9.25628H105.941V6.82989H107.65V6.11096H105.222V13.7496H107.65V13.0307H105.941V9.97521Z" fill="black"/>
<path fill-rule="evenodd" clip-rule="evenodd" d="M111.157 6.11096V13.7496H111.967L116.463 7.18936V13.7496H117.183V6.11096H116.373L111.877 12.6712V6.11096H111.157Z" fill="black"/>
<path fill-rule="evenodd" clip-rule="evenodd" d="M121.23 6.82989C121.859 6.82989 122.309 7.00962 122.579 7.27922C122.848 7.54882 123.028 7.99815 123.028 8.35762C123.028 8.80695 122.938 9.16641 122.579 9.43601C122.309 9.70561 121.859 9.88534 121.23 9.88534V10.6043C121.859 10.6043 122.309 10.5144 122.668 10.2448C123.028 10.0651 123.298 9.70561 123.478 9.43601C123.658 9.07655 123.748 8.71708 123.748 8.35762C123.748 8.08802 123.658 7.72855 123.568 7.36909C123.478 7.00962 123.208 6.74002 122.758 6.47043C122.399 6.20083 121.859 6.11096 121.23 6.11096V6.82989ZM119.521 6.82989H121.14H121.23V6.11096H121.14H118.711V13.7496H119.431V10.6941H121.05H121.14V9.97521H121.05H119.431V6.82989H119.521Z" fill="black"/>
<path fill-rule="evenodd" clip-rule="evenodd" d="M131.932 8.08792C131.572 7.45885 131.122 6.91966 130.493 6.56019C129.863 6.20073 129.144 6.021 128.424 6.021C127.705 6.021 126.985 6.20073 126.446 6.56019C125.816 6.91966 125.367 7.36899 125.007 7.90819C124.647 8.53725 124.467 9.16631 124.467 9.88524C124.467 10.694 124.647 11.3231 125.007 11.9522C125.367 12.5812 125.816 13.0306 126.446 13.3002C127.075 13.6596 127.705 13.8394 128.514 13.8394C129.234 13.8394 129.953 13.6596 130.583 13.3002C131.212 12.9407 131.662 12.4015 132.022 11.7724H131.122C130.763 12.2218 130.403 12.5812 129.953 12.8508C129.504 13.1204 129.054 13.2103 128.514 13.2103C127.885 13.2103 127.345 13.0306 126.895 12.761C126.446 12.4914 125.996 12.1319 125.726 11.5927C125.457 11.1434 125.277 10.5143 125.277 9.88524C125.277 9.25618 125.457 8.80685 125.636 8.26765C125.906 7.81832 126.266 7.36899 126.716 7.09939C127.165 6.82979 127.795 6.65006 128.424 6.65006C128.964 6.65006 129.414 6.73993 129.773 6.91966C130.133 7.09939 130.403 7.27912 130.583 7.54872C130.763 7.72845 130.942 7.90819 130.942 8.08792H131.932Z" fill="black"/>
<path fill-rule="evenodd" clip-rule="evenodd" d="M134.45 9.79547L137.418 13.6597H138.407L135.349 9.70561L138.317 6.11096H137.418L134.45 9.79547ZM133.191 6.11096V13.7496H133.91V6.11096H133.191Z" fill="black"/>
<path fill-rule="evenodd" clip-rule="evenodd" d="M139.306 6.11096V13.7496H140.116L144.612 7.18936V13.7496H145.422V6.11096H144.612L140.116 12.6712V6.11096H139.306Z" fill="black"/>
<path fill-rule="evenodd" clip-rule="evenodd" d="M148.12 4.3136C148.12 4.76293 148.3 5.03253 148.659 5.30213C148.929 5.57172 149.379 5.75146 150.008 5.75146C150.548 5.75146 150.998 5.57172 151.357 5.30213C151.627 5.03253 151.807 4.67306 151.897 4.3136H151.088C151.088 4.49333 150.998 4.67306 150.818 4.8528C150.638 5.03253 150.368 5.12239 150.008 5.12239C149.649 5.12239 149.379 5.03253 149.199 4.8528C149.019 4.67306 148.929 4.49333 148.929 4.3136H148.12ZM146.951 6.11092V13.7495H147.76L152.257 7.18932V13.7495H152.976V6.11092H152.167L147.67 12.6712V6.11092H146.951Z" fill="black"/>
<path fill-rule="evenodd" clip-rule="evenodd" d="M89.2139 60.0306V67.5794H90.0233L94.5199 61.109V67.5794H95.3293V60.0306H94.5199L89.9333 66.501V60.0306H89.2139Z" fill="black"/>
<path fill-rule="evenodd" clip-rule="evenodd" d="M100.995 60.0306V67.5794H101.804L106.301 61.109V67.5794H107.11V60.0306H106.301L101.804 66.501V60.0306H100.995Z" fill="black"/>
<path fill-rule="evenodd" clip-rule="evenodd" d="M108.639 67.5794H109.359V64.0746H113.316V67.5794H114.125V60.0306H113.316V63.3557H109.359V60.0306H108.639V67.5794Z" fill="black"/>
<path fill-rule="evenodd" clip-rule="evenodd" d="M120.78 61.3786C120.78 61.3786 120.87 61.3786 120.87 61.4684C121.23 61.738 121.589 62.0076 121.769 62.3671C121.949 62.7266 122.129 63.1759 122.129 63.7151C122.129 64.1644 122.039 64.6137 121.769 65.0631C121.589 65.4225 121.23 65.782 120.87 65.9617C120.87 65.9617 120.78 65.9617 120.78 66.0516V66.7705C120.96 66.6807 121.05 66.6807 121.23 66.5908C121.769 66.3212 122.129 65.9617 122.399 65.4225C122.668 64.9732 122.848 64.3442 122.848 63.7151C122.848 63.086 122.668 62.5468 122.399 62.0076C122.129 61.5583 121.679 61.109 121.23 60.8394C121.05 60.7495 120.96 60.6596 120.78 60.6596V61.3786ZM119.431 61.0191C119.97 61.0191 120.42 61.109 120.78 61.2887V60.5698C120.42 60.39 119.97 60.3002 119.431 60.3002V59.3116H118.711V60.3002C118.262 60.3002 117.812 60.39 117.362 60.5698V61.2887C117.722 61.109 118.172 61.0191 118.711 61.0191V66.2313C118.172 66.2313 117.722 66.1415 117.362 65.9617V66.6807C117.722 66.8604 118.172 66.9503 118.711 66.9503V68.0287H119.431V66.9503C119.881 66.9503 120.33 66.8604 120.78 66.6807V65.9617C120.42 66.1415 119.97 66.2313 119.431 66.2313V61.0191ZM117.362 60.5698V61.2887C117.362 61.2887 117.272 61.2887 117.272 61.3786C116.913 61.6482 116.553 61.9178 116.373 62.2772C116.193 62.6367 116.013 63.086 116.013 63.6252C116.013 64.0746 116.103 64.5239 116.373 64.9732C116.553 65.3327 116.913 65.6921 117.272 65.8719C117.272 65.8719 117.362 65.8719 117.362 65.9617V66.6807C117.183 66.5908 117.093 66.5908 116.913 66.5009C116.373 66.2313 116.013 65.8719 115.744 65.3327C115.474 64.8833 115.294 64.2543 115.294 63.6252C115.294 62.9962 115.474 62.457 115.744 61.9178C116.013 61.4684 116.463 61.0191 116.913 60.7495C117.093 60.7495 117.272 60.6596 117.362 60.5698Z" fill="black"/>
<path fill-rule="evenodd" clip-rule="evenodd" d="M127.795 67.0402V67.7591C128.514 67.7591 129.234 67.5794 129.863 67.2199C130.493 66.8604 130.943 66.4111 131.302 65.782C131.662 65.153 131.842 64.5239 131.842 63.7151C131.842 62.9962 131.662 62.2773 131.302 61.7381C130.943 61.1989 130.493 60.6597 129.863 60.3901C129.234 60.0306 128.604 59.8509 127.795 59.8509V60.5698C128.424 60.5698 128.964 60.7495 129.414 61.0191C129.863 61.2887 130.313 61.6482 130.583 62.0975C130.853 62.5469 131.033 63.1759 131.033 63.805C131.033 64.434 130.853 64.9732 130.583 65.5124C130.313 65.9618 129.953 66.4111 129.414 66.6807C128.964 66.9503 128.424 67.0402 127.795 67.0402ZM127.795 67.0402C127.165 67.0402 126.626 66.8604 126.176 66.5908C125.726 66.3212 125.277 65.9618 125.007 65.4226C124.737 64.9732 124.557 64.3442 124.557 63.7151C124.557 63.0861 124.737 62.5469 125.007 62.0077C125.277 61.5583 125.637 61.109 126.176 60.8394C126.626 60.5698 127.255 60.3901 127.885 60.3901V59.6711C127.165 59.6711 126.446 59.8509 125.816 60.2103C125.187 60.5698 124.737 61.0191 124.377 61.6482C124.018 62.2773 123.838 62.9063 123.838 63.7151C123.838 64.5239 124.018 65.153 124.377 65.782C124.737 66.4111 125.187 66.8604 125.816 67.13C126.446 67.4895 127.075 67.6692 127.885 67.6692V67.0402H127.795Z" fill="black"/>
<path fill-rule="evenodd" clip-rule="evenodd" d="M135.529 60.7496C136.158 60.7496 136.608 60.9293 136.878 61.1989C137.148 61.4685 137.328 61.9179 137.328 62.2773C137.328 62.7267 137.238 63.0861 136.878 63.3557C136.608 63.6253 136.158 63.805 135.529 63.805V64.524C136.158 64.524 136.608 64.4341 136.968 64.1645C137.328 63.9848 137.597 63.6253 137.777 63.3557C137.957 62.9962 138.047 62.6368 138.047 62.2773C138.047 62.0077 137.957 61.6483 137.867 61.2888C137.777 60.9293 137.507 60.6597 137.058 60.3901C136.698 60.1205 136.158 60.0307 135.529 60.0307V60.7496ZM133.73 60.6597H135.349H135.439V59.9408H135.349H132.921V67.5794H133.64V64.524H135.259H135.349V63.805H135.259H133.64V60.6597H133.73Z" fill="black"/>
<path fill-rule="evenodd" clip-rule="evenodd" d="M139.037 67.5794H139.846V60.8394L142.724 67.5794H143.353L146.231 60.8394V67.5794H147.041V60.0306H145.872L142.994 66.501L140.206 60.0306H139.037V67.5794Z" fill="black"/>
<path fill-rule="evenodd" clip-rule="evenodd" d="M151.537 60.9293L152.976 64.3442H151.537V65.0632H153.336L154.415 67.5794H155.224L151.987 59.9408H151.537V60.9293ZM150.098 64.3442L151.537 60.9293V60.0307H151.087L147.85 67.6693H148.659L149.738 65.153H151.537V64.4341H150.098V64.3442Z" fill="black"/>
<path fill-rule="evenodd" clip-rule="evenodd" d="M156.483 67.5794H157.293V60.6597H159.001V60.0306H154.774V60.6597H156.483V67.5794Z" fill="black"/>
<path fill-rule="evenodd" clip-rule="evenodd" d="M159.811 60.0306V67.5794H160.62L165.207 61.109V67.5794H165.926V60.0306H165.117L160.62 66.501V60.0306H159.811Z" fill="black"/>
<path fill-rule="evenodd" clip-rule="evenodd" d="M168.714 63.7152L171.682 67.5794H172.671L169.613 63.6253L172.581 60.0306H171.682L168.714 63.7152ZM167.455 60.0306V67.6693H168.175V60.0306H167.455Z" fill="black"/>
<path fill-rule="evenodd" clip-rule="evenodd" d="M173.571 60.0306V67.5794H174.38L178.967 61.109V67.5794H179.686V60.0306H178.877L174.38 66.501V60.0306H173.571Z" fill="black"/>
<path d="M7.28456 0H66.7302C68.7087 0 70.5973 0.808796 71.8564 2.15679C73.2054 3.50478 74.0148 5.3021 74.0148 7.27916V66.6807C74.0148 68.6577 73.2054 70.5449 71.8564 71.8031C70.5074 73.1511 68.7087 73.9599 66.7302 73.9599H7.28456C5.30604 73.9599 3.41745 73.1511 2.15839 71.8031C0.809396 70.4551 0 68.6577 0 66.6807V7.27916C0 5.3021 0.809396 3.41491 2.15839 2.15679C3.41745 0.808796 5.30604 0 7.28456 0Z" fill="#003D84"/>
<path fill-rule="evenodd" clip-rule="evenodd" d="M28.7784 93.9999V91.3938C29.6777 91.3938 30.3072 91.1242 30.7569 90.6749C31.2066 90.2256 31.4764 89.5066 31.4764 88.6978C31.4764 87.7992 31.2066 87.1701 30.667 86.6309C30.2173 86.1816 29.4979 85.912 28.6885 85.912V83.3957C28.8683 83.3957 29.0482 83.3957 29.2281 83.3957C30.667 83.3957 31.926 83.8451 32.8254 84.7437C33.7247 85.6424 34.1744 86.9005 34.2643 88.4282C34.2643 90.0458 33.7247 91.3938 32.7354 92.4722C31.6562 93.4607 30.3972 93.9999 28.7784 93.9999ZM28.7784 82.4072V79.891C29.2281 79.8011 29.5878 79.8011 29.7676 79.8011H33.0052V82.3173H29.6777C29.4079 82.3173 29.1381 82.4072 28.7784 82.4072ZM70.6871 79.8011H73.475V93.7303H70.5972V84.564L64.7515 93.7303H62.0536V82.5869H58.1864V93.7303H55.3086V82.5869H52.6106L47.5744 93.7303H44.4267L46.1354 90.1357L42.2683 82.5869H38.5811V93.7303H35.7032V79.8011C38.5811 79.8011 41.4589 79.8011 44.2468 79.8011L47.7542 86.8106L50.8119 79.8011C55.4885 79.8011 60.2549 79.8011 64.9314 79.8011V88.9674L70.6871 79.8011ZM9.62268 93.8202H9.53275C8.99315 93.9101 8.45356 93.9999 7.91396 93.9999C6.29517 93.9999 4.94617 93.5506 3.86698 92.8317C2.78778 92.1128 1.97839 91.1242 1.43879 90.0458C0.899193 88.9674 0.629395 87.7992 0.629395 86.7208C0.629395 85.912 0.80926 85.1032 1.07906 84.2944C1.34886 83.4856 1.79852 82.6768 2.33812 81.9579C2.96765 81.2389 3.68711 80.6099 4.58644 80.2504C5.48577 79.8011 6.56497 79.5315 7.82403 79.5315C8.36362 79.5315 8.90322 79.6214 9.44282 79.7112H9.53275V82.6768L9.26295 82.5869C8.81329 82.4072 8.36362 82.3173 7.73409 82.3173C6.83476 82.3173 6.1153 82.5869 5.39584 82.9464C4.76631 83.3957 4.22671 83.9349 3.86698 84.564C3.50725 85.1931 3.32738 85.912 3.32738 86.7208C3.32738 87.5296 3.50725 88.3384 3.95691 88.9674C4.31664 89.6864 4.85624 90.2256 5.5757 90.585C6.20523 90.9445 7.01463 91.2141 7.82403 91.2141C8.36362 91.2141 8.81329 91.1242 9.35288 90.9445L9.62268 90.8546V93.8202ZM28.7784 79.891V82.4072C28.5985 82.4072 28.4187 82.4971 28.1489 82.4971C27.6093 82.6768 27.0697 82.9464 26.5301 83.3957C26.1703 83.7552 25.9005 84.1147 25.7207 84.7437C26.0804 84.3843 26.4401 84.0248 26.9797 83.8451C27.5193 83.5755 28.1489 83.3957 28.7784 83.3957V85.912C27.969 85.912 27.3395 86.1816 26.7999 86.6309C26.2603 87.0803 26.0804 87.7992 25.9905 88.6978C25.9905 89.5965 26.2603 90.2256 26.7099 90.7648C27.1596 91.2141 27.8791 91.4837 28.6885 91.4837V94.0898H28.5086C27.2495 94.0898 26.2603 93.8202 25.5408 93.3709C24.8213 92.9215 24.2817 92.2925 23.922 91.6634C23.5623 90.9445 23.2925 90.2256 23.2025 89.5066C23.1126 88.7877 23.0227 88.1586 23.0227 87.6194C23.0227 85.8221 23.2925 84.3843 23.8321 83.3059C24.3717 82.2275 25.0012 81.5085 25.8106 81.0592C26.62 80.6099 27.3395 80.3403 28.0589 80.1606C28.4187 79.9808 28.5985 79.9808 28.7784 79.891ZM18.616 83.216H21.314V93.7303H18.526V87.5296L14.2992 93.7303H11.6012V83.216H14.3891V89.4168L18.616 83.216Z" fill="#003D84"/>
<path d="M9.08301 36.9349C9.08301 44.6634 13.2199 51.4034 19.3354 55.0879C17.4468 51.9426 16.2776 48.1682 16.2776 44.2141C16.2776 41.6979 16.7273 39.1816 17.5367 36.9349C16.7273 34.6883 16.2776 32.2619 16.2776 29.6558C16.2776 25.7017 17.3568 21.9273 19.3354 18.782C13.2199 22.5564 9.08301 29.2963 9.08301 36.9349Z" fill="url(#paint0_linear)"/>
<path d="M55.6685 18.782C57.557 21.9273 58.7262 25.7017 58.7262 29.6558C58.7262 32.172 58.2765 34.6883 57.4671 36.9349C58.2765 39.1816 58.7262 41.608 58.7262 44.2141C58.7262 48.1682 57.647 51.9426 55.6685 55.0879C61.7839 51.4034 65.9208 44.6634 65.9208 36.9349C66.0107 29.2963 61.8738 22.5564 55.6685 18.782Z" fill="url(#paint1_linear)"/>
<path d="M26.6201 47.8986C29.1382 52.0324 32.9154 55.2676 37.502 56.8852C42.0886 55.1777 45.9557 52.0324 48.3839 47.8986C45.2362 49.7858 41.459 50.954 37.502 50.954C33.5449 50.8641 29.7678 49.7858 26.6201 47.8986Z" fill="url(#paint2_linear)"/>
<path d="M48.4738 47.8986C52.6107 45.3823 55.8483 41.608 57.4671 37.0248C58.2764 39.2714 58.7261 41.6978 58.7261 44.3039C58.7261 48.258 57.6469 52.0324 55.6684 55.1777C52.5207 57.0649 48.7436 58.2332 44.7865 58.2332C42.2684 58.2332 39.7503 57.7839 37.502 56.9751C42.0885 55.1777 45.9556 52.0324 48.4738 47.8986Z" fill="url(#paint3_linear)"/>
<path d="M16.3677 44.2141C16.3677 48.258 17.4469 51.9425 19.4254 55.1777C22.573 57.0649 26.3502 58.2332 30.3073 58.2332C32.8254 58.2332 35.3435 57.7838 37.5918 56.975C33.0053 55.2676 29.1381 52.1223 26.71 47.9884C22.573 45.4722 19.3355 41.6978 17.7167 37.1146C16.8173 39.2714 16.3677 41.6978 16.3677 44.2141Z" fill="url(#paint4_linear)"/>
<path d="M19.3354 55.1777C23.0227 61.2886 29.7677 65.4225 37.5019 65.4225C45.2361 65.4225 51.9811 61.2886 55.6683 55.1777C52.5207 57.0649 48.7435 58.2332 44.7864 58.2332C42.2683 58.2332 39.7502 57.7839 37.5019 56.9751C35.2536 57.7839 32.8254 58.2332 30.2173 58.2332C26.2603 58.1433 22.573 57.0649 19.3354 55.1777Z" fill="url(#paint5_linear)"/>
<path d="M48.4736 26.0612C50.3622 29.2065 51.5313 32.9809 51.5313 36.935C51.5313 40.8891 50.4522 44.6635 48.4736 47.8088C52.6105 45.2925 55.8481 41.5181 57.4669 36.935C55.7582 32.3518 52.6105 28.5774 48.4736 26.0612Z" fill="url(#paint6_linear)"/>
<path d="M17.6265 36.935C19.3352 41.5181 22.4828 45.3824 26.6198 47.8088C24.7312 44.6635 23.562 40.8891 23.562 36.935C23.562 32.9809 24.6412 29.2065 26.6198 26.0612C22.4828 28.5774 19.2453 32.3518 17.6265 36.935Z" fill="url(#paint7_linear)"/>
<path d="M26.6201 26.0611C29.7678 24.1739 33.5449 23.0056 37.502 23.0056C41.459 23.0056 45.2362 24.084 48.3839 26.0611C45.8658 21.9272 42.0886 18.6921 37.502 17.0745C32.9154 18.7819 29.1382 21.9272 26.6201 26.0611Z" fill="url(#paint8_linear)"/>
<path d="M55.6683 18.782C57.5569 21.9273 58.726 25.7017 58.726 29.6558C58.726 32.172 58.2764 34.6883 57.467 36.9349C55.7582 32.3518 52.6106 28.5774 48.4737 26.0611C45.9556 21.9273 42.1784 18.6921 37.5918 17.0745C39.8401 16.2657 42.2683 15.8164 44.8764 15.8164C48.7435 15.8164 52.5207 16.8948 55.6683 18.782Z" fill="url(#paint9_linear)"/>
<path d="M16.3677 29.6558C16.3677 32.2619 16.8173 34.6883 17.6267 36.9349C19.3355 32.3518 22.4831 28.4875 26.62 26.0611C29.1381 21.9273 32.9153 18.6921 37.5019 17.0745C35.2536 16.2657 32.8254 15.8164 30.2173 15.8164C26.2603 15.8164 22.4831 16.8948 19.3355 18.8719C17.4469 22.0172 16.3677 25.7017 16.3677 29.6558Z" fill="url(#paint10_linear)"/>
<path d="M19.3354 18.782C22.4831 16.8948 26.2603 15.7265 30.2173 15.7265C32.7354 15.7265 35.2536 16.1759 37.5019 16.9847C39.7502 16.1759 42.1784 15.7265 44.7864 15.7265C48.7435 15.7265 52.5207 16.8049 55.6683 18.782C51.9811 12.6711 45.2361 8.53723 37.5019 8.53723C29.8576 8.53723 23.1126 12.6711 19.3354 18.782Z" fill="url(#paint11_linear)"/>
</g>
<defs>
<linearGradient id="paint0_linear" x1="14.2207" y1="12.5222" x2="14.2207" y2="61.4335" gradientUnits="userSpaceOnUse">
<stop stop-color="#003D84"/>
<stop offset="1" stop-color="white"/>
</linearGradient>
<linearGradient id="paint1_linear" x1="60.8503" y1="61.5896" x2="60.8503" y2="12.3626" gradientUnits="userSpaceOnUse">
<stop stop-color="#003D84"/>
<stop offset="1" stop-color="white"/>
</linearGradient>
<linearGradient id="paint2_linear" x1="21.7212" y1="52.3822" x2="53.9897" y2="52.3822" gradientUnits="userSpaceOnUse">
<stop stop-color="#003D84"/>
<stop offset="1" stop-color="white"/>
</linearGradient>
<linearGradient id="paint3_linear" x1="37.5589" y1="64.4138" x2="64.8066" y2="38.0816" gradientUnits="userSpaceOnUse">
<stop stop-color="#003D84"/>
<stop offset="1" stop-color="white"/>
</linearGradient>
<linearGradient id="paint4_linear" x1="10.9066" y1="37.8568" x2="34.0722" y2="61.8633" gradientUnits="userSpaceOnUse">
<stop stop-color="#003D84"/>
<stop offset="1" stop-color="white"/>
</linearGradient>
<linearGradient id="paint5_linear" x1="12.7679" y1="60.2722" x2="62.3065" y2="60.2722" gradientUnits="userSpaceOnUse">
<stop stop-color="#003D84"/>
<stop offset="1" stop-color="white"/>
</linearGradient>
<linearGradient id="paint6_linear" x1="52.954" y1="53.3166" x2="52.954" y2="20.633" gradientUnits="userSpaceOnUse">
<stop stop-color="#003D84"/>
<stop offset="1" stop-color="white"/>
</linearGradient>
<linearGradient id="paint7_linear" x1="22.1165" y1="20.633" x2="22.1165" y2="53.3166" gradientUnits="userSpaceOnUse">
<stop stop-color="#003D84"/>
<stop offset="1" stop-color="white"/>
</linearGradient>
<linearGradient id="paint8_linear" x1="54.904" y1="21.9674" x2="21.8248" y2="21.3896" gradientUnits="userSpaceOnUse">
<stop stop-color="#003D84"/>
<stop offset="1" stop-color="white"/>
</linearGradient>
<linearGradient id="paint9_linear" x1="64.0453" y1="35.9716" x2="38.2654" y2="9.25601" gradientUnits="userSpaceOnUse">
<stop stop-color="#003D84"/>
<stop offset="1" stop-color="white"/>
</linearGradient>
<linearGradient id="paint10_linear" x1="38.7123" y1="6.55256" x2="9.9874" y2="38.4786" gradientUnits="userSpaceOnUse">
<stop stop-color="#003D84"/>
<stop offset="1" stop-color="white"/>
</linearGradient>
<linearGradient id="paint11_linear" x1="61.4015" y1="13.6797" x2="12.6007" y2="13.6797" gradientUnits="userSpaceOnUse">
<stop stop-color="#003D84"/>
<stop offset="1" stop-color="white"/>
</linearGradient>
<clipPath id="clip0">
<rect width="201" height="94" fill="white"/>
</clipPath>
</defs>
</svg>
