<svg width="724" height="157" viewBox="0 0 724 157" fill="none" xmlns="http://www.w3.org/2000/svg">
<path d="M150.809 65.3447L125.751 56.2246L100.682 65.3447L75.6235 56.2246L50.5542 65.3447L25.4959 56.2246L0.4375 65.3447V97.2212L25.4959 106.352L50.5542 97.2212L75.6235 106.352L100.682 97.2212L125.751 106.352L150.809 97.2212V65.3447Z" fill="black"/>
<path d="M150.799 15.2177H150.809L125.751 6.09766L100.682 15.2177L75.6235 6.09766L50.5542 15.2177L25.4959 6.09766L0.4375 15.2177V47.1052L25.4959 56.2253L50.5542 47.1052L75.6235 56.2253L100.682 47.1052L125.751 56.2253L150.809 47.1052V15.2177H150.799Z" fill="#28BE46"/>
<path d="M50.5534 15.2177L25.4841 24.3487L0.425781 15.2177L25.4841 6.09766L50.5534 15.2177Z" fill="black"/>
<path d="M100.669 15.2177L75.6111 24.3487L50.5527 15.2177L75.6111 6.09766L100.669 15.2177Z" fill="black"/>
<path d="M150.799 15.2177L125.741 24.3487L100.672 15.2177L125.741 6.09766L150.799 15.2177Z" fill="black"/>
<path d="M0.425781 97.2197L25.4841 88.0996L50.5534 97.2197L25.4841 106.351L0.425781 97.2197Z" fill="#28BE46"/>
<path d="M100.682 97.2197L125.74 88.0996L150.809 97.2197L125.74 106.351L100.682 97.2197Z" fill="#28BE46"/>
<path d="M100.669 65.3457L75.6111 74.4658L50.5527 65.3457V97.2223L75.6111 106.353L100.669 97.2223V65.3457Z" fill="#28BE46"/>
<path d="M150.809 115.474L125.751 106.354L100.682 115.474L75.6235 106.354L50.5542 115.474L25.4959 106.354L0.4375 115.474V147.35L25.4959 156.47L50.5542 147.35L75.6235 156.47L100.682 147.35L125.751 156.47L150.809 147.35V115.474Z" fill="black"/>
<path d="M0.425781 147.351L25.4841 138.23L50.5534 147.351L25.4841 156.471L0.425781 147.351Z" fill="#28BE46"/>
<path d="M100.682 147.351L125.74 138.23L150.809 147.351L125.74 156.471L100.682 147.351Z" fill="#28BE46"/>
<path d="M100.669 115.473L75.6111 124.593L50.5527 115.473V147.349L75.6111 156.469L100.669 147.349V115.473Z" fill="#28BE46"/>
<path d="M205.314 9.40625H231.064V15.3123H221.359V38.5412H214.982V15.3123H205.314V9.40625Z" fill="black"/>
<path d="M251.094 8.97522C254.054 9.04554 256.927 9.98735 259.354 11.6829C261.781 13.3785 263.654 15.7524 264.739 18.5073C265.823 21.2623 266.07 24.2758 265.45 27.1708C264.83 30.0657 263.369 32.7134 261.251 34.7821C259.133 36.8509 256.452 38.2489 253.543 38.8011C250.635 39.3533 247.628 39.0352 244.899 37.8866C242.17 36.7379 239.841 34.8098 238.203 32.3437C236.565 29.8775 235.691 26.983 235.69 24.0223C235.655 22.0063 236.032 20.0042 236.798 18.1392C237.565 16.2741 238.704 14.5853 240.147 13.1763C241.589 11.7674 243.304 10.6679 245.187 9.94552C247.069 9.22309 249.08 8.89293 251.094 8.97522ZM259.878 24.0223C259.859 22.2847 259.327 20.5914 258.348 19.1558C257.368 17.7203 255.986 16.6067 254.375 15.9554C252.764 15.3042 250.996 15.1443 249.294 15.496C247.592 15.8477 246.033 16.6952 244.812 17.9318C243.591 19.1684 242.764 20.7387 242.434 22.4449C242.104 24.151 242.286 25.9166 242.958 27.5193C243.63 29.1219 244.761 30.49 246.209 31.4509C247.657 32.4117 249.357 32.9225 251.094 32.9189C252.266 32.9321 253.428 32.7083 254.511 32.2609C255.594 31.8135 256.575 31.1517 257.395 30.3154C258.216 29.479 258.859 28.4854 259.285 27.3943C259.712 26.3031 259.914 25.1369 259.878 23.9659V24.0223Z" fill="black"/>
<path d="M275.506 9.40625H282.258L290.873 19.6006L299.487 9.40625H306.164V38.5412H299.957V17.4189L290.873 28.4597L281.75 17.4941V38.5412H275.506V9.40625Z" fill="black"/>
<path d="M330.279 15.0698C327.92 15.0698 325.657 16.0072 323.988 17.6756C322.32 19.344 321.382 21.6069 321.382 23.9664C321.382 26.326 322.32 28.5888 323.988 30.2573C325.657 31.9257 327.92 32.863 330.279 32.863C331.812 32.8709 333.323 32.4947 334.673 31.7686C336.024 31.0425 337.171 29.9897 338.009 28.7063L342.58 32.6561C341.225 34.665 339.382 36.2968 337.224 37.3989C335.066 38.5009 332.663 39.0372 330.241 38.9572C321.533 38.9572 314.762 32.9571 314.762 23.9101C314.761 21.902 315.162 19.9141 315.942 18.0635C316.721 16.2129 317.864 14.5372 319.301 13.1349C320.738 11.7326 322.442 10.6321 324.311 9.89843C326.18 9.16475 328.177 8.81273 330.185 8.86293C332.621 8.74195 335.046 9.25974 337.221 10.365C339.395 11.4702 341.242 13.1245 342.58 15.1639L338.009 19.1137C337.155 17.8536 336.002 16.8248 334.653 16.1191C333.304 15.4135 331.801 15.053 330.279 15.0698Z" fill="black"/>
<path d="M350.818 38.5412V9.40625H357.27V38.5412H350.818ZM367.746 9.40625H374.856L364.643 22.0834L376.699 38.5412H369.176L357.232 22.328L367.746 9.40625Z" fill="black"/>
<path d="M390.411 28.8359L404.028 9.40625H410.461V38.5412H404.123V18.9799L390.467 38.5412H384.072V9.40625H390.411V28.8359Z" fill="black"/>
<path d="M427.841 28.8351L441.458 9.40543H447.891V38.5404H441.533V18.9791L427.878 38.5404H421.502V9.40543H427.841V28.8351ZM432.054 0.0761719C432.015 0.44248 432.051 0.812909 432.16 1.16471C432.27 1.51651 432.449 1.84233 432.689 2.12226C432.928 2.40219 433.222 2.63028 433.553 2.7927C433.884 2.95511 434.244 3.04843 434.612 3.06684C434.979 3.04303 435.338 2.94645 435.668 2.78282C435.998 2.61919 436.293 2.3917 436.534 2.11354C436.776 1.83537 436.959 1.51214 437.075 1.16241C437.19 0.812687 437.235 0.443422 437.207 0.0761719H441.91C441.815 1.94515 441.005 3.70623 439.649 4.99549C438.292 6.28475 436.493 7.00369 434.621 7.00369C432.75 7.00369 430.95 6.28475 429.593 4.99549C428.237 3.70623 427.428 1.94515 427.333 0.0761719H432.054Z" fill="black"/>
<path d="M235.104 95.7951H228.709V72.5849H215.317V95.7951H208.885V66.6602H235.104V95.7951Z" fill="black"/>
<path d="M258.916 66.2453C261.875 66.3193 264.747 67.2643 267.171 68.962C269.596 70.6598 271.466 73.0348 272.547 75.79C273.629 78.5452 273.873 81.5582 273.251 84.4518C272.629 87.3455 271.167 89.9913 269.048 92.0582C266.929 94.1251 264.248 95.5213 261.34 96.072C258.432 96.6228 255.426 96.3037 252.699 95.1546C249.971 94.0055 247.643 92.0774 246.005 89.6118C244.368 87.1461 243.494 84.2522 243.493 81.2924C243.453 79.2732 243.827 77.2671 244.592 75.3982C245.358 73.5293 246.499 71.8374 247.944 70.427C249.39 69.0166 251.11 67.9178 252.997 67.1986C254.884 66.4793 256.899 66.1548 258.916 66.2453ZM267.7 81.2924C267.682 79.5547 267.149 77.8615 266.17 76.4259C265.191 74.9904 263.808 73.8768 262.197 73.2255C260.586 72.5742 258.818 72.4145 257.117 72.7662C255.415 73.1179 253.855 73.9654 252.634 75.202C251.413 76.4386 250.586 78.0089 250.256 79.7151C249.926 81.4212 250.108 83.1868 250.78 84.7895C251.452 86.3921 252.583 87.7601 254.031 88.721C255.479 89.6819 257.179 90.1927 258.916 90.1891C260.087 90.1997 261.248 89.974 262.33 89.5257C263.412 89.0773 264.392 88.4155 265.212 87.5797C266.032 86.7439 266.675 85.7513 267.102 84.6613C267.53 83.5714 267.733 82.4064 267.7 81.236V81.2924Z" fill="black"/>
<path d="M278.988 96.0015V90.1331H280.625C283.183 90.1331 284.386 88.9106 284.386 85.5062V66.6973H307.089V95.8322H300.844V72.528H290.687V85.9199C290.687 91.9576 288.035 95.9826 281.396 95.9826L278.988 96.0015Z" fill="black"/>
<path d="M324.598 86.1085L338.216 66.6602H344.649V95.7951H338.291V76.2338L324.636 95.7951H318.26V66.6602H324.598V86.1085Z" fill="black"/>
<path d="M352.941 66.6602H378.71V72.5849H369.004V95.7951H362.609V72.5849H352.941V66.6602Z" fill="black"/>
<path d="M387.062 66.6602H409.163V72.5285H393.495V78.1712H404.536V83.8139H393.495V89.8703H409.332V95.7387H387.062V66.6602Z" fill="black"/>
<path d="M431.037 76.5178L438.429 66.6055H445.671L434.912 80.9567L446.198 95.7404H438.354L430.492 85.5837L422.668 95.7404H415.332L426.617 80.9567L415.821 66.6055H423.589L431.037 76.5178Z" fill="black"/>
<path d="M480.149 66.6602V95.7951H473.754V84.0396H460.362V95.8703H453.93V66.6602H460.362V78.0772H473.754V66.6602H480.149Z" fill="black"/>
<path d="M497.567 86.1085L511.185 66.6602H517.617V95.7951H511.26V76.2338L497.605 95.7951H491.229V66.6602H497.567V86.1085Z" fill="black"/>
<path d="M551.377 66.6602V95.7951H545.001V84.6791H536.876C531.666 84.6791 527.34 82.3656 527.34 76.1963V66.6602H533.735V75.3875C533.735 77.9455 535.371 78.7919 537.854 78.7919H545.001V66.6602H551.377Z" fill="black"/>
<path d="M562.455 66.6602H584.556V72.5285H568.888V78.1712H579.947V83.8139H568.888V89.8703H584.725V95.7387H562.455V66.6602Z" fill="black"/>
<path d="M606.281 72.3227C605.077 72.2674 603.874 72.4567 602.746 72.8793C601.617 73.3019 600.586 73.9489 599.714 74.7814C598.842 75.6138 598.149 76.6144 597.675 77.7226C597.201 78.8307 596.956 80.0234 596.956 81.2287C596.956 82.434 597.201 83.6267 597.675 84.7348C598.149 85.843 598.842 86.8436 599.714 87.676C600.586 88.5084 601.617 89.1555 602.746 89.5781C603.874 90.0007 605.077 90.19 606.281 90.1347C607.813 90.1358 609.321 89.7566 610.67 89.0311C612.02 88.3056 613.168 87.2566 614.011 85.978L618.582 89.9278C617.221 91.9356 615.375 93.5663 613.214 94.668C611.053 95.7698 608.649 96.3067 606.225 96.2288C597.535 96.2288 590.764 90.2099 590.764 81.1816C590.763 79.1736 591.164 77.1857 591.944 75.3352C592.723 73.4846 593.866 71.8087 595.303 70.4065C596.74 69.0042 598.444 67.9038 600.313 67.1701C602.182 66.4364 604.179 66.0843 606.187 66.1345C608.621 66.0134 611.044 66.5292 613.218 67.6309C615.392 68.7326 617.241 70.3822 618.582 72.4167L614.011 76.3665C613.155 75.1088 612.001 74.0818 610.653 73.3765C609.304 72.6711 607.803 72.3092 606.281 72.3227Z" fill="black"/>
<path d="M626.803 95.7951V66.6602H633.235V95.7951H626.803ZM643.731 66.6602H650.822L640.627 79.3373L652.684 95.7951H645.16L633.216 79.5819L643.731 66.6602Z" fill="black"/>
<path d="M666.414 86.1085L680.031 66.6602H686.426V95.7951H680.088V76.2338L666.432 95.7951H660.094V66.6602H666.432L666.414 86.1085Z" fill="black"/>
<path d="M703.844 86.1116L717.462 66.6632H723.895V95.7982H717.537V76.2369L703.882 95.7982H697.506V66.6632H703.844V86.1116ZM708.039 57.334C708.003 57.7013 708.042 58.0722 708.153 58.424C708.264 58.7759 708.446 59.1014 708.687 59.381C708.928 59.6606 709.223 59.8884 709.554 60.0506C709.886 60.2128 710.247 60.3061 710.616 60.3247C710.983 60.3008 711.342 60.2043 711.672 60.0406C712.002 59.877 712.297 59.6495 712.538 59.3713C712.779 59.0932 712.963 58.77 713.079 58.4202C713.194 58.0705 713.239 57.7012 713.211 57.334H717.876C717.781 59.203 716.972 60.964 715.615 62.2533C714.259 63.5426 712.459 64.2615 710.587 64.2615C708.716 64.2615 706.916 63.5426 705.56 62.2533C704.203 60.964 703.394 59.203 703.299 57.334H708.039Z" fill="black"/>
<path d="M208.961 147.181H211.951C212.786 147.296 213.635 147.211 214.43 146.933C215.225 146.655 215.942 146.192 216.522 145.582L204.635 123.914H211.707L219.814 138.961L226.284 123.914H232.999L222.992 146.635C222.328 148.559 221.067 150.221 219.392 151.378C217.717 152.535 215.717 153.127 213.682 153.068H208.961V147.181Z" fill="black"/>
<path d="M266.987 123.914V153.068H260.611V141.218H247.2V153.068H240.654V123.914H247.087V135.331H260.498V123.914H266.987Z" fill="black"/>
<path d="M284.328 143.362L297.927 123.914H304.36V153.068H298.021V133.488L284.366 153.068H277.971V123.914H284.328V143.362Z" fill="black"/>
<path d="M315.401 123.914H327.664C333.589 123.914 337.069 127.074 337.069 131.607C337.111 132.979 336.696 134.325 335.889 135.435C335.082 136.545 333.929 137.355 332.611 137.739C334.261 137.96 335.772 138.779 336.857 140.041C337.943 141.304 338.527 142.921 338.498 144.585C338.498 149.908 334.21 153.068 328.078 153.068H315.307L315.401 123.914ZM326.686 129.218H321.815V135.801H326.686C327.16 135.854 327.639 135.807 328.093 135.661C328.547 135.516 328.965 135.277 329.32 134.959C329.675 134.642 329.959 134.252 330.154 133.817C330.348 133.382 330.448 132.911 330.448 132.434C330.561 130.384 329.056 129.181 326.705 129.181L326.686 129.218ZM327.57 147.726C329.959 147.726 332.028 146.635 332.028 144.152C332.028 141.67 329.959 140.635 327.57 140.635H321.815V147.726H327.57Z" fill="black"/>
<path d="M347.619 123.914H369.72V129.801H354.052V135.444H365.093V141.087H354.052V147.124H369.889V153.011H347.619V123.914Z" fill="black"/>
<path d="M379.238 123.914H390.712C396.768 123.914 401.339 127.318 401.339 133.488C401.339 139.657 396.674 142.986 390.712 142.986H385.671V153.068H379.238V123.914ZM394.756 133.488C394.761 132.946 394.649 132.41 394.428 131.915C394.207 131.421 393.882 130.98 393.475 130.623C393.067 130.266 392.588 130.001 392.069 129.846C391.55 129.691 391.003 129.65 390.467 129.726H385.671V137.419H390.467C391.013 137.472 391.564 137.409 392.084 137.235C392.605 137.061 393.083 136.779 393.487 136.409C393.891 136.038 394.213 135.586 394.432 135.083C394.65 134.58 394.761 134.036 394.756 133.488Z" fill="black"/>
<path d="M422.967 129.593C420.608 129.593 418.345 130.53 416.676 132.199C415.008 133.867 414.071 136.13 414.071 138.489C414.071 140.849 415.008 143.112 416.676 144.78C418.345 146.449 420.608 147.386 422.967 147.386C424.501 147.396 426.012 147.02 427.363 146.294C428.714 145.568 429.86 144.514 430.698 143.229L435.287 147.179C433.929 149.189 432.083 150.822 429.922 151.924C427.76 153.026 425.355 153.562 422.93 153.48C414.24 153.48 407.469 147.48 407.469 138.433C407.468 136.425 407.87 134.437 408.649 132.587C409.429 130.736 410.571 129.06 412.008 127.658C413.446 126.256 415.149 125.155 417.018 124.421C418.888 123.688 420.885 123.336 422.892 123.386C425.328 123.267 427.753 123.785 429.926 124.891C432.1 125.996 433.948 127.649 435.287 129.687L430.698 133.637C429.847 132.373 428.695 131.341 427.345 130.635C425.995 129.929 424.491 129.571 422.967 129.593Z" fill="black"/>
<path d="M449.846 143.362L463.464 123.914H469.897V153.068H463.558V133.488L449.903 153.068H443.508V123.914H449.846V143.362Z" fill="black"/>
<path d="M478.213 123.914H503.981V129.839H494.276V153.068H487.88V129.839H478.232L478.213 123.914Z" fill="black"/>
<path d="M512.311 123.914H534.411V129.801H518.743V135.444H529.784V141.087H518.743V147.124H534.58V153.011H512.311V123.914Z" fill="black"/>
<path d="M540.789 123.914H566.539V129.839H556.833V153.068H550.457V129.839H540.789V123.914Z" fill="black"/>
</svg>
