<svg width="43" height="21" viewBox="0 0 43 21" fill="none" xmlns="http://www.w3.org/2000/svg">
<path d="M25.0539 5.12911C25.0539 6.11761 25.0194 7.1135 25.0712 8.10201C25.0971 8.59626 25.1834 9.10527 25.3732 9.56264C25.6753 10.2856 26.3225 10.3962 27.0129 9.91673C27.9449 9.28231 28.6008 8.44872 29.2394 7.61513C30.3871 6.12499 31.3795 4.56108 32.208 2.92341C32.4065 2.53243 32.605 2.14883 32.7776 1.75048C33.0106 1.20459 33.4766 0.983279 34.1324 0.975902C35.9878 0.968525 37.8519 0.953771 39.7073 0.946394C40.1819 0.946394 40.6479 0.916886 41.1226 0.924263C41.4591 0.93164 41.8129 0.961148 42.1322 1.03492C42.8658 1.20459 43.1764 1.63982 42.9003 2.24473C42.5551 3.01193 42.2099 3.80126 41.6749 4.47256C40.3372 6.16188 38.8961 7.79218 37.498 9.45198C37.1011 9.93148 36.7041 10.411 36.333 10.9052C35.7721 11.6577 35.8066 12.2995 36.5315 12.956C37.36 13.7085 38.2402 14.4093 39.1032 15.1396C40.3286 16.1724 41.5282 17.2273 42.417 18.4961C42.6414 18.8207 42.7967 19.2043 42.883 19.5805C43.0211 20.2223 42.6845 20.6354 41.9424 20.7903C41.6144 20.8567 41.2693 20.901 40.9241 20.9083C39.2413 20.9378 37.5585 20.8641 35.8843 20.9821C33.8994 21.1223 32.4151 20.4288 31.1293 19.2559C30.4993 18.6731 29.9125 18.0535 29.2652 17.4854C28.782 17.0576 28.2642 16.6445 27.7033 16.2978C27.1164 15.9289 26.6159 16.0174 26.1068 16.4674C25.3905 17.1018 25.2351 17.9207 25.1488 18.7543C25.1143 19.0567 25.123 19.3666 25.0884 19.669C24.9849 20.451 24.6138 20.8567 23.699 20.8862C21.999 20.9378 20.2817 21.0337 18.5989 20.7608C16.7003 20.451 15.0089 19.7207 13.3778 18.8428C11.0478 17.5813 9.33911 15.8256 7.73397 13.9593C5.11052 10.861 2.95308 7.54136 1.09768 4.08158C0.735231 3.40291 0.381411 2.71685 0.070739 2.01605C-0.136375 1.5513 0.122518 1.17508 0.700712 1.04967C0.968235 0.990656 1.25302 0.946394 1.52917 0.946394C3.45361 0.93164 5.37805 0.924263 7.29386 0.924263C8.17409 0.924263 8.78681 1.27836 9.132 1.96441C10.2539 4.19962 11.5138 6.38318 13.0154 8.4561C13.49 9.11264 14.0596 9.71755 14.8535 10.1233C15.5267 10.4626 16.1394 10.3298 16.3724 9.69542C16.614 9.06101 16.778 8.38971 16.8556 7.72578C17.0282 6.32417 16.9937 4.92255 16.7435 3.52832C16.5277 2.34063 16.0186 1.83162 14.6464 1.53655C14.2408 1.44802 14.189 1.32999 14.4652 1.05705C14.9571 0.562794 15.5957 0.297225 16.3379 0.201325C18.2105 -0.0494899 20.0918 -0.0199823 21.9731 0.04641C22.5168 0.0685408 23.0691 0.127556 23.5955 0.223456C24.657 0.415256 25.1575 0.946394 25.1834 1.95703C25.2093 2.8939 25.1575 3.83077 25.1402 4.76764C25.1402 4.88567 25.123 5.0037 25.1143 5.12911C25.0884 5.12911 25.0712 5.12911 25.0453 5.12911H25.0539Z" fill="#1C647A"/>
</svg>
