<svg width="35" height="35" viewBox="0 0 35 35" fill="none" xmlns="http://www.w3.org/2000/svg">
<g clip-path="url(#clip0_4508_1225)">
<mask id="mask0_4508_1225" style="mask-type:luminance" maskUnits="userSpaceOnUse" x="0" y="0" width="35" height="35">
<path d="M35 0H0V35H35V0Z" fill="white"/>
</mask>
<g mask="url(#mask0_4508_1225)">
<path fill-rule="evenodd" clip-rule="evenodd" d="M10.3893 32.5443C10.212 32.4189 9.96772 32.453 9.81913 32.6114C7.83323 34.7296 2.75079 36.2153 2.51799 33.3243C2.51799 31.0593 2.00924 29.1506 1.44912 27.0492C0.763105 24.4754 0 21.6123 0 17.4512C0 7.52866 8.13776 0.0664062 17.7865 0.0664062C27.4351 0.0664062 35 7.89301 35 17.5475C35 27.2021 27.1943 34.8361 17.8777 34.8361C14.5724 34.8361 12.9685 34.3705 10.3893 32.5443ZM18.057 8.66978C13.4781 8.42966 9.90484 11.607 9.11689 16.58C8.46437 20.6982 9.62127 25.7164 10.6108 25.9689C11.0306 26.0762 12.0406 25.3035 12.7754 24.6105C12.9136 24.4803 13.1225 24.4585 13.2845 24.5575C14.43 25.2579 15.7269 25.7843 17.1567 25.8593C21.8575 26.1057 26.0234 22.4267 26.2696 17.7255C26.5158 13.0243 22.7579 8.9163 18.057 8.66978Z" fill="black"/>
</g>
</g>
<defs>
<clipPath id="clip0_4508_1225">
<rect width="35" height="35" fill="white"/>
</clipPath>
</defs>
</svg>
