<svg width="387" height="118" viewBox="0 0 387 118" fill="none" xmlns="http://www.w3.org/2000/svg">
<path d="M340.427 69.1257C340.427 67.0978 340.041 65.5574 339.261 64.4975C338.474 63.4447 337.365 62.9148 335.925 62.9148C334.485 62.9148 333.382 63.4376 332.603 64.4763C331.823 65.5221 331.43 67.0483 331.423 69.055V69.9948C331.423 71.9732 331.809 73.5065 332.596 74.5946C333.375 75.6899 334.492 76.2339 335.96 76.2339C337.428 76.2339 338.495 75.7111 339.268 74.6582C340.034 73.6125 340.427 72.0792 340.434 70.0725V69.1257H340.427ZM344.76 70.0018C344.76 71.9026 344.395 73.5701 343.679 75.0045C342.955 76.4388 341.923 77.5482 340.581 78.3254C339.233 79.1027 337.688 79.4913 335.953 79.4913C334.218 79.4913 332.694 79.1027 331.345 78.3325C329.99 77.5623 328.943 76.46 328.206 75.0327C327.468 73.6054 327.089 71.9591 327.082 70.1008V69.1469C327.082 67.2461 327.447 65.5645 328.185 64.116C328.922 62.6675 329.962 61.5581 331.303 60.7879C332.652 60.0107 334.19 59.6221 335.918 59.6221C337.646 59.6221 339.184 60.0107 340.532 60.7879C341.874 61.5652 342.92 62.6745 343.651 64.116C344.388 65.5645 344.76 67.2391 344.76 69.1327V69.9948V70.0018ZM325.902 63.1338H319.539V79.2228H315.261V63.1338H308.989V59.8976H325.902V63.1338ZM303.665 69.1257C303.665 67.0978 303.279 65.5574 302.499 64.4975C301.72 63.4447 300.603 62.9148 299.163 62.9148C297.723 62.9148 296.621 63.4376 295.841 64.4763C295.061 65.5221 294.668 67.0483 294.661 69.055V69.9948C294.661 71.9732 295.047 73.5065 295.834 74.5946C296.614 75.6899 297.73 76.2339 299.198 76.2339C300.666 76.2339 301.734 75.7111 302.507 74.6582C303.272 73.6125 303.665 72.0792 303.672 70.0725V69.1257H303.665ZM307.999 70.0018C307.999 71.9026 307.634 73.5701 306.917 75.0045C306.194 76.4388 305.161 77.5482 303.82 78.3254C302.471 79.1027 300.926 79.4913 299.191 79.4913C297.457 79.4913 295.932 79.1027 294.584 78.3325C293.228 77.5623 292.182 76.46 291.444 75.0327C290.707 73.6054 290.328 71.9591 290.321 70.1008V69.1469C290.321 67.2461 290.686 65.5645 291.423 64.116C292.161 62.6675 293.2 61.5581 294.542 60.7879C295.89 60.0107 297.428 59.6221 299.156 59.6221C300.884 59.6221 302.422 60.0107 303.771 60.7879C305.112 61.5652 306.159 62.6745 306.889 64.116C307.627 65.5645 307.999 67.2391 307.999 69.1327V69.9948V70.0018ZM276.927 70.0654V76.0149H280.34C281.429 76.0149 282.3 75.7323 282.953 75.174C283.606 74.6158 283.929 73.8669 283.929 72.9342C283.929 72.058 283.62 71.3585 282.995 70.8568C282.37 70.3481 281.52 70.0796 280.438 70.0654H276.927ZM286.198 63.1338H276.927V66.8575H280.263C282.707 66.8575 284.646 67.4087 286.071 68.5109C287.504 69.6132 288.221 71.097 288.221 72.9695C288.221 74.8419 287.511 76.354 286.085 77.4916C284.667 78.6293 282.777 79.2087 280.417 79.2299H272.607V59.9047H286.198V63.1409V63.1338ZM265.204 69.1257C265.204 67.0978 264.818 65.5574 264.038 64.4975C263.252 63.4447 262.149 62.9148 260.702 62.9148C259.255 62.9148 258.16 63.4376 257.38 64.4763C256.6 65.5221 256.207 67.0483 256.2 69.055V69.9948C256.2 71.9732 256.586 73.5065 257.373 74.5946C258.153 75.6899 259.269 76.2339 260.737 76.2339C262.205 76.2339 263.273 75.7111 264.045 74.6582C264.818 73.6125 265.204 72.0792 265.211 70.0725V69.1257H265.204ZM269.538 70.0018C269.538 71.9026 269.173 73.5701 268.449 75.0045C267.726 76.4388 266.693 77.5482 265.352 78.3254C264.003 79.1027 262.458 79.4913 260.723 79.4913C258.988 79.4913 257.464 79.1027 256.123 78.3325C254.767 77.5623 253.721 76.46 252.983 75.0327C252.246 73.6054 251.866 71.9591 251.859 70.1008V69.1469C251.859 67.2461 252.225 65.5645 252.962 64.116C253.7 62.6675 254.739 61.5581 256.081 60.7879C257.429 60.0107 258.967 59.6221 260.695 59.6221C262.423 59.6221 263.961 60.0107 265.31 60.7879C266.651 61.5652 267.698 62.6745 268.428 64.116C269.166 65.5645 269.538 67.2391 269.538 69.1327V69.9948V70.0018Z" fill="#20154C"/>
<path d="M378.578 88.9172H382.862V108.242H378.578V95.4108L370.262 108.242H365.992V88.9172H370.262V101.777L378.578 88.9172ZM354.037 100.364H351.572V108.249H347.295V88.9243H351.572V96.6685H353.525L358.603 88.9243H363.821L357.423 98.0817L364.496 108.249H359.389L354.037 100.364ZM339.274 88.9172H343.558V108.242H339.274V95.4108L330.958 108.242H326.688V88.9172H330.958V101.777L339.274 88.9172ZM323.092 108.242H318.814V99.9541H310.47V108.242H306.193V88.9172H310.47V96.7462H318.814V88.9172H323.092V108.242ZM295.067 95.5803L298.958 88.9172H303.882L297.835 98.4985L304.036 108.242H299.064L295.067 101.473L291.078 108.242H286.105L292.307 98.4985L286.26 88.9172H291.176L295.067 95.5803ZM283.703 99.8411H275.493V105.034H285.129V108.242H271.215V88.9172H285.101V92.1534H275.493V96.7462H283.703V99.8411ZM268.778 92.1463H262.415V108.235H258.137V92.1463H251.865V88.9102H268.778V92.1463Z" fill="#20154C"/>
<path fill-rule="evenodd" clip-rule="evenodd" d="M241.753 40.5015H251.923C254.922 40.5015 257.219 39.7455 258.785 38.2404C260.372 36.7213 261.152 34.5944 261.152 31.8317C261.152 28.8146 260.337 26.398 258.722 24.5962C257.106 22.7733 254.887 21.8618 252.099 21.8335H241.753V40.5015ZM226.245 74.559H241.753V52.5206H251.649C259.494 52.5206 265.647 50.641 270.142 46.8608C274.637 43.0806 276.885 38.0426 276.885 31.7469C276.885 27.4791 275.845 23.6706 273.78 20.3214C271.701 16.951 268.773 14.3719 264.987 12.5489C261.201 10.7259 256.84 9.81445 251.923 9.81445H226.245V74.559ZM162.646 74.559H178.154L201.269 33.7324V74.559H216.791V9.81445H201.269L178.154 50.6834V9.81445H162.646V74.559ZM84.1855 74.559H99.7077V59.4451L98.1976 28.4542L113.797 74.559H124.058L139.609 28.4966L138.113 59.438V74.5519H153.67V9.81445H133.245L118.931 54.8594L104.568 9.81445H84.1855V74.559Z" fill="#20154C"/>
<path d="M18.4711 9.75781H4.12891V23.2183H18.4711V9.75781Z" fill="#20154C"/>
<path d="M56.3363 9.75781H41.9941V23.2183H56.3363V9.75781Z" fill="#20154C"/>
<path d="M56.3637 26.5186H42.0215V39.979H56.3637V26.5186Z" fill="#20154C"/>
<path d="M56.35 43.2783H42.0078V56.7388H56.35V43.2783Z" fill="#20154C"/>
<path d="M75.6644 9.75781H61.3223V23.2183H75.6644V9.75781Z" fill="#20154C"/>
<path opacity="0.1" d="M75.6644 9.75781H61.3223V23.2183H75.6644V9.75781Z" fill="white"/>
<path d="M75.6644 26.5537H61.3223V40.0142H75.6644V26.5537Z" fill="#20154C"/>
<path d="M75.6644 43.2783H61.3223V56.7388H75.6644V43.2783Z" fill="#20154C"/>
<path d="M37.1195 9.77246H22.7773V23.2329H37.1195V9.77246Z" fill="#20154C"/>
<path d="M37.1273 26.5186H22.7852V39.979H37.1273V26.5186Z" fill="#20154C"/>
<path d="M75.6586 60.0391H61.3164V73.4995H75.6586V60.0391Z" fill="#20154C"/>
<path opacity="0.1" d="M75.6644 26.5186H61.3223V39.979H75.6644V26.5186Z" fill="white"/>
<path opacity="0.1" d="M75.6644 43.2783H61.3223V56.7388H75.6644V43.2783Z" fill="white"/>
<path opacity="0.1" d="M75.6644 60.0391H61.3223V73.4995H75.6644V60.0391Z" fill="white"/>
<path opacity="0.2" d="M56.35 9.75781H42.0078V23.2183H56.35V9.75781Z" fill="white"/>
<path opacity="0.2" d="M56.35 26.5186H42.0078V39.979H56.35V26.5186Z" fill="white"/>
<path opacity="0.2" d="M56.35 43.2783H42.0078V56.7388H56.35V43.2783Z" fill="white"/>
<path opacity="0.3" d="M37.1273 9.75781H22.7852V23.2183H37.1273V9.75781Z" fill="white"/>
<path opacity="0.3" d="M37.1273 26.5186H22.7852V39.979H37.1273V26.5186Z" fill="white"/>
<path opacity="0.5" d="M18.4867 9.75781H4.14453V23.2183H18.4867V9.75781Z" fill="white"/>
</svg>
