<svg width="387" height="85" viewBox="0 0 387 85" fill="none" xmlns="http://www.w3.org/2000/svg">
<path d="M30.2121 27.8457H12.6387V75.7222H30.2121V27.8457Z" fill="#282250"/>
<path d="M30.2112 16.3497C30.2112 21.0913 26.31 24.9368 21.4998 24.9368C16.6896 24.9368 12.7832 21.0964 12.7832 16.3497C12.7832 11.6082 16.6844 7.7627 21.4998 7.7627C26.3152 7.7627 30.2112 11.6082 30.2112 16.3497Z" fill="#282250"/>
<path d="M67.2298 8.70508H55.3185C55.3341 9.59092 55.3393 10.9018 55.3185 12.4942C55.277 15.2849 55.1419 18.5722 54.9861 20.0725C54.3575 26.2274 50.4564 31.4298 49.6927 32.418C45.0851 38.3936 39.1476 40.7439 36.623 41.5734V53.0228C39.8957 52.3521 45.2929 50.8108 50.8459 46.9704C51.355 46.6171 60.6067 40.0322 64.9078 28.8183C65.3494 27.6611 66.0558 25.8177 66.5597 23.2575C67.1415 20.2978 67.1779 17.4816 67.2194 11.9719C67.2402 10.5894 67.235 9.44755 67.2298 8.70508Z" fill="#282250"/>
<path d="M35.6816 54.1692V40.9071L36.3258 40.692C39.8737 39.5195 44.9437 37.036 48.9435 31.8541C49.9928 30.492 53.4733 25.6122 54.0499 19.9797C54.1953 18.5664 54.3356 15.3405 54.3771 12.4833C54.3979 10.9062 54.3927 9.60047 54.3771 8.71975L54.3615 7.77246H68.1689L68.1792 8.69415C68.1844 9.44174 68.1896 10.5836 68.1792 11.9815C68.1377 17.3631 68.1117 20.3279 67.4988 23.436C66.9793 26.0782 66.2416 27.9984 65.8001 29.1454C61.3587 40.733 51.8058 47.4511 51.4006 47.7327C47.0267 50.7589 42.123 52.8429 36.8245 53.9336L35.6816 54.1692ZM37.5725 42.2384V51.8598C42.1801 50.7691 46.4605 48.8695 50.3097 46.2119C50.6941 45.9457 59.7899 39.5502 64.0287 28.4951C64.4755 27.3327 65.1508 25.5713 65.6391 23.0878C66.1949 20.2664 66.2365 17.6396 66.2832 11.9764C66.2884 11.0803 66.2936 10.2917 66.2884 9.64656H56.2732C56.2784 10.4351 56.2783 11.408 56.2628 12.5191C56.2212 15.4737 56.081 18.6944 55.9251 20.1794C55.2966 26.2984 51.572 31.5366 50.4448 32.996C46.393 38.2342 41.323 40.902 37.5725 42.2384Z" fill="#282250"/>
<path d="M95.3695 7.7627H76.7883C76.8091 9.12474 76.8247 11.1473 76.7883 13.6052C76.726 17.9012 76.513 22.9756 76.2741 25.285C75.2923 34.7732 69.2042 42.7919 68.0146 44.3127C60.8252 53.5193 51.5632 57.1446 47.6309 58.4299V76.075C52.732 75.0407 61.1525 72.6699 69.8223 66.7455C70.6223 66.2028 85.0478 56.054 91.7541 38.7672C92.4449 36.9853 93.5462 34.1434 94.3358 30.1955C95.2448 25.6281 95.2968 21.291 95.3695 12.8012C95.3903 10.6609 95.3799 8.90456 95.3695 7.7627Z" fill="#93191D"/>
<path d="M103.348 66.8838C103.348 71.7637 99.3324 75.7218 94.382 75.7218C89.4315 75.7218 85.416 71.7637 85.416 66.8838C85.416 62.004 89.4315 58.0459 94.382 58.0459C99.3324 58.0459 103.348 62.004 103.348 66.8838Z" fill="#93191D"/>
<path d="M340.726 9.78017L344.17 17.4762H337.329L340.726 9.78017ZM346.378 22.4226H349.635L342.638 7.7627H338.768L331.771 22.4226H335.142L336.425 19.4937H345.064L346.378 22.4226ZM330.358 22.4226V17.3892C330.358 15.213 329.319 14.1787 326.399 14.1787H321.07L330.29 7.76782H326.711L316.701 14.8648V7.7627H313.646V22.4226H316.701V16.1244H324.867C326.643 16.1244 327.298 16.7031 327.298 18.0293V22.4226H330.358ZM311.21 22.4226V7.7627H308.109L297.761 19.1814V7.7627H294.681V22.4226H297.782L308.13 11.0244V22.4226H311.21ZM292.245 22.4226V7.7627H289.164V14.0148H278.796V7.7627H275.715V22.4226H278.796V16.104H289.164V22.4226H292.245ZM273.98 7.7627H270.401L265.207 13.175L260.126 7.7627H256.433L263.316 15.1208L256.23 22.4175H260.1L265.253 16.9437L270.422 22.4175H274.115L267.118 14.9672L273.98 7.7627ZM254.796 22.4226V20.3335H241.971V16.0579H249.773V14.0865H241.971V9.85185H254.796V7.76782H238.896V22.4278H254.796V22.4226ZM231.015 22.4226V9.85185H237.067V7.76782H221.842V9.85185H227.956V22.4226H231.015ZM217.634 18.316C217.634 19.9546 216.896 20.3335 214.6 20.3335H209.271C206.933 20.3335 206.253 19.9392 206.253 18.316V11.8847C206.253 10.2 207.016 9.84673 209.271 9.84673H214.6C216.896 9.84673 217.634 10.2256 217.634 11.8847V18.316ZM215.38 22.4226C219.322 22.4226 220.668 21.844 220.668 18.9202V11.2702C220.668 8.34131 219.322 7.7627 215.38 7.7627H208.429C204.538 7.7627 203.188 8.34131 203.188 11.2702V18.9202C203.188 21.8235 204.497 22.4226 208.429 22.4226H215.38ZM195.926 22.4226V9.85185H201.977V7.76782H186.752V9.85185H192.866V22.4226H195.926ZM182.544 18.316C182.544 19.9546 181.807 20.3335 179.511 20.3335H174.176C171.838 20.3335 171.158 19.9392 171.158 18.316V11.8847C171.158 10.2 171.921 9.84673 174.176 9.84673H179.505C181.802 9.84673 182.539 10.2256 182.539 11.8847V18.316H182.544ZM180.29 22.4226C184.233 22.4226 185.578 21.844 185.578 18.9202V11.2702C185.578 8.34131 184.233 7.7627 180.29 7.7627H173.345C169.454 7.7627 168.103 8.34131 168.103 11.2702V18.9202C168.103 21.8235 169.412 22.4226 173.345 22.4226H180.29ZM149.818 7.7627V22.4226H160.997C164.976 22.4226 166.285 21.8235 166.285 18.9202V16.3446C166.285 13.4208 164.914 12.8422 160.997 12.8422H152.899V7.7627H149.818ZM163.22 18.316C163.22 19.9136 162.545 20.3335 160.452 20.3335H152.893V14.8853H160.452C162.545 14.8853 163.22 15.2642 163.22 16.9232V18.316ZM149.818 7.7627L152.852 9.84673H162.207V7.7627H149.818ZM144.463 18.316C144.463 19.9546 143.725 20.3335 141.429 20.3335H136.099C133.762 20.3335 133.081 19.9392 133.081 18.316V11.8847C133.081 10.2 133.845 9.84673 136.099 9.84673H141.429C143.725 9.84673 144.463 10.2256 144.463 11.8847V18.316ZM142.213 22.4226C146.156 22.4226 147.501 21.844 147.501 18.9202V11.2702C147.501 8.34131 146.156 7.7627 142.213 7.7627H135.263C131.372 7.7627 130.021 8.34131 130.021 11.2702V18.9202C130.021 21.8235 131.33 22.4226 135.263 22.4226H142.213ZM125.144 13.1494C125.144 14.788 124.468 15.1925 122.375 15.1925H114.817V9.85185H122.375C124.468 9.85185 125.144 10.2717 125.144 11.8693V13.1494ZM122.915 17.21C126.832 17.21 128.203 16.6314 128.203 13.7076V11.2702C128.203 8.36179 126.894 7.7627 122.915 7.7627H111.736V22.4226H114.817V17.21H122.915Z" fill="#1D1D1B"/>
<path d="M380.117 49.0291V34.3743H377.036V40.6264H366.668V34.3743H363.588V49.0342H366.668V42.7155H377.036V49.0342H380.117V49.0291ZM361.151 49.0291V34.3743H358.05L347.702 45.7929V34.3743H344.622V49.0342H347.723L358.071 37.636V49.0342H361.151V49.0291ZM342.186 49.0291V34.3743H339.194V46.945H333.75V34.3743H330.919V46.945H325.475V34.3743H322.467V49.0342H342.186V49.0291ZM311.958 36.3917L315.402 44.0878H308.561L311.958 36.3917ZM317.605 49.0291H320.862L313.865 34.3691H309.995L303.003 49.0291H306.374L307.657 46.1002H316.296L317.605 49.0291ZM301.387 49.0291V34.3743H298.146L291.486 46.0592L284.873 34.3743H281.414V49.0342H284.219V38.2505L290.006 49.0291H292.774L298.556 38.2505V49.0291H301.387ZM266.63 49.0291V36.4583H272.682V34.3691H257.456V36.4583H263.57V49.0291H266.63ZM256.308 49.0291V43.9956C256.308 41.8194 255.269 40.7851 252.35 40.7851H247.02L256.241 34.3743H252.661L242.651 41.4712V34.3743H239.597V49.0342H242.651V42.736H250.823C252.599 42.736 253.254 43.3146 253.254 44.6408V49.0342H256.308V49.0291ZM237.504 49.0291V46.9399H224.683V42.6643H232.486V40.6929H224.683V36.4583H237.504V34.3691H221.603V49.0291H237.504ZM204.933 37.9432C204.933 46.1872 204.46 46.945 202.362 46.945H201.977V49.0342H202.788C206.637 49.0342 207.629 47.5083 207.629 37.6155V36.4583H216.086V49.0291H219.146V34.3743H204.933V37.9432ZM186.17 37.9432C186.17 46.1872 185.697 46.945 183.599 46.945H183.214V49.0342H184.025C187.874 49.0342 188.866 47.5083 188.866 37.6155V36.4583H197.323V49.0291H200.383V34.3743H186.17V37.9432ZM181.989 49.0291V46.9399H169.163V42.6643H176.97V40.6929H169.163V36.4583H181.989V34.3691H166.088V49.0291H181.989ZM158.213 49.0291V36.4583H164.264V34.3691H149.034V36.4583H155.148V49.0291H158.213ZM147.231 49.0291V34.3743H144.151V40.6264H133.782V34.3743H130.702V49.0342H133.782V42.7155H144.151V49.0342H147.231V49.0291ZM128.266 49.0291V34.3743H125.164L114.817 45.7929V34.3743H111.736V49.0342H114.838L125.185 37.636V49.0342H128.266V49.0291Z" fill="#93191D"/>
<path d="M326.223 69.2542C327.308 69.2542 327.869 69.6485 327.869 70.9388V71.625C327.869 73.2021 327.121 73.5554 325.163 73.5554H317.428V69.2542H326.223ZM317.428 67.3238V63.0686H325.163C327.147 63.0686 327.797 63.4629 327.797 65.0196V65.7313C327.797 66.8885 327.303 67.3289 326.223 67.3289H317.428V67.3238ZM330.877 70.693C330.877 69.034 330.051 68.4298 329.241 68.2352C330.025 68.0099 330.773 67.3699 330.773 65.931V64.4921C330.773 61.6247 329.511 60.9846 325.594 60.9846H314.353V75.6446H325.594C329.49 75.6446 330.882 75.0455 330.882 72.1421V70.693H330.877ZM308.992 71.5328C308.992 73.1714 308.254 73.5503 305.958 73.5503H300.629C298.291 73.5503 297.611 73.156 297.611 71.5328V65.1015C297.611 63.4168 298.374 63.0635 300.629 63.0635H305.958C308.254 63.0635 308.992 63.4424 308.992 65.1015V71.5328ZM306.743 75.6394C310.686 75.6394 312.031 75.0608 312.031 72.137V64.487C312.031 61.5581 310.686 60.9795 306.743 60.9795H299.792C295.902 60.9795 294.551 61.5581 294.551 64.487V72.137C294.551 75.0403 295.86 75.6394 299.792 75.6394H306.743ZM292.193 75.6394V60.9795H288.951L282.292 72.6644L275.679 60.9795H272.214V75.6394H275.019V64.8608L280.801 75.6394H283.57L289.351 64.8608V75.6394H292.193ZM269.876 70.7187C269.876 69.0545 269.04 68.4298 268.256 68.2557C269.019 68.0355 269.762 67.3955 269.762 65.931V64.4921C269.762 61.6247 268.505 60.9846 264.594 60.9846H254.038V63.0738H264.162C266.136 63.0738 266.796 63.468 266.796 65.0247V65.7159C266.796 66.8424 266.318 67.3289 265.222 67.3289H259.279V69.2593H265.284C266.297 69.2593 266.858 69.6126 266.858 70.9696V71.6301C266.858 73.1662 266.162 73.5605 264.204 73.5605H254.033V75.6446H264.588C268.479 75.6446 269.876 75.0455 269.876 72.1421V70.7187ZM250.978 75.6394V60.9795H247.877L237.53 72.3982V60.9795H234.449V75.6394H237.55L247.898 64.2412V75.6394H250.978ZM232.013 75.6394V60.9795H228.932V67.2316H218.564V60.9795H215.484V75.6394H218.564V69.3208H228.932V75.6394H232.013ZM204.975 62.997L208.419 70.693H201.577L204.975 62.997ZM210.627 75.6394H213.884L206.886 60.9795H203.016L196.019 75.6394H199.391L200.674 72.7105H209.312L210.627 75.6394ZM195.126 60.9795H191.547L186.352 66.3918L181.272 60.9795H177.578L184.456 68.3376L177.37 75.6343H181.24L186.394 70.1605L191.562 75.6343H195.256L188.258 68.184L195.126 60.9795ZM175.937 75.6394V73.5554H163.111V69.2798H170.919V67.3084H163.111V63.0738H175.937V60.9846H160.031V75.6446H175.937V75.6394ZM157.579 75.6394V60.9795H154.337L147.678 72.6644L141.065 60.9795H137.6V75.6394H140.405V64.8608L146.187 75.6394H148.956L154.737 64.8608V75.6394H157.579ZM128.266 75.6394V60.9795H125.164L114.817 72.3982V60.9795H111.736V75.6394H114.838L125.185 64.2412V75.6394H128.266Z" fill="#93191D"/>
</svg>
