<svg width="200" height="73" viewBox="0 0 200 73" fill="none" xmlns="http://www.w3.org/2000/svg">
<path d="M92.8004 29.4002H82.9004L81.0004 34.0002H75.9004L85.4004 12.7002H90.3004L99.8004 34.0002H94.6004L92.8004 29.4002ZM91.2004 25.7002L87.8004 17.5002L84.4004 25.7002H91.2004Z" fill="#012C94"/>
<path d="M122.801 12.7002V34.0002H117.901V25.3002H108.201V34.0002H103.301V12.7002H108.201V21.1002H117.901V12.7002H122.801Z" fill="#012C94"/>
<path d="M133.001 32.8998C131.201 31.8998 129.801 30.5998 128.801 28.9998C127.801 27.2998 127.301 25.3998 127.301 23.2998C127.301 21.1998 127.801 19.2998 128.801 17.5998C129.801 15.8998 131.201 14.5998 133.001 13.6998C134.801 12.6998 136.801 12.2998 139.001 12.2998C141.201 12.2998 143.201 12.7998 145.001 13.6998C146.801 14.6998 148.201 15.9998 149.201 17.5998C150.201 19.2998 150.701 21.1998 150.701 23.2998C150.701 25.3998 150.201 27.2998 149.201 28.9998C148.201 30.6998 146.801 31.9998 145.001 32.8998C143.201 33.8998 141.201 34.2998 139.001 34.2998C136.701 34.3998 134.701 33.8998 133.001 32.8998ZM142.301 29.2998C143.301 28.6998 144.101 27.8998 144.701 26.8998C145.301 25.8998 145.601 24.6998 145.601 23.3998C145.601 22.0998 145.301 20.8998 144.701 19.8998C144.101 18.8998 143.301 18.0998 142.301 17.4998C141.301 16.8998 140.101 16.5998 138.901 16.5998C137.601 16.5998 136.501 16.8998 135.501 17.4998C134.501 18.0998 133.701 18.8998 133.101 19.8998C132.501 20.8998 132.201 22.0998 132.201 23.3998C132.201 24.6998 132.501 25.8998 133.101 26.8998C133.701 27.8998 134.501 28.6998 135.501 29.2998C136.501 29.8998 137.701 30.1998 138.901 30.1998C140.201 30.1998 141.301 29.8998 142.301 29.2998Z" fill="#012C94"/>
<path d="M92.8004 57.3996H82.9004L81.0004 61.8996H75.9004L85.4004 40.5996H90.3004L99.8004 61.8996H94.6004L92.8004 57.3996ZM91.2004 53.5996L87.8004 45.3996L84.4004 53.5996H91.2004Z" fill="#012C94"/>
<path d="M122.701 40.5996V61.8996H117.801V44.5996H108.201V61.8996H103.301V40.5996H122.701Z" fill="#012C94"/>
<path d="M136.9 53.2996H133.5V61.8996H128.6V40.5996H133.5V49.1996H137L142.6 40.5996H147.8L140.8 50.8996L148 61.8996H142.4L136.9 53.2996Z" fill="#012C94"/>
<path d="M150.9 45.5H155.6V55.2L163.6 45.5H168V61.9H163.3V52.2L155.4 61.9H151V45.5H150.9Z" fill="#012C94"/>
<path d="M177.7 60.8998C175.9 59.9998 174.6 58.5998 173.6 56.9998C172.6 55.2998 172.1 53.3998 172.1 51.2998C172.1 49.1998 172.6 47.2998 173.6 45.5998C174.6 43.8998 176 42.5998 177.7 41.6998C179.5 40.7998 181.4 40.2998 183.6 40.2998C185.4 40.2998 187.1 40.5998 188.6 41.2998C190.1 41.9998 191.3 42.8998 192.4 44.0998L189.2 46.9998C187.8 45.2998 186 44.4998 183.8 44.4998C182.5 44.4998 181.3 44.7998 180.3 45.3998C179.3 45.9998 178.5 46.7998 177.9 47.7998C177.3 48.7998 177 49.9998 177 51.2998C177 52.5998 177.3 53.7998 177.9 54.7998C178.5 55.7998 179.3 56.5998 180.3 57.1998C181.3 57.7998 182.5 58.0998 183.8 58.0998C185.9 58.0998 187.7 57.2998 189.2 55.5998L192.4 58.4998C191.4 59.6998 190.1 60.6998 188.6 61.2998C187.1 61.9998 185.4 62.2998 183.6 62.2998C181.4 62.2998 179.5 61.7998 177.7 60.8998Z" fill="#012C94"/>
<path d="M37.0996 67.6998H33.5996L44.5996 35.9998H23.0996L33.6996 5.2998H37.2996L27.7996 32.5998H49.2996L37.0996 67.6998Z" fill="#012C94"/>
<path d="M21.0996 10.2998L18.5996 17.6998" stroke="#012C94" stroke-width="0.8364" stroke-miterlimit="10" stroke-linecap="round" stroke-linejoin="round"/>
<path d="M16.8988 21.5L12.2988 34.3H18.0988L27.6988 7" stroke="#012C94" stroke-width="0.8364" stroke-miterlimit="10" stroke-linecap="round" stroke-linejoin="round"/>
<path d="M7.59961 40.7998H37.2996L32.2996 55.2998H25.3996L28.5996 46.1998" stroke="#012C94" stroke-width="0.8364" stroke-miterlimit="10" stroke-linecap="round" stroke-linejoin="round"/>
<path d="M12.2988 52.6996L14.5988 46.5996H21.7988L17.2988 59.0996" stroke="#012C94" stroke-width="0.8364" stroke-miterlimit="10" stroke-linecap="round" stroke-linejoin="round"/>
<path d="M19.9004 61H30.9004L29.4004 66" stroke="#012C94" stroke-width="0.8364" stroke-miterlimit="10" stroke-linecap="round" stroke-linejoin="round"/>
<path d="M42.7988 67.7L45.0988 61H58.6988" stroke="#012C94" stroke-width="0.8364" stroke-miterlimit="10" stroke-linecap="round" stroke-linejoin="round"/>
<path d="M64.2992 55.2998H59.6992" stroke="#012C94" stroke-width="0.8364" stroke-miterlimit="10" stroke-linecap="round" stroke-linejoin="round"/>
<path d="M55.7992 55.2998H46.8992L56.9992 27.8998H49.1992L52.5992 17.6998H45.4992L41.9992 27.6998H34.6992L42.7992 5.2998" stroke="#012C94" stroke-width="0.8364" stroke-miterlimit="10" stroke-linecap="round" stroke-linejoin="round"/>
<path d="M49.3992 7L47.6992 12H58.6992" stroke="#012C94" stroke-width="0.8364" stroke-miterlimit="10" stroke-linecap="round" stroke-linejoin="round"/>
<path d="M61.0992 14L58.6992 20.6H65.9992L63.4992 27.7" stroke="#012C94" stroke-width="0.8364" stroke-miterlimit="10" stroke-linecap="round" stroke-linejoin="round"/>
<path d="M61.9992 32.8998L56.1992 49.9998H63.0992L69.9992 30.2998" stroke="#012C94" stroke-width="0.8364" stroke-miterlimit="10" stroke-linecap="round" stroke-linejoin="round"/>
<path d="M17.0004 22.7996C17.884 22.7996 18.6004 22.0833 18.6004 21.1996C18.6004 20.316 17.884 19.5996 17.0004 19.5996C16.1167 19.5996 15.4004 20.316 15.4004 21.1996C15.4004 22.0833 16.1167 22.7996 17.0004 22.7996Z" fill="#012C94"/>
<path d="M28.7992 47.2996C29.6829 47.2996 30.3992 46.5833 30.3992 45.6996C30.3992 44.816 29.6829 44.0996 28.7992 44.0996C27.9156 44.0996 27.1992 44.816 27.1992 45.6996C27.1992 46.5833 27.9156 47.2996 28.7992 47.2996Z" fill="#012C94"/>
<path d="M55.6996 56.9002C56.5833 56.9002 57.2996 56.1838 57.2996 55.3002C57.2996 54.4165 56.5833 53.7002 55.6996 53.7002C54.816 53.7002 54.0996 54.4165 54.0996 55.3002C54.0996 56.1838 54.816 56.9002 55.6996 56.9002Z" fill="#012C94"/>
<path d="M61.7992 34.9002C62.6829 34.9002 63.3992 34.1838 63.3992 33.3002C63.3992 32.4165 62.6829 31.7002 61.7992 31.7002C60.9156 31.7002 60.1992 32.4165 60.1992 33.3002C60.1992 34.1838 60.9156 34.9002 61.7992 34.9002Z" fill="#012C94"/>
</svg>
