<svg width="285" height="167" viewBox="0 0 285 167" fill="none" xmlns="http://www.w3.org/2000/svg">
<path d="M10.0364 128.15H5.92886V138.183H0.0488281V113.262H5.92886V123.329H10.1727L16.9901 113.262H23.2281L14.8597 125.288L23.4837 138.183H16.7686L10.0364 128.15Z" fill="url(#paint0_linear_4518_1073)"/>
<path d="M31.0505 136.94C28.9882 135.89 27.2545 134.293 26.0397 132.324C24.8566 130.325 24.2324 128.045 24.2324 125.723C24.2324 123.4 24.8566 121.121 26.0397 119.122C27.2545 117.153 28.9882 115.556 31.0505 114.506C33.2797 113.407 35.732 112.836 38.2174 112.836C40.7028 112.836 43.155 113.407 45.3842 114.506C47.4466 115.556 49.1803 117.153 50.3951 119.122C51.5887 121.117 52.2191 123.398 52.2191 125.723C52.2191 128.047 51.5887 130.329 50.3951 132.324C49.1803 134.293 47.4466 135.89 45.3842 136.94C43.155 138.039 40.7028 138.61 38.2174 138.61C35.732 138.61 33.2797 138.039 31.0505 136.94ZM42.3164 132.682C43.5198 132.024 44.5168 131.045 45.1967 129.854C45.8785 128.584 46.2353 127.164 46.2353 125.723C46.2353 124.281 45.8785 122.862 45.1967 121.592C44.5219 120.397 43.5235 119.417 42.3164 118.764C41.0574 118.093 39.6527 117.742 38.2259 117.742C36.7991 117.742 35.3943 118.093 34.1355 118.764C32.9294 119.413 31.9356 120.394 31.2721 121.592C30.5904 122.862 30.2336 124.281 30.2336 125.723C30.2336 127.164 30.5904 128.584 31.2721 129.854C31.9408 131.047 32.9335 132.028 34.1355 132.682C35.3943 133.353 36.7991 133.704 38.2259 133.704C39.6527 133.704 41.0574 133.353 42.3164 132.682Z" fill="url(#paint1_linear_4518_1073)"/>
<path d="M80.3068 113.262V138.183H74.3926V127.963H62.7689V138.183H56.8379V113.262H62.7689V123.091H74.3926V113.262H80.3068Z" fill="url(#paint2_linear_4518_1073)"/>
<path d="M91.7259 136.957C89.6621 135.894 87.9311 134.283 86.7227 132.301C85.5141 130.32 84.875 128.044 84.875 125.723C84.875 123.402 85.5141 121.126 86.7227 119.145C87.9311 117.163 89.6621 115.552 91.7259 114.489C93.7572 113.495 95.9738 112.936 98.2337 112.848C100.494 112.76 102.747 113.145 104.849 113.978C106.623 114.684 108.201 115.806 109.451 117.248L105.65 120.655C104.861 119.72 103.873 118.973 102.759 118.466C101.645 117.96 100.432 117.706 99.208 117.725C97.7344 117.695 96.278 118.047 94.9811 118.747C93.7608 119.394 92.7501 120.375 92.0668 121.575C91.3849 122.845 91.0281 124.264 91.0281 125.706C91.0281 127.148 91.3849 128.567 92.0668 129.837C92.7544 131.033 93.7641 132.013 94.9811 132.665C96.278 133.365 97.7344 133.717 99.208 133.687C100.435 133.703 101.65 133.445 102.764 132.932C103.879 132.419 104.865 131.665 105.65 130.723L109.451 134.13C108.229 135.581 106.673 136.714 104.918 137.434C103.004 138.217 100.952 138.606 98.8842 138.576C96.4008 138.638 93.9408 138.082 91.7259 136.957Z" fill="url(#paint3_linear_4518_1073)"/>
<path d="M117.719 136.94C115.653 135.895 113.918 134.296 112.708 132.324C111.525 130.325 110.9 128.045 110.9 125.723C110.9 123.4 111.525 121.121 112.708 119.122C113.918 117.149 115.653 115.551 117.719 114.506C119.948 113.407 122.4 112.836 124.885 112.836C127.371 112.836 129.823 113.407 132.052 114.506C134.111 115.561 135.843 117.157 137.063 119.122C138.257 121.117 138.887 123.398 138.887 125.723C138.887 128.047 138.257 130.329 137.063 132.324C135.843 134.289 134.111 135.885 132.052 136.94C129.823 138.039 127.371 138.61 124.885 138.61C122.4 138.61 119.948 138.039 117.719 136.94ZM128.984 132.682C130.186 132.028 131.179 131.047 131.848 129.854C132.541 128.587 132.905 127.167 132.905 125.723C132.905 124.279 132.541 122.858 131.848 121.592C131.184 120.394 130.19 119.413 128.984 118.764C127.726 118.093 126.321 117.742 124.894 117.742C123.467 117.742 122.062 118.093 120.803 118.764C119.596 119.417 118.598 120.397 117.923 121.592C117.241 122.862 116.884 124.281 116.884 125.723C116.884 127.164 117.241 128.584 117.923 129.854C118.603 131.045 119.6 132.024 120.803 132.682C122.062 133.353 123.467 133.704 124.894 133.704C126.321 133.704 127.726 133.353 128.984 132.682Z" fill="url(#paint4_linear_4518_1073)"/>
<path d="M160.429 114.37C161.996 115.009 163.337 116.1 164.281 117.504C165.173 118.945 165.645 120.605 165.645 122.3C165.645 123.994 165.173 125.654 164.281 127.095C163.337 128.499 161.996 129.59 160.429 130.229C158.558 130.989 156.552 131.36 154.532 131.32H149.419V138.133H143.539V113.263H154.617C156.611 113.222 158.591 113.599 160.429 114.37ZM158.265 125.425C158.7 125.013 159.047 124.517 159.284 123.966C159.521 123.415 159.643 122.822 159.643 122.223C159.643 121.624 159.521 121.031 159.284 120.48C159.047 119.929 158.7 119.433 158.265 119.02C157.08 118.196 155.649 117.8 154.208 117.896H149.385V126.55H154.208C155.649 126.646 157.08 126.25 158.265 125.425Z" fill="url(#paint5_linear_4518_1073)"/>
<path d="M196.374 133.483V143.465H190.937V138.184H169.547V113.263H175.427V133.483H186.83V113.263H192.726V133.483H196.374Z" fill="url(#paint6_linear_4518_1073)"/>
<path d="M200.277 113.262H206.175V129.496L218.378 113.262H223.934V138.183H218.088V122.017L205.885 138.218H200.277V113.262Z" fill="url(#paint7_linear_4518_1073)"/>
<path d="M253.384 113.262L242.494 132.988C241.61 134.717 240.31 136.198 238.71 137.298C237.291 138.258 235.616 138.768 233.903 138.763C232.474 138.743 231.062 138.449 229.745 137.894L231.159 133.516C231.991 133.795 232.857 133.955 233.733 133.993C234.421 133.996 235.1 133.814 235.693 133.465C236.379 133.065 236.963 132.511 237.397 131.847L237.618 131.557L227.529 113.262H233.853L240.67 126.651L247.691 113.262H253.384Z" fill="url(#paint8_linear_4518_1073)"/>
<path d="M279.478 138.184V123.262L271.91 135.646H269.286L261.753 123.722V138.355H256.195V113.263H261.138L270.7 128.747L280.142 113.263H285V138.184H279.478Z" fill="url(#paint9_linear_4518_1073)"/>
<path d="M55.9335 149.683V165.014H52.3373V152.63H45.2641V165.014H41.668V149.683H55.9335Z" fill="#1C2536"/>
<path d="M71.9553 162.101V164.946H59.8203V149.614H71.7508V152.442H63.4336V155.849H70.6941V158.592H63.4336V162.118L71.9553 162.101Z" fill="#1C2536"/>
<path d="M87.7369 149.683V165.014H84.1578V159.495C82.9461 159.945 81.6668 160.187 80.3741 160.21C78.6406 160.334 76.9224 159.812 75.5508 158.745C74.9689 158.209 74.514 157.55 74.219 156.817C73.9242 156.083 73.7968 155.293 73.8464 154.503V149.734H77.4256V154.112C77.3919 154.546 77.4521 154.981 77.6021 155.39C77.7521 155.799 77.9885 156.17 78.2949 156.48C78.9919 157.053 79.882 157.34 80.7831 157.28C81.9541 157.289 83.1146 157.057 84.1919 156.599V149.785L87.7369 149.683Z" fill="#1C2536"/>
<path d="M102.226 161.675H94.9653L93.5847 164.946H89.8691L96.8401 149.614H100.419L107.424 164.946H103.623L102.226 161.675ZM101.101 158.983L98.6126 153.14L96.1242 158.983H101.101Z" fill="#1C2536"/>
<path d="M120.682 152.561H115.671V164.946H112.092V152.561H107.115V149.683H120.75L120.682 152.561Z" fill="#1C2536"/>
<path d="M137.335 149.683V165.014H133.704V158.745H126.597V165.014H122.967V149.683H126.597V155.696H133.704V149.683H137.335Z" fill="#1C2536"/>
<path d="M153.217 155.934C153.74 156.388 154.15 156.956 154.416 157.594C154.682 158.232 154.797 158.924 154.751 159.614C154.796 160.362 154.665 161.111 154.369 161.8C154.073 162.489 153.62 163.099 153.047 163.583C151.665 164.568 149.986 165.049 148.292 164.946H141.219V149.614H144.815V154.622H148.803C150.382 154.535 151.943 154.998 153.217 155.934ZM150.354 161.641C150.628 161.397 150.843 161.094 150.982 160.754C151.121 160.415 151.18 160.048 151.155 159.682C151.155 158.098 150.15 157.314 148.155 157.314H144.883V162.322H148.155C148.947 162.372 149.729 162.129 150.354 161.641ZM156.796 149.717H160.393V165.048H156.796V149.717Z" fill="#1C2536"/>
<path d="M167.06 149.683L170.299 154.299L173.537 149.683H177.798L172.514 156.99L178.155 164.946H173.878L170.23 159.835L166.634 164.946H162.441L168.032 157.144L162.799 149.683H167.06Z" fill="#1C2536"/>
<path d="M200.993 149.683V165.014H197.379V152.63H190.323V165.014H186.711V149.683H200.993Z" fill="#1C2536"/>
<path d="M218.718 149.683V165.014H215.122V152.63H209.753L209.651 155.815C209.614 157.582 209.432 159.342 209.106 161.079C208.926 162.217 208.437 163.284 207.69 164.162C207.334 164.533 206.901 164.822 206.422 165.01C205.941 165.199 205.428 165.281 204.913 165.252C204.309 165.235 203.709 165.156 203.123 165.014L203.346 162.016C203.554 162.081 203.773 162.11 203.992 162.101C204.416 162.095 204.828 161.945 205.155 161.676C205.483 161.407 205.711 161.034 205.798 160.619C206.222 159.093 206.44 157.518 206.447 155.934L206.668 149.751L218.718 149.683Z" fill="#1C2536"/>
<path d="M233.238 161.675H225.96L224.579 164.946H220.865L227.853 149.614H231.432L238.419 164.946H234.618L233.238 161.675ZM232.164 158.983L229.675 153.14L227.205 158.983H232.164Z" fill="#1C2536"/>
<path d="M251.697 152.561H246.685V164.946H243.106V152.561H238.113V149.683H251.747L251.697 152.561Z" fill="#1C2536"/>
<path d="M72.5521 32.3815L97.6572 57.4566H158.332C158.949 59.5995 160.319 61.4479 162.19 62.6613C164.061 63.8749 166.309 64.3718 168.518 64.0609C170.727 63.7498 172.749 62.6517 174.212 60.9687C175.676 59.2858 176.481 57.1311 176.481 54.9015C176.481 52.6717 175.676 50.517 174.212 48.8341C172.749 47.1511 170.727 46.053 168.518 45.7419C166.309 45.431 164.061 45.9279 162.19 47.1415C160.319 48.3549 158.949 50.2033 158.332 52.3462H99.7707L77.0686 29.69L101.526 5.26223H192.76L204.828 17.3058C204.154 18.5939 203.803 20.026 203.805 21.4793C203.805 23.3086 204.347 25.0971 205.364 26.6183C206.381 28.1394 207.827 29.3249 209.518 30.0251C211.208 30.725 213.07 30.9084 214.865 30.5515C216.661 30.1945 218.308 29.3135 219.603 28.02C220.898 26.7263 221.778 25.0781 222.136 23.2838C222.492 21.4896 222.309 19.6297 221.609 17.9396C220.909 16.2493 219.723 14.8047 218.201 13.7883C216.678 12.7719 214.89 12.2294 213.059 12.2294C211.388 12.2308 209.749 12.6904 208.321 13.5581L194.89 0.134766H99.4468L72.3136 27.2541H18.1492C17.5329 25.1112 16.1629 23.2628 14.2914 22.0492C12.4199 20.8358 10.1728 20.3389 7.96376 20.6498C5.75472 20.9609 3.73241 22.059 2.26912 23.7419C0.805807 25.4249 0 27.5796 0 29.8092C0 32.039 0.805807 34.1937 2.26912 35.8766C3.73241 37.5596 5.75472 38.6577 7.96376 38.9686C10.1728 39.2797 12.4199 38.7828 14.2914 37.5692C16.1629 36.3558 17.5329 34.5074 18.1492 32.3645L72.5521 32.3815ZM167.195 50.7791C168.011 50.7757 168.81 51.0145 169.491 51.4654C170.172 51.9164 170.703 52.559 171.018 53.312C171.332 54.0649 171.417 54.8944 171.259 55.6951C171.102 56.496 170.711 57.232 170.134 57.8103C169.558 58.3886 168.823 58.7828 168.023 58.9432C167.222 59.1038 166.392 59.0232 165.638 58.7116C164.883 58.4001 164.238 57.8718 163.784 57.1935C163.33 56.5152 163.088 55.7175 163.088 54.9015C163.092 53.8124 163.526 52.769 164.294 51.9973C165.063 51.2257 166.105 50.788 167.195 50.7791ZM213.111 17.3569C213.925 17.3569 214.721 17.5978 215.398 18.0494C216.076 18.5008 216.604 19.1427 216.917 19.894C217.231 20.6452 217.314 21.4723 217.158 22.2711C217.001 23.0699 216.612 23.8043 216.039 24.3822C215.465 24.9602 214.733 25.3555 213.935 25.5184C213.137 25.6811 212.309 25.6044 211.555 25.2975C210.8 24.9907 210.155 24.4677 209.698 23.7944C209.24 23.1209 208.992 22.3272 208.985 21.5134C208.978 20.9685 209.081 20.4277 209.284 19.9226C209.489 19.4175 209.792 18.9581 210.177 18.5712C210.56 18.1844 211.018 17.8778 211.522 17.6692C212.026 17.4608 212.565 17.3546 213.111 17.3569ZM9.28653 33.9316C8.47006 33.935 7.67094 33.696 6.99043 33.2451C6.30992 32.7942 5.77861 32.1516 5.46381 31.3987C5.14902 30.6456 5.06491 29.8163 5.22213 29.0154C5.37934 28.2147 5.77082 27.4787 6.34697 26.9004C6.92311 26.3221 7.65799 25.9279 8.45853 25.7673C9.25908 25.6068 10.0892 25.6875 10.8439 25.9991C11.5986 26.3106 12.2437 26.8389 12.6977 27.5172C13.1517 28.1955 13.394 28.9932 13.394 29.8092C13.3896 30.8983 12.9559 31.9417 12.1871 32.7132C11.4182 33.485 10.3761 33.9227 9.28653 33.9316Z" fill="url(#paint10_linear_4518_1073)"/>
<path d="M275.796 45.3616C273.792 45.3639 271.843 46.0159 270.242 47.2201C268.64 48.4243 267.474 50.1154 266.916 52.0393H212.513L187.426 26.9643H126.75C126.134 24.8213 124.764 22.973 122.893 21.7594C121.021 20.5459 118.774 20.049 116.565 20.3599C114.356 20.671 112.334 21.7691 110.87 23.4521C109.407 25.1351 108.601 27.2897 108.601 29.5194C108.601 31.7492 109.407 33.9038 110.87 35.5868C112.334 37.2698 114.356 38.3679 116.565 38.6788C118.774 38.9899 121.021 38.4928 122.893 37.2793C124.764 36.0659 126.134 34.2176 126.75 32.0746H185.296L207.946 54.7138L183.488 79.1416H92.2541L80.2043 67.0979C81.2198 65.1031 81.4801 62.8087 80.937 60.6373C80.394 58.466 79.0845 56.5636 77.2494 55.2807C75.4144 53.9978 73.1775 53.4208 70.9506 53.6557C68.7235 53.8907 66.6563 54.9218 65.1298 56.5593C63.6031 58.1968 62.7198 60.3303 62.6423 62.5672C62.5648 64.8041 63.2985 66.9936 64.7082 68.7327C66.1179 70.4718 68.1088 71.6433 70.3141 72.0315C72.5197 72.4197 74.7911 71.9986 76.7104 70.8456L90.1238 84.2691H185.568L212.7 57.1497H266.865C267.34 58.7964 268.263 60.2786 269.533 61.4306C270.803 62.5823 272.369 63.3584 274.054 63.6716C275.739 63.985 277.479 63.8231 279.077 63.2043C280.676 62.5855 282.071 61.5341 283.106 60.1679C284.141 58.8019 284.775 57.1747 284.939 55.4687C285.101 53.7628 284.784 52.0453 284.025 50.5086C283.266 48.9718 282.096 47.6765 280.643 46.7674C279.189 45.8585 277.511 45.3717 275.796 45.3616ZM117.871 33.6418C117.055 33.6418 116.258 33.4 115.579 32.9471C114.901 32.4941 114.372 31.8502 114.06 31.097C113.748 30.3437 113.666 29.5147 113.825 28.7151C113.985 27.9154 114.377 27.181 114.954 26.6045C115.531 26.0278 116.266 25.6352 117.066 25.4762C117.866 25.3172 118.695 25.3987 119.449 25.7109C120.203 26.0228 120.847 26.5512 121.3 27.2291C121.753 27.9071 121.995 28.7041 121.995 29.5194C122 30.0628 121.896 30.6018 121.691 31.105C121.485 31.6081 121.182 32.0654 120.798 32.4504C120.415 32.8355 119.958 33.1406 119.456 33.3481C118.953 33.5554 118.414 33.6611 117.871 33.6588V33.6418ZM71.9554 67.081C71.1388 67.0844 70.3398 66.8455 69.6593 66.3946C68.9787 65.9437 68.4474 65.3009 68.1326 64.548C67.8179 63.795 67.7338 62.9655 67.8909 62.1648C68.0482 61.3639 68.4397 60.6279 69.0158 60.0496C69.592 59.4715 70.3268 59.0771 71.1274 58.9167C71.9279 58.7563 72.7582 58.8369 73.5127 59.1483C74.2674 59.4598 74.9126 59.9881 75.3665 60.6665C75.8205 61.3448 76.0629 62.1424 76.0629 62.9586C76.0629 64.0489 75.6306 65.095 74.8608 65.8676C74.0911 66.6401 73.0462 67.0764 71.9554 67.081ZM275.78 58.734C274.962 58.7372 274.162 58.4979 273.482 58.0463C272.8 57.5945 272.269 56.9509 271.955 56.1971C271.64 55.4431 271.558 54.6127 271.717 53.8115C271.875 53.0102 272.267 52.2742 272.846 51.6966C273.423 51.119 274.161 50.726 274.962 50.5676C275.764 50.4091 276.594 50.4921 277.349 50.8062C278.102 51.1204 278.747 51.6513 279.198 52.3319C279.65 53.0125 279.891 53.8118 279.887 54.6285C279.882 55.7131 279.451 56.7521 278.685 57.5206C277.919 58.289 276.881 58.725 275.796 58.734H275.78Z" fill="url(#paint11_linear_4518_1073)"/>
<defs>
<linearGradient id="paint0_linear_4518_1073" x1="11.2294" y1="115.323" x2="11.7913" y2="130.876" gradientUnits="userSpaceOnUse">
<stop stop-color="#70C7AD"/>
<stop offset="1" stop-color="#93CC82"/>
</linearGradient>
<linearGradient id="paint1_linear_4518_1073" x1="37.8681" y1="114.403" x2="38.4298" y2="129.939" gradientUnits="userSpaceOnUse">
<stop stop-color="#70C7AD"/>
<stop offset="1" stop-color="#93CC82"/>
</linearGradient>
<linearGradient id="paint2_linear_4518_1073" x1="68.1378" y1="113.347" x2="68.6825" y2="128.883" gradientUnits="userSpaceOnUse">
<stop stop-color="#70C7AD"/>
<stop offset="1" stop-color="#93CC82"/>
</linearGradient>
<linearGradient id="paint3_linear_4518_1073" x1="96.8218" y1="112.359" x2="97.3837" y2="127.895" gradientUnits="userSpaceOnUse">
<stop stop-color="#70C7AD"/>
<stop offset="1" stop-color="#93CC82"/>
</linearGradient>
<linearGradient id="paint4_linear_4518_1073" x1="124.383" y1="111.388" x2="124.927" y2="126.924" gradientUnits="userSpaceOnUse">
<stop stop-color="#70C7AD"/>
<stop offset="1" stop-color="#93CC82"/>
</linearGradient>
<linearGradient id="paint5_linear_4518_1073" x1="153.851" y1="110.367" x2="154.395" y2="125.902" gradientUnits="userSpaceOnUse">
<stop stop-color="#70C7AD"/>
<stop offset="1" stop-color="#93CC82"/>
</linearGradient>
<linearGradient id="paint6_linear_4518_1073" x1="182.022" y1="109.379" x2="182.568" y2="124.914" gradientUnits="userSpaceOnUse">
<stop stop-color="#70C7AD"/>
<stop offset="1" stop-color="#93CC82"/>
</linearGradient>
<linearGradient id="paint7_linear_4518_1073" x1="211.492" y1="108.356" x2="212.036" y2="123.891" gradientUnits="userSpaceOnUse">
<stop stop-color="#70C7AD"/>
<stop offset="1" stop-color="#93CC82"/>
</linearGradient>
<linearGradient id="paint8_linear_4518_1073" x1="240.21" y1="107.351" x2="240.754" y2="122.886" gradientUnits="userSpaceOnUse">
<stop stop-color="#70C7AD"/>
<stop offset="1" stop-color="#93CC82"/>
</linearGradient>
<linearGradient id="paint9_linear_4518_1073" x1="269.898" y1="106.312" x2="270.46" y2="121.865" gradientUnits="userSpaceOnUse">
<stop stop-color="#70C7AD"/>
<stop offset="1" stop-color="#93CC82"/>
</linearGradient>
<linearGradient id="paint10_linear_4518_1073" x1="87.6015" y1="-37.4779" x2="158.047" y2="151.189" gradientUnits="userSpaceOnUse">
<stop stop-color="#70C7AD"/>
<stop offset="1" stop-color="#93CC82"/>
</linearGradient>
<linearGradient id="paint11_linear_4518_1073" x1="131.744" y1="-53.9677" x2="202.171" y2="134.716" gradientUnits="userSpaceOnUse">
<stop stop-color="#70C7AD"/>
<stop offset="1" stop-color="#93CC82"/>
</linearGradient>
</defs>
</svg>
