<svg width="285" height="210" viewBox="0 0 285 210" fill="none" xmlns="http://www.w3.org/2000/svg">
<g clip-path="url(#clip0_4518_1007)">
<mask id="mask0_4518_1007" style="mask-type:luminance" maskUnits="userSpaceOnUse" x="0" y="0" width="285" height="210">
<path d="M285 0H0V210H285V0Z" fill="white"/>
</mask>
<g mask="url(#mask0_4518_1007)">
<path d="M236.491 181.829V193.274L231.385 193.702L230.409 187.168H206.172L206.531 177.936L206.172 156.209H213.242L212.875 177.361L212.981 181.829H225.083L225.236 177.94L224.912 156.209H231.939L231.595 177.361L231.748 181.829H236.491Z" fill="#050302"/>
<path d="M260.745 156.746L260.335 161.653L254.143 161.354H252.105L251.839 177.555L252.148 187.448H245.187L245.542 178.135L245.292 161.354H243.246L236.949 161.653L236.488 161.113L236.949 156.209H260.335L260.745 156.746Z" fill="#050302"/>
<path d="M284.68 177.069L284.864 186.737H278.703L279.027 177.637L278.789 161.093H273.261L273.03 163.088C272.603 167.921 271.895 172.726 270.91 177.477C270.446 180.078 269.458 182.559 268.006 184.769C267.464 185.495 266.779 186.103 265.993 186.555C265.207 187.008 264.336 187.296 263.434 187.402L261.79 187.452L260.744 182.237C262.165 181.821 263.388 180.91 264.191 179.671C265.236 177.825 265.932 175.805 266.245 173.709C266.779 170.989 267.274 167.072 267.732 161.957L268.322 156.306L268.275 156.209H285L284.68 177.069Z" fill="#050302"/>
<path d="M139.145 152.577C133.882 178.633 122.357 196.133 111.348 204.521C114.658 207.211 118.556 209.087 122.728 210H123.899C126.333 210.005 128.705 209.24 130.673 207.815C158.338 183.61 170.901 159.48 176.515 125.646C164.699 135.475 152.213 144.473 139.145 152.577Z" fill="#6155A4"/>
<path d="M180.468 78.8318C180.772 68.5107 180.858 57.5245 180.858 45.5234L135.961 72.2284C138.512 82.9126 140.297 93.7641 141.302 104.701C155.587 98.0851 168.79 89.3643 180.468 78.8318Z" fill="#6155A4"/>
<path d="M83.5437 152.577C92.0703 158.022 101.249 163.579 111.345 169.583V116.166C101.084 113.099 91.0702 109.265 81.3886 104.697C79.8006 120.678 80.5264 136.803 83.5437 152.577Z" fill="#F1F0F7"/>
<path d="M70.1017 29.1553C61.2706 34.0475 52.0023 39.4569 41.9102 45.4614L86.8074 72.1664C94.4765 64.5735 102.697 57.5544 111.403 51.1664C98.8297 41.7959 84.9049 34.3748 70.1017 29.1553Z" fill="#E96385"/>
<path d="M122.737 210C101.432 206.2 66.3772 158.328 86.7176 72.1386L41.8203 45.4336C41.8203 128.341 46.5052 167.988 92.0272 207.814C93.9942 209.236 96.3626 210.001 98.793 210H122.737Z" fill="#F392A5"/>
<path d="M2.16797 35.4743C16.0158 18.3632 73.7811 11.0171 136.052 72.2632L180.949 45.5504C111.261 4.10265 75.6004 -11.554 19.3461 9.16987C17.1396 10.2463 15.3207 11.9753 14.138 14.1204L2.16797 35.4743Z" fill="#8D80BC"/>
<path d="M209.2 15.085C216.653 35.9994 193.951 91.2216 111.344 116.165V169.579C181.028 128.123 212.015 104.129 222.716 43.5789C222.919 41.0984 222.376 38.614 221.155 36.4427L209.2 15.085Z" fill="#E6E2F0"/>
<path d="M210.286 28.0002C210.889 23.6722 210.519 19.2645 209.2 15.0969L208.626 14.0508C207.434 11.9056 205.608 10.1784 203.395 9.10414C169.226 -3.49975 142.647 -2.62475 111.414 9.27136C125.636 14.933 139.443 21.5812 152.731 29.1669C177.276 20.8252 197.73 22.3575 210.282 28.0002" fill="#E96385"/>
<path d="M12.4928 28.0586C8.52091 29.7013 4.98602 32.2399 2.16646 35.4747L1.58865 36.513C0.364863 38.6832 -0.179011 41.1685 0.0270082 43.6491C6.52735 80.438 20.5392 103.732 46.1619 125.65C43.8027 110.149 42.4841 94.5081 42.2148 78.8319C22.948 61.1141 14.0037 42.0858 12.4928 28.0586Z" fill="#F1F0F7"/>
<path d="M139.087 152.884C137.934 158.678 136.368 164.383 134.402 169.956C134.402 169.956 175.091 134.4 176.493 125.941C164.665 135.774 152.167 144.776 139.087 152.884Z" fill="#25337A"/>
<path d="M83.5007 152.884L91.4963 157.885C86.1141 140.695 82.7087 122.952 81.3456 104.996C79.7577 120.979 80.4835 137.106 83.5007 152.884Z" fill="#D0CAE4"/>
<path d="M70.0463 29.4629L61.8477 34.079C78.9975 37.8777 95.6262 43.718 111.375 51.474C98.794 42.0999 84.8595 34.6786 70.0463 29.4629Z" fill="#D21B5D"/>
</g>
</g>
<defs>
<clipPath id="clip0_4518_1007">
<rect width="285" height="210" fill="white"/>
</clipPath>
</defs>
</svg>
