<?xml version="1.0" encoding="UTF-8"?> <svg xmlns="http://www.w3.org/2000/svg" xmlns:xlink="http://www.w3.org/1999/xlink" viewBox="0 0 728.12 187.93"> <defs> <style>.a{fill:url(#a);}.b{fill:url(#b);}.c{fill:url(#c);}.d{fill:url(#d);}.e{fill:url(#e);}.f{fill:#004e53;}.g{fill:url(#f);}.h{fill:none;}</style> <linearGradient id="a" x1="56.89" y1="297.64" x2="244.81" y2="297.64" gradientUnits="userSpaceOnUse"> <stop offset="0" stop-color="#f2c55a"></stop> <stop offset="1" stop-color="#e1a246"></stop> </linearGradient> <linearGradient id="b" x1="79.04" y1="277.46" x2="222.65" y2="277.46" xlink:href="#a"></linearGradient> <linearGradient id="c" x1="91.96" y1="351.71" x2="209.74" y2="351.71" xlink:href="#a"></linearGradient> <linearGradient id="d" x1="118.02" y1="369.1" x2="146.63" y2="369.1" xlink:href="#a"></linearGradient> <linearGradient id="e" x1="155.06" y1="369.1" x2="183.67" y2="369.1" xlink:href="#a"></linearGradient> <linearGradient id="f" x1="502.23" y1="306.49" x2="669.46" y2="306.49" xlink:href="#a"></linearGradient> </defs> <path class="a" d="M150.85,203.68a94,94,0,1,0,94,94A94.07,94.07,0,0,0,150.85,203.68Zm0,179.86a85.9,85.9,0,1,1,85.9-85.9A86,86,0,0,1,150.85,383.54Z" transform="translate(-56.89 -203.68)"></path> <path class="b" d="M218.62,330.28H175.77V304.39a3.91,3.91,0,0,0,1.32.24h17.72a4,4,0,0,0,4-4V288a11.18,11.18,0,1,0-8.06,0v8.56H177.09a3.91,3.91,0,0,0-1.32.24V265.22a11.17,11.17,0,1,0-8.06,0v65.06H154.88V238.15a11.18,11.18,0,1,0-8.06,0v92.13H134v-44.4a11.17,11.17,0,1,0-8.06,0v30.05a4.07,4.07,0,0,0-1.32-.24H110.92v-8.77a11.18,11.18,0,1,0-8.06,0v12.8a4,4,0,0,0,4,4H124.6a4.07,4.07,0,0,0,1.32-.24v6.76H83.07a4,4,0,1,0,0,8.06H218.62a4,4,0,0,0,0-8.06ZM194.81,274.5a3.12,3.12,0,1,1-3.12,3.12A3.12,3.12,0,0,1,194.81,274.5Zm-23.07-22.79a3.11,3.11,0,1,1-3.11,3.11A3.12,3.12,0,0,1,171.74,251.71Zm-20.89-27.07a3.12,3.12,0,1,1-3.12,3.11A3.12,3.12,0,0,1,150.85,224.64Zm-44,68.77a3.12,3.12,0,1,1-3.12,3.12A3.12,3.12,0,0,1,106.89,293.41Zm23.06-21a3.12,3.12,0,1,1-3.11,3.12A3.12,3.12,0,0,1,130,272.37Z" transform="translate(-56.89 -203.68)"></path> <path class="c" d="M205.71,347.68H96a4,4,0,0,0,0,8.06H205.71a4,4,0,0,0,0-8.06Z" transform="translate(-56.89 -203.68)"></path> <path class="d" d="M142.6,365.07H122.05a4,4,0,0,0,0,8.06H142.6a4,4,0,1,0,0-8.06Z" transform="translate(-56.89 -203.68)"></path> <path class="e" d="M179.64,365.07H159.09a4,4,0,1,0,0,8.06h20.55a4,4,0,0,0,0-8.06Z" transform="translate(-56.89 -203.68)"></path> <path class="f" d="M317.74,269.26h9.57V326h-9.06V283.65l-24,42.37h-9.65V269.26h9.07v43Zm47.11,32.62H349.14V285.51h-9.33v40.55h9.33V310.39h15.71v15.67h9.33V285.51h-9.33Zm16.37-7.62H392.7v31.8H402v-31.8h11.48v-8.75H381.22Zm70.09.78a32.49,32.49,0,0,1,1.94,11.88v2.65H428a9,9,0,0,0,2.46,6.15,9.53,9.53,0,0,0,7,2.48,12.46,12.46,0,0,0,4.55-.87,13.71,13.71,0,0,0,4.05-2.45l6.09,5.71a23,23,0,0,1-6.93,4.47,20.35,20.35,0,0,1-7.76,1.58,21,21,0,0,1-9.8-2.11,14.28,14.28,0,0,1-6.21-6.19,21,21,0,0,1-2.15-9.86v-4.57a23.5,23.5,0,0,1,2.05-10.28,14.47,14.47,0,0,1,6-6.48,18.85,18.85,0,0,1,9.43-2.23,15.08,15.08,0,0,1,8.89,2.6A16.07,16.07,0,0,1,451.31,295Zm-6.74,7.7,0-.43a11.71,11.71,0,0,0-2.39-6.61,6.67,6.67,0,0,0-5.35-2.34,8.18,8.18,0,0,0-6.52,2.64,10.53,10.53,0,0,0-2.28,6.74Zm51.8-.71v7.66a23.34,23.34,0,0,1-1.62,9.16,12.38,12.38,0,0,1-4.75,5.8,13.56,13.56,0,0,1-7.46,2,11.08,11.08,0,0,1-6.36-1.81,10.3,10.3,0,0,1-3.44-4v21.68H463.4v-57h9.34v5.35a12.93,12.93,0,0,1,3.73-4,10.88,10.88,0,0,1,6.27-1.94,13.2,13.2,0,0,1,7.36,2,12.35,12.35,0,0,1,4.67,5.83A24.1,24.1,0,0,1,496.37,302Zm-9.33,0a9.5,9.5,0,0,0-1.92-6.35,6.72,6.72,0,0,0-5.39-2.24,7.92,7.92,0,0,0-3.79.84,5.55,5.55,0,0,0-2.38,2.48,8.68,8.68,0,0,0-.82,3.94v10.08a8.58,8.58,0,0,0,.82,3.93,5.71,5.71,0,0,0,2.38,2.48,7.8,7.8,0,0,0,3.79.86,6.78,6.78,0,0,0,5.39-2.19,9.12,9.12,0,0,0,1.92-6.21Z" transform="translate(-56.89 -203.68)"></path> <path class="g" d="M523.56,269.85l-21.33,56.8h10L516,315.87H537.9l3.74,10.78h10l-21.32-56.8Zm-4.44,37.07L527,284.34l7.84,22.58Zm48.93-20.82h17.42v8.95H568.05v31.6h-9.33V286.1h9.33Zm51.54,1.41a13.2,13.2,0,0,0-7.36-2,10.88,10.88,0,0,0-6.27,1.94,13,13,0,0,0-3.73,4V286.1h-9.34v57h9.34V321.45a10.38,10.38,0,0,0,3.44,4,11.14,11.14,0,0,0,6.37,1.81,13.58,13.58,0,0,0,7.46-2,12.42,12.42,0,0,0,4.74-5.8,23.34,23.34,0,0,0,1.62-9.16v-7.66a24,24,0,0,0-1.6-9.27A12.33,12.33,0,0,0,619.59,287.51Zm-3.06,22.77a9.12,9.12,0,0,1-1.92,6.21,6.77,6.77,0,0,1-5.39,2.19,7.8,7.8,0,0,1-3.79-.86,5.71,5.71,0,0,1-2.38-2.48,8.58,8.58,0,0,1-.82-3.93V301.33a8.68,8.68,0,0,1,.82-3.94,5.6,5.6,0,0,1,2.38-2.48,7.92,7.92,0,0,1,3.79-.84,6.68,6.68,0,0,1,5.39,2.25,9.46,9.46,0,0,1,1.92,6.34Zm50.92-16.74a13.69,13.69,0,0,0-5.86-6,21.75,21.75,0,0,0-18.48,0,13.58,13.58,0,0,0-5.86,6,20.5,20.5,0,0,0-2,9.44v6.6a20.91,20.91,0,0,0,2,9.55,13.72,13.72,0,0,0,5.86,6,21.66,21.66,0,0,0,18.48,0,13.89,13.89,0,0,0,5.86-6,20.61,20.61,0,0,0,2-9.48V303A20.5,20.5,0,0,0,667.45,293.54Zm-7.33,16.15a9.16,9.16,0,0,1-2,6.35,8.47,8.47,0,0,1-11.5,0,9.15,9.15,0,0,1-2-6.35V303a9,9,0,0,1,2-6.29,8.5,8.5,0,0,1,11.48,0,9,9,0,0,1,2,6.29Z" transform="translate(-56.89 -203.68)"></path> <path class="f" d="M693.75,278.8v47.85h-9.29V278.8H668.68v-8.95h40.86v8.95Zm47,16.83a32.5,32.5,0,0,1,1.93,11.88v2.65H717.42a9.08,9.08,0,0,0,2.47,6.16,9.55,9.55,0,0,0,7,2.48,12.55,12.55,0,0,0,4.55-.88,13.84,13.84,0,0,0,4-2.44l6.1,5.7a22.55,22.55,0,0,1-6.94,4.47,20.12,20.12,0,0,1-7.75,1.58,21,21,0,0,1-9.81-2.11,14.28,14.28,0,0,1-6.21-6.19,21,21,0,0,1-2.15-9.86V304.5a23.57,23.57,0,0,1,2-10.27,14.5,14.5,0,0,1,6-6.49,18.89,18.89,0,0,1,9.44-2.23,15,15,0,0,1,8.88,2.6A16.09,16.09,0,0,1,740.73,295.63Zm-6.74,7.7,0-.43a11.64,11.64,0,0,0-2.38-6.6,6.66,6.66,0,0,0-5.35-2.35,8.21,8.21,0,0,0-6.53,2.64,10.58,10.58,0,0,0-2.28,6.74Zm51,23.32-13.46-20.06,12.84-20.49H774.07L766.69,299l-8-12.93H748.36l13.18,19.73-13.8,20.82h10.08l8.63-13.2,8.28,13.2Z" transform="translate(-56.89 -203.68)"></path> <path class="h" d="M1029,238.72" transform="translate(-56.89 -203.68)"></path> </svg> 