<svg width="285" height="104" viewBox="0 0 285 104" fill="none" xmlns="http://www.w3.org/2000/svg">
<path d="M34.3324 56.4577L17.6745 85.3998C16.5555 87.3392 17.9118 89.7964 20.0905 89.7964H53.4065C55.5852 89.7964 56.9416 87.3392 55.8225 85.3998L39.1645 56.4577C38.0709 54.5623 35.426 54.5623 34.3324 56.4577Z" fill="#133F66"/>
<path d="M61.9856 82.6793L76.3122 57.7828C77.194 56.2559 76.1257 54.3252 74.4133 54.3252H45.76C44.0474 54.3252 42.9793 56.2559 43.8611 57.7828L58.1878 82.6793C59.0441 84.171 61.1293 84.171 61.9856 82.6793Z" fill="#4170A0"/>
<path d="M81.2368 56.3621L64.528 85.4007C63.409 87.3401 64.7653 89.7973 66.944 89.7973H100.37C102.549 89.7973 103.905 87.3401 102.786 85.4007L86.0775 56.3621C84.9839 54.4665 82.3388 54.4665 81.2452 56.3621H81.2368Z" fill="#133F66"/>
<path d="M57.6437 16.5294L40.316 46.6649C39.2478 48.5254 40.5448 50.9211 42.6303 50.9211H77.557C79.6509 50.9211 80.9395 48.5254 79.8714 46.6649L62.4842 16.5294C61.4416 14.7129 58.6864 14.7129 57.6437 16.5294Z" fill="#7AA5C6"/>
<path d="M147.181 48.8014L143.992 52.1027C143.8 52.3014 143.8 52.6238 143.992 52.8225L147.181 56.1236C147.373 56.3225 147.684 56.3225 147.876 56.1236L151.065 52.8225C151.257 52.6238 151.257 52.3014 151.065 52.1027L147.876 48.8014C147.684 48.6027 147.373 48.6027 147.181 48.8014Z" fill="#133F66"/>
<path d="M134.569 64.5845V49.7625C134.569 49.4289 134.586 48.7709 134.611 47.7703C134.62 47.4457 134.628 47.1209 134.645 46.7788C134.484 47.4017 134.331 47.9633 134.187 48.4812C133.891 49.5519 133.653 50.3943 133.467 50.9997L129.211 64.5845H125.388L121.132 50.9997L119.928 46.656C119.945 47.0683 119.962 47.4544 119.979 47.7967C120.013 48.6742 120.03 49.3236 120.03 49.7625V64.5845H115.215V40.0479H122.166L126.388 53.6675C126.575 54.4311 126.77 55.1857 126.973 55.9406C127.092 56.4055 127.21 56.8618 127.329 57.3183C127.363 57.1779 127.66 56.0545 127.778 55.6158C127.897 55.1857 128.016 54.7558 128.134 54.3346L132.475 40.0479H139.401V64.5845H134.586H134.569Z" fill="#133F66"/>
<path d="M155.678 64.5669V40.0479H172.446V44.4269H161.036V64.5669H155.678Z" fill="#133F66"/>
<path d="M175.743 64.5845V40.0479H186.458C189.298 40.0479 191.519 40.7412 193.062 42.0925C194.613 43.4614 195.402 45.4186 195.402 47.902C195.402 49.4991 195.046 50.9295 194.334 52.1669C193.622 53.4043 192.604 54.3784 191.299 55.0717C190.002 55.7651 188.433 56.1161 186.653 56.1161H181.1V64.5845H175.734H175.743ZM186.051 51.7546C187.331 51.7546 188.323 51.4298 189.001 50.7891C189.68 50.1486 190.019 49.2096 190.019 47.9898C190.019 45.6027 188.679 44.4445 185.924 44.4445H181.117V51.7546H186.06H186.051Z" fill="#133F66"/>
<path d="M202.378 64.9179C201.572 64.9179 200.767 64.8126 199.987 64.6109C199.199 64.409 198.554 64.1544 198.071 63.8561L197.91 63.7596L199.411 59.1173L199.656 59.2402C200.598 59.6965 201.462 59.9333 202.2 59.9333C202.674 59.9333 203.081 59.8369 203.42 59.6525C203.76 59.4683 204.082 59.1611 204.395 58.7312C204.701 58.2836 205.141 57.4412 205.692 56.2125L196.342 40.0479H201.988L208.244 51.3509L213.051 40.0479H218.536L209.677 59.0207C208.914 60.6706 208.202 61.8905 207.557 62.6538C206.896 63.4437 206.142 64.0229 205.328 64.3826C204.514 64.7424 203.522 64.9268 202.395 64.9268L202.378 64.9179Z" fill="#133F66"/>
<path d="M235.815 64.5845V44.6988H226.049V64.5845H220.699V40.0479H241.012V64.5845H235.815Z" fill="#133F66"/>
<path d="M261.034 64.5845V44.6988H251.26V64.5845H245.918V40.0479H266.231V64.5845H261.034Z" fill="#133F66"/>
</svg>
