<svg width="285" height="285" viewBox="0 0 285 285" fill="none" xmlns="http://www.w3.org/2000/svg">
<path d="M74.418 190.697V115.9H85.1846V146.475H99.4346V115.9H110.201V190.697H99.4346V155.167H85.1846V190.776L74.418 190.697Z" fill="#1D71B8"/>
<path d="M117.167 173.122V134.362C117.167 127.775 118.64 122.888 121.585 119.7C124.53 116.513 128.942 114.929 134.821 114.95C140.268 114.95 144.458 116.407 147.393 119.32C150.327 122.234 151.795 126.319 151.795 131.575V134.41H141.028V133.159C141.236 130.591 140.732 128.016 139.571 125.717C139.013 124.961 138.27 124.36 137.413 123.972C136.557 123.584 135.616 123.422 134.679 123.5C133.731 123.41 132.776 123.56 131.902 123.937C131.027 124.313 130.262 124.904 129.675 125.654C128.455 127.929 127.906 130.504 128.092 133.08V173.581C128.092 177.207 128.583 179.756 129.565 181.197C130.183 181.893 130.941 182.449 131.79 182.831C132.638 183.212 133.558 183.409 134.489 183.409C135.419 183.409 136.339 183.212 137.188 182.831C138.037 182.449 138.795 181.893 139.413 181.197C140.647 178.875 141.196 176.251 140.996 173.629V170.557H151.763V172.98C151.763 185.646 146.052 192.006 134.631 192.059C132.184 192.1 129.746 191.747 127.411 191.014C125.563 190.459 123.846 189.538 122.36 188.306C121.019 187.142 119.94 185.707 119.194 184.095C118.433 182.465 117.9 180.739 117.61 178.965C117.289 177.034 117.14 175.079 117.167 173.122Z" fill="#1D71B8"/>
<path d="M157.258 190.697V115.9H193.009V190.697H182.243V124.53H167.993V190.697H157.258Z" fill="#1D71B8"/>
<path d="M202.238 190.697V115.9H237.99V190.697H227.223V124.53H212.973V190.697H202.238Z" fill="#1D71B8"/>
<path d="M246.065 172.963V134.282C245.998 131.225 246.454 128.178 247.411 125.273C248.155 122.956 249.479 120.869 251.258 119.209C252.926 117.717 254.898 116.604 257.037 115.947C259.455 115.217 261.97 114.865 264.495 114.902C267.029 114.863 269.554 115.21 271.984 115.932C274.093 116.556 276.039 117.637 277.684 119.098C279.441 120.746 280.735 122.826 281.437 125.131C282.351 128.071 282.784 131.14 282.719 134.219V172.9C282.785 175.968 282.352 179.027 281.437 181.957C280.736 184.234 279.434 186.279 277.668 187.878C276.008 189.326 274.06 190.405 271.952 191.045C269.528 191.736 267.015 192.067 264.495 192.027C252.208 192.037 246.065 185.683 246.065 172.963ZM257.053 174.293C257.053 180.373 259.534 183.413 264.495 183.413C265.507 183.47 266.518 183.289 267.447 182.885C268.376 182.481 269.198 181.864 269.847 181.086C271.227 179.101 271.891 176.706 271.731 174.293V133.127C271.881 130.619 271.214 128.13 269.831 126.033C269.22 125.203 268.413 124.537 267.482 124.095C266.551 123.653 265.524 123.448 264.495 123.5C259.534 123.5 257.053 126.667 257.053 133V174.293Z" fill="#1D71B8"/>
<path d="M138.954 247C128.769 250.527 118.066 252.33 107.287 252.336C81.147 252.336 56.0772 241.951 37.5932 223.467C19.1091 204.983 8.7249 179.914 8.7249 153.773C8.7249 127.633 19.1091 102.563 37.5932 84.0789C56.0772 65.5949 81.147 55.2106 107.287 55.2106C125.067 55.1999 142.511 60.051 157.732 69.239L161.168 63.8081C144.94 53.9501 126.322 48.7261 107.335 48.7031C79.6941 49.0425 53.3005 60.2608 33.8744 79.9269C14.4482 99.593 3.55469 126.122 3.55469 153.765C3.55469 181.408 14.4482 207.937 33.8744 227.604C53.3005 247.27 79.6941 258.488 107.335 258.827C118.947 258.813 130.475 256.854 141.44 253.032L138.954 247Z" fill="#E30613"/>
<path d="M168.37 221.967C155.377 233.055 139.478 240.186 122.557 242.515C105.636 244.844 88.4012 242.274 72.8956 235.11C57.39 227.945 44.263 216.486 35.0699 202.09C25.8767 187.694 21.0028 170.965 21.0254 153.884C21.0871 134.809 27.2135 116.248 38.5187 100.884C49.824 85.5197 65.7223 74.149 83.9154 68.4155L82.2212 63.333C60.6221 70.1281 42.168 84.4288 30.1971 103.648C18.2262 122.868 13.529 145.737 16.9552 168.119C20.3813 190.501 31.7046 210.918 48.8768 225.676C66.0489 240.435 87.936 248.56 110.579 248.583C133.017 248.566 154.708 240.517 171.727 225.894L168.37 221.967Z" fill="#009FE3"/>
<path d="M150.321 216.537C138.484 224.203 124.682 228.283 110.58 228.285C90.8263 228.285 71.882 220.438 57.9143 206.47C43.9466 192.503 36.0996 173.558 36.0996 153.805C36.0996 134.052 43.9466 115.108 57.9143 101.14C71.882 87.1721 90.8263 79.3252 110.58 79.3252C113.398 79.3404 116.211 79.5414 119.003 79.9268L119.557 76.871C116.579 76.4915 113.581 76.2959 110.58 76.2852C90.5622 77.0945 71.6339 85.6157 57.757 100.065C43.8801 114.514 36.1305 133.771 36.1305 153.805C36.1305 173.839 43.8801 193.096 57.757 207.545C71.6339 221.995 90.5622 230.516 110.58 231.325C125.326 231.325 139.754 227.04 152.11 218.991L150.321 216.537Z" fill="#009FE3"/>
<path d="M110.579 235.093C89.2147 234.795 68.8262 226.099 53.8235 210.885C38.8207 195.672 30.4098 175.164 30.4098 153.797C30.4098 132.43 38.8207 111.922 53.8235 96.7087C68.8262 81.4952 89.2147 72.7988 110.579 72.5007C129.811 72.5244 148.394 79.4586 162.94 92.039L165.109 89.5532C149.967 76.4381 130.611 69.2105 110.579 69.1915C99.3714 69.0382 88.2447 71.1133 77.8455 75.2963C67.4463 79.4793 57.9819 85.6869 50.0019 93.5584C42.0219 101.43 35.6855 110.809 31.3606 121.15C27.0357 131.491 24.8086 142.588 24.8086 153.797C24.8086 165.006 27.0357 176.103 31.3606 186.444C35.6855 196.785 42.0219 206.164 50.0019 214.035C57.9819 221.907 67.4463 228.115 77.8455 232.298C88.2447 236.481 99.3714 238.556 110.579 238.402C122.368 238.403 134.021 235.893 144.764 231.04L143.323 228.095C133.022 232.705 121.865 235.09 110.579 235.093Z" fill="#1D1D1B"/>
</svg>
