<svg width="285" height="82" viewBox="0 0 285 82" fill="none" xmlns="http://www.w3.org/2000/svg">
<g clip-path="url(#clip0_4518_772)">
<path d="M18.5875 75.9216C9.03048 70.0022 2.23788 60.2774 0 49.2842L6.34503 47.9629C8.24065 57.212 13.9538 65.3776 22.0102 70.3722L18.5875 75.8952V75.9216Z" fill="#1F68A0"/>
<path d="M69.5859 23.4399C63.3988 13.0016 52.0778 6.52723 40.0196 6.52723H39.493L39.4141 0H40.0196C54.342 0 67.8219 7.68998 75.1674 20.0838L69.5859 23.4135V23.4399Z" fill="#21B19B"/>
<path d="M13.137 19.5288L8.08203 15.4856C15.4539 6.18363 26.4326 0.554888 38.2012 0.0263672L38.4908 6.52717C28.5915 6.97642 19.3504 11.7067 13.137 19.5288Z" fill="#50C1E8"/>
<path d="M9.92482 55.4414C7.76593 50.9225 6.66016 46.0601 6.66016 41.0128C6.66016 39.5329 6.76547 38.053 6.94976 36.5996L13.3738 37.4452C13.2158 38.608 13.1368 39.8236 13.1368 41.0128C13.1368 45.0824 14.032 48.9934 15.7696 52.6402L9.92482 55.4678V55.4414Z" fill="#50C1E8"/>
<path d="M40.0185 74.4686C27.5917 74.4686 16.2707 67.5978 10.4785 56.5253L16.218 53.4863C20.8781 62.4183 30.0138 67.9678 40.0185 67.9678C44.9418 67.9678 49.7598 66.6201 53.9723 64.0567L57.3423 69.6062C52.1293 72.7773 46.1266 74.4686 40.0185 74.4686Z" fill="#21B19B"/>
<path d="M70.5849 54.3852L64.6348 51.769C66.1091 48.3601 66.8726 44.7397 66.8726 40.9872C66.8726 39.2166 66.7147 37.4461 66.3724 35.7284L72.7174 34.46C73.1387 36.6005 73.3493 38.7938 73.3493 40.9872C73.3493 45.6382 72.4278 50.1306 70.5849 54.3588V54.3852Z" fill="#21B19B"/>
<path d="M66.1345 34.6714C63.4753 23.6781 54.1816 15.4332 42.9922 14.1912L43.703 7.7168C57.6042 9.24951 69.1358 19.4764 72.4268 33.1386L66.1345 34.6714Z" fill="#50C1E8"/>
<path d="M26.3012 62.972C18.7188 58.1889 14.1641 49.9704 14.1641 40.9855C14.1641 26.689 25.7484 15.0352 40.0181 15.0352C43.0195 15.0352 45.9682 15.5637 48.7853 16.5679L46.5738 22.6987C44.4675 21.9324 42.256 21.5624 39.9918 21.5624C29.3026 21.5624 20.6407 30.283 20.6407 40.9855C20.6407 47.6977 24.037 53.855 29.7239 57.449L26.2749 62.9456L26.3012 62.972Z" fill="#1F68A0"/>
<path d="M36.201 59.0086C27.7761 57.2381 21.668 49.6538 21.668 40.986C21.668 38.7663 22.0629 36.5993 22.8264 34.5381L28.8818 36.8107C28.3816 38.132 28.1446 39.5326 28.1446 40.986C28.1446 46.5884 32.0938 51.4772 37.5437 52.6399L36.201 59.0086Z" fill="#21B19B"/>
<path d="M40.018 59.4069C39.2281 59.4069 38.4383 59.3541 37.6484 59.2484L38.4646 52.8004C38.9648 52.8533 39.4914 52.9061 39.9916 52.9061C44.4937 52.9061 48.5482 50.3957 50.5755 46.3789L56.3413 49.3122C53.1819 55.5487 46.9159 59.4069 39.9653 59.4069H40.018Z" fill="#1F68A0"/>
<path d="M94.5184 22.25V34.7495L105.181 22.25H109.104V40.2197H105.076V27.7995L94.4394 40.2197H90.4902V22.25H94.4921H94.5184Z" fill="#21B19B"/>
<path d="M116.396 22.251V29.0953H126.506V22.251H130.561V40.2207H126.506V32.7421H116.396V40.2207H112.342V22.251H116.396Z" fill="#21B19B"/>
<path d="M137.853 22.251V29.0953H147.963V22.251H152.018V40.2207H147.963V32.7421H137.853V40.2207H133.799V22.251H137.853Z" fill="#21B19B"/>
<path d="M165.022 40.669C159.572 40.669 154.965 36.89 154.965 31.2349C154.965 25.5797 159.572 21.8008 165.022 21.8008C170.472 21.8008 175.079 25.5797 175.079 31.2349C175.079 36.89 170.472 40.669 165.022 40.669ZM165.022 37.2072C168.392 37.2072 171.025 34.9609 171.025 31.2613C171.025 27.5617 168.392 25.3154 165.022 25.3154C161.652 25.3154 159.019 27.5617 159.019 31.2613C159.019 34.9609 161.652 37.2072 165.022 37.2072Z" fill="#21B19B"/>
<path d="M196.616 22.25V36.5993H198.722V43.6815H195.22L194.904 40.2461H181.056L180.74 43.6815H177.238V36.5993H179.502L182.32 22.25H196.616ZM183.715 36.5993H192.561V25.7911H185.637L183.715 36.5993Z" fill="#21B19B"/>
<path d="M212.046 22.2501C216.258 22.2501 219.444 25.0776 219.444 29.3058C219.444 33.534 216.258 36.2294 212.046 36.2294H205.543V40.2198H201.488V22.2236H212.046V22.2501ZM205.543 32.5298H211.888C213.968 32.5298 215.389 31.3935 215.389 29.3058C215.389 27.2182 213.968 25.9497 211.888 25.9497H205.543V32.5034V32.5298Z" fill="#21B19B"/>
<path d="M234.635 22.251L242.244 40.2471H237.978L236.82 37.5252H225.762L224.604 40.2471H220.26L228.079 22.251H234.661H234.635ZM227.263 33.9577H235.24L232.002 25.8713H230.607L227.263 33.9577Z" fill="#21B19B"/>
<path d="M248.852 22.251V34.7505L259.515 22.251H263.438V40.2471H259.41V27.8269L248.773 40.2471H244.824V22.251H248.852ZM259.357 18.2343C257.409 20.0577 255.829 20.4805 253.934 20.4805C252.038 20.4805 250.458 20.0577 248.51 18.2343L250.458 16.0938C251.433 16.9394 252.328 17.3622 253.934 17.3622C255.54 17.3622 256.435 16.9394 257.409 16.0938L259.357 18.2343Z" fill="#21B19B"/>
<path d="M278.235 22.25C281.473 22.25 283.764 24.1262 283.764 27.0595C283.764 28.3544 283.316 29.4643 282.368 30.125C284.027 30.9706 285.001 32.424 285.001 34.6438C285.001 37.7357 282.5 40.2461 279.104 40.2461H266.703V22.25H278.235ZM270.758 29.1736H278.366C279.235 29.1736 279.841 28.3544 279.841 27.5616C279.841 26.7689 279.42 25.8968 278.05 25.8968H270.758V29.1736ZM270.758 36.5465H278.998C280.288 36.5465 281.078 35.7273 281.078 34.6174C281.078 33.4546 280.262 32.6883 279.104 32.6883H270.784V36.5201L270.758 36.5465Z" fill="#21B19B"/>
<path d="M93.5176 55.4416V50.3678H90.9375V48.7822H97.8881V50.3678H95.3079V55.4416H93.5176Z" fill="#21B19B"/>
<path d="M105.154 50.3688H100.573V51.373H104.153V52.9585H100.573V53.857H105.154V55.4426H98.8086V48.7832H105.154V50.3688Z" fill="#21B19B"/>
<path d="M108.392 52.1119L105.943 49.1786V48.7822H107.707L109.445 50.8699L111.209 48.7822H112.947V49.1786L110.498 52.1119L112.947 55.0452V55.4416H111.209L109.445 53.3539L107.707 55.4416H105.943V55.0452L108.392 52.1119Z" fill="#21B19B"/>
<path d="M115.685 48.7832V51.373H119.16V48.7832H120.95V55.4426H119.16V52.9585H115.685V55.4426H113.895V48.7832H115.685Z" fill="#21B19B"/>
<path d="M122.242 51.8481C122.242 51.3989 122.295 50.9761 122.4 50.5797C122.505 50.1833 122.716 49.8397 123.006 49.5491C123.295 49.2584 123.664 49.0205 124.138 48.8356C124.612 48.677 125.217 48.5713 125.928 48.5713H126.297C127.008 48.5713 127.613 48.6506 128.087 48.8356C128.561 48.9941 128.929 49.2319 129.219 49.5491C129.509 49.8397 129.693 50.1833 129.825 50.5797C129.93 50.9761 129.983 51.3989 129.983 51.8481V52.3766C129.983 52.8259 129.93 53.2487 129.825 53.6451C129.719 54.0415 129.509 54.385 129.219 54.6757C128.929 54.9664 128.561 55.2042 128.087 55.3892C127.613 55.5478 127.008 55.6535 126.297 55.6535H125.928C125.217 55.6535 124.612 55.5742 124.138 55.3892C123.664 55.2042 123.295 54.9928 123.006 54.6757C122.716 54.385 122.532 54.0415 122.4 53.6451C122.295 53.2487 122.242 52.8259 122.242 52.3766V51.8481ZM124.032 52.1124C124.032 52.3766 124.032 52.6145 124.059 52.8523C124.059 53.0901 124.164 53.3016 124.296 53.4865C124.427 53.6715 124.638 53.8036 124.901 53.9093C125.191 54.0151 125.586 54.0679 126.112 54.0679C126.639 54.0679 127.034 54.0151 127.323 53.9093C127.613 53.8036 127.824 53.6715 127.929 53.4865C128.061 53.3016 128.14 53.0901 128.166 52.8523C128.166 52.6145 128.192 52.3766 128.192 52.1124C128.192 51.8481 128.192 51.6103 128.166 51.3725C128.166 51.1346 128.061 50.9232 127.929 50.7647C127.797 50.5797 127.587 50.4475 127.323 50.3418C127.06 50.2361 126.639 50.1833 126.112 50.1833C125.586 50.1833 125.191 50.2361 124.901 50.3418C124.612 50.4475 124.401 50.5797 124.296 50.7647C124.164 50.9496 124.085 51.1346 124.059 51.3725C124.059 51.6103 124.032 51.8481 124.032 52.1124Z" fill="#21B19B"/>
<path d="M131.35 53.9618C131.613 53.9618 131.797 53.9089 131.876 53.7768C131.955 53.6447 132.008 53.4597 132.034 53.2219L132.245 48.7559H138.3V55.4152H136.51V50.3414H133.904L133.772 53.4068C133.772 53.7504 133.693 54.0675 133.64 54.3317C133.561 54.596 133.43 54.8338 133.272 54.9924C133.114 55.1774 132.903 55.3095 132.64 55.4152C132.377 55.4945 132.061 55.5474 131.666 55.5474C131.508 55.5474 131.35 55.5474 131.218 55.5474C131.06 55.5474 130.929 55.4945 130.797 55.4681V53.9354C130.797 53.9354 130.955 53.9354 131.06 53.9354C131.165 53.9354 131.271 53.9354 131.323 53.9354L131.35 53.9618Z" fill="#21B19B"/>
<path d="M139.565 51.8481C139.565 51.3989 139.618 50.9761 139.723 50.5797C139.829 50.1833 140.039 49.8397 140.329 49.5491C140.619 49.2584 140.987 49.0205 141.461 48.8356C141.935 48.677 142.54 48.5713 143.251 48.5713H143.594C144.304 48.5713 144.91 48.6506 145.384 48.8356C145.858 48.9941 146.226 49.2319 146.516 49.5491C146.806 49.8397 146.99 50.1833 147.122 50.5797C147.227 50.9761 147.279 51.3989 147.279 51.8481V52.3766C147.279 52.8259 147.227 53.2487 147.122 53.6451C147.016 54.0415 146.806 54.385 146.516 54.6757C146.226 54.9664 145.858 55.2042 145.384 55.3892C144.91 55.5478 144.304 55.6535 143.594 55.6535H143.225C142.514 55.6535 141.909 55.5742 141.435 55.3892C140.961 55.2042 140.592 54.9928 140.303 54.6757C140.013 54.385 139.829 54.0415 139.697 53.6451C139.592 53.2487 139.539 52.8259 139.539 52.3766V51.8481H139.565ZM141.356 52.1124C141.356 52.3766 141.356 52.6145 141.382 52.8523C141.382 53.0901 141.487 53.3016 141.619 53.4865C141.751 53.6715 141.961 53.8036 142.225 53.9093C142.514 54.0151 142.909 54.0679 143.436 54.0679C143.962 54.0679 144.357 54.0151 144.647 53.9093C144.936 53.8036 145.121 53.6715 145.252 53.4865C145.384 53.3016 145.463 53.0901 145.489 52.8523C145.489 52.6145 145.516 52.3766 145.516 52.1124C145.516 51.8481 145.516 51.6103 145.489 51.3725C145.489 51.1346 145.384 50.9232 145.252 50.7647C145.121 50.5797 144.91 50.4475 144.647 50.3418C144.357 50.2361 143.962 50.1833 143.436 50.1833C142.909 50.1833 142.514 50.2361 142.225 50.3418C141.935 50.4475 141.724 50.5797 141.619 50.7647C141.487 50.9496 141.408 51.1346 141.382 51.3725C141.382 51.6103 141.356 51.8481 141.356 52.1124Z" fill="#21B19B"/>
<path d="M154.572 50.3678H150.386V55.4416H148.596V48.7822H154.546V50.3678H154.572Z" fill="#21B19B"/>
<path d="M160.758 48.7832H162.548V55.4426H160.758V51.1616L157.282 55.4426H155.492V48.7832H157.282V53.0642L160.758 48.7832Z" fill="#21B19B"/>
<path d="M169.209 48.7822H170.999V55.4416H169.209V51.1606L165.734 55.4416H163.943V48.7822H165.734V53.0632L169.209 48.7822Z" fill="#21B19B"/>
<path d="M180.242 48.7832H182.032V55.4426H180.242V51.1616L176.767 55.4426H174.977V48.7832H176.767V53.0642L180.242 48.7832Z" fill="#21B19B"/>
<path d="M187.058 54.0684L185.189 51.4522V55.4426H183.398V48.7832H185.189L187.506 52.1922L189.822 48.7832H191.613V55.4426H189.822V51.4522L187.953 54.0684H187.032H187.058Z" fill="#21B19B"/>
<path d="M199.381 50.3678H194.8V51.372H198.381V52.9575H194.8V53.856H199.381V55.4416H193.01V48.7822H199.381V50.3678Z" fill="#21B19B"/>
<path d="M202.359 48.7827V51.3725H203.675C203.701 50.9761 203.807 50.6061 203.938 50.2626C204.07 49.919 204.281 49.6283 204.544 49.3641C204.807 49.1262 205.15 48.9148 205.571 48.7827C205.992 48.6506 206.519 48.5713 207.15 48.5713H207.519C208.204 48.5713 208.783 48.6506 209.204 48.8356C209.652 48.9941 210.02 49.2319 210.283 49.5491C210.547 49.8397 210.731 50.1833 210.836 50.5797C210.942 50.9761 210.994 51.3989 210.994 51.8481V52.3766C210.994 52.8259 210.942 53.2487 210.836 53.6451C210.731 54.0415 210.547 54.385 210.283 54.6757C210.02 54.9664 209.652 55.2042 209.204 55.3892C208.756 55.5478 208.177 55.6535 207.519 55.6535H207.15C206.545 55.6535 206.018 55.5742 205.623 55.4421C205.202 55.3099 204.86 55.1249 204.597 54.8871C204.333 54.6493 204.123 54.3586 203.991 54.0415C203.859 53.7244 203.754 53.3544 203.728 52.9844H202.411V55.4685H200.621V48.8091H202.411L202.359 48.7827ZM205.439 52.1124C205.439 52.3766 205.439 52.6145 205.465 52.8523C205.465 53.0901 205.544 53.3016 205.676 53.4865C205.808 53.6715 205.992 53.8036 206.229 53.9093C206.492 54.0151 206.834 54.0679 207.308 54.0679C207.782 54.0679 208.151 54.0151 208.388 53.9093C208.651 53.8036 208.835 53.6715 208.941 53.4865C209.072 53.3016 209.125 53.0901 209.151 52.8523C209.151 52.6145 209.178 52.3766 209.178 52.1124C209.178 51.8481 209.178 51.6103 209.151 51.3725C209.151 51.1346 209.072 50.9232 208.941 50.7647C208.809 50.5797 208.625 50.4475 208.388 50.3418C208.125 50.2361 207.782 50.1833 207.308 50.1833C206.834 50.1833 206.466 50.2361 206.229 50.3418C205.966 50.4475 205.781 50.5797 205.676 50.7647C205.544 50.9496 205.492 51.1346 205.465 51.3725C205.465 51.6103 205.439 51.8481 205.439 52.1124Z" fill="#21B19B"/>
<path d="M214.44 55.4426V50.3688H211.859V48.7832H218.81V50.3688H216.23V55.4426H214.44Z" fill="#21B19B"/>
<path d="M224.947 55.6535C224.473 55.6535 224.026 55.6271 223.605 55.5742C223.183 55.5214 222.762 55.4421 222.367 55.3364V53.698C222.841 53.8301 223.289 53.9094 223.71 53.9623C224.131 54.0151 224.552 54.0415 225.026 54.0415C225.448 54.0415 225.79 54.0415 226.027 53.9887C226.264 53.9623 226.448 53.9094 226.553 53.8566C226.659 53.8037 226.738 53.7244 226.764 53.6716C226.79 53.5923 226.817 53.5394 226.817 53.4337C226.817 53.3809 226.817 53.3016 226.817 53.2488C226.817 53.1959 226.738 53.1431 226.632 53.0902C226.527 53.0373 226.343 53.0109 226.132 52.9845C225.895 52.9581 225.579 52.9316 225.158 52.9316H224.368V51.3461H225.158C225.527 51.3461 225.816 51.3461 226.027 51.2932C226.237 51.2668 226.369 51.214 226.474 51.1611C226.553 51.1082 226.632 51.0554 226.632 50.9761C226.632 50.8968 226.659 50.8176 226.659 50.7383C226.659 50.659 226.659 50.5797 226.632 50.5004C226.632 50.4212 226.553 50.3683 226.448 50.3155C226.343 50.2626 226.185 50.2098 225.974 50.1833C225.763 50.1569 225.448 50.1305 225.053 50.1305C224.605 50.1305 224.184 50.1569 223.815 50.2362C223.447 50.289 223.052 50.3947 222.63 50.5004V48.862C222.999 48.7563 223.368 48.677 223.763 48.6242C224.157 48.5713 224.579 48.5449 224.974 48.5449H225.211C225.816 48.5449 226.29 48.5978 226.685 48.7035C227.08 48.8092 227.396 48.9413 227.606 49.1263C227.843 49.2848 228.001 49.4963 228.107 49.7341C228.186 49.9719 228.238 50.2098 228.238 50.474V50.6854C228.238 51.0025 228.133 51.2932 227.922 51.5575C227.712 51.8217 227.343 52.0067 226.79 52.1124C227.106 52.1653 227.37 52.271 227.58 52.3503C227.791 52.456 227.949 52.5617 228.08 52.6938C228.212 52.8259 228.291 52.9581 228.344 53.1166C228.396 53.2752 228.423 53.4073 228.423 53.5659V53.7773C228.423 54.0415 228.37 54.2794 228.265 54.5172C228.159 54.755 228.001 54.94 227.738 55.125C227.501 55.2836 227.159 55.4421 226.738 55.5214C226.316 55.6271 225.79 55.6799 225.158 55.6799H224.921L224.947 55.6535Z" fill="#21B19B"/>
<path d="M231.579 48.7822V51.372H235.055V48.7822H236.845V55.4416H235.055V52.9575H231.579V55.4416H229.789V48.7822H231.579Z" fill="#21B19B"/>
<path d="M237.74 55.4426V55.0462L240.689 48.7832H242.479L245.428 55.0462V55.4426H243.822L243.243 54.1477H239.899L239.346 55.4426H237.74ZM242.611 52.6678L241.61 50.3952L240.61 52.6678H242.637H242.611Z" fill="#21B19B"/>
<path d="M247.376 50.8699C247.376 51.0285 247.376 51.1342 247.376 51.2663C247.376 51.3985 247.429 51.5042 247.534 51.5834C247.64 51.6627 247.771 51.742 247.955 51.7949C248.14 51.8477 248.403 51.8741 248.772 51.8741C249.088 51.8741 249.377 51.8741 249.667 51.8741C249.93 51.8741 250.246 51.8477 250.562 51.7949V48.7823H252.352V55.4416H250.562V53.354C250.246 53.4068 249.904 53.4333 249.561 53.4333C249.219 53.4333 248.877 53.4333 248.508 53.4333H248.245C247.719 53.4333 247.297 53.3804 246.955 53.2483C246.613 53.1162 246.349 52.9576 246.139 52.7462C245.955 52.5348 245.797 52.2705 245.718 51.9798C245.639 51.6891 245.586 51.372 245.586 51.0549V48.7559H247.376V50.8435V50.8699Z" fill="#21B19B"/>
<path d="M260.095 50.3678H255.514V51.372H259.095V52.9575H255.514V53.856H260.095V55.4416H253.75V48.7822H260.095V50.3678Z" fill="#21B19B"/>
<path d="M263.07 48.7822V51.372H266.545V48.7822H268.335V55.4416H266.545V52.9575H263.07V55.4416H261.279V48.7822H263.07Z" fill="#21B19B"/>
<path d="M274.969 48.7822H276.759V55.4416H274.969V51.1606L271.493 55.4416H269.703V48.7822H271.493V53.0632L274.969 48.7822Z" fill="#21B19B"/>
<path d="M284.5 50.3688H279.919V51.373H283.5V52.9585H279.919V53.857H284.5V55.4426H278.129V48.7832H284.5V50.3688Z" fill="#21B19B"/>
<path d="M70.8214 56.2627C69.2417 59.4867 67.1618 62.42 64.6343 65.0097L63.8445 65.8025C57.3941 72.0655 48.9165 75.5008 39.965 75.5008C38.3327 75.5008 36.7004 75.3951 35.1207 75.1573L34.1992 81.6053C36.0948 81.8695 38.0431 82.0017 39.965 82.0017C50.6015 82.0017 60.6851 77.9056 68.3466 70.4799L69.268 69.555C72.2431 66.4896 74.7179 62.9749 76.6135 59.1431L70.7951 56.2627H70.8214Z" fill="#50C1E8"/>
<path d="M53.2079 28.1952L52.1022 27.1381C48.7585 24.2048 44.4671 22.5664 40.0176 22.5664C35.068 22.5664 30.4343 24.5219 26.959 28.0366L31.5664 32.6083C33.8043 30.3357 36.8056 29.0672 40.0176 29.0672C42.8874 29.0672 45.6782 30.1243 47.837 32.0269L48.5479 32.714C50.3645 34.6167 51.4966 36.995 51.8126 39.6112L58.2629 38.8713C57.8153 34.8809 56.025 31.0756 53.2079 28.1952Z" fill="#50C1E8"/>
</g>
<defs>
<clipPath id="clip0_4518_772">
<rect width="285" height="82" fill="white"/>
</clipPath>
</defs>
</svg>
