<svg width="542" height="166" viewBox="0 0 542 166" fill="none" xmlns="http://www.w3.org/2000/svg">
<g clip-path="url(#clip0_4681_545)">
<path d="M56.4522 60.3888V63.0257L94.4269 110.889V116.162H67.0122L38.176 78.6419L25.9916 90.608V116.162H1.41992V22.0576H25.9916V60.7944L64.1692 22.0576H89.7563V27.3307L56.4522 60.3888Z" fill="#363737"/>
<path d="M150.881 71.7465V22.0576H175.453V73.9774C175.453 87.7683 182.357 94.4614 196.369 95.0698C210.381 94.4614 217.286 87.7683 217.286 73.9774V22.0576H241.857V71.9493C241.857 102.777 225.205 117.987 196.369 117.987C167.533 117.987 150.881 102.777 150.881 71.7465Z" fill="#363737"/>
<path d="M297.908 22.0576H350.707V22.2604C370.201 22.2604 384.618 32.1982 384.618 48.4231C384.618 56.3327 380.763 62.6197 374.465 67.2847V68.7043C381.778 73.5717 386.446 80.67 386.446 89.188C386.446 105.819 371.827 116.365 352.331 116.365H297.908V22.0576ZM322.683 43.5556V57.9551H350.91C356.393 57.9551 360.048 55.1158 360.048 50.654C360.048 46.1922 356.393 43.5556 350.91 43.5556H322.683ZM322.683 79.4532V94.6642H352.535C358.017 94.6642 361.673 91.8245 361.673 86.7543C361.673 81.8869 358.017 79.2504 352.535 79.2504H322.683V79.4532Z" fill="#363737"/>
<path d="M513.57 58.9695C515.601 66.6766 514.383 74.9918 512.96 80.8732C508.494 99.3292 496.917 111.7 477.625 114.945C482.095 115.959 486.763 116.568 491.84 116.568C520.678 116.568 542 98.1123 542 69.1103C542 40.1081 520.678 21.6523 491.84 21.6523C488.187 21.6523 484.53 22.058 481.079 22.6664C499.356 26.9254 510.116 40.1082 513.57 58.9695Z" fill="#EF5052"/>
<path d="M474.578 23.6787C454.271 29.3574 440.461 45.7851 440.461 69.1085C440.461 90.6066 452.038 106.223 469.906 112.916C479.25 110.279 487.167 105.412 493.057 98.7189C492.041 97.2993 491.026 95.8796 490.011 94.4599C490.011 94.4599 490.011 94.2571 489.808 94.2571C486.152 87.9701 483.918 80.0602 483.918 71.3394C483.918 60.5905 487.373 50.8554 492.854 43.9599C492.854 43.757 493.057 43.757 493.057 43.757C494.072 42.5402 495.087 41.5261 496.103 40.512C491.026 32.8052 483.514 27.1265 474.578 23.6787Z" fill="#AA3362"/>
</g>
<defs>
<clipPath id="clip0_4681_545">
<rect width="542" height="166" fill="white"/>
</clipPath>
</defs>
</svg>
