<svg width="124" height="56" viewBox="0 0 124 56" fill="none" xmlns="http://www.w3.org/2000/svg"><path fill-rule="evenodd" clip-rule="evenodd" d="M64.2835 51.6452V47.2909C64.2835 46.1378 64.2835 45.531 64.4201 45.1668C64.5566 44.8179 64.9056 44.4538 65.6035 43.7558L73.4322 35.9271C74.2666 35.0927 74.6763 34.6982 74.919 34.0762C75.1618 33.4844 75.1618 32.9079 75.1618 31.8004V20.5428L73.1591 18.5401V31.8004C73.1591 32.6348 73.1591 33.0748 73.0529 33.3176C72.9467 33.5755 72.6432 33.8789 72.006 34.501L64.1925 42.3449C63.2973 43.24 62.827 43.7407 62.5539 44.4689C62.2808 45.182 62.2808 45.9103 62.2808 47.2909V51.6452C61.7043 51.9942 61.325 52.4342 61.325 53.3293C61.325 54.2245 62.205 55.2865 63.2822 55.2865C64.3594 55.2865 65.2393 54.2245 65.2393 53.3293C65.2393 52.4342 64.86 51.979 64.2835 51.6452ZM68.7137 51.6452V50.0825C68.7137 48.9295 68.7137 48.3378 68.8503 47.9585C68.9868 47.6095 69.3358 47.2454 70.0337 46.5475L77.8624 38.7188C78.6817 37.8995 79.0913 37.4898 79.3492 36.8678C79.592 36.2761 79.592 35.7147 79.592 34.592V24.9578L77.5893 22.9551V34.592C77.5893 35.4265 77.5893 35.8664 77.4831 36.1092C77.3921 36.3519 77.0734 36.6706 76.4362 37.2926L68.6075 45.1213C67.7124 46.0165 67.2572 46.502 66.9689 47.2454C66.6958 47.9585 66.6958 48.6867 66.6958 50.0674V51.6149C66.1193 51.9639 65.74 52.4038 65.74 53.299C65.74 54.1941 66.62 55.2562 67.6972 55.2562C68.7744 55.2562 69.6544 54.1941 69.6544 53.299C69.6544 52.4038 69.2902 51.979 68.7137 51.6452ZM58.852 55.2865C59.9292 55.2865 60.8091 54.2245 60.8091 53.3293C60.8091 52.4342 60.4298 51.9942 59.8533 51.6452V44.4841C59.8533 43.331 59.8533 42.7242 59.9898 42.36C60.1112 42.0111 60.4753 41.6469 61.1733 40.949L69.002 33.1203C69.8213 32.301 70.2309 31.8914 70.4888 31.2693C70.7316 30.6776 70.7316 30.1011 70.7316 28.9936V16.1278L68.7289 14.1251L59.914 22.9248H68.7289V28.9936C68.7289 29.828 68.7289 30.268 68.6227 30.5107C68.5165 30.7535 68.213 31.0721 67.5758 31.6942L59.7623 39.5229C58.8671 40.418 58.412 40.9035 58.1237 41.6469C57.8506 42.36 57.8506 43.0883 57.8506 44.4689V51.6452C57.2741 51.9942 56.8948 52.4342 56.8948 53.3293C56.8948 54.2245 57.7747 55.2865 58.852 55.2865Z" fill="#000"/><path fill-rule="evenodd" clip-rule="evenodd" d="M100.453 26.5357H98.511V19.9207H98.4654L96.2048 26.5357H94.4752L92.1388 19.9207H92.0781V26.5357H90.1057V17.5842H93.1704L95.3855 23.9868L97.5703 17.5842H100.453V26.5357ZM110.603 26.5357H108.418L107.614 24.184H104.337L103.548 26.5357H101.424L104.731 17.5842H107.356L110.603 26.5357ZM107.159 22.7427L106.021 19.3745H105.96L104.822 22.7427H107.159ZM124 26.5357H111.589V17.5842H113.744V25.0033H116.717V17.5842H118.887V25.0033H121.845V17.5842H124V26.5357Z" fill="#000"/><path fill-rule="evenodd" clip-rule="evenodd" d="M91.8961 37.5961H90.121V30.2225H91.8961V33.1811H93.034V32.3466C93.034 31.9673 93.125 31.6335 93.2919 31.3453C93.4588 31.057 93.6712 30.8446 93.8988 30.6929C94.1415 30.5411 94.4298 30.4198 94.7636 30.3287C95.0974 30.2377 95.4008 30.177 95.6739 30.1467C95.947 30.1163 96.2201 30.1163 96.5084 30.1163C96.8118 30.1163 97.1001 30.1315 97.3732 30.1467C97.6463 30.1619 97.9497 30.2225 98.2835 30.3287C98.6173 30.4198 98.9207 30.5411 99.1634 30.6929C99.4062 30.8446 99.6034 31.057 99.7703 31.3453C99.9372 31.6335 100.013 31.9673 100.013 32.3466V35.5782C100.013 35.9879 99.9069 36.352 99.6793 36.6403C99.4669 36.9285 99.1634 37.1561 98.7993 37.3078C98.4352 37.4595 98.0559 37.5658 97.6918 37.6264C97.3276 37.6871 96.9332 37.7175 96.5084 37.7175C96.1139 37.7175 95.7498 37.6871 95.4008 37.6416C95.0519 37.5961 94.6877 37.5051 94.2933 37.3685C93.8988 37.232 93.5953 37.0196 93.3678 36.7161C93.1402 36.4127 93.0188 36.0334 93.0188 35.5934V34.4555H91.8809V37.5961H91.8961ZM98.2531 35.5631V32.3314C98.2531 31.9825 98.1014 31.7246 97.8131 31.588C97.5249 31.4515 97.0849 31.3756 96.5235 31.3756C95.947 31.3756 95.5222 31.4515 95.2339 31.588C94.9456 31.7246 94.8091 31.9825 94.8091 32.3466V35.5934C94.8091 35.7755 94.8546 35.9424 94.9608 36.0637C95.067 36.1851 95.2036 36.2761 95.3856 36.3368C95.5677 36.3823 95.7498 36.4279 95.9167 36.443C96.0835 36.4582 96.296 36.4734 96.5539 36.4734C96.7966 36.4734 97.009 36.4582 97.1911 36.443C97.358 36.4279 97.5401 36.3823 97.7221 36.3368C97.9042 36.2913 98.0407 36.2003 98.1318 36.0637C98.2076 35.912 98.2531 35.7603 98.2531 35.5631ZM108.145 37.5961H106.37V34.4403H103.23V37.5961H101.454V30.2225H103.23V33.1811H106.37V30.2225H108.145V37.5961ZM111.635 37.5961H109.723V30.2225H111.422V35.3658L114.76 30.2225H116.672V37.5961H114.988V32.3618L111.635 37.5961ZM124 31.4818H121.739V37.5961H119.964V31.4818H117.688V30.2225H124V31.4818Z" fill="#00AEEF"/><path fill-rule="evenodd" clip-rule="evenodd" d="M56.4701 0C57.5473 0 58.4273 1.06204 58.4273 1.95718C58.4273 2.85232 58.048 3.29231 57.4715 3.64126V5.1888C57.4715 6.56945 57.4715 7.2977 57.1984 8.01078C56.9253 8.75421 56.4549 9.23971 55.5598 10.1349L47.7311 17.9636C47.0939 18.5856 46.7904 18.9042 46.6842 19.147C46.578 19.4049 46.578 19.8297 46.578 20.6642V32.3011L44.5753 30.2984V20.6642C44.5753 19.5566 44.5753 18.9953 44.8181 18.3884C45.076 17.7663 45.4856 17.3567 46.3049 16.5374L54.1488 8.73903C54.8467 8.04113 55.1957 7.677 55.3322 7.32804C55.4688 6.96392 55.4688 6.35704 55.4688 5.20397V3.65644C54.8922 3.30748 54.5129 2.8675 54.5129 1.97235C54.5129 1.06204 55.3929 0 56.4701 0ZM60.9003 0C59.8231 0 58.9431 1.06204 58.9431 1.95718C58.9431 2.85232 59.3224 3.29231 59.899 3.64126V7.99561C59.899 9.14868 59.899 9.75555 59.7624 10.1197C59.6259 10.4686 59.2769 10.8328 58.579 11.5307L50.7655 19.3594C49.931 20.1787 49.5214 20.5883 49.2786 21.2104C49.0359 21.8021 49.0359 22.3786 49.0359 23.4862V34.7437L51.0386 36.7464V23.4862C51.0386 22.6517 51.0386 22.2117 51.1448 21.969C51.251 21.711 51.5544 21.4076 52.1916 20.7856L60.0203 12.9568C60.9155 12.0617 61.3858 11.561 61.6589 10.8328C61.932 10.1197 61.932 9.39143 61.932 8.01078V3.65644C62.5085 3.30748 62.8878 2.8675 62.8878 1.97235C62.8575 1.06204 61.9927 0 60.9003 0ZM65.3305 0C64.2533 0 63.3733 1.06204 63.3733 1.95718C63.3733 2.85232 63.7526 3.29231 64.3292 3.64126V10.8024C64.3292 11.9555 64.3292 12.5624 64.1926 12.9265C64.0713 13.2754 63.7071 13.6396 63.0092 14.3375L55.1805 22.1662C54.3612 22.9855 53.9516 23.3951 53.6937 24.0172C53.4509 24.6089 53.4509 25.1854 53.4509 26.293V39.1588L55.4536 41.1615L64.2685 32.3466H55.4536V26.2778C55.4536 25.4433 55.4536 25.0033 55.5598 24.7606C55.6508 24.5178 55.9694 24.1992 56.6067 23.5772L64.4354 15.7485C65.3305 14.8533 65.7857 14.3678 66.0739 13.6244C66.347 12.9113 66.347 12.1831 66.347 10.8024V3.65644C66.9236 3.30748 67.3029 2.8675 67.3029 1.97235C67.2877 1.06204 66.4229 0 65.3305 0Z" fill="#00AEEF"/><path d="M9.33074 25.6254H7.57079V19.6477H7.54045L5.49224 25.6254H3.92953L1.82063 19.6477H1.77512V25.6254H0V17.5388H2.76129L4.74881 23.3193L6.72117 17.5388H9.33074V25.6254ZM18.5098 25.6254H16.5374L15.8092 23.5013H12.8506L12.1375 25.6254H10.2259L13.2148 17.5388H15.5816L18.5098 25.6254ZM15.3843 22.1965L14.3678 19.1622H14.3223L13.3058 22.1965H15.3843ZM25.3978 25.4737C24.4875 25.6557 23.6075 25.7468 22.7882 25.7468C22.4545 25.7468 22.1358 25.7316 21.8476 25.7013C21.5593 25.6709 21.2255 25.6102 20.8614 25.5192C20.4973 25.4282 20.1938 25.2916 19.9359 25.1399C19.678 24.973 19.4656 24.7454 19.2987 24.4572C19.1318 24.1689 19.0408 23.8199 19.0408 23.4103V19.8601C19.0408 18.2367 20.2849 17.4174 22.7882 17.4174C23.4103 17.4174 24.2599 17.5084 25.3523 17.6905V19.147C24.3661 18.9194 23.5165 18.798 22.8034 18.798C22.5151 18.798 22.2876 18.8132 22.1055 18.8284C21.9234 18.8436 21.7414 18.8891 21.5441 18.9498C21.3469 19.0104 21.2104 19.1166 21.1042 19.2684C21.0131 19.4201 20.9676 19.6021 20.9676 19.8297V23.2738C20.9676 24.002 21.6352 24.3661 22.9703 24.3661C23.562 24.3661 24.3661 24.2448 25.3826 24.002V25.4737H25.3978ZM33.97 25.6254H32.0279V22.1662H28.5839V25.6254H26.6419V17.5388H28.5839V20.7856H32.0279V17.5388H33.97V25.6254Z" fill="#000"/><path d="M7.54045 28.857V35.1685C7.54045 36.8526 6.28118 37.6871 3.76264 37.6871C1.2441 37.6871 0 36.8526 0 35.1685V28.857H2.09373V35.1685C2.09373 35.563 2.23027 35.8361 2.4882 35.9727C2.74612 36.1244 3.18611 36.2002 3.80815 36.2002C4.41503 36.2002 4.83985 36.1244 5.09777 35.9727C5.34052 35.8209 5.47707 35.5478 5.47707 35.1685V28.857H7.54045ZM18.6615 37.5657H16.5374L12.3196 31.5273V37.5657H10.4686V28.857H12.5927L16.8105 34.8044V28.857H18.6766V37.5657H18.6615ZM23.6682 37.5657H21.5745V28.857H23.6682V37.5657ZM34.0155 30.3439H31.3452V37.5657H29.2666V30.3439H26.5812V28.857H34.0306V30.3439H34.0155Z" fill="#00AEEF"/></svg>