<svg width="285" height="91" viewBox="0 0 285 91" fill="none" xmlns="http://www.w3.org/2000/svg">
<path d="M150.023 0H0V89.0568H150.023V0Z" fill="#E10913"/>
<path d="M176.478 31.8035V27.6634C176.478 25.7657 176.98 24.3079 177.957 23.3272C178.934 22.3465 180.419 21.8588 182.378 21.8641H189.985L187.238 12.6191H181.1C170.926 12.6191 165.971 17.671 165.945 28.1299V31.777H156.568V31.8989L159.294 41.0537H165.923L165.834 79.5126L176.362 79.5392L176.457 41.0592L189.954 41.0963L187.201 31.8194L176.478 31.8035Z" fill="black"/>
<path d="M224.966 36.9395C221.432 33.6157 217.686 31.9299 210.983 31.9087C210.587 31.9087 210.212 31.9723 209.816 31.9829V31.9087L193.567 31.8716L196.345 41.1483L209.235 41.1801H209.61C212.251 41.1801 215.214 41.901 216.936 43.9156C218.389 45.6437 219.146 47.8533 219.06 50.1124V52.1216L205.949 52.0897C200.027 52.0897 195.321 53.8548 192.215 56.3303C189.108 58.8062 187.788 62.6545 187.777 67.1392C187.777 71.4383 189.172 74.7143 192.077 77.1424C194.983 79.5701 199.161 80.8529 204.454 80.8529C210.687 80.8529 215.743 78.8067 219.472 74.7302L220.529 73.5905V79.7131H229.842L230.211 51.1618C230.211 45.0288 228.458 40.2418 224.929 36.9288L224.966 36.9395ZM219.06 62.3419C219.06 64.9922 217.327 66.9907 215.362 68.5971C213.397 70.2033 209.636 71.0356 206.166 71.0356C203.783 71.0356 202.045 70.5689 200.883 69.6307C200.275 69.1724 199.786 68.5747 199.456 67.8877C199.126 67.2006 198.965 66.444 198.987 65.6816C198.987 63.3279 200.202 60.529 205.917 60.5449L219.06 60.5765V62.3419Z" fill="black"/>
<path d="M31.0097 31.5966C28.503 31.5557 26.0125 32.0059 23.6776 32.9219C21.4947 33.786 19.5521 35.1663 18.0148 36.9454L15.5267 31.5542H8.03088L7.91992 79.8359H18.3634L18.4162 55.0852C18.4162 45.8669 24.7552 42.4954 28.6009 42.5009H35.8166L32.5945 31.5966H31.0097Z" fill="white"/>
<path d="M61.3737 70.5026C54.6017 70.5026 49.5462 67.1418 47.9457 59.5189H85.0235C85.3049 58.0112 85.427 56.4779 85.3878 54.9442C85.4532 50.8375 84.3638 46.7958 82.2447 43.2819C80.1484 39.6403 77.073 36.6646 73.3702 34.6944C69.5616 32.6216 67.1793 31.5826 62.2769 31.572C57.7739 31.4829 53.3234 32.5543 49.3509 34.6837C45.6589 36.6844 42.5977 39.6809 40.5133 43.3349C38.3648 47.1312 37.2601 51.4323 37.3122 55.7977C37.2368 60.1803 38.3311 64.5034 40.4816 68.3186C42.5711 71.9885 45.6462 74.9954 49.3561 76.9965C52.9166 78.963 56.8995 79.6468 61.3895 79.7424V79.7794L80.0315 79.822L77.2686 70.5293L61.3737 70.5026ZM53.45 43.9605C55.7232 42.185 58.5363 41.2493 61.4161 41.3101C68.1071 41.3101 72.3332 44.6797 74.0941 51.4189H48.7116C49.6414 48.2385 51.2316 45.7204 53.4659 43.9498" fill="white"/>
<path d="M260.454 31.5397C255.137 31.5568 249.977 33.3512 245.79 36.6392V9.54053H236.281V55.8025V79.6569H245.79V74.9551C249.977 78.2431 255.137 80.0374 260.454 80.0547C263.659 80.1021 266.842 79.5096 269.818 78.3114C272.793 77.1134 275.501 75.3337 277.785 73.0756C280.068 70.8175 281.882 68.1265 283.119 65.1589C284.357 62.1914 284.995 59.0064 284.995 55.7892C284.995 52.572 284.357 49.387 283.119 46.4194C281.882 43.4519 280.068 40.7609 277.785 38.5028C275.501 36.2447 272.793 34.465 269.818 33.267C266.842 32.0688 263.659 31.4763 260.454 31.5238V31.5397ZM260.454 70.4438C257.565 70.4438 254.74 69.5838 252.338 67.9725C249.935 66.3611 248.063 64.0712 246.958 61.3919C245.853 58.7129 245.565 55.7648 246.13 52.9211C246.694 50.0776 248.087 47.4659 250.132 45.4168C252.176 43.3674 254.78 41.9728 257.614 41.4089C260.449 40.8454 263.386 41.1379 266.054 42.2497C268.723 43.3615 271.003 45.2426 272.606 47.6551C274.209 50.0676 275.063 52.9029 275.06 55.8025C275.06 59.6889 273.522 63.4163 270.784 66.1648C268.046 68.9133 264.332 70.4584 260.459 70.4597" fill="black"/>
<path d="M138.722 55.8025V9.54053H129.214V36.6392C125.025 33.3512 119.863 31.5568 114.544 31.5397C108.193 31.6339 102.134 34.2319 97.676 38.7722C93.218 43.3127 90.7188 49.4309 90.7188 55.8051C90.7188 62.1793 93.218 68.2974 97.676 72.838C102.134 77.3782 108.193 79.9763 114.544 80.0705C119.863 80.0533 125.025 78.259 129.214 74.971V79.6727H138.722V55.8184V55.8025ZM114.544 70.4596C111.656 70.4606 108.831 69.602 106.428 67.9922C104.026 66.3822 102.153 64.0932 101.046 61.4152C99.9401 58.7369 99.6503 55.7898 100.213 52.9461C100.776 50.1026 102.167 47.4903 104.209 45.4402C106.252 43.3898 108.854 41.9932 111.688 41.4271C114.521 40.8613 117.458 41.1512 120.128 42.2604C122.797 43.3696 125.078 45.2481 126.683 47.6586C128.289 50.0692 129.146 52.9032 129.146 55.8025C129.146 59.6888 127.607 63.4162 124.869 66.1648C122.131 68.9133 118.418 70.4583 114.544 70.4596Z" fill="white"/>
</svg>
