<svg xmlns="http://www.w3.org/2000/svg" width="398" height="88" fill="none">
  <g clip-path="url(#a)">
    <path fill="#85754E" d="M294.4 21.2h7.2v1.2h-5.8v3.3h5.4V27h-5.4v3.6h5.8v1.2h-7.2V21.2ZM303.1 24.1h4.5l.8.4c.3 0 .5.3.6.5l.2 1c0 .4 0 .7-.3 1l-.8.6c.4 0 .8.3 1 .6.3.3.4.7.4 1.2l-.1 1a2 2 0 0 1-1.2 1.1l-1 .2h-4V24Zm3.4 3.1c.5 0 .9 0 1.1-.3.2-.2.3-.4.3-.8 0-.3 0-.5-.3-.7-.2-.2-.6-.2-1.1-.2h-2.1v2h2.1Zm.5 3.4c.4 0 .7-.1 1-.3l.2-1a1 1 0 0 0-.3-.8c-.2-.2-.6-.3-1.1-.3h-2.4v2.4h2.6ZM311 24.1h1.3v1c.2-.4.6-.7 1-.9.4-.2 1-.3 1.4-.3.6 0 1.1.2 1.6.4.4.2.8.5 1 .8.3.4.6.8.7 1.3a5.3 5.3 0 0 1 0 3c-.1.5-.4 1-.6 1.3a3 3 0 0 1-1.1.8 3.6 3.6 0 0 1-2.2.3l-.6-.2c-.3 0-.5-.2-.7-.4l-.5-.5v3.9H311V24Zm3.7 6.6c.4 0 .7 0 1-.2l.7-.7c.2-.2.3-.5.4-.9a4.7 4.7 0 0 0 0-2.1l-.5-1a2.1 2.1 0 0 0-1.7-.8c-.4 0-.8.1-1.1.3-.3.1-.5.4-.7.6l-.4 1a4.4 4.4 0 0 0 0 2c0 .4.2.7.4 1l.7.6c.3.2.7.2 1.1.2M321.8 31.8h-1a2 2 0 0 1-1.3-1.1l-.2-1c0-.4 0-.7.2-1l.6-.7.8-.4a12.2 12.2 0 0 1 2-.4h.7c.3-.2.5-.2.6-.4l.2-.5c0-.3 0-.5-.2-.7a1 1 0 0 0-.3-.3l-.6-.2h-.6c-.5 0-1 0-1.3.2-.3.2-.5.6-.6 1.2h-1.2c0-.5.1-.9.3-1.2l.7-.8 1-.4a7.2 7.2 0 0 1 2.2 0c.4 0 .7 0 1 .2l.6.7c.2.2.2.6.2 1v4.6l.4.2.4-.1v1l-.9.2a1 1 0 0 1-.8-.3l-.2-1a3 3 0 0 1-1.2 1 4 4 0 0 1-1.5.3m.3-1.1 1-.2.8-.4.4-.6.1-.6v-1.2l-.6.2-.8.2h-.9l-.7.3c-.2 0-.4.2-.6.4l-.2.7a1 1 0 0 0 .5 1l.4.1h.6M330.3 31.8c-1 0-1.7-.2-2.3-.6-.6-.5-.9-1.1-1-2h1.3c0 .6.3 1 .6 1.2.4.3.9.4 1.4.4.6 0 1-.1 1.4-.4.3-.2.5-.6.5-1 0-.3-.1-.6-.4-.8-.2-.2-.7-.3-1.2-.3h-1v-1h.8c.4 0 .8-.1 1-.3.4-.2.6-.5.6-1 0-.3-.2-.5-.4-.7-.3-.2-.7-.3-1.2-.3a3 3 0 0 0-.7 0l-.6.3c-.2 0-.3.2-.4.4l-.2.6h-1.3c0-.4.1-.8.3-1.1l.8-.8c.3-.1.6-.3 1-.3a5.1 5.1 0 0 1 2.2 0l.9.3.6.7.2.9c0 .4-.1.8-.4 1-.2.3-.5.5-.8.6.2 0 .4 0 .5.2.2 0 .4.2.5.3.1.2.3.3.3.6l.2.7c0 .4-.1.8-.3 1.1-.2.3-.4.6-.7.7a3 3 0 0 1-1 .5l-1.2.1M335 24.1h1.2v6.2l3.6-6.2h1.6v7.6H340v-6.2l-3.5 6.2H335V24ZM343.3 24.1h1.2v6.2l3.6-6.2h1.6v7.6h-1.3v-6.2l-3.5 6.2h-1.6V24Zm3.2-1.1-.9-.1a2 2 0 0 1-.6-.4l-.5-.6-.1-.8h1c0 .7.4 1 1 1 .4 0 .7 0 .8-.2.2-.2.3-.5.3-.8h1l-.1.8-.4.6a2.3 2.3 0 0 1-1.5.5M354.7 31.8c-.6 0-1.1 0-1.6-.2a3 3 0 0 1-1-.8c-.4-.4-.6-.8-.7-1.2a5 5 0 0 1-.3-1.6c0-.6.1-1.1.3-1.6.1-.5.3-1 .6-1.3.3-.4.7-.6 1.1-.8.5-.3 1-.4 1.6-.4.4 0 .8 0 1.2.2.4 0 .7.2 1 .5.3.2.5.4.7.8l.4 1.1h-1.3a2 2 0 0 0-.6-1c-.3-.3-.8-.5-1.3-.5-.4 0-.8.1-1.1.3-.3.1-.6.4-.7.6l-.4 1a4.8 4.8 0 0 0 0 2.1c0 .3.2.6.4.9.1.3.4.5.6.6.3.2.7.3 1 .3a2 2 0 0 0 1.5-.5c.4-.3.6-.8.7-1.4h1.2c-.1 1-.5 1.7-1 2.2-.6.5-1.3.7-2.3.7M359.4 24.1h1.2v3.6l3.5-3.6h1.7l-3.4 3.3 3.8 4.3h-1.6l-3.2-3.6-.8.7v2.9h-1.2V24ZM369.2 31.8h-1a2 2 0 0 1-1.3-1.1l-.2-1c0-.4 0-.7.2-1 .1-.3.4-.5.6-.7l.8-.4a12.3 12.3 0 0 1 2-.4h.7c.3-.2.5-.2.6-.4l.2-.5c0-.3 0-.5-.2-.7a1 1 0 0 0-.4-.3l-.5-.2h-.6c-.5 0-1 0-1.3.2-.4.2-.5.6-.6 1.2H367c0-.5.1-.9.3-1.2l.7-.8 1-.4a7.2 7.2 0 0 1 2.2 0c.4 0 .7 0 1 .2l.6.7c.2.2.2.6.2 1v4.6l.4.2.4-.1v1l-.9.2a1 1 0 0 1-.8-.3c-.2-.2-.2-.5-.2-1a3 3 0 0 1-1.2 1 4 4 0 0 1-1.5.3m.3-1.1 1-.2.8-.4.4-.6.1-.6v-1.2l-.6.2-.8.2h-.9l-.7.3c-.2 0-.4.2-.6.4l-.2.7a1 1 0 0 0 .5 1l.4.1h.6M376.6 28.7a2 2 0 0 1-1.4-.7c-.3-.4-.5-1-.5-1.6 0-.7.2-1.2.7-1.7.4-.4 1-.6 1.7-.6h3.8v7.6h-1.2v-3H378l-2.3 3h-1.6l2.5-3Zm3-1v-2.5h-2.1c-.5 0-1 .1-1.1.3-.3.3-.4.6-.4 1 0 .3.1.7.4.9.2.2.6.3 1 .3h2.3ZM296.9 49.4c-1 0-1.7-.2-2.2-.7-.6-.5-1-1.2-1-2h1.3c.2 1.1.9 1.7 2 1.7.6 0 1.2-.3 1.6-.7.4-.4.6-1 .7-1.9H296v-1h3.2a3 3 0 0 0-.8-1.7 2 2 0 0 0-1.6-.6c-1 0-1.5.5-1.8 1.4h-1.3c.1-.8.5-1.4 1-1.8.6-.4 1.3-.6 2.2-.6.5 0 1 0 1.5.3.4.1.8.4 1.1.7.3.3.6.7.7 1.2.2.5.3 1 .3 1.6 0 .7-.1 1.2-.3 1.7-.1.5-.4 1-.7 1.3-.3.4-.7.6-1.1.8a4 4 0 0 1-1.6.3M302 41.7h1.3v3.6l3.4-3.6h1.7l-3.3 3.2 3.7 4.3h-1.6l-3.2-3.6-.7.8v2.8H302v-7.5ZM313 49.4c-.6 0-1.1-.1-1.6-.3a3.3 3.3 0 0 1-1.8-2 5 5 0 0 1 0-3.2c.1-.5.4-.9.7-1.2.3-.4.7-.7 1.1-.9.5-.2 1-.3 1.6-.3.6 0 1.1.1 1.6.3a3.3 3.3 0 0 1 1.8 2.1 5.1 5.1 0 0 1 0 3.1c-.1.5-.4 1-.7 1.3a3 3 0 0 1-1.1.8c-.5.2-1 .3-1.6.3Zm0-1 .9-.3a2.3 2.3 0 0 0 1.3-1.4l.1-1.2-.1-1.3-.5-.9a2.2 2.2 0 0 0-1.7-.7 2.2 2.2 0 0 0-1.7.7l-.5 1-.2 1.2.2 1.2a2.3 2.3 0 0 0 1.3 1.4l.9.2ZM318.1 41.7h1.3v3h3.8v-3h1.3v7.5h-1.3v-3.4h-3.8v3.4H318v-7.5ZM329.6 49.4c-.6 0-1.1-.1-1.6-.3a3.2 3.2 0 0 1-1.8-2 5 5 0 0 1 0-3.2c.1-.5.4-.9.7-1.2.3-.4.7-.7 1.1-.9.5-.2 1-.3 1.6-.3.6 0 1.1.1 1.6.3A3.3 3.3 0 0 1 333 44a5.1 5.1 0 0 1 0 3.1c-.1.5-.4 1-.7 1.3a3 3 0 0 1-1.1.8c-.5.2-1 .3-1.6.3Zm0-1 1-.3a2.3 2.3 0 0 0 1.2-1.4l.2-1.2-.2-1.3-.5-.9a2.2 2.2 0 0 0-1.7-.7 2.2 2.2 0 0 0-1.7.7l-.5 1-.2 1.2.2 1.2a2.3 2.3 0 0 0 1.3 1.4l.9.2ZM334.7 41.7h1.8l2.3 6.1 2.4-6.1h1.7v7.5h-1.2v-6l-2.3 6h-1.1l-2.3-6v6h-1.3v-7.5ZM344.8 41.7h1.3v6.1l3.5-6.1h1.6v7.5H350v-6.1l-3.6 6.1h-1.6v-7.5ZM357.6 46.2a6 6 0 0 1-2.2.4c-.9 0-1.6-.2-2-.6-.4-.4-.6-1-.6-1.7v-2.6h1.3V44c0 .5 0 .8.3 1 .2.3.7.4 1.3.4a5 5 0 0 0 2-.4v-3.4h1.2v7.5h-1.3v-3ZM364 49.4c-.6 0-1.2-.1-1.6-.3a3.2 3.2 0 0 1-1.8-2 5.3 5.3 0 0 1 0-3.2c.2-.5.4-1 .7-1.3.4-.4.7-.6 1.2-.8.4-.2.9-.3 1.4-.3.7 0 1.2.1 1.7.4.4.3.8.6 1 1l.6 1.5.1 1.4h-5.6v1l.5.8.7.5 1.1.2c.5 0 1-.1 1.3-.4.4-.2.6-.6.7-1h1.2a3 3 0 0 1-1.1 1.9c-.6.4-1.3.6-2.1.6m2-4.7a2.4 2.4 0 0 0-.7-1.5 2 2 0 0 0-.6-.4 2.4 2.4 0 0 0-1.7 0 2 2 0 0 0-1.2 1.1l-.1.8h4.3ZM371.7 49.4l-1.5-.3a3 3 0 0 1-1.1-.8c-.3-.3-.5-.7-.7-1.2a5 5 0 0 1-.2-1.5c0-.6 0-1.2.2-1.6.2-.5.4-1 .7-1.3.3-.4.7-.7 1.1-.9.4-.2 1-.3 1.6-.3l1.2.1 1 .5.7.8c.2.4.3.7.3 1.2h-1.3c0-.5-.3-.9-.6-1.1-.3-.3-.7-.4-1.2-.4s-.8 0-1.1.2c-.4.2-.6.4-.8.7l-.4 1a4.8 4.8 0 0 0 0 2l.4 1 .7.6 1 .2a2 2 0 0 0 1.5-.5c.3-.3.5-.7.6-1.3h1.3c-.1 1-.5 1.6-1 2.1-.6.5-1.4.8-2.3.8M376.5 41.7h1.2v3.6l3.5-3.6h1.6l-3.3 3.2 3.7 4.3h-1.6l-3.1-3.6-.8.8v2.8h-1.2v-7.5ZM386.3 49.4l-1-.1a2 2 0 0 1-1.3-1c-.2-.3-.3-.6-.3-1s.1-.8.3-1c.1-.3.3-.6.6-.7l.8-.4a12.3 12.3 0 0 1 1.9-.4l.8-.1.6-.3.2-.5c0-.3 0-.5-.2-.7a1 1 0 0 0-.4-.4l-.5-.2h-.6c-.5 0-1 .1-1.3.3-.4.2-.6.6-.6 1.1h-1.2c0-.4 0-.8.3-1.2.1-.3.4-.5.7-.7l1-.5a7.2 7.2 0 0 1 2.2 0l.9.3c.3.1.5.3.7.6l.2 1v4.6c0 .2.2.2.4.2h.4v1l-1 .1a1 1 0 0 1-.7-.3c-.2-.1-.3-.4-.3-.9a3 3 0 0 1-1.2 1 4 4 0 0 1-1.4.2m.2-1 1.1-.2.7-.5.4-.5.2-.6v-1.3c-.2.2-.4.3-.7.3l-.8.1-.8.1-.8.2-.5.5-.2.7a1 1 0 0 0 .4.9l.5.2h.6M393.6 46.3a2 2 0 0 1-1.3-.7c-.3-.5-.5-1-.5-1.6 0-.7.2-1.3.6-1.7.5-.4 1-.6 1.8-.6h3.8v7.5h-1.2v-2.9H395l-2.3 3H391l2.5-3Zm3.2-1v-2.5h-2.2c-.6 0-1 0-1.2.3-.2.2-.3.5-.3 1 0 .3 0 .6.3.8.3.2.6.4 1.2.4h2.2ZM294.2 59.2h1.2v3.6l3.5-3.6h1.6l-3.3 3.3 3.7 4.3h-1.6l-3.1-3.6-.8.7v2.9h-1.2v-7.6ZM305.1 67c-.6 0-1.1-.1-1.6-.3a3.3 3.3 0 0 1-1.8-2.1 5 5 0 0 1 0-3.1c.2-.5.4-1 .7-1.3l1.1-.8c.5-.2 1-.3 1.6-.3.6 0 1.2 0 1.6.3a3.3 3.3 0 0 1 1.9 2 5.2 5.2 0 0 1 0 3.2c-.2.4-.4.9-.7 1.2a3 3 0 0 1-1.2.9c-.5.2-1 .3-1.6.3Zm0-1.1c.4 0 .7 0 1-.2a2.3 2.3 0 0 0 1.2-1.5l.2-1.2c0-.4 0-.8-.2-1.2l-.5-.9a2.2 2.2 0 0 0-1.7-.7 2.2 2.2 0 0 0-1.6.7l-.5 1c-.2.3-.2.7-.2 1.1 0 .5 0 .9.2 1.2a2.3 2.3 0 0 0 1.2 1.5l1 .2ZM310.3 59.2h1.8l2.3 6.2 2.3-6.2h1.8v7.6h-1.3v-6l-2.3 6h-1.1l-2.3-6v6h-1.2v-7.6ZM320.3 59.2h1.3v6.2l3.6-6.2h1.6v7.6h-1.3v-6.2l-3.6 6.2h-1.6v-7.6ZM331.8 67c-.6 0-1.1-.1-1.6-.3a3 3 0 0 1-1-.8c-.4-.4-.6-.8-.7-1.2a5 5 0 0 1-.3-1.6c0-.6.1-1 .3-1.6 0-.5.3-.9.6-1.3l1.1-.8a4.4 4.4 0 0 1 2.8-.2l1 .5.7.8.4 1.2h-1.3a2 2 0 0 0-.6-1.2c-.3-.2-.8-.3-1.3-.3-.4 0-.8 0-1.1.2-.3.2-.6.4-.7.7-.2.2-.3.5-.4 1a4.8 4.8 0 0 0 0 2c0 .4.2.7.4 1l.6.5c.3.2.7.3 1 .3a2 2 0 0 0 1.5-.5c.4-.3.6-.8.6-1.4h1.3c-.1 1-.5 1.7-1 2.2-.6.5-1.3.8-2.3.8M339.6 67c-.6 0-1-.1-1.5-.3a3 3 0 0 1-1.1-.8l-.7-1.2a5 5 0 0 1-.2-1.6c0-.6 0-1 .2-1.6l.7-1.3 1-.8c.5-.2 1-.3 1.7-.3l1.2.1 1 .5.7.8c.2.3.3.7.3 1.2h-1.3a2 2 0 0 0-.6-1.2c-.3-.2-.7-.3-1.2-.3s-.9 0-1.2.2l-.7.7c-.2.2-.3.5-.4 1a4.8 4.8 0 0 0 0 2l.4 1 .7.5c.3.2.6.3 1 .3a2 2 0 0 0 1.5-.5c.3-.3.5-.8.6-1.4h1.3c-.2 1-.5 1.7-1 2.2-.6.5-1.4.8-2.4.8M344.3 59.2h1.3v6.2l3.6-6.2h1.6v7.6h-1.3v-6.2l-3.6 6.2h-1.6v-7.6ZM354.2 63.8a2 2 0 0 1-1.3-.7c-.3-.4-.5-1-.5-1.5 0-.8.2-1.3.6-1.7.5-.4 1-.7 1.8-.7h3.8v7.6h-1.2v-3h-1.7l-2.3 3h-1.7l2.5-3Zm3.2-1v-2.5h-2.2c-.6 0-1 .1-1.2.4-.2.2-.3.5-.3.9 0 .3 0 .7.3.9.3.2.6.3 1.2.3h2.2ZM205.5 50.5c0 2.2 2.2 8.3 9.1 8.2 7 0 9.4-4.8 9.8-11.3h-13v-8h13c-1.2-5.8-3.4-9.9-9.8-9.9-5.4 0-8 3.6-8.8 6.6H193c2.6-12.8 13.6-16.7 21.6-16.7 15.8 0 23 10.8 23 26 0 10-4.6 23.5-22.7 23.5-18.2 0-22-13.6-22.4-18.4h13ZM282.8 65.5l-15.7-26.7 15.7-17.3V21h-14.6L253 38.4V21h-12.4v45.7H253v-14l5.1-5.2 10.7 19.2h14v-1.2ZM188.6 53.9c-3.3 11.2-12.6 15-20.7 15-13.2 0-23.4-6.4-23.4-25.7 0-5.7 2-23.8 22.6-23.8 13.2 0 22 7.3 22 23.5v4.6h-31.9c0 3.6.8 11.5 10.8 11.5 3.4 0 7-1.8 8-5.1h12.6Zm-12.2-14.5c-.7-7.5-5.6-9.8-9.5-9.8-5.9 0-9 3.7-9.7 9.8h19.2Z"/>
    <path fill="#00417D" d="M84 .1C63.1-3 0 63.1 0 63.1s35.2-30.9 48.8-25C59.4 42.9 47.4 67 47.4 67 59 54.3 104.6 3.3 83.9 0Z"/>
    <path fill="#85754E" d="M53.3 87.9c20.7 3.2 83.9-63 83.9-63S102 55.9 88.3 50C77.8 45.1 89.8 21 89.8 21 78.1 33.7 32.5 84.7 53.3 88Z"/>
    <path fill="#02437E" d="M55 41.2a13.8 13.8 0 1 1 27.1 5.7 13.8 13.8 0 0 1-27-5.7Z"/>
    <path fill="#85754E" d="M71.4 30.5a13.8 13.8 0 0 0-10.3 25l15-23c-1.4-1-3-1.6-4.7-2Z"/>
    <path fill="#fff" d="m61 37.7.4-.1.2-.2-.3-.1s.1-.2 0-.2-.1.2-.3.2a4 4 0 0 0-.3 0l.1.3h.3Z"/>
    <path fill="#fff" d="M60.8 38.7c.2 0 .2 0 .4-.3.3-.2.4-.6.7-.6.2 0 .3-.2.4-.3.1 0 .2-.3 0-.2-.4 0-.6.2-.7.2 0 0 0 .2-.2.3h-.5l-.4.2c0 .3 0 .7.3.7M79.8 44.6c0-.4-.1-.7-.3-.8-.2-.2-.2-.3 0-.4v-.5c0-.2 0-.2-.2 0H79c.1.2.2.4.1.5l.2.4.2.7-.2.8-.6.6-.1.5.2.4c.1.1.1-.3.2-.5 0-.3.2-.4.5-.8.2-.3.3-.6.3-1"/>
    <path fill="#fff" d="M78 45.4c-.2 0 0-.2 0-.4v-.5c.2-.3.3-.1.4-.4.1-.2.2-.7.1-1.1 0-.4-.2-.8-.3-1-.1-.2 0-.5-.3-.5s-.3.3-.4.3c0 0-.3 0-.3-.2v-1.5c.3-.1.1-.3.2-.4.2 0 .4-.1.3-.3 0-.1-.3-.2-.3-.4v-.4c.1 0 .3 0 .2-.2-.2 0-.4-.5 0 0 .5.4.3.3.4.7.2.3.1.6.7 1 .5.2.6.3.3-.4s-.6-.7-.7-.8c-.1-.2-.4-.4-.4-.6l-.1-.6a2 2 0 0 1-.4-.8c0-.1-.4-.1-.4 0l-.2-.2c0-.2-.3-.2-.1-.4.2-.1 0-.2-.1-.3-.2-.1-.3-.2-.3 0 0 .3-.3.3-.4.5 0 .3-.3.6 0 .6.2 0 .1.5 0 .6-.2 0-.5 0-.6.2 0 .3-.2 0-.5.3-.3.2-.3.3-.2.4.1.1 0 .3-.1.3-.2 0 0 .3-.3.2-.2-.2-.3-.3-.5-.3-.3 0 0 .2-.2.3H73c-.3.2-.6.5-.4 0 .2-.5 0-.5-.1-.5-.2 0-.3.1-.4 0-.1-.1-.2-.1-.2 0 0 .3-.2.3-.5.4-.2 0-.4.1-.3.3 0 0 0 .2-.2.2s-.3.1-.2.3c.1.2-.2-.2-.4-.1-.2 0-.3-.3-.5-.2-.1 0-.5.3-.4.6 0 .3-.1.3-.4 0-.2-.3-.2 0-.4 0-.3 0-.3-.3-.7-.2l-1 .1c-.3.1-.9.2-1 0l.2-.7c0-.3.1.6.4.5.2 0 .4 0 .4-.3s-.4-.6-.3-.7c0-.1.4-.2.1-.4-.3-.3-.9-.4-1.5-.4-.6.1-1 .2-1.2.1-.2 0-.4-.3-.6-.1-.3.1-.9.3-.8.5.1.2.4.2.5.2l-.2.3-.3.3c-.2 0-.5 0-.4-.1l.5-.3h-.3c-.1 0-.4 0-.5.2-.2.2-.4.1-.4 0s0-.2-.3-.2h-.5c0-.2-.3 0-.3-.2l-.2-.2c-.2 0-.1-.3-.2-.2-.2 0-.1.3-.3.5-.2.2-.6.5-.7.4v-.6l-.2-.4-.6.4-.4.2c-.2 0-.3.1-.2.3l-.2.5.3.3.4.1.3-.1.5.2.3-.2c.1 0 0 .4 0 .4.2 0 .5 0 .5.2v.3l-.3.3v.6l-.1.5c-.2 0-.4.1-.3.2h.3c.1 0 .2-.3.3-.2v.2l.1-.4v-.7c.2-.1.2-.3.3-.4 0 0 .2-.2.3 0l-.2.4v.7c0 .2 0 .3-.2.4-.2 0-.2.3-.2.4l-.2.4v.4c.1 0 .2-.4.3-.2 0 0 .3 0 .3-.2v-.4l.5.3h.5l.6-.3.4-.1c.3 0 .4.3.4.4h-.3c0 .2-.2.2-.1.3 0 0 .5.2.5 0v-.2c.2 0 .8 0 .7.1l-.5.3.2.9c0 .1-.1.3-.4.2-.2 0-.7-.3-.6-.4 0-.2-.2-.3-.3-.5l-.6-.2-.1-.2s0-.2-.2-.2l-.2.1c-.2 0-.6.4-.5.6 0 .3.1.7.3.6 0 0 .2-.1.2 0 0 .3.3.4.5.4.1 0 .2.2 0 .2 0 0 0 .3-.2.4l-.6.3-.5-.2-.1.6c0 .2 0 .3.2.2.1-.1 0 0 0 .2v2.2c0 .4.2.6.1.8 0 .1-.3.5 0 .6.1.1 1 .4 1.2.3l.7.1h.5c.4 0 1 0 1-.2l.7-.4c0-.1 0-.3-.2-.4-.2-.1-.4-.3-.3-.4 0-.2 0-.2-.2-.1h-.6c-.2 0-.3 0-.3-.2v-.5c-.1-.2-.3-.8-.1-.8l.4.1c.1.1 0 .5.2.6l.4.5h.5c0 .1-.2.3.5.6s1.4.2 1.5.3l.1.5c.2 0 .1.2.3.2.2 0-.1 0 0 .2 0 0 0 .2.2.3.2 0 .4-.3.5-.2l-.1.6c0 .3-.2.5 0 .7l.1.7.2.4.2.2h.2l.3-.2.2-.1.1-.3.1-.3c0-.2.2-.3.3-.3h.2l.2-.2.2-.1.6-.3.5-.3s-.1-.1.3-.2c.3 0 .7-.3.8-.2 0 0 0 .3.2.4.1.1.4.3.3.5v.3l.4-.1c.1 0 .2-.3.3 0v.7c0 .1.1.2.2.1.1 0 .2-.5.4-.5l.5.3c.1.1.3 0 .3.2l.4-.1c.2-.2.7-.3.7-.6s0-.5-.3-.6c-.2-.1-.4-.3-.3-.5 0-.1.3-.5.6-.5l.8-.2c.4-.3 1-.8 1-1 .2 0 .5-1 .6-1.2 0-.4-.2-.2-.1-.4l-.1-.4-.3-.2.1-.5c.2-.1.3-.3.1-.2-.2 0-.2.3-.4.3 0 0-.4-.2-.3-.3l.3-.5c.1-.2.3-.3.3-.2 0 .2 0 .4.2.1.3-.3.4-.1.4 0s0 .3.1.2c.2-.1 0 .2.2.3 0 0 0 .4.1.3.2-.1.4-.4.4-.6l-.5-.4m-14.3-5.3s-.2.1-.2 0c-.1 0 0-.2-.2-.2s-.3.2-.4.3l-.4-.1s0-.2-.2-.3c-.2 0-.2-.1-.2-.3 0-.1-.2-.1-.2-.3h.1c0 .2.3.1.3.2 0 0 0 .1.2 0l.2.2.5-.3h.5c.2 0 0-.1.1-.2l.3-.2h.6l.3-.1c.1-.1.2 0 .4 0 .1.1 0 .1-.1.2s-.7 0-.8 0a1 1 0 0 0-.5.5l.3.3.2.3h-.3L64 40c-.2 0-.2 0-.2.2m1.1 4.5c-.1 0 0 .2-.2.2s0 0 0 .2c0 .1.1 0 0 .2v.3s.1-.2.2 0v.3l-.3-.1v.3l-.2.6-.5-.1-.3-.5c.1-.2.4-.5.5-.4.2 0-.2-.4-.1-.6l.1-.5c0-.1 0-.2.5-.2l.8.1c0 .2-.3.3-.5.2"/>
    <path fill="#fff" d="M79 42.5c0-.1-.3-.1-.3-.5l-.4-.5c-.1-.2-.3-.3-.4-.3l.4.6.4.5.2.5v-.2c.1 0 .3.1.1-.1"/>
  </g>
  <defs>
    <clipPath id="a">
      <path fill="#fff" d="M0 0h398v88H0z"/>
    </clipPath>
  </defs>
</svg>
