<svg width="50" height="50" viewBox="0 0 50 50" fill="none" xmlns="http://www.w3.org/2000/svg">
<path d="M22.917 35.4163L27.0837 39.583C27.494 39.9934 27.9812 40.3189 28.5174 40.541C29.0536 40.7631 29.6283 40.8774 30.2087 40.8774C30.789 40.8774 31.3637 40.7631 31.8999 40.541C32.4361 40.3189 32.9233 39.9934 33.3337 39.583C33.744 39.1726 34.0696 38.6854 34.2917 38.1492C34.5138 37.6131 34.6281 37.0384 34.6281 36.458C34.6281 35.8776 34.5138 35.303 34.2917 34.7668C34.0696 34.2306 33.744 33.7434 33.3337 33.333" stroke="#13566D" stroke-width="2" stroke-linecap="round" stroke-linejoin="round"/>
<path d="M29.1671 29.1667L34.3755 34.3751C35.2043 35.2039 36.3284 35.6695 37.5005 35.6695C38.6726 35.6695 39.7967 35.2039 40.6255 34.3751C41.4543 33.5463 41.9199 32.4222 41.9199 31.2501C41.9199 30.078 41.4543 28.9539 40.6255 28.1251L32.5421 20.0417C31.3703 18.8713 29.7817 18.2139 28.1255 18.2139C26.4692 18.2139 24.8807 18.8713 23.7088 20.0417L21.8755 21.8751C21.0467 22.7039 19.9226 23.1695 18.7505 23.1695C17.5784 23.1695 16.4543 22.7039 15.6255 21.8751C14.7967 21.0463 14.3311 19.9222 14.3311 18.7501C14.3311 17.578 14.7967 16.4539 15.6255 15.6251L21.4796 9.77091C23.3801 7.87537 25.8586 6.66789 28.5226 6.3396C31.1867 6.01131 33.8841 6.58097 36.188 7.95841L37.1671 8.54174C38.0542 9.07713 39.1089 9.26282 40.1255 9.06257L43.7505 8.33341" stroke="#13566D" stroke-width="2" stroke-linecap="round" stroke-linejoin="round"/>
<path d="M43.7503 6.25L45.8337 29.1667H41.667M6.25033 6.25L4.16699 29.1667L17.7087 42.7083C18.5375 43.5371 19.6616 44.0028 20.8337 44.0028C22.0058 44.0028 23.1299 43.5371 23.9587 42.7083C24.7875 41.8795 25.2531 40.7554 25.2531 39.5833C25.2531 38.4112 24.7875 37.2871 23.9587 36.4583M6.25033 8.33333H22.917" stroke="#13566D" stroke-width="2" stroke-linecap="round" stroke-linejoin="round"/>
</svg>
