<svg width="50" height="50" viewBox="0 0 50 50" fill="none" xmlns="http://www.w3.org/2000/svg">
<path d="M33.3337 25.0003C33.3337 27.2105 32.4557 29.3301 30.8929 30.8929C29.3301 32.4557 27.2105 33.3337 25.0003 33.3337C22.7902 33.3337 20.6706 32.4557 19.1078 30.8929C17.545 29.3301 16.667 27.2105 16.667 25.0003C16.667 22.7902 17.545 20.6706 19.1078 19.1078C20.6706 17.545 22.7902 16.667 25.0003 16.667C27.2105 16.667 29.3301 17.545 30.8929 19.1078C32.4557 20.6706 33.3337 22.7902 33.3337 25.0003ZM30.2087 25.0003C30.2087 23.619 29.6599 22.2942 28.6832 21.3175C27.7064 20.3407 26.3817 19.792 25.0003 19.792C23.619 19.792 22.2942 20.3407 21.3175 21.3175C20.3407 22.2942 19.792 23.619 19.792 25.0003C19.792 26.3817 20.3407 27.7064 21.3175 28.6832C22.2942 29.6599 23.619 30.2087 25.0003 30.2087C26.3817 30.2087 27.7064 29.6599 28.6832 28.6832C29.6599 27.7064 30.2087 26.3817 30.2087 25.0003Z" fill="#13566D"/>
<path d="M24.9996 2.08301C25.5552 2.08301 26.1086 2.10245 26.66 2.14134C28.2496 2.25592 29.4621 3.42676 29.81 4.85801L30.5434 7.87884C30.583 8.04134 30.7309 8.23509 31.0121 8.33926C31.526 8.52537 32.0316 8.73509 32.5288 8.96842C32.7996 9.09551 33.0413 9.06009 33.185 8.97259L35.8413 7.35592C37.0975 6.58926 38.7809 6.62051 39.9871 7.66217C40.826 8.38995 41.6093 9.17398 42.3371 10.0143C43.3809 11.2184 43.41 12.9018 42.6434 14.1601L41.0267 16.8143C40.9392 16.958 40.9059 17.1997 41.0309 17.4705C41.2642 17.9663 41.4746 18.4719 41.6621 18.9872C41.7621 19.2684 41.958 19.4143 42.1205 19.4559L45.1413 20.1893C46.5725 20.5372 47.7434 21.7497 47.8559 23.3393C47.935 24.4462 47.935 25.5531 47.8559 26.6601C47.7434 28.2497 46.5725 29.4622 45.1413 29.8101L42.1205 30.5434C41.958 30.583 41.7642 30.7309 41.66 31.0122C41.4739 31.5288 41.2642 32.0344 41.0309 32.5288C40.9038 32.7997 40.9392 33.0413 41.0267 33.1851L42.6434 35.8413C43.41 37.0976 43.3788 38.7809 42.3371 39.9872C41.6093 40.8274 40.8253 41.6108 39.985 42.3372C38.7809 43.3809 37.0975 43.4101 35.8392 42.6434L33.185 41.0268C33.0413 40.9393 32.7996 40.9059 32.5309 41.0309C32.0341 41.2635 31.5274 41.4741 31.0121 41.6622C30.7309 41.7622 30.585 41.958 30.5434 42.1205L29.81 45.1413C29.4621 46.5726 28.2496 47.7434 26.66 47.8559C25.5531 47.9351 24.4461 47.9351 23.3392 47.8559C21.7496 47.7434 20.5371 46.5726 20.1892 45.1413L19.4559 42.1205C19.4163 41.958 19.2684 41.7643 18.9871 41.6601C18.4715 41.4754 17.9654 41.2654 17.4705 41.0309C17.1996 40.9038 16.958 40.9393 16.8142 41.0268L14.158 42.6434C12.9017 43.4101 11.2184 43.3788 10.0121 42.3372C9.17184 41.6094 8.38851 40.8254 7.66212 39.9851C6.61837 38.7809 6.5892 37.0976 7.35587 35.8393L8.97254 33.1851C9.06004 33.0413 9.09337 32.7997 8.96837 32.5309C8.73584 32.0341 8.52522 31.5274 8.33712 31.0122C8.23712 30.7309 8.04129 30.5851 7.87879 30.5434L4.85795 29.8101C3.4267 29.4622 2.25587 28.2497 2.14129 26.6601C2.06098 25.5546 2.06098 24.4447 2.14129 23.3393C2.25587 21.7497 3.4267 20.5372 4.85795 20.1893L7.87879 19.4559C8.04129 19.4163 8.23504 19.2684 8.3392 18.9872C8.52531 18.4705 8.73504 17.965 8.96837 17.4705C9.09545 17.1997 9.06004 16.958 8.97254 16.8143L7.35587 14.158C6.5892 12.9018 6.62045 11.2184 7.66212 10.0122C8.3899 9.1719 9.17393 8.38856 10.0142 7.66217C11.2184 6.61842 12.9017 6.58926 14.16 7.35592L16.8142 8.97259C16.958 9.06009 17.1996 9.09342 17.4705 8.96842C17.9663 8.73509 18.4718 8.52467 18.9871 8.33717C19.2684 8.23717 19.4142 8.04134 19.4559 7.87884L20.1892 4.85801C20.5371 3.42676 21.7496 2.25592 23.3392 2.14134C23.8878 2.10245 24.4413 2.08301 24.9996 2.08301ZM23.5621 5.26009C23.4475 5.26842 23.2809 5.36426 23.2267 5.59551L22.4913 8.61634C22.3359 9.22704 22.0315 9.78969 21.6054 10.254C21.1793 10.7182 20.6448 11.0696 20.0496 11.2768C19.6251 11.4302 19.208 11.6033 18.7996 11.7955C18.2318 12.0708 17.6044 12.2008 16.9739 12.1739C16.3434 12.147 15.7295 11.964 15.1871 11.6413L12.533 10.0247C12.3288 9.89967 12.1455 9.94967 12.058 10.0247C11.3342 10.6548 10.6548 11.3342 10.0246 12.058C9.94962 12.1455 9.89962 12.3309 10.0246 12.533L11.6413 15.1872C12.2955 16.2893 12.3538 17.6455 11.7955 18.7997C11.6033 19.2081 11.4302 19.6252 11.2767 20.0497C11.0697 20.6455 10.7181 21.1806 10.2534 21.6071C9.78874 22.0336 9.22551 22.3381 8.6142 22.4934L5.59337 23.2247C5.3642 23.2809 5.26837 23.4476 5.26004 23.5622C5.19383 24.5194 5.19383 25.48 5.26004 26.4372C5.26837 26.5518 5.3642 26.7184 5.59545 26.7726L8.61629 27.508C9.22698 27.6634 9.78963 27.9678 10.2539 28.3939C10.7182 28.82 11.0696 29.3545 11.2767 29.9497C11.4309 30.3747 11.6038 30.7913 11.7955 31.1997C12.3538 32.3518 12.2955 33.708 11.6413 34.8101L10.0246 37.4663C9.89962 37.6705 9.94962 37.8538 10.0246 37.9413C10.6538 38.6677 11.3316 39.3455 12.058 39.9747C12.1455 40.0497 12.3309 40.0997 12.533 39.9747L15.1871 38.358C15.7293 38.035 16.3432 37.8516 16.9737 37.8244C17.6042 37.7971 18.2316 37.9268 18.7996 38.2018C19.208 38.3962 19.6246 38.5698 20.0496 38.7226C20.6454 38.9296 21.1805 39.2812 21.607 39.7459C22.0335 40.2106 22.3381 40.7738 22.4934 41.3851L23.2246 44.4059C23.2809 44.6351 23.4475 44.7309 23.5621 44.7393C24.5193 44.8055 25.4799 44.8055 26.4371 44.7393C26.5517 44.7309 26.7184 44.6351 26.7725 44.4038L27.508 41.383C27.6631 40.7719 27.9673 40.2089 28.3934 39.7442C28.8195 39.2795 29.3542 38.9278 29.9496 38.7205C30.3741 38.5677 30.7912 38.3953 31.1996 38.2038C31.7672 37.9289 32.3941 37.7991 33.0243 37.826C33.6544 37.8529 34.2679 38.0357 34.81 38.358L37.4663 39.9747C37.6705 40.0997 37.8538 40.0497 37.9413 39.9747C38.6677 39.3455 39.3455 38.6677 39.9746 37.9413C40.0496 37.8538 40.0996 37.6684 39.9746 37.4663L38.358 34.8101C38.0353 34.2682 37.8521 33.6547 37.8249 33.0246C37.7976 32.3945 37.9271 31.7674 38.2017 31.1997C38.3961 30.7913 38.5698 30.3747 38.7225 29.9497C38.9296 29.3539 39.2812 28.8188 39.7458 28.3923C40.2105 27.9658 40.7737 27.6612 41.385 27.5059L44.4059 26.7747C44.635 26.7184 44.7309 26.5518 44.7392 26.4372C44.8054 25.48 44.8054 24.5194 44.7392 23.5622C44.7309 23.4476 44.635 23.2809 44.4038 23.2268L41.383 22.4913C40.0788 22.1747 39.133 21.1893 38.7205 20.0497C38.5677 19.6252 38.3952 19.2081 38.2038 18.7997C37.9285 18.2318 37.7985 17.6045 37.8254 16.974C37.8523 16.3435 38.0353 15.7295 38.358 15.1872L39.9746 12.533C40.0996 12.3288 40.0496 12.1455 39.9746 12.058C39.3445 11.3342 38.6651 10.6548 37.9413 10.0247C37.8538 9.94967 37.6684 9.89967 37.4663 10.0247L34.81 11.6413C34.2679 11.9637 33.6544 12.1465 33.0243 12.1734C32.3941 12.2003 31.7672 12.0704 31.1996 11.7955C30.7912 11.6033 30.3741 11.4302 29.9496 11.2768C29.3548 11.0681 28.8206 10.716 28.3943 10.2516C27.968 9.78715 27.6629 9.22477 27.5059 8.61426L26.7746 5.59342C26.7184 5.36426 26.5517 5.26842 26.4371 5.26009C25.4799 5.19389 24.5193 5.19389 23.5621 5.26009Z" fill="#13566D"/>
</svg>
