<svg width="50" height="50" viewBox="0 0 50 50" fill="none" xmlns="http://www.w3.org/2000/svg">
<g clip-path="url(#clip0_4498_480)">
<path d="M14.0625 17.1875V10.9375M20.3125 17.1875V10.9375M7.8125 23.4375H1.5625M7.8125 35.9375H1.5625M7.8125 29.6875H1.5625M20.3125 48.4375V42.1875M39.0625 35.9375H32.8125M14.0625 48.4375V42.1875M26.5625 48.4375V42.1875M32.8125 29.6875V39.0625C32.8125 39.8913 32.4833 40.6862 31.8972 41.2722C31.3112 41.8583 30.5163 42.1875 29.6875 42.1875H10.9375C10.1087 42.1875 9.31384 41.8583 8.72779 41.2722C8.14174 40.6862 7.8125 39.8913 7.8125 39.0625V20.3125C7.8125 19.4837 8.14174 18.6888 8.72779 18.1028C9.31384 17.5167 10.1087 17.1875 10.9375 17.1875H26.5625" stroke="#13566D" stroke-width="1.5" stroke-linecap="round" stroke-linejoin="round"/>
<path d="M14.0625 23.4375H26.5625V35.9375H14.0625V23.4375ZM35.9375 1.5625H48.4375L43.75 9.375H48.4375L35.9375 23.4375L37.5 12.5H32.8125L35.9375 1.5625Z" stroke="#13566D" stroke-width="1.5" stroke-linecap="round" stroke-linejoin="round"/>
</g>
<defs>
<clipPath id="clip0_4498_480">
<rect width="50" height="50" fill="white"/>
</clipPath>
</defs>
</svg>
