<svg width="50" height="50" viewBox="0 0 50 50" fill="none" xmlns="http://www.w3.org/2000/svg">
<path d="M27.6383 4.7242L13.9944 12.8824C13.438 12.7118 12.8592 12.6251 12.2771 12.6254C8.94844 12.6254 6.25 15.4199 6.25 18.8672C6.25 20.2877 6.7082 21.5973 7.47988 22.6464C7.37919 22.5095 7.28413 22.3686 7.19492 22.224L14.5595 35.4364L14.5461 35.4908C14.3873 36.1522 14.3074 36.8301 14.3079 37.5102L14.3092 41.6711L10.2898 41.6715V45.8327H35.4167V41.666L30.3816 41.6711L30.3805 37.5102C30.3805 34.1796 28.4912 31.3058 25.7619 29.9758L25.3285 29.7806L19.4479 19.2317L29.7127 13.0939L34.1894 21.1335C34.0021 21.8241 34.0434 22.5806 34.3477 23.2706L34.4808 23.5381C34.6828 23.9003 34.9443 24.2049 35.2452 24.4459L35.2479 28.7084L35.2443 28.7244L39.1255 29.8014L39.6455 27.7917L37.2571 27.1274L37.2573 25.0944C37.7148 25.0685 38.1735 24.9339 38.5975 24.6804C39.046 24.4122 39.4028 24.0426 39.6564 23.6156L41.4155 24.6682L40.7819 27.1254L42.7226 27.6639L43.75 23.6673L43.7455 23.6668L43.7488 23.6602L40.0624 21.4541C40.0026 21.0901 39.8801 20.7392 39.7005 20.4171C39.2323 19.5773 38.4442 19.0481 37.5877 18.8993L32.9852 10.6463C33.8104 9.36991 33.9188 7.66747 33.1271 6.24735C32.0176 4.25711 29.5602 3.57508 27.6383 4.7242ZM22.3442 33.349C24.4625 33.349 26.198 35.0466 26.3513 37.1997L26.3623 37.5102V41.6715H18.3261V37.5102C18.3261 35.3165 19.9652 33.5193 22.0443 33.3604L22.3442 33.349ZM16.6414 23.1723L16.8639 22.9168L20.4856 29.4115L20.5623 29.3931C19.3391 29.6799 18.2217 30.2556 17.2806 31.0473L16.9302 31.3598L13.3858 25.0037L13.3311 25.014C14.6232 24.7779 15.7734 24.1156 16.6414 23.1723ZM12.2771 16.7866C13.3867 16.7866 14.2862 17.7181 14.2862 18.8672C14.2862 20.0162 13.3867 20.9478 12.2771 20.9478C11.1676 20.9478 10.2682 20.0163 10.2682 18.8672C10.2682 17.7181 11.1676 16.7866 12.2771 16.7866ZM29.4012 7.33504C29.956 7.33504 30.4057 7.80086 30.4057 8.37538C30.4057 8.94989 29.956 9.41571 29.4012 9.41571C28.8464 9.41571 28.3967 8.94989 28.3967 8.37538C28.3967 7.80086 28.8464 7.33504 29.4012 7.33504Z" fill="#13566D"/>
</svg>
