<svg width="161" height="35" viewBox="0 0 161 35" fill="none" xmlns="http://www.w3.org/2000/svg">
<path d="M22.5539 26.253C26.501 25.7548 29.6895 22.581 30.1932 18.6489C30.369 17.3069 30.2327 15.9426 29.7949 14.6612C29.357 13.3799 28.6294 12.2158 27.6679 11.2588C26.7065 10.3018 25.5369 9.57743 24.2496 9.14161C22.9623 8.70579 21.5917 8.57015 20.2434 8.74517C16.2931 9.24647 13.1046 12.4203 12.6041 16.3492C12.4283 17.6913 12.5645 19.0556 13.0024 20.3369C13.4402 21.6183 14.1679 22.7824 15.1294 23.7393C16.0908 24.6964 17.2603 25.4207 18.5476 25.8566C19.8349 26.2924 21.2055 26.428 22.5539 26.253ZM23.092 1.03772C26.8921 1.43592 30.4399 3.12062 33.1419 5.8101C35.8437 8.49959 37.5363 12.0309 37.9364 15.8135C38.9782 26.278 30.2152 35.0007 19.6989 33.9637C15.8993 33.5647 12.3524 31.8798 9.65102 29.1904C6.94969 26.5008 5.25765 22.97 4.85772 19.1879C3.81584 8.72324 12.5789 0.000658035 23.092 1.03772ZM46.8568 1.69254H71.1913C72.1167 1.69254 72.6392 2.74526 72.082 3.47842L55.2453 25.5889H68.4371C70.8418 25.5889 72.7336 27.7662 72.2364 30.2477C71.8712 32.0681 70.1556 33.3088 68.2922 33.3088H41.8646C40.9487 33.3088 40.4293 32.2655 40.9802 31.5417L57.8295 9.41253H47.0016C45.1382 9.41253 43.4226 8.16868 43.0576 6.35148C42.5571 3.87005 44.452 1.69254 46.8568 1.69254ZM152.464 1.78027C154.976 1.2539 157.185 3.14631 157.185 5.55254V32.1934C157.185 33.1238 156.105 33.641 155.375 33.0643L134.383 16.4871V29.455C134.383 31.8612 132.174 33.7537 129.662 33.2273C127.862 32.8514 126.628 31.1813 126.628 29.3517V2.80479C126.628 1.87427 127.707 1.3573 128.438 1.93378L149.432 18.5112V5.65593C149.432 3.82618 150.669 2.15938 152.467 1.78027H152.464ZM97.8046 0.953125C110.657 0.953125 121.075 8.3598 121.075 17.496C121.075 26.632 110.657 34.0387 97.8046 34.0387C84.9528 34.0387 74.5341 26.632 74.5341 17.496C74.5341 8.3598 84.9528 0.953125 97.8046 0.953125ZM97.8046 8.67312C88.9251 8.67312 82.29 13.3321 82.29 17.496C82.29 21.6599 88.9251 26.3188 97.8046 26.3188C106.684 26.3188 113.319 21.6629 113.319 17.496C113.319 13.3289 106.684 8.67312 97.8046 8.67312Z" fill="black"/>
</svg>
