<svg width="35" height="35" viewBox="0 0 35 35" fill="none" xmlns="http://www.w3.org/2000/svg">
<g clip-path="url(#clip0_4508_1223)">
<path d="M17.5012 0.700195C8.22267 0.700195 0.701172 8.2217 0.701172 17.5002C0.701172 26.7787 8.22267 34.3002 17.5012 34.3002C26.7797 34.3002 34.3012 26.7787 34.3012 17.5002C34.3012 8.2217 26.7797 0.700195 17.5012 0.700195ZM23.9622 19.6544C23.9622 19.6544 25.4479 21.1209 25.8137 21.8017C25.8242 21.8169 25.8306 21.8285 25.8329 21.8367C25.9811 22.0852 26.0178 22.2818 25.9432 22.4264C25.8207 22.6679 25.4007 22.7869 25.2572 22.7974H22.6322C22.4502 22.7974 22.0687 22.7502 21.6067 22.4317C21.2514 22.1832 20.9014 21.7754 20.5602 21.3782C20.0509 20.7867 19.6099 20.2757 19.1654 20.2757C19.109 20.2754 19.0528 20.2843 18.9992 20.3019C18.6632 20.4104 18.2327 20.8899 18.2327 22.1674C18.2327 22.5664 17.9177 22.7957 17.6954 22.7957H16.4932C16.0837 22.7957 13.9504 22.6522 12.0604 20.6589C9.74692 18.2177 7.66442 13.3212 7.64692 13.2757C7.51567 12.9589 7.78692 12.7892 8.08267 12.7892H10.7339C11.0874 12.7892 11.2029 13.0044 11.2834 13.1952C11.3779 13.4174 11.7244 14.3012 12.2932 15.2952C13.2154 16.9157 13.7807 17.5737 14.2339 17.5737C14.3189 17.5727 14.4024 17.5511 14.4772 17.5107C15.0687 17.1817 14.9584 15.0729 14.9322 14.6354C14.9322 14.5532 14.9304 13.6922 14.6277 13.2792C14.4107 12.9799 14.0414 12.8662 13.8174 12.8242C13.9081 12.6991 14.0275 12.5976 14.1657 12.5284C14.5717 12.3254 15.3032 12.2957 16.0294 12.2957H16.4337C17.2212 12.3062 17.4242 12.3569 17.7094 12.4287C18.2869 12.5669 18.2992 12.9397 18.2484 14.2154C18.2327 14.5777 18.2169 14.9872 18.2169 15.4702L18.2117 15.8062C18.1942 16.4554 18.1732 17.1922 18.6317 17.4949C18.6908 17.5339 18.7604 17.5541 18.8312 17.5527C18.9904 17.5527 19.4699 17.5527 20.7684 15.3249C21.1674 14.6071 21.5153 13.8621 21.8097 13.0954C21.8359 13.0499 21.9129 12.9099 22.0039 12.8557C22.0718 12.8234 22.1458 12.8061 22.2209 12.8049H25.3377C25.6772 12.8049 25.9099 12.8557 25.9537 12.9869C26.0307 13.1952 25.9397 13.8304 24.5169 15.7572L23.8817 16.5954C22.5919 18.2859 22.5919 18.3717 23.9622 19.6544Z" fill="black"/>
</g>
<defs>
<clipPath id="clip0_4508_1223">
<rect width="35" height="35" fill="white"/>
</clipPath>
</defs>
</svg>
