<svg width="326" height="250" viewBox="0 0 326 250" fill="none" xmlns="http://www.w3.org/2000/svg">
<g clip-path="url(#clip0_4560_1144)">
<path d="M63.6352 73.4707H0.614746V247.911H63.6352V73.4707Z" fill="white"/>
<path d="M63.6351 31.5861C63.6351 48.8623 49.645 62.8735 32.395 62.8735C15.1449 62.8735 1.13623 48.8809 1.13623 31.5861C1.13623 14.31 15.1263 0.298828 32.395 0.298828C49.6637 0.298828 63.6351 14.31 63.6351 31.5861Z" fill="white"/>
<path d="M196.382 3.73145H153.667C153.723 6.95906 153.742 11.7352 153.667 17.5374C153.518 27.7053 153.034 39.6829 152.475 45.1494C150.221 67.5747 136.231 86.53 133.492 90.1307C116.969 111.903 95.6763 120.467 86.6228 123.489V165.205C98.3588 162.761 117.714 157.146 137.628 143.153C139.453 141.866 172.631 117.873 188.055 77.015C189.639 72.7986 192.172 66.0822 193.979 56.7538C196.066 45.9702 196.196 35.7091 196.345 15.6344C196.42 10.5971 196.401 6.43667 196.382 3.73145Z" fill="white"/>
<path d="M83.251 169.384V121.064L85.5609 120.28C98.2842 116.008 116.466 106.959 130.81 88.0785C134.573 83.1158 147.054 65.3359 149.122 44.8135C149.643 39.6643 150.146 27.9106 150.295 17.5001C150.37 11.7538 150.351 6.99639 150.295 3.78743L150.239 0.335938H199.754L199.791 3.69414C199.81 6.41803 199.829 10.5785 199.791 15.6718C199.642 35.28 199.549 46.0822 197.351 57.4068C195.488 67.0337 192.843 74.03 191.259 78.2091C175.332 120.429 141.074 144.907 139.621 145.933C123.936 156.959 106.35 164.552 87.3493 168.526L83.251 169.384ZM90.0318 125.914V160.97C106.555 156.996 121.905 150.075 135.709 140.392C137.088 139.422 169.706 116.12 184.907 75.8397C186.509 71.6046 188.931 65.1867 190.682 56.1382C192.675 45.8583 192.824 36.2874 192.992 15.6531C193.011 12.3882 193.029 9.51504 193.011 7.1643H157.095C157.113 10.0374 157.113 13.5822 157.057 17.6307C156.908 28.3956 156.405 40.1307 155.847 45.5412C153.592 67.8359 140.236 86.9218 136.193 92.2389C121.663 111.325 103.482 121.045 90.0318 125.914Z" fill="white"/>
<path d="M297.293 0.298828H230.659C230.734 5.26151 230.79 12.6309 230.659 21.5861C230.436 37.2391 229.672 55.7279 228.815 64.1421C225.294 98.713 203.461 127.929 199.195 133.47C173.413 167.015 140.199 180.224 126.097 184.907V249.198C144.39 245.429 174.587 236.791 205.678 215.206C208.547 213.228 260.279 176.25 284.328 113.265C286.806 106.773 290.755 96.4182 293.586 82.0339C296.846 65.3921 297.033 49.5899 297.293 18.657C297.368 10.8585 297.331 4.45928 297.293 0.298828Z" fill="white"/>
<path d="M325.907 215.709C325.907 233.489 311.507 247.911 293.754 247.911C276.001 247.911 261.601 233.489 261.601 215.709C261.601 197.929 276.001 183.508 293.754 183.508C311.507 183.508 325.907 197.929 325.907 215.709Z" fill="white"/>
</g>
<defs>
<clipPath id="clip0_4560_1144">
<rect width="326" height="250" fill="white"/>
</clipPath>
</defs>
</svg>
