<svg width="35" height="35" viewBox="0 0 35 35" fill="none" xmlns="http://www.w3.org/2000/svg">
<path d="M13.9104 22.2105C11.5791 22.2105 9.60301 21.4007 7.98232 19.781C6.3626 18.1622 5.55273 16.1867 5.55273 13.8543C5.55273 11.5219 6.3626 9.5459 7.98232 7.92617C9.60204 6.30645 11.5781 5.49708 13.9104 5.49805C16.2428 5.49902 18.2184 6.30888 19.8371 7.92763C21.4559 9.54638 22.2657 11.5219 22.2667 13.8543C22.2667 14.8674 22.0873 15.8478 21.7286 16.7958C21.3698 17.7437 20.8983 18.5545 20.314 19.2283L28.9313 27.8426C29.0674 27.9787 29.1403 28.1465 29.15 28.3458C29.1588 28.5431 29.0859 28.7196 28.9313 28.8751C28.7757 29.0307 28.6036 29.1085 28.415 29.1085C28.2264 29.1085 28.0543 29.0307 27.8988 28.8751L19.2829 20.2593C18.5538 20.8805 17.7152 21.3613 16.7673 21.7016C15.8194 22.0419 14.8666 22.212 13.909 22.212M13.909 20.7537C15.8437 20.7537 17.4775 20.0877 18.8104 18.7558C20.1424 17.4238 20.8084 15.79 20.8084 13.8543C20.8084 11.9186 20.1429 10.2853 18.8119 8.9543C17.4809 7.62333 15.8476 6.95735 13.9119 6.95638C11.9762 6.95638 10.3424 7.62235 9.01044 8.9543C7.6785 10.2862 7.01204 11.9196 7.01107 13.8543C7.0101 15.789 7.67607 17.4224 9.00898 18.7543C10.3419 20.0862 11.9752 20.7522 13.909 20.7522" fill="#13566D"/>
</svg>
