<svg width="285" height="80" viewBox="0 0 285 80" fill="none" xmlns="http://www.w3.org/2000/svg">
<g clip-path="url(#clip0_4518_903)">
<mask id="mask0_4518_903" style="mask-type:luminance" maskUnits="userSpaceOnUse" x="0" y="0" width="285" height="80">
<path d="M284.945 0H0V80H284.945V0Z" fill="white"/>
</mask>
<g mask="url(#mask0_4518_903)">
<path fill-rule="evenodd" clip-rule="evenodd" d="M245.122 11.123C257.317 11.123 267.853 14.7308 273.19 19.7872H273.356L282.731 17.1633C277.698 7.18726 262.682 -0.000988575 245.149 -0.0283203H245.094C227.451 0.0263432 212.601 7.21459 207.43 16.972L216.97 19.7599C222.307 14.5395 232.899 11.0957 245.122 11.0957V11.123Z" fill="#2390CF"/>
<path fill-rule="evenodd" clip-rule="evenodd" d="M280.991 66.9065H273.635V66.7425C277.976 62.6701 280.659 57.5864 280.659 52.038C280.659 38.4542 264.758 27.4941 245.345 27.4941C225.932 27.4941 210.059 38.4268 210.059 52.0107C210.059 65.5946 225.794 76.5273 245.179 76.6913H252.894C257.07 76.7186 263.43 76.3906 269.459 76.5546C275.322 76.8826 284.198 79.8344 285.028 79.9984L281.018 66.9065H280.991ZM245.345 68.7104C234.643 68.7104 226.125 61.1668 226.125 52.0107C226.125 42.8546 234.643 35.3383 245.345 35.3383C256.047 35.3383 264.592 42.7179 264.592 52.038C264.592 61.3582 255.881 68.7104 245.345 68.7104Z" fill="#2390CF"/>
<path fill-rule="evenodd" clip-rule="evenodd" d="M94.4382 16.2072C95.9591 17.8471 97.7843 18.4757 99.9689 18.4757C102.154 18.4757 103.979 17.8198 105.5 16.2072C107.159 14.7313 107.823 12.9274 107.823 10.7955C107.823 8.66364 107.159 6.85974 105.5 5.38383C104.172 3.90791 102.319 3.25195 99.9689 3.25195C97.7843 3.25195 95.9591 3.90791 94.4382 5.38383C92.7789 7.02373 92.1152 8.82763 92.1152 10.7955C92.1152 12.9274 92.7789 14.7313 94.4382 16.2072Z" fill="#2E384E"/>
<path fill-rule="evenodd" clip-rule="evenodd" d="M92.7797 42.0354V76.0634H108.017V27.0029L89.4336 32.5513C89.4336 32.7153 92.4479 36.3231 92.7797 42.0354Z" fill="#2E384E"/>
<path fill-rule="evenodd" clip-rule="evenodd" d="M189.873 54.8003C186.693 52.6684 176.654 50.3998 159.924 47.284C155.416 46.6281 152.374 45.6441 150.549 44.4962C148.89 43.3483 147.867 42.2277 147.867 40.7244C147.867 39.0845 149.028 37.7999 151.711 36.7886C154.227 35.6407 157.739 35.1487 162.081 35.1487C165.925 35.1487 169.63 35.4767 172.976 36.2967C176.654 37.1166 184.674 39.7405 188.02 41.353L184.84 30.393C183.181 29.7371 181.162 29.2451 179.309 28.7531C173.778 27.6052 168.109 26.9492 161.417 26.9492C152.208 26.9492 144.687 28.2611 138.658 30.885C132.796 33.5088 129.781 37.0893 129.781 41.1891C129.781 44.7695 131.966 47.5573 136.142 49.8532C140.317 52.1217 149.194 54.2536 162.745 56.2215C167.75 56.8775 171.29 57.8614 173.447 58.8454C175.631 59.9933 176.627 61.1139 176.627 62.7811C176.627 64.585 175.106 65.405 172.119 66.7169C169.105 67.8648 165.095 68.5208 160.228 68.5208C159.067 68.6848 158.043 68.6848 157.048 68.6848C153.204 68.6848 149.692 68.3568 146.346 67.5368C142.668 66.7169 134.648 63.9564 131.302 62.2892L134.648 73.5772C136.833 74.2331 139.156 75.0531 141.506 75.545C147.037 76.693 153.066 77.3489 159.398 77.3489C170.598 77.3489 179.309 75.873 185.338 73.1125C191.532 70.188 194.546 66.7442 194.546 62.6445C194.546 59.3373 193.053 56.8775 189.873 54.7456V54.8003Z" fill="#2E384E"/>
<path fill-rule="evenodd" clip-rule="evenodd" d="M70.3512 52.0389C70.3512 38.4551 54.4503 27.3311 35.0374 27.3311C15.6244 27.3311 0 38.4277 0 52.1209C0 65.8141 15.6797 76.7468 35.0374 76.7195C42.0891 76.7195 48.5877 75.2709 54.312 72.9751V76.4189H73.8909C73.725 75.9269 70.5448 72.4831 70.3789 66.7708C70.213 64.6662 70.3789 52.2303 70.3789 52.0663L70.3512 52.0389ZM35.0374 68.7386C24.5289 68.7386 15.8456 61.2497 15.8456 51.957C15.8456 42.6642 24.5289 35.1753 35.0374 35.1753H35.065C45.767 35.1753 54.2844 42.8828 54.2844 52.0663C54.2844 61.2497 45.8223 68.766 35.0927 68.766H35.0374V68.7386Z" fill="#2E384E"/>
</g>
</g>
<defs>
<clipPath id="clip0_4518_903">
<rect width="285" height="80" fill="white"/>
</clipPath>
</defs>
</svg>
