<svg id="Слой_1" data-name="Слой 1" xmlns="http://www.w3.org/2000/svg" viewBox="0 0 1425.86 397.86"><defs><style>.cls-1{fill:#004d85;}</style></defs><path class="cls-1" d="M729.73,269.81h5.86l15.46,37.73h-6.11l-4-10H724.39l-4,10h-6.12Zm-3.2,22.36h12.26l-6.12-15.62Z" transform="translate(-78.14 -52.45)"/><path class="cls-1" d="M764.87,288.15l16.8-18.34h7.47l-14.4,15.63,15.46,22.1H783l-12.26-17.79-5.86,6.48v11.31H759V269.81h5.85Z" transform="translate(-78.14 -52.45)"/><path class="cls-1" d="M823.31,269.81v5.39h-11.2v32.34h-5.86V275.2h-11.2v-5.39Z" transform="translate(-78.14 -52.45)"/><path class="cls-1" d="M845.5,289.49l9.06-19.68h6.15l-13.33,28.57a21.3,21.3,0,0,1-5.09,7.39,10.89,10.89,0,0,1-7.18,2.3,8,8,0,0,1-1.89-.22,7.72,7.72,0,0,1-1.41-.42l-.44-.15v-5.13a7.8,7.8,0,0,0,3.2.55,7,7,0,0,0,4.1-1.05,8.35,8.35,0,0,0,2.56-3.27l1.33-2.71-13.33-25.86h6.15Z" transform="translate(-78.14 -52.45)"/><path class="cls-1" d="M875.75,269.81h5.86l15.47,37.73H891l-4-10H870.42l-4,10h-6.12Zm-3.2,22.36h12.27l-6.12-15.62Z" transform="translate(-78.14 -52.45)"/><path class="cls-1" d="M936.87,307.54H931V275.2H917.43v5.92a98.86,98.86,0,0,1-.79,13.61,25,25,0,0,1-2.35,8.31,10.08,10.08,0,0,1-3.47,3.94,9.09,9.09,0,0,1-4.59,1.09,10,10,0,0,1-2-.22,12.65,12.65,0,0,1-1.66-.42l-.57-.15v-5.66a9.38,9.38,0,0,0,2.92.53,4.47,4.47,0,0,0,2.64-.78,7.15,7.15,0,0,0,2.09-2.91,21.66,21.66,0,0,0,1.46-6.47,102.14,102.14,0,0,0,.47-10.87V269.81h25.33Z" transform="translate(-78.14 -52.45)"/><path class="cls-1" d="M948.68,307.54V269.81h5.85v13.47h9.06a12.27,12.27,0,0,1,8.95,3.54,12.06,12.06,0,0,1,0,17.19,12.3,12.3,0,0,1-8.95,3.53Zm14.91-5.39a6.64,6.64,0,0,0,6.67-6.73,6.52,6.52,0,0,0-1.94-4.8,6.41,6.41,0,0,0-4.73-1.95h-9.06v13.48Z" transform="translate(-78.14 -52.45)"/><path class="cls-1" d="M1015.41,307.54h-5.85V291.1H991.15v16.44h-5.86V269.81h5.86v15.92h18.41V269.81h5.85Z" transform="translate(-78.14 -52.45)"/><path class="cls-1" d="M1027.22,307.54V269.81h5.86v13.47h8.54a12.22,12.22,0,0,1,8.93,3.54,12.08,12.08,0,0,1,0,17.19,12.25,12.25,0,0,1-8.93,3.53Zm14.4-5.39a6.64,6.64,0,0,0,6.66-6.73,6.49,6.49,0,0,0-2-4.8,6.42,6.42,0,0,0-4.71-1.95h-8.54v13.48Zm23.2,5.39h-5.89V269.81h5.89Z" transform="translate(-78.14 -52.45)"/><path class="cls-1" d="M1103.54,302.15v5.39h-26.92V269.81H1103v5.39h-20.54v10h16.27v5.39h-16.27v11.58Z" transform="translate(-78.14 -52.45)"/><path class="cls-1" d="M736.08,334.69a17.07,17.07,0,0,1,4.31,1.83,27.82,27.82,0,0,1,3,2.14,13.3,13.3,0,0,1,1.88,1.81l.57.74L742.09,345l-.45-.59a15.8,15.8,0,0,0-1.37-1.39A13.44,13.44,0,0,0,738,341.3a15.57,15.57,0,0,0-3.19-1.35,14.17,14.17,0,0,0-4.15-.61,13.31,13.31,0,0,0-9.84,4.07,14.25,14.25,0,0,0,0,19.87,13.27,13.27,0,0,0,9.85,4.08,13.82,13.82,0,0,0,4.18-.62,13.09,13.09,0,0,0,3.31-1.49,21.68,21.68,0,0,0,2.31-1.72,11.75,11.75,0,0,0,1.5-1.46l.41-.66,3.76,3.79c-.14.21-.35.48-.64.84a25.2,25.2,0,0,1-1.91,1.79,21,21,0,0,1-3.12,2.29,20.35,20.35,0,0,1-9.8,2.61,19.2,19.2,0,0,1-14.06-5.63,19.51,19.51,0,0,1,0-27.52A19.16,19.16,0,0,1,730.64,334,19.9,19.9,0,0,1,736.08,334.69Z" transform="translate(-78.14 -52.45)"/><path class="cls-1" d="M780.5,372.2V345l-20.8,27.2h-5.05V334.47h5.86V361.7l20.8-27.23h5.05V372.2Z" transform="translate(-78.14 -52.45)"/><path class="cls-1" d="M821.11,334.69a17.23,17.23,0,0,1,4.31,1.83,28.68,28.68,0,0,1,3,2.14,11.82,11.82,0,0,1,1.88,1.81l.57.74L827.12,345c-.1-.14-.25-.35-.45-.59A15.8,15.8,0,0,0,825.3,343,13.06,13.06,0,0,0,823,341.3a15.57,15.57,0,0,0-3.19-1.35,14.12,14.12,0,0,0-4.15-.61,13.27,13.27,0,0,0-9.84,4.07,14.26,14.26,0,0,0,0,19.87,13.33,13.33,0,0,0,9.86,4.08,13.67,13.67,0,0,0,4.17-.62,12.77,12.77,0,0,0,3.31-1.49,20.88,20.88,0,0,0,2.32-1.72,11.75,11.75,0,0,0,1.5-1.46l.42-.66,3.74,3.79c-.14.21-.35.48-.64.84a21.94,21.94,0,0,1-1.89,1.79,22.19,22.19,0,0,1-3.13,2.29,20.35,20.35,0,0,1-9.8,2.61,19.17,19.17,0,0,1-14.06-5.63,19.51,19.51,0,0,1,0-27.52A19.13,19.13,0,0,1,815.67,334,20,20,0,0,1,821.11,334.69Z" transform="translate(-78.14 -52.45)"/><path class="cls-1" d="M865.18,334.47v5.4H854V372.2h-5.86V339.87h-11.2v-5.4Z" transform="translate(-78.14 -52.45)"/><path class="cls-1" d="M900.06,366.81v5.39H873.14V334.47h26.41v5.4H879v10h16.27v5.39H879v11.58Z" transform="translate(-78.14 -52.45)"/><path class="cls-1" d="M942.76,334.47h5.07V372.2H942V344.73L928.36,362l-13.6-17.24V372.2H908.9V334.47H914l14.41,18.34Z" transform="translate(-78.14 -52.45)"/><path class="cls-1" d="M959.63,372.2V334.47h5.86v13.47H974a12.28,12.28,0,0,1,8.93,3.54,12.08,12.08,0,0,1,0,17.19A12.23,12.23,0,0,1,974,372.2Zm14.4-5.39a6.74,6.74,0,0,0,0-13.47h-8.54v13.47Zm23.2,5.39h-5.89V334.47h5.89Z" transform="translate(-78.14 -52.45)"/><path class="cls-1" d="M1029.06,372.2V334.47h24.53v5.4h-18.67V349h9.61a11.79,11.79,0,0,1,8.59,3.34,11.68,11.68,0,0,1,0,16.5,11.75,11.75,0,0,1-8.59,3.34Zm15.47-5.39a5.94,5.94,0,0,0,4.36-1.77,6,6,0,0,0,1.75-4.42,6,6,0,0,0-1.75-4.42,5.85,5.85,0,0,0-4.36-1.79h-9.61v12.4Z" transform="translate(-78.14 -52.45)"/><path class="cls-1" d="M1092.83,366.81v5.39H1065.9V334.47h26.4v5.4h-20.54v10H1088v5.39h-16.27v11.58Z" transform="translate(-78.14 -52.45)"/><path class="cls-1" d="M1122.22,352.56a12.81,12.81,0,0,1,1.69.92,10,10,0,0,1,2.1,1.67,9.52,9.52,0,0,1,2.4,6.26,10.13,10.13,0,0,1-3.92,8c-2.61,2.21-6.11,3.32-10.47,3.32a20.15,20.15,0,0,1-5.13-.65,17.85,17.85,0,0,1-4.08-1.53,24.49,24.49,0,0,1-2.84-1.8,13.73,13.73,0,0,1-1.81-1.55l-.54-.66,3.74-3.76c.11.11.27.26.48.48s.67.57,1.36,1.1a16.57,16.57,0,0,0,2.18,1.41,14.58,14.58,0,0,0,3,1.11,14.87,14.87,0,0,0,3.68.48,9.79,9.79,0,0,0,6.27-1.82,5.38,5.38,0,0,0,0-8.77A9.79,9.79,0,0,0,1114,355h-4.54v-5.4H1114a7.8,7.8,0,0,0,5.09-1.51,4.55,4.55,0,0,0,1.85-3.67,4.42,4.42,0,0,0-1.85-3.58,8,8,0,0,0-5.09-1.47,11,11,0,0,0-4.62,1,14.62,14.62,0,0,0-3.38,2l-1.07,1-3.72-3.76a6.47,6.47,0,0,1,.53-.59c.25-.25.78-.71,1.6-1.38a16.61,16.61,0,0,1,2.58-1.73,17.91,17.91,0,0,1,3.57-1.33A16.31,16.31,0,0,1,1114,334q6,0,9.38,2.85a8.92,8.92,0,0,1,3.42,7.12,9,9,0,0,1-.56,3.23,8,8,0,0,1-1.33,2.4,12.49,12.49,0,0,1-1.55,1.54,6.66,6.66,0,0,1-1.35.9l-.54.27C1121.65,352.33,1121.91,352.42,1122.22,352.56Z" transform="translate(-78.14 -52.45)"/><path class="cls-1" d="M1141.72,339.58a20.33,20.33,0,0,1,28.09,0,19.53,19.53,0,0,1,0,27.52,20.33,20.33,0,0,1-28.09,0,19.51,19.51,0,0,1,0-27.52Zm4.2,23.7a13.91,13.91,0,0,0,19.68,0,14.26,14.26,0,0,0,0-19.87,13.93,13.93,0,0,0-19.68,0,14.29,14.29,0,0,0,0,19.87Z" transform="translate(-78.14 -52.45)"/><path class="cls-1" d="M1215.18,372.2h-5.86V339.87h-18.41V372.2h-5.86V334.47h30.13Z" transform="translate(-78.14 -52.45)"/><path class="cls-1" d="M1238.6,334.47h5.86l15.47,37.73h-6.12l-4-10h-16.53l-4,10h-6.12Zm-3.2,22.37h12.27l-6.12-15.63Z" transform="translate(-78.14 -52.45)"/><path class="cls-1" d="M1289.38,334.69a17.07,17.07,0,0,1,4.31,1.83,27.82,27.82,0,0,1,3,2.14,13.3,13.3,0,0,1,1.88,1.81l.57.74-3.73,3.79-.45-.59a15.8,15.8,0,0,0-1.37-1.39,13.44,13.44,0,0,0-2.29-1.72,15.57,15.57,0,0,0-3.19-1.35,14.19,14.19,0,0,0-4.16-.61,13.34,13.34,0,0,0-9.84,4.07,14.26,14.26,0,0,0,0,19.87,13.27,13.27,0,0,0,9.84,4.08,13.89,13.89,0,0,0,4.19-.62,12.85,12.85,0,0,0,3.3-1.49,20.88,20.88,0,0,0,2.32-1.72,11.75,11.75,0,0,0,1.5-1.46l.41-.66,3.75,3.79c-.14.21-.35.48-.64.84a22.61,22.61,0,0,1-1.9,1.79,21.54,21.54,0,0,1-3.12,2.29,19.69,19.69,0,0,1-4.32,1.81,19.49,19.49,0,0,1-5.49.8,19.17,19.17,0,0,1-14-5.63,19.51,19.51,0,0,1,0-27.52,19.14,19.14,0,0,1,14-5.63A20,20,0,0,1,1289.38,334.69Z" transform="translate(-78.14 -52.45)"/><path class="cls-1" d="M1338.07,372.2h-5.86V355.76h-18.4V372.2H1308V334.47h5.86v15.92h18.4V334.47h5.86Z" transform="translate(-78.14 -52.45)"/><path class="cls-1" d="M1353.36,339.58a20.33,20.33,0,0,1,28.09,0,19.51,19.51,0,0,1,0,27.52,20.33,20.33,0,0,1-28.09,0,19.51,19.51,0,0,1,0-27.52Zm4.21,23.7a13.91,13.91,0,0,0,19.68,0,14.29,14.29,0,0,0,0-19.87,13.93,13.93,0,0,0-19.68,0,14.26,14.26,0,0,0,0,19.87Z" transform="translate(-78.14 -52.45)"/><path class="cls-1" d="M1420.26,334.69a17.14,17.14,0,0,1,4.3,1.83,27.82,27.82,0,0,1,3,2.14,12.77,12.77,0,0,1,1.88,1.81l.57.74-3.73,3.79c-.09-.14-.25-.35-.44-.59a17.47,17.47,0,0,0-1.37-1.39,13.13,13.13,0,0,0-2.3-1.72A15.71,15.71,0,0,0,1419,340a14.29,14.29,0,0,0-4.16-.61,13.31,13.31,0,0,0-9.84,4.07,14.27,14.27,0,0,0,0,19.87,13.29,13.29,0,0,0,9.85,4.08,13.82,13.82,0,0,0,4.18-.62,12.93,12.93,0,0,0,3.31-1.49,19.82,19.82,0,0,0,2.31-1.72,11.75,11.75,0,0,0,1.5-1.46l.42-.66,3.75,3.79c-.14.21-.35.48-.64.84a24.4,24.4,0,0,1-1.9,1.79,21.63,21.63,0,0,1-3.13,2.29,20.35,20.35,0,0,1-9.8,2.61,19.2,19.2,0,0,1-14.06-5.63,19.53,19.53,0,0,1,0-27.52,19.16,19.16,0,0,1,14.06-5.63A20,20,0,0,1,1420.26,334.69Z" transform="translate(-78.14 -52.45)"/><path class="cls-1" d="M1464.32,334.47v5.4h-11.19V372.2h-5.86V339.87h-11.2v-5.4Z" transform="translate(-78.14 -52.45)"/><path class="cls-1" d="M1498.14,372.2V345l-20.8,27.2h-5V334.47h5.86V361.7l20.8-27.23h5V372.2Z" transform="translate(-78.14 -52.45)"/><polygon class="cls-1" points="401.99 298.4 344.56 198.93 229.71 198.93 287.13 298.4 344.56 397.87 459.41 397.87 401.99 298.4"/><polygon class="cls-1" points="229.71 198.93 287.13 99.47 229.71 0 172.28 99.47 114.85 198.93 57.43 298.4 0 397.87 114.85 397.87 229.71 397.87 287.13 298.4 172.28 298.4 229.71 198.93"/><path class="cls-1" d="M737.39,207.09l-4.76,14.5H713l25.34-67.73h20.07l25.34,67.73h-19.6l-4.81-14.5Zm11-34.34-6.2,19.84h12.41Z" transform="translate(-78.14 -52.45)"/><path class="cls-1" d="M851.78,201.56a18.4,18.4,0,0,0,13.67,5.53,22,22,0,0,0,9.62-2.17,21.39,21.39,0,0,0,6.53-4.4l2-2.17L894.11,210c-.25.38-.62.87-1.1,1.49a32.68,32.68,0,0,1-3.36,3.26,36.71,36.71,0,0,1-5.69,4.13,35.36,35.36,0,0,1-8.08,3.24,37.59,37.59,0,0,1-10.43,1.44A36.5,36.5,0,0,1,839,213a34.79,34.79,0,0,1,0-50.49,36.5,36.5,0,0,1,26.44-10.56,36.06,36.06,0,0,1,10.22,1.42,31.34,31.34,0,0,1,8,3.4,48.14,48.14,0,0,1,5.5,4,20.9,20.9,0,0,1,3.39,3.4l1.07,1.37-11,11.62c-.19-.26-.44-.58-.75-1a20.14,20.14,0,0,0-2.15-2.08,28.24,28.24,0,0,0-3.5-2.65,22.19,22.19,0,0,0-10.78-3,18.47,18.47,0,0,0-13.67,5.51,20.23,20.23,0,0,0,0,27.65Z" transform="translate(-78.14 -52.45)"/><path class="cls-1" d="M947.22,221.59V153.86h48.72v15.49H965.38V178h12.88q10.77,0,17.33,6.35a21.44,21.44,0,0,1,0,30.87q-6.55,6.33-17.33,6.33Zm30.1-15.49a6.68,6.68,0,0,0,4.72-1.84,6.11,6.11,0,0,0,0-8.93,6.67,6.67,0,0,0-4.76-1.8H965.38V206.1Z" transform="translate(-78.14 -52.45)"/></svg>