<?xml version="1.0" encoding="UTF-8"?> <svg xmlns="http://www.w3.org/2000/svg" width="502" height="142" viewBox="0 0 502 142" fill="none"><path fill-rule="evenodd" clip-rule="evenodd" d="M8.64632 6.98096C11.7741 6.98096 14.2926 9.51977 14.2926 12.6273C14.2926 15.7348 11.7538 18.2736 8.64632 18.2736C5.53881 18.2736 3 15.7348 3 12.6273C3 9.51977 5.53881 6.98096 8.64632 6.98096Z" stroke="#FBBA3C" stroke-width="4.0621" stroke-miterlimit="22.93"></path><path d="M8.56445 54.508L8.58475 19.9395" stroke="#FBBA3C" stroke-width="4.0621" stroke-miterlimit="22.93"></path><path fill-rule="evenodd" clip-rule="evenodd" d="M114.769 103.761C117.897 103.761 120.415 106.3 120.415 109.408C120.415 112.515 117.876 115.054 114.769 115.054C111.661 115.054 109.123 112.515 109.123 109.408C109.123 106.3 111.661 103.761 114.769 103.761Z" stroke="#FBBA3C" stroke-width="4.0621" stroke-miterlimit="22.93"></path><path d="M96.2455 15.5117V33.7506H50.6484V52.091H58.6711" stroke="#FBBA3C" stroke-width="4.0621" stroke-miterlimit="22.93" stroke-linecap="square"></path><path d="M114.768 115.358V133.353H49.5107" stroke="#FBBA3C" stroke-width="4.0621" stroke-miterlimit="22.93" stroke-linecap="square"></path><path fill-rule="evenodd" clip-rule="evenodd" d="M34.7445 127.708C37.8723 127.708 40.3908 130.246 40.3908 133.354C40.3908 136.461 37.852 139 34.7445 139C31.637 139 29.0981 136.461 29.0981 133.354C29.0981 130.246 31.637 127.708 34.7445 127.708Z" stroke="#525659" stroke-width="4.0621" stroke-miterlimit="22.93"></path><path d="M29.0988 133.353H8.80859V65.2314" stroke="#525659" stroke-width="4.0621" stroke-miterlimit="22.93" stroke-linecap="square"></path><path d="M96.2051 119.846V102.907H50.7705V81.9671H104.593V52.0903H77.8038" stroke="#525659" stroke-width="4.0621" stroke-miterlimit="22.93" stroke-linecap="square"></path><path fill-rule="evenodd" clip-rule="evenodd" d="M114.707 19.6553C117.835 19.6553 120.354 22.1941 120.354 25.3016C120.354 28.4091 117.815 30.9479 114.707 30.9479C111.6 30.9479 109.061 28.4091 109.061 25.3016C109.061 22.1941 111.6 19.6553 114.707 19.6553Z" stroke="#525659" stroke-width="4.0621" stroke-miterlimit="22.93"></path><path d="M114.708 19.6546V3H20.2642" stroke="#525659" stroke-width="4.0621" stroke-miterlimit="22.93" stroke-linecap="square"></path><path fill-rule="evenodd" clip-rule="evenodd" d="M158.934 60.1473H174.515V65.7082H151.774V34.6171H174.267V40.1425H158.952V47.1424H172.188L171.353 52.6144H158.952V60.1473H158.934ZM210.35 34.6349V65.726H202.355L191.784 51.2464C190.878 49.9673 190.114 48.848 189.492 47.9064C188.871 46.9647 188.249 45.8987 187.662 44.7084V65.726H180.503V34.6349H188.391L199.903 50.5535C200.046 50.749 200.348 51.1931 200.845 51.8682C201.325 52.5611 201.769 53.2007 202.178 53.8048C202.568 54.4089 202.906 54.9951 203.19 55.5814V34.6171H210.35V34.6349ZM245.048 47.8353V63.3808C242.72 64.4646 240.553 65.2463 238.528 65.7082C236.502 66.1701 234.441 66.4011 232.327 66.4011C226.677 66.4011 222.538 64.9621 219.908 62.0661C217.279 59.1702 215.964 55.2616 215.964 50.3403C215.964 46.5739 216.71 43.4648 218.203 41.013C219.695 38.5612 221.703 36.7846 224.226 35.6653C226.748 34.546 229.627 33.9953 232.842 33.9953C234.956 33.9953 236.982 34.244 238.918 34.7415C240.855 35.2389 242.632 35.9674 244.266 36.9268L241.246 41.7769C238.599 40.3379 235.916 39.6272 233.18 39.6272C229.946 39.6272 227.53 40.5333 225.949 42.3455C224.35 44.1576 223.55 46.7337 223.55 50.0916C223.55 53.6448 224.297 56.292 225.807 58.0331C227.299 59.7742 229.68 60.6448 232.931 60.6448C234.761 60.6448 236.413 60.3961 237.906 59.8809V53.4139H230.746L231.563 47.9064H245.083L245.048 47.8353ZM251.586 65.726V34.6349H258.746V65.726H251.586ZM296.037 34.6349V65.726H288.042L277.471 51.2464C276.565 49.9673 275.801 48.848 275.179 47.9064C274.558 46.9647 273.936 45.8987 273.35 44.7084V65.726H266.19V34.6349H274.078L285.591 50.5535C285.733 50.749 286.035 51.1931 286.532 51.8682C287.012 52.5611 287.456 53.2007 287.865 53.8048C288.256 54.4089 288.593 54.9951 288.877 55.5814V34.6171H296.037V34.6349ZM310.57 60.1473H326.151V65.7082H303.41V34.6171H325.902V40.1425H310.588V47.1424H323.824L322.989 52.6144H310.588V60.1473H310.57ZM339.28 60.1473H354.862V65.7082H332.121V34.6171H354.613V40.1425H339.298V47.1424H352.534L351.699 52.6144H339.298V60.1473H339.28ZM387.534 65.3351V65.726H379.29L370.834 54.4088H368.009V65.726H360.849V34.6349H372.113C375.097 34.6349 377.567 35.0613 379.557 35.9141C381.547 36.7668 383.021 37.9039 383.998 39.3607C384.976 40.8176 385.455 42.4698 385.455 44.3175C385.455 46.485 384.869 48.3683 383.696 49.9495C382.524 51.5307 380.783 52.7033 378.509 53.4672L387.552 65.3174L387.534 65.3351ZM368.009 49.2566H371.242C373.356 49.2566 374.991 48.8835 376.146 48.1551C377.3 47.4266 377.869 46.2008 377.869 44.513C377.869 43.0384 377.354 41.9368 376.323 41.2084C375.311 40.48 373.872 40.1069 372.024 40.1069H367.991V49.2743L368.009 49.2566ZM392.26 65.7082V34.6171H399.42V65.7082H392.26ZM436.711 34.6171V65.7082H428.716L418.145 51.2287C417.239 49.9495 416.475 48.8302 415.853 47.8886C415.232 46.947 414.61 45.881 414.024 44.6906V65.7082H406.864V34.6171H414.752L426.265 50.5357C426.407 50.7312 426.709 51.1754 427.206 51.8505C427.686 52.5434 428.13 53.183 428.539 53.787C428.93 54.3911 429.267 54.9774 429.551 55.5636V34.5993H436.711V34.6171ZM471.409 47.8175V63.363C469.081 64.4468 466.914 65.2285 464.889 65.6904C462.863 66.1524 460.802 66.3833 458.688 66.3833C453.038 66.3833 448.899 64.9443 446.269 62.0484C443.64 59.1524 442.325 55.2438 442.325 50.3226C442.325 46.5561 443.072 43.447 444.564 40.9952C446.056 38.5435 448.064 36.7669 450.587 35.6476C453.11 34.5283 455.988 33.9775 459.203 33.9775C461.318 33.9775 463.343 34.2262 465.279 34.7237C467.216 35.2212 469.01 35.9496 470.627 36.909L467.607 41.7592C464.96 40.3201 462.277 39.6094 459.541 39.6094C456.307 39.6094 453.891 40.5155 452.31 42.3277C450.711 44.1399 449.912 46.716 449.912 50.0738C449.912 53.6271 450.658 56.2743 452.168 58.0154C453.66 59.7565 456.041 60.6271 459.292 60.6271C461.122 60.6271 462.774 60.3783 464.267 59.8631V53.3961H457.107L457.924 47.8886H471.427L471.409 47.8175ZM484.911 63.3097V56.1144H477.165V50.8378H484.911V43.6957H491.307V50.8378H499V56.1144H491.307V63.3097H484.911Z" fill="#FBBA3C"></path><path d="M152.748 106V83.7665H166.882V85.7993H154.431L155.035 85.1958L155.067 106H152.748ZM170.924 106V83.7665H179.246C181.131 83.7665 182.75 84.0736 184.106 84.6876C185.461 85.2805 186.498 86.1487 187.218 87.2921C187.959 88.4144 188.33 89.7801 188.33 91.3894C188.33 92.9564 187.959 94.3115 187.218 95.455C186.498 96.5772 185.461 97.4454 184.106 98.0595C182.75 98.6735 181.131 98.9806 179.246 98.9806H172.227L173.275 97.8689V106H170.924ZM173.275 98.0595L172.227 96.916H179.182C181.406 96.916 183.089 96.4396 184.233 95.4867C185.397 94.5127 185.98 93.1469 185.98 91.3894C185.98 89.6108 185.397 88.2344 184.233 87.2604C183.089 86.2863 181.406 85.7993 179.182 85.7993H172.227L173.275 84.6876V98.0595ZM192.256 103.808C193.335 104.232 194.352 104.338 195.305 104.126C196.258 103.893 197.136 103.141 197.941 101.871L199.021 100.156L199.243 99.8699L207.755 83.7665H210.106L200.005 102.379C199.328 103.671 198.523 104.634 197.592 105.269C196.681 105.905 195.707 106.244 194.669 106.286C193.653 106.328 192.626 106.138 191.589 105.714L192.256 103.808ZM199.18 101.998L189.556 83.7665H192.065L200.45 100.06L199.18 101.998ZM213.76 106V83.7665H232.468V106H230.149V85.1641L230.752 85.7993H215.475L216.078 85.1641V106H213.76ZM239.97 106V83.7665H258.678V106H256.359V85.1641L256.962 85.7993H241.685L242.288 85.1641V106H239.97ZM262.908 106L273.072 83.7665H275.391L285.554 106H283.077L273.739 85.1323H274.692L265.354 106H262.908ZM266.91 100.06L267.609 98.1548H280.536L281.235 100.06H266.91ZM313.342 106L304.798 94.915L306.704 93.7716L316.042 106H313.342ZM298.128 106V83.7665H300.415V106H298.128ZM299.716 95.8044V93.7398H306.672V95.8044H299.716ZM306.894 95.1374L304.734 94.7562L313.024 83.7665H315.565L306.894 95.1374ZM329.374 106.191C327.701 106.191 326.145 105.915 324.705 105.365C323.286 104.793 322.048 103.999 320.989 102.983C319.951 101.945 319.136 100.749 318.543 99.3935C317.971 98.0171 317.686 96.5137 317.686 94.8833C317.686 93.2528 317.971 91.76 318.543 90.4048C319.136 89.0284 319.951 87.8321 320.989 86.8157C322.048 85.7781 323.286 84.9841 324.705 84.4335C326.124 83.8618 327.68 83.576 329.374 83.576C331.047 83.576 332.593 83.8618 334.011 84.4335C335.43 84.9841 336.658 85.7675 337.696 86.7839C338.754 87.8003 339.57 88.9967 340.141 90.373C340.734 91.7494 341.031 93.2528 341.031 94.8833C341.031 96.5137 340.734 98.0171 340.141 99.3935C339.57 100.77 338.754 101.966 337.696 102.983C336.658 103.999 335.43 104.793 334.011 105.365C332.593 105.915 331.047 106.191 329.374 106.191ZM329.374 104.094C330.708 104.094 331.936 103.872 333.058 103.427C334.202 102.961 335.186 102.316 336.012 101.49C336.859 100.643 337.516 99.6688 337.982 98.5677C338.447 97.4454 338.68 96.2173 338.68 94.8833C338.68 93.5493 338.447 92.3317 337.982 91.2306C337.516 90.1084 336.859 89.1343 336.012 88.3085C335.186 87.4615 334.202 86.8157 333.058 86.371C331.936 85.9052 330.708 85.6722 329.374 85.6722C328.04 85.6722 326.801 85.9052 325.658 86.371C324.514 86.8157 323.519 87.4615 322.672 88.3085C321.846 89.1343 321.19 90.1084 320.703 91.2306C320.237 92.3317 320.004 93.5493 320.004 94.8833C320.004 96.1961 320.237 97.4136 320.703 98.5359C321.19 99.6582 321.846 100.643 322.672 101.49C323.519 102.316 324.514 102.961 325.658 103.427C326.801 103.872 328.04 104.094 329.374 104.094ZM346.639 106V83.7665H348.577L358.741 101.109H357.724L367.793 83.7665H369.731V106H367.475V87.2921H368.015L358.741 103.173H357.629L348.291 87.2921H348.895V106H346.639ZM377.223 106V83.7665H395.931V106H393.612V85.1641L394.216 85.7993H378.938L379.542 85.1641V106H377.223ZM400.161 106L410.325 83.7665H412.644L422.808 106H420.33L410.992 85.1323H411.945L402.607 106H400.161ZM404.163 100.06L404.862 98.1548H417.789L418.488 100.06H404.163ZM443.331 83.7665H445.649V106H443.331V83.7665ZM429.419 106H427.068V83.7665H429.419V106ZM443.553 95.7408H429.165V93.6763H443.553V95.7408ZM453.154 106V83.7665H455.473V102.189L469.702 83.7665H471.83V106H469.512V87.6097L455.282 106H453.154ZM479.333 106V83.7665H481.652V102.189L495.881 83.7665H498.009V106H495.691V87.6097L481.461 106H479.333ZM488.608 82.1467C487.02 82.1467 485.76 81.7867 484.828 81.0667C483.917 80.3468 483.452 79.341 483.43 78.0493H485.177C485.199 78.8963 485.516 79.5633 486.13 80.0504C486.765 80.5374 487.591 80.7809 488.608 80.7809C489.624 80.7809 490.439 80.5374 491.053 80.0504C491.689 79.5633 492.017 78.8963 492.038 78.0493H493.785C493.764 79.341 493.287 80.3468 492.356 81.0667C491.424 81.7867 490.175 82.1467 488.608 82.1467Z" fill="#5C5C5C"></path></svg> 