<svg width="193" height="48" viewBox="0 0 193 48" fill="none" xmlns="http://www.w3.org/2000/svg">
<path fill-rule="evenodd" clip-rule="evenodd" d="M27.7645 8.10967L34.6203 12.1232L41.485 16.1456L41.4397 24.0942L41.3943 32.0518L34.4842 35.9958L27.583 39.9309L20.7183 35.9173L13.8625 31.8949L13.9078 23.9374L13.9532 15.9888L20.8544 12.0447L27.7645 8.10967Z" fill="#DD2A1A"/>
<path fill-rule="evenodd" clip-rule="evenodd" d="M27.718 16.0705L31.1504 18.0728L34.5738 20.084L34.5512 24.0583L34.5285 28.0415L31.0824 30.0046L27.6273 31.9766L24.1949 29.9654L20.7625 27.9631L20.7852 23.9799L20.8079 20.0056L24.263 18.0336L27.718 16.0705Z" fill="white"/>
<path fill-rule="evenodd" clip-rule="evenodd" d="M0.13639 23.8637L0.0456417 39.7787L6.90141 43.8011L13.7661 47.8236L13.8569 31.8996L6.99216 27.8861L0.13639 23.8637ZM27.8042 0.156845L34.6601 4.17033L41.5248 8.19279L34.6147 12.1279L27.7135 16.0719L20.8488 12.0494L13.993 8.03595L20.8942 4.09191L27.8042 0.156845ZM44.9031 18.1168L44.8121 34.0676L37.911 38.0027L31.0008 41.9467L31.0913 26.0763L38.0014 22.1413L44.9031 18.1168Z" fill="#DD2A1A"/>
<path fill-rule="evenodd" clip-rule="evenodd" d="M41.4799 16.0833L41.4522 20.1291L31.0913 26.0763L31.0236 37.9635L27.5777 39.9132L27.6003 35.9456L27.6229 31.978L27.6682 24.0428L34.5782 20.1078L41.4799 16.0833Z" fill="#17191C" fill-opacity="0.5"/>
<path d="M73.6392 33.0859H71.2392V30.6859H64.0392V33.0859H61.6392V24.4859C61.6392 22.0859 62.8392 20.8859 65.2392 20.8859H70.0392C72.4392 20.8859 73.6392 22.0859 73.6392 24.4859V33.0859ZM71.2392 28.2859V24.4859C71.2392 23.6859 70.8392 23.2859 70.0392 23.2859H65.2392C64.4392 23.2859 64.0392 23.6859 64.0392 24.4859V28.2859H71.2392ZM86.8423 29.6859C86.8423 32.0859 85.6423 33.2859 83.2423 33.2859H78.4423C76.0423 33.2859 74.8423 32.0859 74.8423 29.6859V24.4859C74.8423 22.0859 76.0423 20.8859 78.4423 20.8859H83.2423C85.6423 20.8859 86.8423 22.0859 86.8423 24.4859V29.6859ZM84.4423 29.6859V24.4859C84.4423 23.6859 84.0423 23.2859 83.2423 23.2859H78.4423C77.6423 23.2859 77.2423 23.6859 77.2423 24.4859V29.6859C77.2423 30.4859 77.6423 30.8859 78.4423 30.8859H83.2423C84.0423 30.8859 84.4423 30.4859 84.4423 29.6859ZM104.845 30.4859H101.445L98.0454 27.0859L101.445 23.6859H104.845L101.445 27.0859L104.845 30.4859ZM110.645 30.4859H107.245L103.845 27.0859L107.245 23.6859H110.645L107.245 27.0859L110.645 30.4859ZM123.854 33.0859H121.454V28.2859H114.254V33.0859H111.854V21.0859H114.254V25.8859H121.454V21.0859H123.854V33.0859ZM137.057 33.0859H134.657V23.4859H127.457V33.0859H125.057V21.0859H137.057V33.0859ZM150.26 33.0859H147.86V23.4859H140.66V33.0859H138.26V21.0859H150.26V33.0859ZM163.463 33.0859H160.403L156.563 28.2859H153.863V33.0859H151.463V21.0859H153.863V25.8859H156.563L160.403 21.0859H163.463L158.663 27.0859L163.463 33.0859ZM176.061 23.4859H171.261V33.0859H168.861V23.4859H164.061V21.0859H176.061V23.4859ZM183.064 30.4859L186.464 27.0859L183.064 23.6859H186.464L189.864 27.0859L186.464 30.4859H183.064ZM177.264 30.4859L180.664 27.0859L177.264 23.6859H180.664L184.064 27.0859L180.664 30.4859H177.264Z" fill="#141414"/>
</svg>
