<?xml version="1.0" encoding="utf-8"?>
<!-- Generator: Adobe Illustrator 26.5.0, SVG Export Plug-In . SVG Version: 6.00 Build 0)  -->
<svg version="1.1" id="_Слой_1" xmlns="http://www.w3.org/2000/svg" xmlns:xlink="http://www.w3.org/1999/xlink" x="0px"
	 y="0px" viewBox="0 0 359 87.8" style="enable-background:new 0 0 359 87.8;" xml:space="preserve">
<style type="text/css">
	.st0{fill:#F9B333;}
</style>
<g>
	<path class="st0" d="M31.7,22.2c9.1,0,16.3,7.2,16.3,16.3s-7.2,16.3-16.3,16.3s-16.3-7.2-16.3-16.3S22.7,22.2,31.7,22.2z
		 M31.7,48.7c5.6,0,10.2-4.5,10.2-10.1s-4.5-10.2-10.2-10.2s-10.1,4.5-10.1,10.2S26.1,48.7,31.7,48.7z"/>
	<path class="st0" d="M50.8,54.5V22.3h6.5v2.2c2.1-1.4,4.2-2.2,7-2.2c4.3,0,8.3,1.6,10.5,4c2.3-2.4,5.6-4,9.2-4
		c6.9,0,12.5,5.6,12.5,12.5v19.6h-6.5V34.8c0-3.4-2.7-6.1-6.1-6.1c-3.1,0-5.7,2.3-6.1,5.4v20.3h-6.5l-0.1-19.6
		c0-3.4-2.9-6.1-7.1-6.1s-7,3.4-7,7.6v18.1L50.8,54.5L50.8,54.5z"/>
	<path class="st0" d="M127.3,50c-3.2,3.2-7.5,4.8-11.6,4.8s-8.4-1.6-11.6-4.8c-3.2-3.2-4.8-7.4-4.8-11.6s1.6-8.4,4.8-11.6
		c3.2-3.1,7.4-4.8,11.6-4.8s9.1,2.4,13.9,7l-18.3,18.3c1.3,0.7,2.9,1,4.4,1c2.5,0,5.1-0.9,7.1-2.9C122.8,45.4,127.3,50,127.3,50z
		 M106.7,42.8l13.5-13.5c-1.3-0.6-3.1-1-4.5-1c-2.7,0-5.2,1-7.1,2.9c-2,2-2.9,4.5-2.9,7.1C105.7,39.9,106,41.4,106.7,42.8
		L106.7,42.8z"/>
	<path class="st0" d="M163.4,58.4c0,9.2-7.5,16.6-16.6,16.6s-16.6-7.5-16.6-16.7h6.5c0,5.6,4.5,10.2,10.2,10.2s10.2-4.5,10.2-10.2
		L163.4,58.4L163.4,58.4z M146.8,54.7c-9.2,0-16.6-7.5-16.6-16.6s7.5-16.6,16.6-16.6c2.2,0,4.3,0.4,6.2,1.2
		c1.9-5.7,7.4-9.8,13.6-9.8v6.6c-4.1,0-7.5,3.2-7.7,7.2c2.9,3,4.6,7,4.6,11.5C163.4,47.3,156,54.7,146.8,54.7L146.8,54.7z
		 M146.8,27.9c-5.6,0-10.2,4.5-10.2,10.2s4.5,10.2,10.2,10.2s10.2-4.5,10.2-10.2S152.4,27.9,146.8,27.9z"/>
	<path class="st0" d="M194,54.5v-5.8c-2.8,3.8-7.7,6.2-12.5,6.2c-8.4,0-15.3-7.3-15.3-16.4S173.1,22,181.5,22
		c4.8,0,9.7,2.4,12.5,6.2v-5.8h6.5v32.2H194z M182.7,28.4c-5.6,0-10.1,4.5-10.1,10s4.5,10.1,10.1,10.1s10-4.5,10-10.1
		S188.2,28.4,182.7,28.4z"/>
</g>
<g>
	<path class="st0" d="M210.7,22.4h11v2.3h-4.1v10.4h-2.8V24.6h-4.2V22.4z"/>
	<path class="st0" d="M234.5,33.5c-1.3,1.3-2.9,1.9-4.6,1.9s-3.3-0.6-4.6-1.9c-1.3-1.3-1.9-2.9-1.9-4.6s0.6-3.3,1.9-4.6
		c1.3-1.2,2.9-1.9,4.6-1.9s3.6,0.9,5.5,2.8l-7.2,7.2c0.5,0.3,1.1,0.4,1.8,0.4c1,0,2-0.4,2.8-1.1L234.5,33.5L234.5,33.5z M226.3,30.7
		l5.3-5.3c-0.5-0.2-1.2-0.4-1.8-0.4c-1.1,0-2.1,0.4-2.8,1.1c-0.8,0.8-1.1,1.8-1.1,2.8C225.9,29.5,226.1,30.1,226.3,30.7L226.3,30.7z
		"/>
	<path class="st0" d="M240.6,22.4l3.4,4.2l3.4-4.2h3.3l-5,6.3l5.2,6.5h-3.3l-3.6-4.4l-3.5,4.4h-3.3l5.2-6.5l-5-6.3L240.6,22.4
		L240.6,22.4z"/>
	<path class="st0" d="M263.7,22.4v12.7h-2.8v-5h-5.2v5h-2.8V22.3h2.8v5h5.2v-5L263.7,22.4L263.7,22.4z"/>
	<path class="st0" d="M272.4,22.2c3.6,0,6.6,3,6.6,6.6s-3,6.6-6.6,6.6s-6.6-3-6.6-6.6S268.7,22.2,272.4,22.2z M272.4,32.8
		c2.2,0,4-1.8,4-4s-1.8-4-4-4s-4,1.8-4,4S270.1,32.8,272.4,32.8z"/>
	<path class="st0" d="M280.7,32.3c1.2,0,1.7-1.9,1.7-3.8v-6.2h9.2v12.7h-2.8v-10h-3.6v3.5c0,3.1-0.7,6.5-4.4,6.5
		C280.7,35.1,280.7,32.3,280.7,32.3z"/>
	<path class="st0" d="M300.2,22.2c3.6,0,6.6,3,6.6,6.6s-3,6.6-6.6,6.6s-6.6-3-6.6-6.6S296.6,22.2,300.2,22.2z M300.2,32.8
		c2.2,0,4-1.8,4-4s-1.8-4-4-4s-4,1.8-4,4S298,32.8,300.2,32.8z"/>
	<path class="st0" d="M308.9,35.1V22.3h7.3v2.8h-4.6v9.9H308.9L308.9,35.1z"/>
	<path class="st0" d="M329.7,22.4v12.7h-2.8v-8.5l-5.4,8.5h-3.1V22.4h2.8v8.5l5.4-8.5L329.7,22.4L329.7,22.4z"/>
	<path class="st0" d="M343.6,22.4v12.7h-2.8v-8.5l-5.4,8.5h-3.1V22.4h2.8v8.5l5.4-8.5L343.6,22.4L343.6,22.4z"/>
	<path class="st0" d="M210.7,43.8c0-5.2,5.3-6.4,8.6-6.4c0.9,0,1.7-0.4,1.7-1.2h2.5c0,2.5-1.9,3.7-4.2,3.7c-2.2,0-5.6,0.6-6.1,3.2
		c1.1-0.8,2.4-1.3,3.9-1.3c3.6,0,6.4,2.9,6.4,6.5s-2.9,6.4-6.4,6.4s-6.4-2.9-6.4-6.4L210.7,43.8L210.7,43.8z M217.1,52.2
		c2.2,0,3.9-1.8,3.9-3.9s-1.8-3.9-3.9-3.9s-3.9,1.8-3.9,3.9S215,52.2,217.1,52.2z"/>
	<path class="st0" d="M228,41.7l3.7,9.3l3.7-9.3h2.8L231,59.9h-2.8l2.2-5.4l-5.1-12.7H228L228,41.7z"/>
	<path class="st0" d="M240,57.5v-5.6h1.5c1.2-1.7,1.7-3.5,1.7-5.5v-4.6h9.1v10.1h1.5v5.6h-2.6v-3h-8.6v3L240,57.5L240,57.5z
		 M246,46.4c0,2-0.5,3.9-1.7,5.5h5.2v-7.4H246V46.4z"/>
	<path class="st0" d="M258.2,41.7l3.7,9.3l3.7-9.3h2.8l-7.3,18.1h-2.8l2.2-5.4l-5.1-12.7H258.2L258.2,41.7z"/>
	<path class="st0" d="M285.9,57.5v-3h-15.5V41.7h2.8v10h4v-10h2.8v10h4v-10h2.8v10.2h1.6v5.6L285.9,57.5L285.9,57.5z"/>
	<path class="st0" d="M300.8,52.9c-1.3,1.3-3,1.9-4.6,1.9s-3.3-0.6-4.6-1.9c-1.3-1.3-1.9-2.9-1.9-4.6s0.6-3.3,1.9-4.6
		c1.3-1.2,2.9-1.9,4.6-1.9s3.6,0.9,5.5,2.8l-7.2,7.2c0.5,0.3,1.1,0.4,1.8,0.4c1,0,2-0.4,2.8-1.2L300.8,52.9L300.8,52.9z M292.6,50
		l5.3-5.3c-0.5-0.2-1.2-0.4-1.8-0.4c-1,0-2,0.4-2.8,1.2c-0.8,0.8-1.1,1.8-1.1,2.8C292.2,48.9,292.4,49.5,292.6,50L292.6,50z"/>
	<path class="st0" d="M303.8,54.5V41.7h7.3v2.8h-4.6v9.9H303.8L303.8,54.5z"/>
	<path class="st0" d="M319.4,41.6c3.6,0,6.6,3,6.6,6.6s-3,6.6-6.6,6.6s-6.6-3-6.6-6.6S315.8,41.6,319.4,41.6z M319.4,52.2
		c2.2,0,4-1.8,4-4s-1.8-4-4-4s-4,1.8-4,4S317.2,52.2,319.4,52.2z"/>
</g>
</svg>
