<svg xmlns="http://www.w3.org/2000/svg" xmlns:xlink="http://www.w3.org/1999/xlink" viewBox="0 0 528.05 181.31"><defs><style>.cls-1{fill:url(#linear-gradient);}.cls-2{fill:url(#linear-gradient-2);}.cls-3{fill:url(#linear-gradient-3);}.cls-4{fill:url(#linear-gradient-4);}.cls-5{fill:url(#linear-gradient-5);}.cls-6{fill:url(#linear-gradient-6);}.cls-7{fill:#6e6e6e;}.cls-8{fill:url(#linear-gradient-7);}.cls-9{fill:url(#linear-gradient-8);}.cls-10{fill:url(#linear-gradient-9);}.cls-11{fill:#838383;}.cls-12{fill:#5e5e5e;}</style><linearGradient id="linear-gradient" x1="235.55" y1="20.09" x2="235.55" y2="107.97" gradientUnits="userSpaceOnUse"><stop offset="0" stop-color="#747474"/><stop offset="0.32" stop-color="#262626"/><stop offset="0.69" stop-color="#2f2f2f"/><stop offset="1" stop-color="#747474"/></linearGradient><linearGradient id="linear-gradient-2" x1="317.03" y1="20.09" x2="317.03" y2="107.97" xlink:href="#linear-gradient"/><linearGradient id="linear-gradient-3" x1="398.57" y1="20.09" x2="398.57" y2="107.97" xlink:href="#linear-gradient"/><linearGradient id="linear-gradient-4" x1="484.6" y1="20.09" x2="484.6" y2="107.97" xlink:href="#linear-gradient"/><linearGradient id="linear-gradient-5" x1="4.54" y1="127.64" x2="115.57" y2="-0.86" gradientUnits="userSpaceOnUse"><stop offset="0" stop-color="#747474"/><stop offset="0.32" stop-color="#303030"/><stop offset="0.69" stop-color="#2a2a2a"/><stop offset="1" stop-color="#747474"/></linearGradient><linearGradient id="linear-gradient-6" x1="-1.71" y1="79.22" x2="86.71" y2="-4.81" gradientUnits="userSpaceOnUse"><stop offset="0" stop-color="#b2b2b2"/><stop offset="0.27" stop-color="#5e5e5e"/><stop offset="0.73" stop-color="#5e5e5e"/><stop offset="1" stop-color="#b2b2b2"/></linearGradient><linearGradient id="linear-gradient-7" x1="126.41" y1="17.96" x2="169.99" y2="123" gradientUnits="userSpaceOnUse"><stop offset="0" stop-color="#3b3b3b"/><stop offset="0.32" stop-color="#2a2a2a"/><stop offset="0.69" stop-color="#2a2a2a"/></linearGradient><linearGradient id="linear-gradient-8" x1="39.12" y1="114.84" x2="156.11" y2="154.38" gradientUnits="userSpaceOnUse"><stop offset="0" stop-color="#2a2a2a"/><stop offset="0.32" stop-color="#303030"/><stop offset="0.69" stop-color="#424242"/><stop offset="1" stop-color="#747474"/></linearGradient><linearGradient id="linear-gradient-9" x1="30.78" y1="145.97" x2="147.22" y2="178.37" gradientUnits="userSpaceOnUse"><stop offset="0" stop-color="#5e5e5e"/><stop offset="0.73" stop-color="#5e5e5e"/><stop offset="1" stop-color="#b2b2b2"/></linearGradient></defs><g id="Layer_2" data-name="Layer 2"><g id="Слой_1" data-name="Слой 1"><path class="cls-1" d="M205.18,83a67.57,67.57,0,0,0,25.43,5.24c9,0,15.6-2.62,15.6-6.86s-6.59-6.49-17.64-9.74c-16.56-5-27.46-12.85-27.46-25.33,0-14.85,14.53-26.33,39.23-26.33,11.77,0,19.5,1.66,26,4.16l-5,18.18a58.29,58.29,0,0,0-21.35-4c-8,0-14.12,2.49-14.12,6.24,0,4.24,7,6,19.35,10,17.58,5.49,25.57,13.6,25.57,25.33,0,14.47-13.22,27-41.85,27-11.77,0-23.25-2.74-28.77-5.24Z"/><path class="cls-2" d="M305.36,86.27l-4.74,19.47H277.29l24.45-84.1h29.95l25.08,84.1H332.44l-5.37-19.47ZM324,69.55l-3.87-15.1c-1.25-4.74-2.87-11.6-4.12-16.59h-.25c-1.25,5-2.5,12-3.74,16.72l-3.62,15Z"/><path class="cls-3" d="M436.75,101.74a98.85,98.85,0,0,1-28.95,4.87c-16.59,0-27.82-4.12-35.44-11.35-7.86-7.49-12-18.35-12-30.45.12-29.2,21.83-44,49.16-44,11.35,0,20,2,24.33,4.12l-4.49,18c-4.74-2-10.36-3.5-20-3.5-13.85,0-25.33,7.24-25.33,24.34,0,15.72,10.11,24.83,24,24.83a27.24,27.24,0,0,0,7-.75V73.29H403.81V55.83h32.94Z"/><path class="cls-4" d="M472.93,86.27l-4.74,19.47H444.86l24.45-84.1h29.95l25.08,84.1H500l-5.37-19.47Zm18.59-16.72-3.86-15.1c-1.25-4.74-2.87-11.6-4.12-16.59h-.25c-1.25,5-2.5,12-3.74,16.72l-3.62,15Z"/><path class="cls-5" d="M23.44,141.34S3.06,142,6.36,104.12C12.19,90.6,39.43,31,108.09.62c8-2.29,20.06,4.47,24.89,9.58-17,3.78-44,21.37-71.09,57.68C33.68,105.64,27.93,114.71,23.44,141.34Z"/><path class="cls-6" d="M97,.13C78-.6,65.6,1.59,53.18,10.23S22.57,30.36,3.46,74.61a113.56,113.56,0,0,0-3,13.84,9.67,9.67,0,0,1,.92-.62,9.67,9.67,0,0,0-.92.62c-.12.73-.25,1.47-.37,2.2-.27,1.88-.14,3.09,2.15,3.42a3.3,3.3,0,0,0,2.61-1.5C18.56,67.83,49.89,24.05,97,.13Z"/><path class="cls-7" d="M.69,100.54c0,.24,0,.37,0,.37S.67,100.68.69,100.54Z"/><path class="cls-7" d="M.7,100.52v0Z"/><path class="cls-8" d="M115.08,21.84S127,12.2,137.21,13.23c15,9.08,43.62,59.33,33.38,111.69-7.81,7-22.21.32-22.21.32-3.93-18.88-2.23-40.53-13.22-69.32C124.39,27.73,115.08,21.84,115.08,21.84Z"/><path class="cls-9" d="M45.61,101.39s33.65,40.22,123.52,30c-1.51,10.43-12.67,22.19-25.73,27.74s-93.85,1.52-108.29-32.45C31.31,116.23,39.61,108.48,45.61,101.39Z"/><path class="cls-10" d="M30.36,138.38s.46,26.71,47.13,37.73c46.49,11,65.84,2.4,70.44-5.59l4.56-7.93a118.92,118.92,0,0,1-33.69,3.55c-13.46-.67-58.49-4.68-76.69-22.41C31.55,133.47,30.36,138.38,30.36,138.38Z"/><path class="cls-11" d="M94.56,38.63s14-17.54,17.5-13.76,17.84,23.18,23.1,50.77c5.38,28.2,7.8,42.48,2.42,49s-9.91-.51-14.56-10.33S115.54,58.94,94.56,38.63Z"/><path class="cls-12" d="M198,127.1a63.46,63.46,0,0,1,11.16-.9c5.82,0,9.72,1,12.47,3.24a10.28,10.28,0,0,1,3.49,8.16,10.62,10.62,0,0,1-7.38,10.08v.18c2.93,1.08,4.68,3.9,5.64,7.8,1.32,5,2.39,9.72,3.17,11.28H219a51.55,51.55,0,0,1-2.7-9.54c-1.2-5.28-3.06-7-7.26-7.08h-3.72v16.62H198Zm7.32,17.82h4.38c5,0,8-2.64,8-6.66,0-4.38-3.07-6.48-7.86-6.48a21.22,21.22,0,0,0-4.56.36Z"/><path class="cls-12" d="M278.21,146.3c0,13.56-8.22,21.3-19.32,21.3-11.45,0-18.65-8.76-18.65-20.58,0-12.48,7.85-21.24,19.25-21.24C271.25,125.78,278.21,134.72,278.21,146.3Zm-30.17.54c0,8.28,4.13,14.82,11.22,14.82s11.15-6.66,11.15-15.12c0-7.62-3.78-14.82-11.15-14.82S248,138.5,248,146.84Z"/><path class="cls-12" d="M294.77,127.1a61,61,0,0,1,10.8-.9c5.4,0,8.82.72,11.52,2.58a8.56,8.56,0,0,1,4.2,7.62c0,3.72-2.34,7.08-6.72,8.7v.18c4.26,1.08,8.16,4.44,8.16,10a10.85,10.85,0,0,1-3.84,8.4c-2.88,2.46-7.62,3.72-15.06,3.72a72.47,72.47,0,0,1-9.06-.54Zm7.32,16h3.78c5.16,0,8-2.4,8-5.82,0-3.84-2.88-5.58-7.56-5.58a20.07,20.07,0,0,0-4.2.3Zm0,18.54a23.45,23.45,0,0,0,3.9.18c4.74,0,9-1.74,9-6.72,0-4.74-4.14-6.66-9.24-6.66h-3.66Z"/><path class="cls-12" d="M375.41,146.3c0,13.56-8.22,21.3-19.32,21.3-11.46,0-18.66-8.76-18.66-20.58,0-12.48,7.86-21.24,19.26-21.24C368.45,125.78,375.41,134.72,375.41,146.3Zm-30.18.54c0,8.28,4.14,14.82,11.22,14.82s11.16-6.66,11.16-15.12c0-7.62-3.78-14.82-11.16-14.82S345.23,138.5,345.23,146.84Z"/><path class="cls-12" d="M398.09,132.68H386.57V126.5h30.54v6.18H405.47v34.26h-7.38Z"/><path class="cls-12" d="M439.43,126.5v40.44h-7.38V126.5Z"/><path class="cls-12" d="M487.07,165.8a26.76,26.76,0,0,1-10.5,1.8c-12.84,0-20.64-8-20.64-20.4,0-13.32,9.3-21.36,21.66-21.36a22.89,22.89,0,0,1,9.78,1.8l-1.56,5.88a19.88,19.88,0,0,0-7.92-1.56c-8.22,0-14.16,5.16-14.16,14.88,0,8.94,5.16,14.58,14.1,14.58a22.39,22.39,0,0,0,8-1.44Z"/><path class="cls-12" d="M503.45,158.9a20.24,20.24,0,0,0,9.78,2.58c4.68,0,7.32-2.22,7.32-5.52,0-3.06-2-4.86-7.14-6.72-6.72-2.4-11-5.94-11-11.76,0-6.66,5.52-11.64,14.34-11.64a21.07,21.07,0,0,1,9.66,2l-1.74,5.94a17.63,17.63,0,0,0-8.1-1.92c-4.68,0-6.66,2.46-6.66,4.86,0,3.12,2.34,4.56,7.74,6.66,7,2.64,10.38,6.18,10.38,12,0,6.54-4.92,12.18-15.3,12.18-4.32,0-8.76-1.2-11-2.58Z"/></g></g></svg>