<svg xmlns="http://www.w3.org/2000/svg" version="1.1" xmlns:xlink="http://www.w3.org/1999/xlink" width="124" height="124"><svg width="124" height="124" viewBox="0 0 124 124" fill="none" xmlns="http://www.w3.org/2000/svg">
<path d="M121.681 73.3514C116.375 101.061 92.0092 122 62.753 122C34.0908 122 10.1227 101.903 4.17188 75.031H11.7876C12.23 75.0118 12.6596 75.018 13.0956 75.0244C13.9723 75.0374 14.8745 75.0506 15.9575 74.8572C17.4633 74.5098 18.7953 73.8726 20.0115 73.004C21.1698 72.1352 22.1544 70.977 22.9074 69.7606C23.3192 69.032 23.6444 68.3728 23.9588 67.7354C24.2192 67.2074 24.472 66.6946 24.7606 66.17L28.2218 59.19C28.7626 58.4768 29.6828 58.1234 30.5522 58.1776C31.5366 58.2356 32.4054 58.8148 32.8108 59.6834L36.4594 67.0966L39.7028 73.583C39.8186 73.9306 39.9344 74.1622 40.224 74.6256C41.2084 76.2472 43.1196 77.1738 44.973 77.058C46.8262 76.9422 48.6216 75.7838 49.3746 74.0464C49.4324 73.9884 49.4324 73.8726 49.4324 73.8726L54.4132 56.9614V57.1352C54.471 57.0194 54.6448 57.0194 54.7606 57.0194C54.8186 57.0194 54.8764 57.1352 54.8764 57.1352V57.4826L55.919 71.2086L57.3668 89.5098L58.1196 98.6604L58.641 105.552C58.641 105.726 58.6988 106.421 58.9306 106.826C59.1622 107.29 59.4518 107.695 59.8572 107.985C60.61 108.564 61.7104 108.853 62.695 108.564C63.6796 108.274 64.5482 107.521 64.8958 106.595C65.0694 106.131 65.1274 105.378 65.1274 105.378V104.799L65.475 97.9074L65.9962 88.7568L67.9652 52.0386L68.568 40.0824L69.6448 82.7916V83.9498C69.6448 84.1816 69.7606 84.4132 69.8764 84.6448C70.3398 85.5136 71.3244 86.0928 72.3668 86.0928C73.4092 86.0348 74.3938 85.3978 74.7992 84.4712C75.0308 83.834 75.0308 83.6024 75.0308 83.6024L75.1468 83.0232L75.668 80.7646L77.8108 71.8456L78.9112 67.3862L79.4324 65.1274L79.6642 64.085C79.6642 63.9692 79.722 63.9112 79.78 63.8534C79.8958 63.7954 80.1274 63.7376 80.3012 63.8534C80.417 63.9112 80.5328 64.143 80.5328 64.143L80.9962 65.1854L82.8494 69.4132L83.776 71.4982C83.8918 71.7878 84.1814 72.3668 84.529 72.7722C84.8764 73.1776 85.3398 73.5252 85.8032 73.7568C86.7876 74.278 88.0038 74.336 88.9884 73.9306C89.4518 73.7568 89.915 73.4672 90.3204 73.0618C90.4942 72.8302 90.8418 72.4248 90.8418 72.4248L91.1312 71.9036L93.6216 68.0232L93.9112 67.56C93.9402 67.531 93.9692 67.4876 93.998 67.444C94.027 67.4006 94.056 67.3572 94.085 67.3282C94.2008 67.2124 94.3746 67.0386 94.6062 67.0386C95.0116 66.9808 95.475 67.0966 95.7644 67.3862C95.8804 67.502 96.4016 68.197 96.4016 68.197L97.0966 69.1236C97.502 69.7028 98.081 70.5136 98.776 71.0348C100.108 72.1352 101.614 72.888 103.351 73.2356C103.757 73.3514 104.22 73.3514 104.683 73.3514H121.681Z" fill="#6CBE45"></path>
<path d="M122.024 71.3826C122.016 71.3824 122.008 71.3824 122 71.3824H104.625C104.322 71.3824 104.063 71.3382 103.771 71.2884C103.728 71.2812 103.685 71.2738 103.641 71.2664C102.367 71.0348 101.035 70.3978 99.9922 69.529C99.6344 69.2506 99.3856 68.9176 99.0962 68.53C98.9642 68.3532 98.8236 68.165 98.6602 67.9654L97.9652 67.0386C97.855 66.9064 97.7782 66.7908 97.7 66.6728C97.5728 66.4812 97.4414 66.283 97.1544 65.9962C96.3436 65.1854 95.1274 64.838 94.027 65.1274C93.4478 65.2434 92.9266 65.5328 92.5212 65.8804C92.3474 66.0542 92 66.5174 92 66.5174L91.6526 66.9808L89.1042 70.8032L88.8146 71.2664L88.583 71.4982C88.4092 71.6718 88.2356 71.7878 88.0038 71.8456C87.5406 71.9614 87.0772 71.9614 86.6718 71.7298C86.4402 71.6718 86.2664 71.4982 86.1506 71.3244C86.0348 71.0928 85.9768 70.977 85.8032 70.5716L84.9344 68.4286L83.2548 64.143L82.8494 63.1004C82.6756 62.6372 82.2124 61.9422 81.6912 61.5946C80.5908 60.726 79.027 60.7838 77.9266 61.5946C77.4054 62 76.942 62.5792 76.7684 63.2162L76.4208 64.3746L75.8418 66.5754L74.6254 71.0348L72.6796 78.296L72.193 52.56L71.7876 34.2008L71.614 24.9924L71.4402 18.1005V16.9422C71.498 16.0734 70.8032 14.7993 69.8186 14.3939C68.834 13.8727 67.5598 14.0464 66.6912 14.7414C66.2278 15.0889 65.9382 15.5522 65.7644 16.0734C65.6486 16.3051 65.5908 16.8263 65.5908 16.8263V17.1159L65.475 19.4325L65.1854 24.0078L63.6216 51.5174L61.5946 88.2356L61.1918 95.3058L57.3088 56.9614C57.3088 56.8456 57.3088 56.4402 57.193 56.0928C57.0772 55.7452 56.9614 55.4556 56.7298 55.166C56.3244 54.587 55.6872 54.1816 54.9922 54.0078C53.6024 53.6024 52.0386 54.3552 51.4594 55.6874H51.4016V55.8032L46.4788 72.7144V72.5406C46.0734 73.3514 45.2626 73.9884 44.336 73.9884C43.4092 74.0464 42.4826 73.583 42.0194 72.8302L34.664 58.1198C33.7954 56.4982 32.1158 55.3398 30.2626 55.224C28.4092 55.1082 26.556 55.977 25.5136 57.4826C25.4556 57.5406 25.3976 57.6564 25.3976 57.6564L21.9228 64.6642C21.7122 65.0644 21.5016 65.495 21.291 65.9258C20.9224 66.6798 20.5539 67.4336 20.1853 68.0232C19.5483 69.0078 18.7954 69.8766 17.8687 70.5136C17 71.1506 15.8996 71.614 14.8571 71.8456C14.1967 71.9694 13.2716 71.9462 12.3333 71.9226C11.955 71.9132 11.5746 71.9036 11.2085 71.9036H3.56641C3.03133 68.6818 2.75293 65.3734 2.75293 62C2.75293 28.863 29.6158 2 62.753 2C95.89 2 122.753 28.863 122.753 62C122.753 65.1918 122.504 68.3256 122.024 71.3826Z" fill="#6CBE45"></path>
<path d="M62.1466 104.709L62.1738 104.973V104.799C62.1738 104.765 62.1638 104.736 62.1466 104.709Z" fill="#6CBE45"></path>
<path d="M68.0248 17.3216L68.0232 17.2896C68.0232 17.2994 68.0236 17.3101 68.0248 17.3216Z" fill="#6CBE45"></path>
<path d="M28.162 59.2724C28.1476 59.2934 28.1334 59.3146 28.1196 59.336L28.162 59.2724Z" fill="#6CBE45"></path>
</svg><style>@media (prefers-color-scheme: light) { :root { filter: none; } }
@media (prefers-color-scheme: dark) { :root { filter: none; } }
</style></svg>