<svg width="186" height="33" viewBox="0 0 186 33" fill="none" xmlns="http://www.w3.org/2000/svg">
<g clip-path="url(#clip0_4736_405)">
<mask id="mask0_4736_405" style="mask-type:luminance" maskUnits="userSpaceOnUse" x="-47" y="-102" width="327" height="378">
<path d="M279.766 -101.865H-46.6895V275.121H279.766V-101.865Z" fill="white"/>
</mask>
<g mask="url(#mask0_4736_405)">
<path d="M36.7371 0.212402H29.3125V7.08486H36.7371V0.212402Z" fill="#14576D"/>
<path d="M36.7371 8.8208H29.3125V15.6933H36.7371V8.8208Z" fill="#14576D"/>
<path d="M36.7371 17.4258H29.3125V24.3701H36.7371V17.4258Z" fill="#14576D"/>
<path d="M36.7371 26.0342H29.3125V32.9785H36.7371V26.0342Z" fill="#14576D"/>
<g opacity="0.8">
<mask id="mask1_4736_405" style="mask-type:luminance" maskUnits="userSpaceOnUse" x="19" y="0" width="8" height="8">
<path d="M26.7898 0.212402H19.3652V7.08486H26.7898V0.212402Z" fill="white"/>
</mask>
<g mask="url(#mask1_4736_405)">
<path d="M26.7898 0.212402H19.3652V7.08486H26.7898V0.212402Z" fill="#14576D"/>
</g>
</g>
<g opacity="0.8">
<mask id="mask2_4736_405" style="mask-type:luminance" maskUnits="userSpaceOnUse" x="19" y="8" width="8" height="8">
<path d="M26.7898 8.8208H19.3652V15.6933H26.7898V8.8208Z" fill="white"/>
</mask>
<g mask="url(#mask2_4736_405)">
<path d="M26.7898 8.8208H19.3652V15.6933H26.7898V8.8208Z" fill="#14576D"/>
</g>
</g>
<g opacity="0.8">
<mask id="mask3_4736_405" style="mask-type:luminance" maskUnits="userSpaceOnUse" x="19" y="17" width="8" height="8">
<path d="M26.7898 17.4258H19.3652V24.3701H26.7898V17.4258Z" fill="white"/>
</mask>
<g mask="url(#mask3_4736_405)">
<path d="M26.7898 17.4258H19.3652V24.3701H26.7898V17.4258Z" fill="#14576D"/>
</g>
</g>
<g opacity="0.6">
<mask id="mask4_4736_405" style="mask-type:luminance" maskUnits="userSpaceOnUse" x="9" y="0" width="8" height="8">
<path d="M16.8429 0.212402H9.49023V7.08486H16.8429V0.212402Z" fill="white"/>
</mask>
<g mask="url(#mask4_4736_405)">
<path d="M16.8429 0.212402H9.49023V7.08486H16.8429V0.212402Z" fill="#14576D"/>
</g>
</g>
<g opacity="0.6">
<mask id="mask5_4736_405" style="mask-type:luminance" maskUnits="userSpaceOnUse" x="9" y="8" width="8" height="8">
<path d="M16.8429 8.8208H9.49023V15.6933H16.8429V8.8208Z" fill="white"/>
</mask>
<g mask="url(#mask5_4736_405)">
<path d="M16.8429 8.8208H9.49023V15.6933H16.8429V8.8208Z" fill="#14576D"/>
</g>
</g>
<g opacity="0.4">
<mask id="mask6_4736_405" style="mask-type:luminance" maskUnits="userSpaceOnUse" x="0" y="0" width="8" height="8">
<path d="M7.25545 0.212402H0V7.08486H7.25545V0.212402Z" fill="white"/>
</mask>
<g mask="url(#mask6_4736_405)">
<path d="M7.25545 0.212402H0V7.08486H7.25545V0.212402Z" fill="#14576D"/>
</g>
</g>
<path fill-rule="evenodd" clip-rule="evenodd" d="M174.454 0.219374L177.826 10.812L181.202 0.219374H186.003V15.4416H182.343V11.8867L182.703 4.60811L179.036 15.4416H176.628L172.957 4.59373L173.317 11.8795V15.4344H169.653V0.219374H174.454ZM162.218 6.82944L164.737 0.212185H168.581L163.467 12.3001C162.92 13.5198 162.307 14.3776 161.628 14.8737C160.926 15.3756 160.087 15.6503 159.224 15.6608H158.486H157.924L157.867 12.8141C158.104 12.8574 158.346 12.8719 158.587 12.8572C159.025 12.8859 159.462 12.7847 159.843 12.5661C160.194 12.2736 160.435 11.8705 160.526 11.4231L160.703 10.9234L155.232 0.204997H159.108L162.218 6.82944ZM150.611 0.219374H154.257V15.4416H150.611V5.84458L145.173 15.4416H141.52V0.219374H145.173V9.82715L150.611 0.219374ZM125.192 0.219374H128.823V12.62H134.258V0.219374H137.925V12.6523H140.243L140.03 19.1222H136.59V15.4416H125.192V0.219374ZM115.378 7.44048H117.767C118.357 7.48464 118.939 7.29329 119.387 6.90851C119.579 6.70948 119.727 6.47284 119.822 6.2136C119.918 5.95435 119.958 5.67815 119.941 5.40247C119.974 4.78495 119.772 4.17791 119.376 3.70233C119.177 3.48795 118.935 3.31888 118.664 3.20661C118.394 3.09435 118.103 3.04153 117.811 3.05174H115.378V7.44048ZM115.378 10.2764V15.4416H111.725V0.219374H117.767C118.83 0.197377 119.883 0.417409 120.848 0.862768C121.699 1.26078 122.417 1.89458 122.918 2.68871C123.407 3.50159 123.657 4.43611 123.637 5.3845C123.664 6.05944 123.534 6.73137 123.259 7.34838C122.984 7.96539 122.57 8.51095 122.05 8.94293C120.992 9.83434 119.531 10.2764 117.699 10.2764H115.378ZM106.276 7.50878C106.276 5.99914 106.028 4.84534 105.527 4.06177C105.306 3.69023 104.989 3.38485 104.609 3.17747C104.229 2.97009 103.801 2.86833 103.368 2.88281C101.537 2.88281 100.571 4.26305 100.467 7.02353V8.14498C100.467 9.63305 100.716 10.7797 101.205 11.5812C101.426 11.9635 101.747 12.2779 102.134 12.4903C102.521 12.7026 102.959 12.8047 103.401 12.7853C103.83 12.7985 104.255 12.6951 104.63 12.4863C105.005 12.2774 105.317 11.9708 105.531 11.5992C106.035 10.8192 106.28 9.68338 106.287 8.20609L106.276 7.50878ZM109.99 8.14498C110.02 9.50797 109.739 10.8599 109.17 12.0988C108.672 13.1911 107.86 14.1107 106.838 14.7407C105.798 15.365 104.603 15.6851 103.39 15.6644C102.185 15.6869 100.997 15.3785 99.9563 14.773C98.9474 14.1649 98.1371 13.277 97.6242 12.2174C97.0462 11.0263 96.7448 9.72024 96.7425 8.39659V7.52675C96.7148 6.16432 96.994 4.81309 97.5595 3.57293C98.0606 2.48148 98.8764 1.56414 99.9024 0.93825C100.951 0.333137 102.141 0.0145514 103.352 0.0145514C104.563 0.0145514 105.753 0.333137 106.802 0.93825C107.819 1.56927 108.633 2.48041 109.144 3.56215C109.722 4.77646 110.011 6.10723 109.99 7.45127V8.14498ZM95.5944 10.3016C95.5645 11.2952 95.2701 12.2629 94.7415 13.1052C94.2048 13.9291 93.4447 14.5835 92.5497 14.9923C91.5402 15.4507 90.4412 15.6791 89.3323 15.6608C87.3421 15.6608 85.7694 15.0102 84.6285 13.7055C83.4876 12.4007 82.9154 10.5604 82.9154 8.18811V7.43329C82.887 6.08649 83.1522 4.74962 83.6928 3.51542C84.1639 2.45151 84.9388 1.55004 85.9205 0.923872C86.9334 0.3057 88.1023 -0.00986457 89.2891 0.0144945C91.1246 0.0144945 92.6025 0.493745 93.723 1.45225C94.8387 2.42273 95.4721 3.76703 95.6232 5.47076H91.9847C91.9523 4.54341 91.722 3.88205 91.2901 3.47588C90.8582 3.06972 90.1852 2.86843 89.2891 2.86843C88.8941 2.83984 88.4989 2.92028 88.1466 3.10095C87.7943 3.28162 87.4986 3.55557 87.2917 3.89283C86.8706 4.57936 86.6475 5.66486 86.6295 7.16372V8.24203C86.6295 9.8631 86.8346 11.0241 87.2377 11.7214C87.6408 12.4187 88.3354 12.7709 89.3323 12.7709C90.0266 12.8174 90.7132 12.6033 91.2577 12.1707C91.7004 11.7753 91.9343 11.1427 91.9595 10.2836L95.5944 10.3016ZM81.1807 15.4416H77.5494V9.08671H72.1726V15.4416H68.5197V0.219374H72.1726V6.26512H77.5494V0.219374H81.1807V15.4416ZM63.0709 7.50878C63.0709 5.99914 62.8226 4.84534 62.3223 4.06177C62.1007 3.69049 61.7835 3.38532 61.4037 3.17798C61.024 2.97064 60.5955 2.86872 60.163 2.88281C58.3347 2.88281 57.369 4.26305 57.2658 7.02353V8.14498C57.2658 9.63305 57.5057 10.7785 57.9856 11.5812C58.2066 11.9638 58.5285 12.2784 58.9163 12.4907C59.3041 12.703 59.7428 12.8049 60.1845 12.7853C60.6139 12.7985 61.0387 12.6951 61.4139 12.4863C61.7891 12.2774 62.1005 11.9708 62.3151 11.5992C62.8154 10.8192 63.0637 9.68338 63.0709 8.20609V7.50878ZM66.785 8.14498C66.8153 9.50841 66.5335 10.8607 65.9608 12.0988C65.4658 13.1916 64.6549 14.1117 63.6323 14.7407C62.592 15.3641 61.3976 15.6841 60.1845 15.6644C58.9788 15.6868 57.79 15.3785 56.7476 14.773C55.7395 14.1649 54.9305 13.2769 54.4191 12.2174C53.8394 11.0269 53.5379 9.72043 53.5373 8.39659V7.52675C53.5102 6.16475 53.7881 4.81391 54.3507 3.57293C54.8529 2.4822 55.6684 1.56515 56.6936 0.93825C57.7429 0.333173 58.9333 0.0146265 60.145 0.0146265C61.3566 0.0146265 62.547 0.333173 63.5963 0.93825C64.6131 1.57037 65.4264 2.48121 65.9392 3.56215C66.5164 4.77646 66.8058 6.10723 66.785 7.45127V8.14498ZM46.451 9.42099H44.7271V15.4416H41.0742V0.219374H44.7271V6.10697H46.1271L49.0423 0.219374H53.4617L49.287 7.24639L53.9656 15.4416H49.6469L46.451 9.42099Z" fill="#14576D"/>
<path fill-rule="evenodd" clip-rule="evenodd" d="M183.052 20.7973H185.956V32.8349H183.052V25.2471L178.733 32.8349H175.825V20.7973H178.733V28.3958L183.052 20.7973ZM169.016 28.0759H167.641V32.8349H164.74V20.7973H167.648V25.4412H168.771L171.092 20.7686H174.612L171.29 26.3578L175.015 32.8277H171.578L169.016 28.0759ZM159.831 20.7973H162.732V32.8349H159.831V25.2471L155.513 32.8349H152.576V20.7973H155.484V28.3958L159.831 20.7973ZM150.665 32.8349H147.786V27.8028H143.503V32.8349H140.599V20.7973H143.503V25.5778H147.786V20.7973H150.665V32.8349ZM134.013 24.8014L135.981 20.7973H139.303L135.931 26.7676L139.389 32.8349H136.039L134.013 28.7625L131.983 32.8349H128.639L132.091 26.7676L128.729 20.7973H132.04L134.013 24.8014ZM127.25 27.7345H122.679V30.61H128.078V32.8385H119.772V20.7973H128.103V23.0402H122.679V25.5778H127.25V27.7345ZM118.292 23.0402H114.675V32.8349H111.768V23.0402H108.219V20.7973H118.296L118.292 23.0402ZM104.494 26.5627C104.494 25.3694 104.296 24.4564 103.897 23.8382C103.72 23.5432 103.467 23.301 103.164 23.1367C102.862 22.9723 102.521 22.8919 102.176 22.9036C100.72 22.9036 99.951 23.9951 99.8695 26.1781V27.0659C99.8695 28.2413 100.067 29.1506 100.456 29.7833C100.632 30.084 100.886 30.3315 101.191 30.4992C101.497 30.667 101.842 30.7487 102.191 30.7358C102.532 30.7467 102.87 30.6653 103.169 30.5002C103.468 30.3351 103.717 30.0923 103.889 29.7976C104.289 29.1794 104.483 28.2808 104.49 27.1162L104.494 26.5627ZM107.449 27.0659C107.471 28.141 107.247 29.207 106.794 30.1822C106.397 31.0465 105.752 31.7734 104.94 32.2706C104.109 32.7597 103.159 33.0086 102.194 32.9894C101.234 33.0022 100.289 32.7537 99.4592 32.2706C98.6573 31.7906 98.0131 31.0873 97.6057 30.2469C97.1457 29.3066 96.9057 28.2742 96.9039 27.2277V26.5771C96.8821 25.5005 97.1035 24.4329 97.5517 23.4536C97.9523 22.5893 98.6012 21.8636 99.416 21.3688C100.253 20.892 101.2 20.6412 102.164 20.6412C103.127 20.6412 104.074 20.892 104.912 21.3688C105.719 21.8677 106.366 22.5875 106.776 23.4428C107.235 24.4026 107.466 25.4558 107.449 26.5196V27.0659ZM96.1914 23.0402H92.5924V32.8349H89.6845V23.0402H86.1323V20.7973H96.2094L96.1914 23.0402ZM82.3967 26.5627C82.3967 25.3694 82.1987 24.4564 81.7992 23.8382C81.6221 23.5432 81.3692 23.301 81.0667 23.1367C80.7641 22.9723 80.4231 22.8919 80.0789 22.9036C78.6202 22.9036 77.8512 23.9951 77.772 26.1781V27.0659C77.772 28.2413 77.97 29.1506 78.3586 29.7833C78.5358 30.086 78.7923 30.3346 79.1005 30.5025C79.4088 30.6703 79.757 30.751 80.1077 30.7358C80.4492 30.7467 80.7873 30.6653 81.0863 30.5002C81.3854 30.3351 81.6341 30.0923 81.8064 29.7976C82.2059 29.1794 82.4002 28.2808 82.4074 27.1162L82.3967 26.5627ZM85.3514 27.0659C85.374 28.141 85.15 29.207 84.6964 30.1822C84.2995 31.0465 83.6544 31.7734 82.8429 32.2706C82.012 32.7597 81.0613 33.0086 80.0969 32.9894C79.1379 33.0021 78.1936 32.7535 77.3653 32.2706C76.5616 31.7918 75.9159 31.0883 75.5083 30.2469C75.0486 29.3102 74.8075 28.2816 74.8029 27.2384V26.5771C74.781 25.5005 75.0025 24.4329 75.4507 23.4536C75.8527 22.5891 76.5029 21.8635 77.3186 21.3688C78.155 20.8919 79.1014 20.6411 80.0645 20.6411C81.0277 20.6411 81.9741 20.8919 82.8105 21.3688C83.6187 21.8667 84.266 22.5868 84.6748 23.4428C85.1343 24.4026 85.3647 25.4558 85.3478 26.5196L85.3514 27.0659ZM67.2272 27.1737V30.6064H68.7207C69.2364 30.6323 69.7413 30.4526 70.1243 30.1068C70.2944 29.9409 70.4281 29.7415 70.5167 29.5212C70.6053 29.3008 70.647 29.0645 70.6389 28.8272C70.6475 28.6023 70.6061 28.3784 70.5177 28.1715C70.4294 27.9645 70.2963 27.7797 70.1279 27.6302C69.7235 27.3011 69.2088 27.1379 68.6883 27.1737H67.2272ZM72.4492 23.0402H67.2236V24.9416H68.7207C69.5921 24.9298 70.4563 25.1 71.258 25.4412C71.9429 25.7277 72.5303 26.2057 72.9495 26.8179C73.439 27.589 73.6355 28.5098 73.5035 29.4133C73.3714 30.3168 72.9195 31.143 72.2297 31.7422C71.3491 32.4826 70.1663 32.8517 68.6811 32.8493H64.2976V20.7973H72.4456L72.4492 23.0402ZM59.5902 26.5627C59.5902 25.3694 59.3959 24.4564 58.9964 23.8382C58.8193 23.5432 58.5663 23.301 58.2638 23.1367C57.9613 22.9723 57.6203 22.8919 57.2761 22.9036C55.8173 22.9036 55.0484 23.9951 54.9692 26.1781V27.0659C54.9692 28.2413 55.1671 29.1506 55.5558 29.7833C55.7327 30.0862 55.9891 30.3351 56.2974 30.503C56.6057 30.6709 56.9541 30.7514 57.3049 30.7358C57.6464 30.7467 57.9845 30.6653 58.2835 30.5002C58.5825 30.3351 58.8313 30.0923 59.0036 29.7976C59.4031 29.1794 59.601 28.2808 59.6046 27.1162L59.5902 26.5627ZM62.5485 27.0659C62.5661 28.1417 62.3384 29.2073 61.8827 30.1822C61.4835 31.046 60.8374 31.7726 60.0257 32.2706C59.1959 32.7592 58.2465 33.0081 57.2833 32.9894C56.3231 33.0025 55.3775 32.754 54.5481 32.2706C53.7454 31.7916 53.101 31.088 52.6947 30.2469C52.2252 29.3093 51.9788 28.276 51.9749 27.2277V26.5771C51.953 25.5005 52.1744 24.4329 52.6227 23.4536C53.0221 22.5885 53.6713 21.8625 54.4869 21.3688C55.3233 20.8919 56.2698 20.6411 57.2329 20.6411C58.196 20.6411 59.1425 20.8919 59.9789 21.3688C60.799 21.8594 61.46 22.5757 61.8827 23.432C62.3386 24.3965 62.5652 25.4532 62.5449 26.5196L62.5485 27.0659ZM43.9529 26.5196H45.8567C46.3246 26.5525 46.7869 26.4016 47.1451 26.099C47.2975 25.9422 47.4156 25.7555 47.4918 25.5507C47.568 25.3458 47.6007 25.1274 47.5878 24.9093C47.6141 24.4153 47.4492 23.9301 47.1271 23.5542C46.9693 23.3835 46.7761 23.2491 46.5611 23.1604C46.3461 23.0716 46.1143 23.0306 45.8819 23.0402H43.9457L43.9529 26.5196ZM43.9529 28.7625V32.8457H41.0449V20.7973H45.8567C46.7018 20.7805 47.5396 20.955 48.3076 21.3077C48.984 21.6187 49.5563 22.1179 49.9559 22.7455C50.3491 23.3862 50.5513 24.1255 50.5389 24.8769C50.5615 25.4112 50.4603 25.9436 50.243 26.4324C50.0258 26.9212 49.6984 27.3533 49.2865 27.6949C48.4479 28.4138 47.2891 28.7517 45.8243 28.7517L43.9529 28.7625Z" fill="#14576D"/>
</g>
</g>
<defs>
<clipPath id="clip0_4736_405">
<rect width="186" height="33" fill="white"/>
</clipPath>
</defs>
</svg>
