<svg width="30" height="21" viewBox="0 0 30 21" fill="none" xmlns="http://www.w3.org/2000/svg">
<path d="M11.3407 19.2385C11.4984 17.4959 11.6473 15.7459 11.8137 14.0034C11.8225 13.8784 11.9451 13.7313 12.059 13.6431C13.4517 12.5769 14.862 11.5108 16.2636 10.452C18.5323 8.73883 20.801 7.033 23.061 5.32718C23.569 4.94484 24.0771 4.5772 24.5676 4.18015C24.6815 4.08457 24.7253 3.92281 24.7954 3.79781C24.6114 3.76105 24.4012 3.65811 24.2435 3.69488C23.9457 3.7684 23.6654 3.9081 23.4026 4.04781C20.6521 5.48893 17.9104 6.93742 15.1599 8.3859C12.8123 9.62115 10.456 10.8564 8.09966 12.0843C7.96827 12.1505 7.74052 12.1725 7.59161 12.1358C5.41048 11.5843 3.22935 11.0182 1.05698 10.4447C0.81171 10.3785 0.575202 10.2682 0.356213 10.1505C-0.0730051 9.90791 -0.125562 9.51821 0.259858 9.22411C0.487606 9.04764 0.759153 8.88588 1.04822 8.7903C2.79137 8.20943 4.54328 7.64328 6.29519 7.07712C9.98296 5.88598 13.6707 4.7022 17.3673 3.51106C20.4068 2.53315 23.4464 1.55524 26.486 0.584685C27.0291 0.408221 27.5546 0.209698 28.1152 0.0773491C28.4481 -0.00353059 28.8335 -0.0255887 29.1664 0.0332329C29.692 0.121465 30.0248 0.547922 29.9986 1.09202C29.981 1.56259 29.8934 2.04052 29.7796 2.50374C28.9912 5.6654 28.1853 8.82706 27.3794 11.9887C26.8276 14.1578 26.2757 16.3195 25.7151 18.4885C25.5662 19.0547 25.4348 19.6208 25.2246 20.1649C24.9355 20.9223 24.2172 21.2017 23.3588 20.8487C22.7544 20.6061 22.2113 20.2458 21.6682 19.9149C19.9251 18.8561 18.1994 17.7753 16.465 16.7092C16.4037 16.6724 16.3336 16.643 16.2723 16.5989C16.0709 16.4445 15.9132 16.4812 15.7205 16.6356C14.6956 17.4738 13.662 18.3047 12.6196 19.1282C12.4006 19.3047 12.1553 19.4738 11.8838 19.5767C11.4108 19.7532 11.3144 19.6796 11.3232 19.2385H11.3407Z" fill="#1C647A"/>
</svg>
